<?xml version="1.0" encoding="UTF-8"?>
<svg version="1.1" xmlns="http://www.w3.org/2000/svg" width="1080" height="1080">
<path d="M0 0 C356.4 0 712.8 0 1080 0 C1080 356.4 1080 712.8 1080 1080 C723.6 1080 367.2 1080 0 1080 C0 723.6 0 367.2 0 0 Z " fill="#003B95" transform="translate(0,0)"/>
<path d="M0 0 C2.11168398 -0.00542575 4.22336416 -0.01255094 6.33503723 -0.02124023 C12.04997243 -0.03942364 17.7646177 -0.03242624 23.47955775 -0.01972389 C29.47218379 -0.00956911 35.46478566 -0.01899657 41.45741272 -0.02526855 C51.52048175 -0.03253829 61.58343321 -0.02297546 71.64648438 -0.00390625 C83.26406753 0.01785518 94.88136979 0.01081355 106.49894613 -0.01121187 C116.48991954 -0.02939207 126.48080862 -0.03191119 136.47179323 -0.0214572 C142.43173705 -0.01523594 148.39154906 -0.0143489 154.3514843 -0.02760315 C159.95686229 -0.03919889 165.5618799 -0.03106775 171.16721916 -0.00802612 C173.21861169 -0.00275867 175.27003479 -0.00421896 177.32141495 -0.01307678 C192.94646252 -0.07430009 204.70161857 1.26974615 216.34008789 12.58789062 C224.4310386 21.14075564 227.36098936 29.41730727 227.35835266 41.04211426 C227.36202935 41.91094537 227.36570604 42.77977649 227.36949414 43.67493582 C227.38052399 46.59189026 227.38437368 49.50880908 227.38818359 52.42578125 C227.3944489 54.51524977 227.40109576 56.60471717 227.40809631 58.69418335 C227.42913553 65.56239039 227.43950027 72.43059764 227.44946289 79.29882812 C227.45351084 81.6648103 227.45762778 84.03079236 227.46181297 86.39677429 C227.48086628 97.51546594 227.49509563 108.63415095 227.50342494 119.75285578 C227.51319079 132.57688861 227.53949283 145.40074855 227.57992584 158.22472048 C227.61011979 168.14253016 227.62489704 178.06029038 227.62820596 187.97814512 C227.63055317 193.89855845 227.63947072 199.81878709 227.66466713 205.739151 C227.68800933 211.31404059 227.69215625 216.88862471 227.68190575 222.46355057 C227.68141173 224.50324649 227.68769224 226.54295776 227.70146179 228.58260727 C227.80221387 244.39929216 226.54197245 256.7748714 215.17602539 268.64257812 C208.2234478 275.31312876 199.65820653 279.64560614 189.87711716 279.64062595 C189.01223765 279.642617 188.14735815 279.64460805 187.25627017 279.64665943 C185.8379873 279.64229017 185.8379873 279.64229017 184.39105225 279.63783264 C183.38308067 279.63868707 182.37510909 279.63954149 181.33659291 279.64042181 C177.94939363 279.64207268 174.56224357 279.63656161 171.17504883 279.63110352 C168.75084433 279.63082153 166.32663975 279.63097959 163.9024353 279.63154602 C158.6783068 279.63177395 153.45418949 279.62893225 148.23006439 279.62330818 C140.67685156 279.61518202 133.12364477 279.61257681 125.57042804 279.61132019 C113.31591019 279.60913143 101.061399 279.6024761 88.80688477 279.59301758 C76.90258823 279.58383892 64.9982935 279.5767603 53.09399414 279.57250977 C52.36024412 279.57224704 51.6264941 279.57198432 50.87050924 279.57171363 C47.18951026 279.5704086 43.50851127 279.56914489 39.82751226 279.56790173 C9.28873062 279.5575346 -21.25004294 279.53984673 -51.78881836 279.51757812 C-51.90299792 248.12813955 -51.99142674 216.73875613 -52.04414501 185.34915905 C-52.05039818 181.63934788 -52.05686983 177.92953712 -52.06347656 174.21972656 C-52.06478811 173.48120182 -52.06609967 172.74267709 -52.06745096 171.98177281 C-52.08917945 160.03967452 -52.12858676 148.09769716 -52.17458234 136.15567049 C-52.22141837 123.89272552 -52.24912882 111.62984368 -52.25926083 99.36681294 C-52.26610525 91.80602837 -52.287685 84.24558567 -52.32840069 76.68490639 C-52.35807329 70.87736166 -52.36107452 65.07003367 -52.35435677 59.26242828 C-52.35572825 56.88731284 -52.36561964 54.51218402 -52.38484573 52.137146 C-52.50363588 36.70092738 -52.06273445 24.82341095 -41.73022461 12.48242188 C-38.4543786 9.16702843 -34.92898658 6.64458206 -30.78881836 4.51757812 C-30.22113959 4.19014366 -29.65346083 3.8627092 -29.06857967 3.52535248 C-19.94459821 -0.98363471 -9.9173545 -0.0427768 0 0 Z " fill="#006CE4" transform="translate(792.788818359375,690.482421875)"/>
<path d="M0 0 C7.04690789 4.85305921 12.93120999 12.09096951 14.6328125 20.61328125 C16.6077258 45.31537147 -0.11160836 71.90280137 -15.70019531 90.20751953 C-20.32342568 94.98219571 -24.63341453 95.90298691 -31.12426758 96.18408203 C-36.68012527 95.80696665 -41.98860656 95.06621702 -47.3671875 93.61328125 C-44.19384822 87.72558941 -40.43764232 82.46003657 -36.4296875 77.11328125 C-35.21177781 75.47820844 -33.99432219 73.8427973 -32.77734375 72.20703125 C-32.20000488 71.43230469 -31.62266602 70.65757812 -31.02783203 69.859375 C-28.76892526 66.80410563 -26.56341821 63.71384225 -24.3671875 60.61328125 C-25.18960938 60.6596875 -26.01203125 60.70609375 -26.859375 60.75390625 C-37.2144505 61.08871239 -44.23519072 59.51674761 -52.2421875 52.80078125 C-58.20980303 47.12786278 -61.85585333 40.63149104 -62.703125 32.31640625 C-62.8314141 20.97565013 -60.38986925 11.92248735 -52.3671875 3.61328125 C-37.01324541 -9.34160739 -17.02820736 -9.97526999 0 0 Z " fill="#FCFDFE" transform="translate(841.3671875,775.38671875)"/>
<path d="M0 0 C0.70769531 0.3609375 1.41539062 0.721875 2.14453125 1.09375 C8.17822962 4.77443746 11.80999711 11.42999133 14 18 C14.88621599 27.41422884 13.84390893 35.89528895 8.046875 43.59375 C5.78120201 46.16045647 3.43039405 48.58914288 1 51 C0.23945312 51.78503906 -0.52109375 52.57007813 -1.3046875 53.37890625 C-5.99976723 58.17958466 -10.90292852 62.63108158 -16 67 C-18.64 69.31 -21.28 71.62 -24 74 C-11.46 74.33 1.08 74.66 14 75 C14 81.6 14 88.2 14 95 C-9.43 95 -32.86 95 -57 95 C-57 76 -57 76 -54 71.75 C-52.69594909 70.79213426 -51.36131462 69.87457307 -50 69 C-48.75563303 67.93416106 -47.5269135 66.84984619 -46.3125 65.75 C-45.64863281 65.17765625 -44.98476563 64.6053125 -44.30078125 64.015625 C-41.49227263 61.55519979 -38.74528365 59.03035346 -36 56.5 C-32.55933565 53.32938154 -29.10002579 50.18773499 -25.5625 47.125 C-16.39925293 39.72790516 -16.39925293 39.72790516 -11.76171875 29.5390625 C-11.45654566 23.60839495 -11.45654566 23.60839495 -13.8125 18.375 C-18.05133442 15.71058979 -22.13277308 15.6387605 -27 16 C-29.86069302 16.52541667 -29.86069302 16.52541667 -32 18 C-33.29042763 20.26601865 -33.29042763 20.26601865 -34 23 C-34.66296868 25.00122887 -35.32919398 27.00138455 -36 29 C-38.91697011 28.85895309 -41.8334802 28.71235186 -44.75 28.5625 C-45.575 28.52318359 -46.4 28.48386719 -47.25 28.44335938 C-48.44882812 28.38051758 -48.44882812 28.38051758 -49.671875 28.31640625 C-50.4050293 28.27974854 -51.13818359 28.24309082 -51.89355469 28.20532227 C-54.01177605 27.99885215 -55.9519456 27.56867914 -58 27 C-58.8704687 18.99168797 -55.20902212 13.19080973 -50.75 6.75 C-36.74705478 -7.25294522 -17.31745632 -8.89341551 0 0 Z " fill="#FCFDFE" transform="translate(969,774)"/>
<path d="M0 0 C6.27 0 12.54 0 19 0 C24.445 15.345 24.445 15.345 30 31 C33.02309021 23.7445835 35.88191251 16.75415127 38.25 9.3125 C40.87544696 1.12455304 40.87544696 1.12455304 42 0 C47.94 0 53.88 0 60 0 C60 17.16 60 34.32 60 52 C56.04 52 52.08 52 48 52 C47.67 41.11 47.34 30.22 47 19 C44.3084375 26.3321875 44.3084375 26.3321875 41.5625 33.8125 C40.99732666 35.35139893 40.43215332 36.89029785 39.84985352 38.47583008 C39.40569092 39.68650146 38.96152832 40.89717285 38.50390625 42.14453125 C38.27151245 42.77693726 38.03911865 43.40934326 37.79968262 44.06091309 C36.83274461 46.69787396 35.88825381 49.33523856 35 52 C31.7 52 28.4 52 25 52 C21.04 40.78 17.08 29.56 13 18 C12.67 29.22 12.34 40.44 12 52 C8.04 52 4.08 52 0 52 C0 34.84 0 17.68 0 0 Z " fill="#F9FBFC" transform="translate(65,337)"/>
<path d="M0 0 C6.6825 -0.12375 6.6825 -0.12375 13.5 -0.25 C15.58344727 -0.30462402 15.58344727 -0.30462402 17.70898438 -0.36035156 C24.96783002 -0.42527488 29.88689424 -0.03583681 36 4 C39.07097328 7.45484494 39.47445632 10.59948609 39.2890625 15.07421875 C38.69375343 19.04026428 36.82646223 21.31521701 33.8125 23.8125 C33.214375 24.204375 32.61625 24.59625 32 25 C32.928125 25.4125 33.85625 25.825 34.8125 26.25 C39.49372385 28.82008368 39.49372385 28.82008368 41 32 C41.77363566 37.63034842 41.31827132 42.24381111 38 47 C32.39637189 51.41136681 28.4732811 52.129424 21.484375 52.09765625 C20.35741211 52.09515869 19.23044922 52.09266113 18.06933594 52.09008789 C15.93126465 52.07643188 15.93126465 52.07643188 13.75 52.0625 C9.2125 52.041875 4.675 52.02125 0 52 C0 34.84 0 17.68 0 0 Z " fill="#F7F9FC" transform="translate(257,429)"/>
<path d="M0 0 C2.41534564 1.08453755 3.9518276 2.27522324 6 4 C6.33 3.01 6.66 2.02 7 1 C10.96 1 14.92 1 19 1 C19.09952633 6.38935067 19.17177659 11.7781561 19.21972656 17.16821289 C19.23973374 18.99838593 19.26694851 20.82849592 19.30175781 22.65844727 C19.35076003 25.30240512 19.37307761 27.94551165 19.390625 30.58984375 C19.41127014 31.39646957 19.43191528 32.2030954 19.45318604 33.03416443 C19.45569892 39.52282099 17.91534251 45.53197068 13.6585083 50.59580994 C7.75031019 55.98461073 0.78570769 56.43226904 -6.84375 56.3359375 C-11.90366751 55.79738192 -16.36973721 54.04169068 -21 52 C-21 48.00095031 -19.27413033 46.19799578 -17 43 C-14.65237261 43.54176017 -12.50446196 44.19145788 -10.25 45.0625 C-6.12947651 46.25111255 -3.28815889 46.41498312 1 46 C3.58333333 44.58333333 3.58333333 44.58333333 5 42 C5.80765878 38.35278304 5.80765878 38.35278304 6 35 C5.21625 35.495 4.4325 35.99 3.625 36.5 C-1.06016111 38.43868736 -4.99309963 38.74206504 -10 38 C-15.86176015 34.96056881 -19.89058128 31.28337491 -22 25 C-22.91062277 18.05051043 -22.64478752 12.37025652 -18.4375 6.62109375 C-12.91113894 0.38892027 -8.08985575 -0.95247537 0 0 Z " fill="#F7F9FB" transform="translate(426,443)"/>
<path d="M0 0 C3.96 0 7.92 0 12 0 C12 18.48 12 36.96 12 56 C8.37 56 4.74 56 1 56 C0.67 54.68 0.34 53.36 0 52 C-1.175625 52.9590625 -1.175625 52.9590625 -2.375 53.9375 C-7.08440065 57.63774337 -11.13972041 57.64913866 -17 57 C-23.14924017 53.92537992 -26.80718922 49.45712793 -29 43 C-29.91062277 36.05051043 -29.64478752 30.37025652 -25.4375 24.62109375 C-22.50229495 21.31101196 -19.34826434 18.25763332 -14.828125 17.76171875 C-13.55195313 17.72498047 -13.55195313 17.72498047 -12.25 17.6875 C-10.98929687 17.63142578 -10.98929687 17.63142578 -9.703125 17.57421875 C-7 18 -7 18 -1 22 C-0.67 14.74 -0.34 7.48 0 0 Z " fill="#F9FAFC" transform="translate(385,425)"/>
<path d="M0 0 C3.96 0 7.92 0 12 0 C12 18.48 12 36.96 12 56 C8.37 56 4.74 56 1 56 C0.67 54.68 0.34 53.36 0 52 C-1.175625 52.9590625 -1.175625 52.9590625 -2.375 53.9375 C-7.08440065 57.63774337 -11.13972041 57.64913866 -17 57 C-23.14924017 53.92537992 -26.80718922 49.45712793 -29 43 C-29.91062277 36.05051043 -29.64478752 30.37025652 -25.4375 24.62109375 C-22.50229495 21.31101196 -19.34826434 18.25763332 -14.828125 17.76171875 C-13.55195313 17.72498047 -13.55195313 17.72498047 -12.25 17.6875 C-10.98929688 17.63142578 -10.98929688 17.63142578 -9.703125 17.57421875 C-7 18 -7 18 -1 22 C-0.67 14.74 -0.34 7.48 0 0 Z " fill="#F9FAFC" transform="translate(217,425)"/>
<path d="M0 0 C3.96 0 7.92 0 12 0 C12 18.48 12 36.96 12 56 C8.37 56 4.74 56 1 56 C0.67 54.68 0.34 53.36 0 52 C-1.175625 52.9590625 -1.175625 52.9590625 -2.375 53.9375 C-7.08440065 57.63774337 -11.13972041 57.64913866 -17 57 C-23.14924017 53.92537992 -26.80718922 49.45712793 -29 43 C-29.91062277 36.05051043 -29.64478752 30.37025652 -25.4375 24.62109375 C-22.50229495 21.31101196 -19.34826434 18.25763332 -14.828125 17.76171875 C-13.55195312 17.72498047 -13.55195312 17.72498047 -12.25 17.6875 C-10.98929688 17.63142578 -10.98929688 17.63142578 -9.703125 17.57421875 C-7 18 -7 18 -1 22 C-0.67 14.74 -0.34 7.48 0 0 Z " fill="#F9FAFC" transform="translate(662,333)"/>
<path d="M0 0 C1.36219564 0.96031288 2.70459188 1.95133629 4 3 C2.33248852 6.94139078 -0.22710649 9.7892812 -3 13 C-4.7015625 12.01 -4.7015625 12.01 -6.4375 11 C-11.00867004 8.73464139 -14.96202343 8.07637096 -20 9 C-24.51500206 11.25750103 -26.78235125 13.51386814 -29 18 C-29.81276469 23.85044133 -29.8199032 29.23872646 -27.3125 34.625 C-23.9805323 38.04702088 -21.50924061 39.86730006 -16.66796875 40.29296875 C-15.51941406 40.25816406 -14.37085937 40.22335937 -13.1875 40.1875 C-12.02605469 40.16042969 -10.86460938 40.13335937 -9.66796875 40.10546875 C-8.78753906 40.07066406 -7.90710938 40.03585937 -7 40 C-7 37.03 -7 34.06 -7 31 C-10.3 31 -13.6 31 -17 31 C-17 27.37 -17 23.74 -17 20 C-9.74 20 -2.48 20 5 20 C5 29.24 5 38.48 5 48 C-6.53639428 51.84546476 -17.92038623 54.83032039 -29.4375 49.4375 C-36.19663729 45.62991211 -41.10411583 40.93150813 -43.5234375 33.42578125 C-45.20493322 24.86669238 -45.00389207 16.73949345 -40.54296875 9.1171875 C-30.98338072 -4.00001937 -14.4882824 -6.48370649 0 0 Z " fill="#F8FAFC" transform="translate(107,430)"/>
<path d="M0 0 C4.29 0 8.58 0 13 0 C13 6.27 13 12.54 13 19 C19.6 19 26.2 19 33 19 C33 12.73 33 6.46 33 0 C37.29 0 41.58 0 46 0 C46 17.16 46 34.32 46 52 C41.71 52 37.42 52 33 52 C33 44.74 33 37.48 33 30 C26.4 30 19.8 30 13 30 C13 37.26 13 44.52 13 52 C8.71 52 4.42 52 0 52 C0 34.84 0 17.68 0 0 Z " fill="#F8F9FC" transform="translate(489,337)"/>
<path d="M0 0 C0.83853516 -0.02449219 1.67707031 -0.04898438 2.54101562 -0.07421875 C8.48948413 -0.10208043 11.92873481 0.95251888 16.8125 4.375 C19.26148767 7.35637629 19.15864482 10.73557951 19.08203125 14.46875 C18.71478464 17.06608832 17.64563154 18.54186846 15.8125 20.375 C16.84643396 22.60193469 17.78911512 24.34891686 19.4375 26.1875 C21.44931543 29.38811545 21.19693748 31.65877104 20.8125 35.375 C19.27375933 39.99122202 17.29451245 42.22951504 13.02124023 44.56567383 C8.60898813 46.1824104 4.0083922 45.78053608 -0.625 45.625 C-2.50916217 45.57899799 -4.39336141 45.53449895 -6.27758789 45.49121094 C-8.73254395 45.43310547 -8.73254395 45.43310547 -11.1875 45.375 C-11.23684154 39.28777254 -11.27319167 33.2006608 -11.29736328 27.11328125 C-11.30743712 25.04132053 -11.32109666 22.96937407 -11.33837891 20.89746094 C-11.36256664 17.92379236 -11.37396908 14.9503113 -11.3828125 11.9765625 C-11.39313507 11.04631256 -11.40345764 10.11606262 -11.41409302 9.15762329 C-11.41424408 8.29688202 -11.41439514 7.43614075 -11.41455078 6.54931641 C-11.418992 5.78986725 -11.42343323 5.03041809 -11.42800903 4.24795532 C-10.7003658 -1.41853984 -4.29059547 0.00644718 0 0 Z " fill="#F9FBFC" transform="translate(71.1875,857.625)"/>
<path d="M0 0 C5.40941158 2.72889815 8.75669916 6.79036046 11.125 12.375 C12.11263201 19.12764679 11.13533094 24.81747348 7.125 30.375 C3.20370278 34.70384777 -1.15417216 36.98698071 -6.97265625 37.59375 C-13.17090814 37.8489096 -18.93005171 37.078345 -23.63671875 32.7578125 C-28.96871754 26.74156205 -30.34434179 22.35270587 -30.1875 14.28515625 C-29.61000124 8.90719904 -26.75367914 6.04099406 -22.875 2.625 C-15.79935022 -2.68173734 -8.30449024 -3.33848854 0 0 Z " fill="#F8FAFC" transform="translate(148.875,444.625)"/>
<path d="M0 0 C5.40941158 2.72889815 8.75669916 6.79036046 11.125 12.375 C12.11263201 19.12764679 11.13533094 24.81747348 7.125 30.375 C3.20370278 34.70384777 -1.15417216 36.98698071 -6.97265625 37.59375 C-13.17090814 37.8489096 -18.93005171 37.078345 -23.63671875 32.7578125 C-28.96871754 26.74156205 -30.34434179 22.35270587 -30.1875 14.28515625 C-29.61000124 8.90719904 -26.75367914 6.04099406 -22.875 2.625 C-15.79935022 -2.68173734 -8.30449024 -3.33848854 0 0 Z " fill="#F8FAFC" transform="translate(572.875,352.625)"/>
<path d="M0 0 C5.40941158 2.72889815 8.75669916 6.79036046 11.125 12.375 C12.11263201 19.12764679 11.13533094 24.81747348 7.125 30.375 C3.20370278 34.70384777 -1.15417216 36.98698071 -6.97265625 37.59375 C-13.17090814 37.8489096 -18.93005171 37.078345 -23.63671875 32.7578125 C-28.96871754 26.74156205 -30.34434179 22.35270587 -30.1875 14.28515625 C-29.61000124 8.90719904 -26.75367914 6.04099406 -22.875 2.625 C-15.79935022 -2.68173734 -8.30449024 -3.33848854 0 0 Z " fill="#F8FAFC" transform="translate(269.875,352.625)"/>
<path d="M0 0 C0.7321875 0.13792969 1.464375 0.27585937 2.21875 0.41796875 C2.54875 0.08796875 2.87875 -0.24203125 3.21875 -0.58203125 C5.21833364 -0.62283908 7.21920254 -0.62457481 9.21875 -0.58203125 C9.31797625 4.43500054 9.39038587 9.45145527 9.43847656 14.46923828 C9.45853369 16.17441769 9.48578657 17.87952881 9.52050781 19.58447266 C9.56928861 22.04216399 9.59177719 24.49894241 9.609375 26.95703125 C9.63002014 27.71351959 9.65066528 28.47000793 9.67193604 29.24942017 C9.67411253 34.43840881 8.58335789 37.26828569 5.21875 41.41796875 C1.15889477 45.47782398 -2.32154878 45.70064355 -7.84375 45.79296875 C-12.32820042 45.74427765 -15.71296892 45.34059686 -19.78125 43.41796875 C-19.03125 37.66796875 -19.03125 37.66796875 -16.78125 35.41796875 C-13.72603571 35.60502269 -10.75291652 36.06594993 -7.7265625 36.51953125 C-4.6707129 36.70728119 -4.6707129 36.70728119 -2.4609375 34.56640625 C-0.75497628 32.53090404 -0.75497628 32.53090404 0.21875 30.41796875 C-0.461875 30.74796875 -1.1425 31.07796875 -1.84375 31.41796875 C-6.9367398 33.15175251 -10.48672984 32.94455322 -15.46875 30.91796875 C-19.53568929 28.28911385 -21.48182539 25.03899948 -22.78125 20.41796875 C-23.51839505 15.06036813 -23.49757719 10.87715376 -21.09375 5.98046875 C-20.330625 5.13484375 -19.5675 4.28921875 -18.78125 3.41796875 C-17.7603125 2.24234375 -17.7603125 2.24234375 -16.71875 1.04296875 C-11.58355839 -1.79777555 -5.63880091 -1.18002997 0 0 Z " fill="#F9FAFC" transform="translate(273.78125,870.58203125)"/>
<path d="M0 0 C11.55 0 23.1 0 35 0 C35 3.63 35 7.26 35 11 C27.74 11 20.48 11 13 11 C13 14.3 13 17.6 13 21 C19.6 21 26.2 21 33 21 C33 24.63 33 28.26 33 32 C26.4 32 19.8 32 13 32 C13 38.6 13 45.2 13 52 C8.71 52 4.42 52 0 52 C0 34.84 0 17.68 0 0 Z " fill="#F9FAFC" transform="translate(177,337)"/>
<path d="M0 0 C6.75 0 6.75 0 10 3 C10.474375 2.505 10.94875 2.01 11.4375 1.5 C15.2304651 -0.72027225 18.70552033 -0.70462102 23 0 C25.35249001 1.10677229 26.96866157 2.33326077 29 4 C29.433125 3.525625 29.86625 3.05125 30.3125 2.5625 C33.62674204 -0.50624263 37.493873 -0.33088235 41.7734375 -0.2890625 C45.10056822 0.14288079 46.7755761 1.56703636 49 4 C50.09911549 7.29734646 50.1139456 9.72958745 50.09765625 13.19921875 C50.09443359 14.40771484 50.09121094 15.61621094 50.08789062 16.86132812 C50.07532227 18.7552832 50.07532227 18.7552832 50.0625 20.6875 C50.05798828 21.96173828 50.05347656 23.23597656 50.04882812 24.54882812 C50.03702873 27.69926564 50.02056597 30.84960949 50 34 C44.375 34.25 44.375 34.25 41 32 C40.56762695 29.75341797 40.56762695 29.75341797 40.48828125 26.9921875 C40.45283203 26.00605469 40.41738281 25.01992188 40.38085938 24.00390625 C40.34702148 22.45509766 40.34702148 22.45509766 40.3125 20.875 C40.27833984 19.83472656 40.24417969 18.79445313 40.20898438 17.72265625 C40.12632942 15.14854493 40.05723845 12.57478171 40 10 C37.12586875 9.66602213 37.12586875 9.66602213 34 10 C31.27462805 12.80798317 30.61191115 14.90837211 30.48828125 18.765625 C30.45283203 19.65507813 30.41738281 20.54453125 30.38085938 21.4609375 C30.35830078 22.38132812 30.33574219 23.30171875 30.3125 24.25 C30.27833984 25.18585937 30.24417969 26.12171875 30.20898438 27.0859375 C30.12668898 29.39020846 30.06166287 31.69508463 30 34 C26.7 34 23.4 34 20 34 C19.505 22.12 19.505 22.12 19 10 C15.1850414 8.55499173 15.1850414 8.55499173 12.796875 10.265625 C10.00438647 14.51506406 10.3229703 18.76811863 10.25 23.75 C10.22035156 24.73355469 10.19070313 25.71710937 10.16015625 26.73046875 C10.08959108 29.1532064 10.04251565 31.57660783 10 34 C6.7 34 3.4 34 0 34 C0 22.78 0 11.56 0 0 Z " fill="#F0F3F8" transform="translate(369,870)"/>
<path d="M0 0 C1.65 0 3.3 0 5 0 C5 17.49 5 34.98 5 53 C3.35 53 1.7 53 0 53 C-0.33 52.01 -0.66 51.02 -1 50 C-2.670625 51.0209375 -2.670625 51.0209375 -4.375 52.0625 C-9.41107703 54.5716093 -13.61993343 54.39015143 -19 53 C-23.30796778 50.92579329 -26.10342921 48.43771936 -28.30078125 44.1171875 C-29.99264375 38.99434127 -30.060198 33.64614993 -28.046875 28.62109375 C-25.72686032 24.63448625 -23.40570917 21.66437902 -19 20 C-11.10766315 18.14297956 -8.89287415 19.05356292 -1 23 C-0.67 15.41 -0.34 7.82 0 0 Z " fill="#F1F4F9" transform="translate(340,207)"/>
<path d="M0 0 C1.65 0 3.3 0 5 0 C5 17.49 5 34.98 5 53 C3.35 53 1.7 53 0 53 C-0.33 52.01 -0.66 51.02 -1 50 C-2.670625 51.0209375 -2.670625 51.0209375 -4.375 52.0625 C-9.41107703 54.5716093 -13.61993343 54.39015143 -19 53 C-23.30796778 50.92579329 -26.10342921 48.43771936 -28.30078125 44.1171875 C-29.99264375 38.99434127 -30.060198 33.64614993 -28.046875 28.62109375 C-25.72686032 24.63448625 -23.40570917 21.66437902 -19 20 C-11.10766315 18.14297956 -8.89287415 19.05356292 -1 23 C-0.67 15.41 -0.34 7.82 0 0 Z " fill="#F1F4F9" transform="translate(255,207)"/>
<path d="M0 0 C4.62 0 9.24 0 14 0 C14.74056641 2.14822266 14.74056641 2.14822266 15.49609375 4.33984375 C16.14307731 6.20578183 16.79022098 8.07166439 17.4375 9.9375 C17.92573242 11.35579102 17.92573242 11.35579102 18.42382812 12.80273438 C18.73642578 13.70185547 19.04902344 14.60097656 19.37109375 15.52734375 C19.8031311 16.77632446 19.8031311 16.77632446 20.24389648 18.05053711 C20.83880993 19.97333091 20.83880993 19.97333091 22 21 C22.26478149 20.09906616 22.26478149 20.09906616 22.53491211 19.17993164 C23.33245 16.47312842 24.13490682 13.76780837 24.9375 11.0625 C25.21529297 10.11697266 25.49308594 9.17144531 25.77929688 8.19726562 C26.04677734 7.29814453 26.31425781 6.39902344 26.58984375 5.47265625 C26.83597412 4.64000244 27.08210449 3.80734863 27.33569336 2.94946289 C28 1 28 1 29 0 C31.18639453 -0.07258946 33.37500389 -0.08373783 35.5625 -0.0625 C37.35880859 -0.04896484 37.35880859 -0.04896484 39.19140625 -0.03515625 C40.11824219 -0.02355469 41.04507813 -0.01195312 42 0 C38.70110384 9.01291012 35.36848759 18.01286037 32 27 C31.41677979 28.55678467 31.41677979 28.55678467 30.82177734 30.14501953 C29.7915533 32.87338468 28.74367647 35.59409304 27.6875 38.3125 C27.38714844 39.11010742 27.08679688 39.90771484 26.77734375 40.72949219 C24.58312497 46.2944352 22.07466217 50.81274033 17.078125 54.3671875 C14.24330995 55.23042065 11.70626887 55.18926671 8.75 55.125 C7.67234375 55.10695313 6.5946875 55.08890625 5.484375 55.0703125 C4.25460937 55.03550781 4.25460937 55.03550781 3 55 C2.9729957 53.54176788 2.95360213 52.08339325 2.9375 50.625 C2.92589844 49.81289063 2.91429687 49.00078125 2.90234375 48.1640625 C3 46 3 46 4 44 C5.670625 43.8453125 5.670625 43.8453125 7.375 43.6875 C11.07040438 43.36179264 11.07040438 43.36179264 13 40.8125 C15.0205242 35.12977569 12.34419341 29.9398072 10.05859375 24.66796875 C9.77146011 23.99075272 9.48432648 23.31353668 9.18849182 22.61579895 C8.27760569 20.4703684 7.35796802 18.32883478 6.4375 16.1875 C5.51513703 14.02763939 4.59461023 11.86701548 3.67579651 9.7056427 C3.10509889 8.36466948 2.53203087 7.02470218 1.95640564 5.68583679 C0 1.10995474 0 1.10995474 0 0 Z " fill="#F9FAFC" transform="translate(721,352)"/>
<path d="M0 0 C4.62 0 9.24 0 14 0 C14.74056641 2.14822266 14.74056641 2.14822266 15.49609375 4.33984375 C16.14307731 6.20578183 16.79022098 8.07166439 17.4375 9.9375 C17.92573242 11.35579102 17.92573242 11.35579102 18.42382812 12.80273438 C18.73642578 13.70185547 19.04902344 14.60097656 19.37109375 15.52734375 C19.8031311 16.77632446 19.8031311 16.77632446 20.24389648 18.05053711 C20.83880993 19.97333091 20.83880993 19.97333091 22 21 C22.26478149 20.09906616 22.26478149 20.09906616 22.53491211 19.17993164 C23.33245 16.47312842 24.13490682 13.76780837 24.9375 11.0625 C25.21529297 10.11697266 25.49308594 9.17144531 25.77929688 8.19726562 C26.04677734 7.29814453 26.31425781 6.39902344 26.58984375 5.47265625 C26.83597412 4.64000244 27.08210449 3.80734863 27.33569336 2.94946289 C28 1 28 1 29 0 C31.18639453 -0.07258946 33.37500389 -0.08373783 35.5625 -0.0625 C37.35880859 -0.04896484 37.35880859 -0.04896484 39.19140625 -0.03515625 C40.11824219 -0.02355469 41.04507813 -0.01195312 42 0 C38.70110384 9.01291012 35.36848759 18.01286037 32 27 C31.41677979 28.55678467 31.41677979 28.55678467 30.82177734 30.14501953 C29.7915533 32.87338468 28.74367647 35.59409304 27.6875 38.3125 C27.38714844 39.11010742 27.08679688 39.90771484 26.77734375 40.72949219 C24.58312497 46.2944352 22.07466217 50.81274033 17.078125 54.3671875 C14.24330995 55.23042065 11.70626887 55.18926671 8.75 55.125 C7.67234375 55.10695313 6.5946875 55.08890625 5.484375 55.0703125 C4.25460938 55.03550781 4.25460938 55.03550781 3 55 C2.9729957 53.54176788 2.95360213 52.08339325 2.9375 50.625 C2.92589844 49.81289063 2.91429687 49.00078125 2.90234375 48.1640625 C3 46 3 46 4 44 C5.670625 43.8453125 5.670625 43.8453125 7.375 43.6875 C11.07040438 43.36179264 11.07040438 43.36179264 13 40.8125 C15.0205242 35.12977569 12.34419341 29.9398072 10.05859375 24.66796875 C9.77146011 23.99075272 9.48432648 23.31353668 9.18849182 22.61579895 C8.27760569 20.4703684 7.35796802 18.32883478 6.4375 16.1875 C5.51513703 14.02763939 4.59461023 11.86701548 3.67579651 9.7056427 C3.10509889 8.36466948 2.53203087 7.02470218 1.95640564 5.68583679 C0 1.10995474 0 1.10995474 0 0 Z " fill="#F9FAFC" transform="translate(130,352)"/>
<path d="M0 0 C4.8370512 2.20283167 7.70702683 4.98413197 10.74609375 9.3125 C11.74609375 12.3125 11.74609375 12.3125 11.74609375 22.3125 C3.16609375 22.3125 -5.41390625 22.3125 -14.25390625 22.3125 C-11.93139199 27.19745525 -11.93139199 27.19745525 -9.25390625 28.3125 C-7.1377022 28.28941383 -7.1377022 28.28941383 -4.81640625 28 C-3.64271484 27.88205078 -3.64271484 27.88205078 -2.4453125 27.76171875 C0.02456493 27.39863351 0.02456493 27.39863351 2.74609375 25.3125 C5.38609375 26.9625 8.02609375 28.6125 10.74609375 30.3125 C7.81075206 34.65680571 4.85231514 37.12500665 -0.25390625 38.3125 C-7.54863544 39.13528926 -14.32061259 39.03715976 -20.25390625 34.3125 C-25.43144268 28.61720993 -26.57100939 23.63621726 -26.4609375 16.03125 C-26.04508202 10.5702045 -23.76207271 7.59327878 -19.81640625 4.0625 C-13.79886138 -0.94538969 -7.63246571 -2.32810046 0 0 Z " fill="#F9FAFC" transform="translate(479.25390625,443.6875)"/>
<path d="M0 0 C4.8370512 2.20283167 7.70702683 4.98413197 10.74609375 9.3125 C11.74609375 12.3125 11.74609375 12.3125 11.74609375 22.3125 C3.16609375 22.3125 -5.41390625 22.3125 -14.25390625 22.3125 C-11.93139199 27.19745525 -11.93139199 27.19745525 -9.25390625 28.3125 C-7.1377022 28.28941383 -7.1377022 28.28941383 -4.81640625 28 C-3.64271484 27.88205078 -3.64271484 27.88205078 -2.4453125 27.76171875 C0.02456493 27.39863351 0.02456493 27.39863351 2.74609375 25.3125 C5.38609375 26.9625 8.02609375 28.6125 10.74609375 30.3125 C7.81075206 34.65680571 4.85231514 37.12500665 -0.25390625 38.3125 C-7.54863544 39.13528926 -14.32061259 39.03715976 -20.25390625 34.3125 C-25.43144268 28.61720993 -26.57100939 23.63621726 -26.4609375 16.03125 C-26.04508202 10.5702045 -23.76207271 7.59327878 -19.81640625 4.0625 C-13.79886138 -0.94538969 -7.63246571 -2.32810046 0 0 Z " fill="#F9FAFC" transform="translate(468.25390625,351.6875)"/>
<path d="M0 0 C4.8370512 2.20283167 7.70702683 4.98413197 10.74609375 9.3125 C11.74609375 12.3125 11.74609375 12.3125 11.74609375 22.3125 C3.16609375 22.3125 -5.41390625 22.3125 -14.25390625 22.3125 C-11.93139199 27.19745525 -11.93139199 27.19745525 -9.25390625 28.3125 C-7.1377022 28.28941383 -7.1377022 28.28941383 -4.81640625 28 C-3.64271484 27.88205078 -3.64271484 27.88205078 -2.4453125 27.76171875 C0.02456493 27.39863351 0.02456493 27.39863351 2.74609375 25.3125 C5.38609375 26.9625 8.02609375 28.6125 10.74609375 30.3125 C7.81075206 34.65680571 4.85231514 37.12500665 -0.25390625 38.3125 C-7.54863544 39.13528926 -14.32061259 39.03715976 -20.25390625 34.3125 C-25.43144268 28.61720993 -26.57100939 23.63621726 -26.4609375 16.03125 C-26.04508202 10.5702045 -23.76207271 7.59327878 -19.81640625 4.0625 C-13.79886138 -0.94538969 -7.63246571 -2.32810046 0 0 Z " fill="#F9FAFC" transform="translate(342.25390625,351.6875)"/>
<path d="M0 0 C3.3855582 2.73143183 4.64674761 6.36017003 5.81958008 10.46801758 C6.26855892 14.84018328 6.20127442 19.1415505 6.06958008 23.53051758 C6.0515332 24.68229492 6.03348633 25.83407227 6.01489258 27.02075195 C5.968152 29.83687185 5.89642355 32.65255829 5.81958008 35.46801758 C1.85958008 35.46801758 -2.10041992 35.46801758 -6.18041992 35.46801758 C-6.51041992 34.80801758 -6.84041992 34.14801758 -7.18041992 33.46801758 C-7.81979492 33.96301758 -8.45916992 34.45801758 -9.11791992 34.96801758 C-13.23759185 36.98581607 -16.66843551 37.19883196 -21.18041992 36.46801758 C-24.98302282 34.46300878 -26.79832834 33.04115496 -29.18041992 29.46801758 C-30.00230439 24.8481617 -29.88619307 21.48256648 -27.18041992 17.59301758 C-20.37206167 12.77043048 -14.42463567 12.01188269 -6.18041992 12.46801758 C-7.48937712 9.3460428 -7.48937712 9.3460428 -10.18041992 7.46801758 C-15.04800816 7.02550956 -17.96431745 8.05881617 -22.18041992 10.46801758 C-24.16041992 8.15801758 -26.14041992 5.84801758 -28.18041992 3.46801758 C-20.75549578 -3.28191346 -8.88700402 -5.3874833 0 0 Z " fill="#F5F7FA" transform="translate(711.180419921875,353.531982421875)"/>
<path d="M0 0 C4.47746939 2.28097497 6.8202196 4.50841489 9 9 C9.34057617 12.22973633 9.34057617 12.22973633 9.29296875 15.83203125 C9.2784668 17.77045898 9.2784668 17.77045898 9.26367188 19.74804688 C9.23860985 21.1028707 9.21321506 22.45768841 9.1875 23.8125 C9.17244013 25.18683445 9.15875401 26.56118468 9.14648438 27.93554688 C9.11116628 31.29076632 9.06183851 34.64518166 9 38 C5.04 38 1.08 38 -3 38 C-3.04898437 36.29070312 -3.09796875 34.58140625 -3.1484375 32.8203125 C-3.22345558 30.58852471 -3.29900381 28.3567547 -3.375 26.125 C-3.4059375 24.99707031 -3.436875 23.86914062 -3.46875 22.70703125 C-3.50742187 21.63066406 -3.54609375 20.55429687 -3.5859375 19.4453125 C-3.63306885 17.95281982 -3.63306885 17.95281982 -3.68115234 16.43017578 C-3.77247083 13.82145483 -3.77247083 13.82145483 -6 12 C-9.56592619 12.16417032 -9.56592619 12.16417032 -13 13 C-14.25838557 15.51677113 -14.20818973 17.41293288 -14.31640625 20.2265625 C-14.35830078 21.2578125 -14.40019531 22.2890625 -14.44335938 23.3515625 C-14.50233398 24.97191406 -14.50233398 24.97191406 -14.5625 26.625 C-14.60568359 27.71296875 -14.64886719 28.8009375 -14.69335938 29.921875 C-14.79964427 32.6144257 -14.90034504 35.30719576 -15 38 C-18.96 38 -22.92 38 -27 38 C-27 26.12 -27 14.24 -27 2 C-23.04 2 -19.08 2 -15 2 C-14.67 2.66 -14.34 3.32 -14 4 C-13.175 3.34 -12.35 2.68 -11.5 2 C-7.73436351 -0.48674108 -4.40370178 -0.87019257 0 0 Z " fill="#FCFCFD" transform="translate(389,351)"/>
<path d="M0 0 C3.69754671 3.51474664 6.68219738 6.79141589 7.203125 12.05078125 C7.30893644 17.15618316 6.98572863 20.66587779 4 25 C-0.5348499 29.66629482 -3.77748984 31.75679169 -10.3125 32.25 C-15.89182894 31.87174041 -19.59562614 30.21712401 -23.8125 26.5625 C-27.9582533 21.70604614 -28.44668084 18.04753926 -28.3125 11.7578125 C-27.82825484 7.48434896 -26.64706246 5.41331738 -24 2 C-16.4283527 -3.99422078 -8.60665949 -4.85102626 0 0 Z " fill="#043E97" transform="translate(423,229)"/>
<path d="M0 0 C4.61665182 1.99996176 7.41381961 4.7756023 9.82421875 9.1796875 C11.8990995 14.58202678 11.34844553 19.46484526 9.046875 24.69921875 C6.40831334 29.41294812 2.7471962 31.69494502 -2.328125 33.38671875 C-8.57635065 34.16358517 -13.44818527 33.73238382 -18.6328125 29.99609375 C-22.80232725 26.03793689 -24.51799747 21.51312054 -24.828125 15.82421875 C-24.58889889 11.03969654 -23.13265081 8.25241649 -20.328125 4.38671875 C-14.19645564 -1.1609821 -8.06673771 -2.12496279 0 0 Z " fill="#F6F8FB" transform="translate(118.328125,870.61328125)"/>
<path d="M0 0 C4.68467682 2.12619042 7.59555497 4.46864228 9.63671875 9.31640625 C10.36181844 15.24560686 10.53317578 20.42388585 7.94921875 25.87890625 C3.28799452 30.79208855 -0.25281891 33.42650131 -7.11328125 33.62890625 C-12.40298024 33.5672188 -15.11913638 32.45707346 -19.36328125 29.31640625 C-24.17567666 24.12408488 -24.71702852 19.91208503 -24.64453125 13.04296875 C-24.11547907 7.91410175 -21.46665678 5.28842755 -17.73828125 2.00390625 C-12.45953489 -1.74678195 -6.18375518 -1.78868951 0 0 Z " fill="#F8FAFC" transform="translate(155.36328125,870.68359375)"/>
<path d="M0 0 C5.67458259 1.89152753 9.32628019 5.65256038 12 11 C12.52779267 17.2117137 12.74403643 22.758349 9 28 C4.59941746 32.41260598 0.90592364 34.14908361 -5.3125 34.3125 C-10.37478087 34.25907223 -13.14510059 33.47881166 -17 30 C-21.75650217 24.72928138 -22.3542151 20.64000602 -22.28125 13.7265625 C-21.75219782 8.5976955 -19.10337553 5.9720213 -15.375 2.6875 C-10.4577568 -0.80633069 -5.8950431 -0.45089565 0 0 Z " fill="#F9FAFC" transform="translate(354,870)"/>
<path d="M0 0 C1.65 0 3.3 0 5 0 C9.82558376 9.18021238 13.90014681 18.59955389 17.86132812 28.17626953 C18.88857576 30.65779501 19.92433348 33.13565164 20.9609375 35.61328125 C21.61768813 37.19250023 22.27395666 38.77191981 22.9296875 40.3515625 C23.23897186 41.09105133 23.54825623 41.83054016 23.86691284 42.59243774 C26 47.76951529 26 47.76951529 26 50 C24.35 50 22.7 50 21 50 C20.15930585 48.39967863 19.32768495 46.79458829 18.5 45.1875 C18.0359375 44.29417969 17.571875 43.40085938 17.09375 42.48046875 C16 40 16 40 16 37 C7.09 37 -1.82 37 -11 37 C-11.495 39.475 -11.495 39.475 -12 42 C-12.97265625 44.23828125 -12.97265625 44.23828125 -14.0625 46.3125 C-14.42472656 47.00988281 -14.78695312 47.70726562 -15.16015625 48.42578125 C-15.57587891 49.20501953 -15.57587891 49.20501953 -16 50 C-17.65 50 -19.3 50 -21 50 C-19.02105895 43.71429247 -16.68323778 37.68669873 -14.0234375 31.66015625 C-13.65272125 30.81198837 -13.282005 29.9638205 -12.90005493 29.08995056 C-11.72869303 26.41251443 -10.55188072 23.73751415 -9.375 21.0625 C-8.57777727 19.24168867 -7.78089913 17.42072642 -6.984375 15.59960938 C-5.53376394 12.28694992 -4.08248876 8.97459101 -2.62646484 5.66430664 C-2.3357309 5.0030629 -2.04499695 4.34181915 -1.74545288 3.66053772 C-1.19182922 2.42731026 -0.604541 1.20908201 0 0 Z " fill="#F6F8FB" transform="translate(82,210)"/>
<path d="M0 0 C2.97 0 5.94 0 9 0 C10 1 10 1 10.11352539 3.22485352 C10.10828857 4.18319092 10.10305176 5.14152832 10.09765625 6.12890625 C10.09443359 7.16337891 10.09121094 8.19785156 10.08789062 9.26367188 C10.07951172 10.35228516 10.07113281 11.44089844 10.0625 12.5625 C10.05798828 13.65498047 10.05347656 14.74746094 10.04882812 15.87304688 C10.03699826 18.58208495 10.02051543 21.29101599 10 24 C13.83992581 22.72002473 14.05601523 21.39293293 16 17.9375 C19.13591071 13.19654252 19.13591071 13.19654252 22.90234375 12.33984375 C25.66332997 12.37182429 28.27626599 12.55671598 31 13 C30.51789063 13.74765625 30.03578125 14.4953125 29.5390625 15.265625 C28.90742188 16.25046875 28.27578125 17.2353125 27.625 18.25 C26.99851563 19.22453125 26.37203125 20.1990625 25.7265625 21.203125 C25.15679687 22.12609375 24.58703125 23.0490625 24 24 C23.5978125 24.6381665 23.195625 25.27633301 22.78125 25.93383789 C21.77182684 27.96038561 21.77182684 27.96038561 22.59912109 29.90698242 C22.98664551 30.54998291 23.37416992 31.1929834 23.7734375 31.85546875 C24.1859375 32.55994141 24.5984375 33.26441406 25.0234375 33.99023438 C25.46945313 34.71533203 25.91546875 35.44042969 26.375 36.1875 C27.23827019 37.63855563 28.10031808 39.09033938 28.9609375 40.54296875 C29.35071777 41.18258545 29.74049805 41.82220215 30.14208984 42.48120117 C31 44 31 44 31 45 C27.22788436 45.4756433 23.7523363 45.69761745 20 45 C17.50181538 42.68890409 16.30875165 40.10474418 15 37 C14.13406067 34.81917465 14.13406067 34.81917465 13 33 C12.01 32.67 11.02 32.34 10 32 C10 36.62 10 41.24 10 46 C6.7 46 3.4 46 0 46 C0 30.82 0 15.64 0 0 Z " fill="#F3F6FA" transform="translate(168,858)"/>
<path d="M0 0 C6.93 0 13.86 0 21 0 C19.72108908 5.75509916 18.47858184 10.92881533 16.6171875 16.44140625 C16.28849167 17.42112648 16.28849167 17.42112648 15.95315552 18.42063904 C15.26471919 20.46939863 14.56999725 22.51595801 13.875 24.5625 C13.40192249 25.96665502 12.92926287 27.3709509 12.45703125 28.77539062 C11.31026112 32.18552284 10.1549799 35.5925962 9 39 C2.73 39 -3.54 39 -10 39 C-7.64348808 25.6926386 -3.90352947 12.92977294 0 0 Z " fill="#FCFDFE" transform="translate(874,847)"/>
<path d="M0 0 C0 3.48077613 -0.93485643 5.21347269 -3.171875 7.85546875 C-6.41966829 9.88880942 -9.82635524 8.6727727 -13.45703125 8.12890625 C-16.222796 7.72170491 -16.222796 7.72170491 -18.75 10 C-20.35572989 13.85375173 -20.110075 16.00373 -19 20 C-17.85953788 21.84880448 -17.85953788 21.84880448 -16 23 C-13.43965355 22.87838293 -13.43965355 22.87838293 -10.6875 22.25 C-5.59104941 21.59435583 -5.59104941 21.59435583 -2.9453125 23.41015625 C1 28.00672847 1 28.00672847 1 31 C-5.56554064 34.63131136 -11.49482968 36.27488122 -19 35 C-24.67948533 32.73399142 -28.48648386 28.89762855 -32 24 C-33.86107243 18.4167827 -33.52996207 12.87045437 -31.9375 7.25 C-28.95988459 2.25529028 -25.36118837 -0.870736 -20.125 -3.375 C-12.12517842 -4.97496432 -7.06089843 -4.10815909 0 0 Z " fill="#F9FAFC" transform="translate(438,355)"/>
<path d="M0 0 C3.87850945 2.67801843 6.13291589 5.33624767 7.625 9.8125 C8.17385106 14.5362181 8.09096728 17.91384882 5.875 22.1875 C2.48749096 26.13959388 -0.32431964 28.49220482 -5.64453125 29.05078125 C-11.43591255 29.21980774 -14.89457322 28.86621947 -19.375 24.8125 C-23.0305215 20.67598883 -24.02958484 17.43577977 -23.7578125 12.0546875 C-22.89954895 7.0277153 -20.48776825 3.8457848 -16.75 0.375 C-11.08257483 -2.24880795 -5.84836376 -2.05775762 0 0 Z " fill="#066FE4" transform="translate(825.375,790.1875)"/>
<path d="M0 0 C6 0 6 0 8.6875 1.125 C9.8321875 1.558125 9.8321875 1.558125 11 2 C11.99 1.34 12.98 0.68 14 0 C18.57098437 -0.5965522 22.73074222 -0.52885741 27 1.25 C29.9679029 3.84691503 30.91145143 5.89209552 31.22705078 9.84082031 C31.21657715 10.90913086 31.20610352 11.97744141 31.1953125 13.078125 C31.18886719 14.23828125 31.18242187 15.3984375 31.17578125 16.59375 C31.15902344 17.8003125 31.14226562 19.006875 31.125 20.25 C31.11597656 21.47203125 31.10695312 22.6940625 31.09765625 23.953125 C31.07409513 26.96894782 31.04119706 29.98437492 31 33 C24.9453125 33.1953125 24.9453125 33.1953125 23 33 C20.51942372 30.51942372 20.70980995 29.63807536 20.5859375 26.2109375 C20.54726562 25.26992188 20.50859375 24.32890625 20.46875 23.359375 C20.4378125 22.37453125 20.406875 21.3896875 20.375 20.375 C20.33632812 19.38242187 20.29765625 18.38984375 20.2578125 17.3671875 C20.1633686 14.91164615 20.07780125 12.4561159 20 10 C15.80597122 9.6658822 15.80597122 9.6658822 12.1875 11.375 C10.17724069 14.12588116 9.84019399 15.99584306 9.68359375 19.3515625 C9.64169922 20.20234375 9.59980469 21.053125 9.55664062 21.9296875 C9.51732422 22.81914063 9.47800781 23.70859375 9.4375 24.625 C9.39431641 25.5221875 9.35113281 26.419375 9.30664062 27.34375 C9.20043285 29.56231239 9.09970041 31.78113565 9 34 C6.03 34 3.06 34 0 34 C0 22.78 0 11.56 0 0 Z " fill="#F8F9FC" transform="translate(217,870)"/>
<path d="M0 0 C3.96 0 7.92 0 12 0 C12 18.48 12 36.96 12 56 C8.04 56 4.08 56 0 56 C0 37.52 0 19.04 0 0 Z " fill="#FEFEFE" transform="translate(168,425)"/>
<path d="M0 0 C3.96 0 7.92 0 12 0 C12 18.48 12 36.96 12 56 C8.04 56 4.08 56 0 56 C0 37.52 0 19.04 0 0 Z " fill="#FEFEFE" transform="translate(592,333)"/>
<path d="M0 0 C3.96 0 7.92 0 12 0 C12 18.48 12 36.96 12 56 C8.04 56 4.08 56 0 56 C0 37.52 0 19.04 0 0 Z " fill="#FEFEFE" transform="translate(220,333)"/>
<path d="M0 0 C3.41793042 1.89147606 5.28835059 3.9040674 7.21875 7.265625 C7.8125 9.4375 7.8125 9.4375 7.8125 17.4375 C-1.0975 17.4375 -10.0075 17.4375 -19.1875 17.4375 C-17.06499989 24.93917117 -17.06499989 24.93917117 -14 27.4375 C-10.32441077 28.74437617 -7.00818153 29.14503362 -3.1875 28.4375 C-0.88800346 27.31449006 0.7950011 26.05149912 2.8125 24.4375 C4.1325 25.0975 5.4525 25.7575 6.8125 26.4375 C2.16217155 31.63492592 -1.23584731 33.15639022 -8.125 33.8125 C-12.49275091 33.66246276 -15.87360805 32.27682976 -19.1875 29.4375 C-22.97951851 25.36778317 -24.52767507 21.48773713 -24.8125 15.9375 C-24.52113971 10.40932189 -23.0733745 6.42662237 -19.1875 2.4375 C-13.13095394 -2.03522125 -7.00734938 -2.99204752 0 0 Z " fill="#F4F6FA" transform="translate(295.1875,227.5625)"/>
<path d="M0 0 C2.02224697 2.66983063 1.79681763 4.89824569 1.87182617 8.21362305 C1.925 10.09404297 1.925 10.09404297 1.97924805 12.01245117 C2.00180664 13.3227832 2.02436523 14.63311523 2.04760742 15.9831543 C2.08078408 17.31847442 2.11527409 18.65376261 2.15112305 19.98901367 C2.23372799 23.25780934 2.30283971 26.52633241 2.36010742 29.7956543 C0.71010742 29.7956543 -0.93989258 29.7956543 -2.63989258 29.7956543 C-2.96989258 28.8056543 -3.29989258 27.8156543 -3.63989258 26.7956543 C-4.46489258 27.4556543 -5.28989258 28.1156543 -6.13989258 28.7956543 C-9.91678756 31.298738 -13.22272281 31.53478231 -17.63989258 30.7956543 C-21.66251427 29.23130142 -23.23138367 28.40841766 -25.63989258 24.7956543 C-26.17429274 20.06239576 -26.37950144 17.92972123 -23.76489258 13.9206543 C-17.43430424 9.61585422 -10.09472637 9.51954934 -2.63989258 9.7956543 C-3.51711357 5.05098185 -3.51711357 5.05098185 -6.32739258 1.3581543 C-12.28064838 -0.08993495 -16.39472333 0.72531132 -21.63989258 3.7956543 C-22.29989258 2.4756543 -22.95989258 1.1556543 -23.63989258 -0.2043457 C-15.55603481 -5.36903261 -8.03404448 -5.90024437 0 0 Z " fill="#F3F6FA" transform="translate(190.639892578125,230.204345703125)"/>
<path d="M0 0 C3.59889157 0.68189524 5.12929589 2.53813341 7.2265625 5.421875 C8.50959657 9.47685822 8.48470606 13.57881524 8.5390625 17.796875 C8.56806641 18.539375 8.59707031 19.281875 8.62695312 20.046875 C8.68740928 25.31121054 7.71871748 28.25645771 4.2265625 32.421875 C0.47608768 34.92219154 -1.33200016 34.95791054 -5.7734375 34.421875 C-9.51018047 31.51551936 -11.35992805 28.88756415 -12.7734375 24.421875 C-13.07421875 20.86328125 -13.07421875 20.86328125 -13.0859375 16.984375 C-13.10269531 15.70691406 -13.11945312 14.42945313 -13.13671875 13.11328125 C-12.67426258 8.41412986 -11.21319683 5.29913026 -8.359375 1.578125 C-5.68657773 -0.37051537 -3.20560519 -0.10441711 0 0 Z " fill="#074097" transform="translate(616.7734375,936.578125)"/>
<path d="M0 0 C2.375 1.5625 2.375 1.5625 3.375 2.5625 C3.51615161 5.23308851 3.41747107 7.88682238 3.375 10.5625 C0 10.75 0 10.75 -3.625 10.5625 C-4.285 9.5725 -4.945 8.5825 -5.625 7.5625 C-9.15958886 7.02462778 -10.9576044 7.14098699 -14 9.0625 C-16.28200312 12.57327404 -16.43504807 15.48720662 -15.625 19.5625 C-14.22814994 22.2094872 -14.22814994 22.2094872 -11.625 23.5625 C-6.45887214 24.22000718 -3.91561858 23.30372854 0.375 20.5625 C1.365 20.8925 2.355 21.2225 3.375 21.5625 C4.5625 24.625 4.5625 24.625 5.375 27.5625 C-1.41869982 32.24260432 -6.42804937 33.52552972 -14.625 32.5625 C-19.40663493 30.86834458 -22.6024252 28.20722961 -25.125 23.8125 C-27.30383448 18.61456304 -27.86355564 13.6588891 -25.7421875 8.35546875 C-20.18139407 -1.5692586 -10.53644204 -4.17824426 0 0 Z " fill="#F6F8FB" transform="translate(325.625,871.4375)"/>
<path d="M0 0 C1.65 0 3.3 0 5 0 C7.12148058 5.19762741 8.74028793 10.4531326 10.1875 15.875 C10.36635742 16.54152588 10.54521484 17.20805176 10.72949219 17.89477539 C12 22.73843164 12 22.73843164 12 25 C12.66 25 13.32 25 14 25 C14.25523438 24.05253906 14.25523438 24.05253906 14.515625 23.0859375 C16.605835 15.36994952 18.79054792 7.68261258 21 0 C22.98 0 24.96 0 27 0 C29.64 8.25 32.28 16.5 35 25 C38.38417914 15.70526869 38.38417914 15.70526869 41.25 6.3125 C41.58515625 5.11238281 41.9203125 3.91226563 42.265625 2.67578125 C42.50796875 1.79277344 42.7503125 0.90976563 43 0 C44.65 0 46.3 0 48 0 C46.56776633 6.97404236 44.6309055 13.66733911 42.4375 20.4375 C42.12103516 21.42943359 41.80457031 22.42136719 41.47851562 23.44335938 C39.14629464 30.70741071 39.14629464 30.70741071 38 33 C36.35 33 34.7 33 33 33 C31.65909207 29.2318169 30.3285821 25.46004479 29 21.6875 C28.6184375 20.61564453 28.236875 19.54378906 27.84375 18.43945312 C27.4828125 17.41142578 27.121875 16.38339844 26.75 15.32421875 C26.41484375 14.37635498 26.0796875 13.42849121 25.734375 12.4519043 C25 10 25 10 25 7 C24.34 7 23.68 7 23 7 C22.91363281 7.53625 22.82726562 8.0725 22.73828125 8.625 C21.24002776 16.98223046 18.61939374 24.94186506 16 33 C14.02 33 12.04 33 10 33 C6.00160265 22.21743666 2.11108266 11.33651386 0 0 Z " fill="#F2F5F9" transform="translate(111,227)"/>
<path d="M0 0 C0 3.63 0 7.26 0 11 C-2.27864583 11.42317708 -4.55729167 11.84635417 -6.8359375 12.26953125 C-9.35820641 12.87544942 -9.35820641 12.87544942 -11 16 C-11.3663859 18.41713479 -11.3663859 18.41713479 -11.4140625 21.10546875 C-11.47207031 22.57983398 -11.47207031 22.57983398 -11.53125 24.08398438 C-11.5621875 25.10814453 -11.593125 26.13230469 -11.625 27.1875 C-11.68300781 28.74114258 -11.68300781 28.74114258 -11.7421875 30.32617188 C-11.83647869 32.88382027 -11.91932918 35.44188578 -12 38 C-15.96 38 -19.92 38 -24 38 C-24 26.12 -24 14.24 -24 2 C-20.37 2 -16.74 2 -13 2 C-12.67 2.99 -12.34 3.98 -12 5 C-11.13375 4.175 -10.2675 3.35 -9.375 2.5 C-6.25207583 -0.13961448 -4.12269101 -0.49079655 0 0 Z " fill="#FCFCFD" transform="translate(331,443)"/>
<path d="M0 0 C0 3.63 0 7.26 0 11 C-2.27864583 11.42317708 -4.55729167 11.84635417 -6.8359375 12.26953125 C-9.35820641 12.87544942 -9.35820641 12.87544942 -11 16 C-11.3663859 18.41713479 -11.3663859 18.41713479 -11.4140625 21.10546875 C-11.47207031 22.57983398 -11.47207031 22.57983398 -11.53125 24.08398438 C-11.5621875 25.10814453 -11.593125 26.13230469 -11.625 27.1875 C-11.68300781 28.74114258 -11.68300781 28.74114258 -11.7421875 30.32617188 C-11.83647869 32.88382027 -11.91932918 35.44188578 -12 38 C-15.96 38 -19.92 38 -24 38 C-24 26.12 -24 14.24 -24 2 C-20.37 2 -16.74 2 -13 2 C-12.67 2.99 -12.34 3.98 -12 5 C-11.13375 4.175 -10.2675 3.35 -9.375 2.5 C-6.25207583 -0.13961448 -4.12269101 -0.49079655 0 0 Z " fill="#FCFCFD" transform="translate(313,351)"/>
<path d="M0 0 C5.13722479 1.81313816 7.59980377 4.10729231 10 9 C10.947942 14.33616787 9.97699024 18.42819356 7 23 C3.79436581 25.90510598 1.04988223 26.8586697 -3.25 27.4375 C-8.1446475 26.86645779 -10.91309554 24.80195013 -14 21 C-15.5330557 16.540998 -15.46176154 11.93939845 -14.375 7.375 C-10.90755553 1.38577774 -6.83338365 -0.97619766 0 0 Z " fill="#043E96" transform="translate(331,230)"/>
<path d="M0 0 C5.13722479 1.81313816 7.59980377 4.10729231 10 9 C10.947942 14.33616787 9.97699024 18.42819356 7 23 C3.79436581 25.90510598 1.04988223 26.8586697 -3.25 27.4375 C-8.1446475 26.86645779 -10.91309554 24.80195013 -14 21 C-15.5330557 16.540998 -15.46176154 11.93939845 -14.375 7.375 C-10.90755553 1.38577774 -6.83338365 -0.97619766 0 0 Z " fill="#043E96" transform="translate(246,230)"/>
<path d="M0 0 C1.32 0 2.64 0 4 0 C4 11.55 4 23.1 4 35 C2.35 34.67 0.7 34.34 -1 34 C-2.34187818 34.6492959 -3.67479497 35.31731862 -5 36 C-8.99090581 36.52055293 -10.69523363 36.16996586 -14.25 34.1875 C-16.96143868 32.03067378 -18.70560126 30.46067068 -19.40625 26.984375 C-19.59159262 22.56704267 -19.22623148 19.56046996 -16.5625 15.9375 C-13.93112861 13.23094657 -12.07264924 12.53580456 -8.3125 12.4375 C-4.92538153 12.61884831 -3.95682971 13.02878019 -1 15 C-0.67 10.05 -0.34 5.1 0 0 Z " fill="#E7ECF5" transform="translate(535,935)"/>
<path d="M0 0 C15 0 15 0 21 4 C22.00579518 7.07146056 21.6855561 9.8602683 21 13 C19.1875 15.5625 19.1875 15.5625 17 17 C16.01 17 15.02 17 14 17 C14.56589844 17.98742187 15.13179688 18.97484375 15.71484375 19.9921875 C16.45575759 21.28644206 17.19664145 22.58071379 17.9375 23.875 C18.31068359 24.52597656 18.68386719 25.17695312 19.06835938 25.84765625 C21.88671875 30.7734375 21.88671875 30.7734375 23 33 C20.76953125 33.3984375 20.76953125 33.3984375 18 33 C16.2695849 30.85585564 15.00727825 28.99909825 13.6875 26.625 C13.32849609 26.02171875 12.96949219 25.4184375 12.59960938 24.796875 C10 20.34040179 10 20.34040179 10 18 C8.02 18 6.04 18 4 18 C4 22.95 4 27.9 4 33 C2.68 33 1.36 33 0 33 C0 22.11 0 11.22 0 0 Z " fill="#E6ECF4" transform="translate(252,937)"/>
<path d="M0 0 C3.96 0 7.92 0 12 0 C12 12.21 12 24.42 12 37 C8.04 37 4.08 37 0 37 C0 24.79 0 12.58 0 0 Z " fill="#FEFEFE" transform="translate(336,444)"/>
<path d="M0 0 C3.96 0 7.92 0 12 0 C12 12.21 12 24.42 12 37 C8.04 37 4.08 37 0 37 C0 24.79 0 12.58 0 0 Z " fill="#FEFEFE" transform="translate(614,352)"/>
<path d="M0 0 C3.69754671 3.51474664 6.68219738 6.79141589 7.203125 12.05078125 C7.30893644 17.15618316 6.98572863 20.66587779 4 25 C-0.5348499 29.66629482 -3.77748984 31.75679169 -10.3125 32.25 C-15.89182894 31.87174041 -19.59562614 30.21712401 -23.8125 26.5625 C-27.9582533 21.70604614 -28.44668084 18.04753926 -28.3125 11.7578125 C-27.82825484 7.48434896 -26.64706246 5.41331738 -24 2 C-16.4283527 -3.99422078 -8.60665949 -4.85102626 0 0 Z M-22.375 7.8125 C-23.61558305 12.15454068 -23.38351496 16.35088565 -22.375 20.6875 C-20.38537363 24.0336898 -18.24417448 25.85762063 -15 28 C-9.7956194 28.74348294 -6.41221498 27.80777317 -2 25 C1.5630327 21.06837771 2.36495442 17.35807809 2.27734375 12.0625 C1.8083752 8.57495927 0.29403799 6.5958851 -2 4 C-10.2364697 -1.4909798 -16.65721688 0.27542226 -22.375 7.8125 Z " fill="#F2F5F9" transform="translate(423,229)"/>
<path d="M0 0 C1.32 0 2.64 0 4 0 C5.67600844 3.7337276 7.34823462 7.46912414 9.01708984 11.20605469 C9.58443111 12.47506503 10.15277422 13.74362801 10.72216797 15.01171875 C11.54402573 16.84254725 12.36189331 18.67516527 13.1796875 20.5078125 C13.67194824 21.60754395 14.16420898 22.70727539 14.67138672 23.84033203 C15.94014334 26.85765069 17.00980151 29.88149107 18 33 C16.35 32.67 14.7 32.34 13 32 C12.34 29.69 11.68 27.38 11 25 C5.06 25 -0.88 25 -7 25 C-7.66 27.31 -8.32 29.62 -9 32 C-11.475 32.495 -11.475 32.495 -14 33 C-12.41848565 29.18674297 -10.83445411 25.37453636 -9.25 21.5625 C-8.58484375 19.95858398 -8.58484375 19.95858398 -7.90625 18.32226562 C-5.35063802 12.17752212 -2.74171175 6.06414675 0 0 Z " fill="#E7ECF5" transform="translate(421,937)"/>
<path d="M0 0 C0 7.26 0 14.52 0 22 C1.65 22 3.3 22 5 22 C5 22.99 5 23.98 5 25 C3.35 25 1.7 25 0 25 C0 27.64 0 30.28 0 33 C-0.99 33 -1.98 33 -3 33 C-3 30.36 -3 27.72 -3 25 C-7.95 25 -12.9 25 -18 25 C-18 18.35353293 -15.36767225 15.11421924 -11.8125 9.6875 C-11.23435547 8.75615234 -10.65621094 7.82480469 -10.06054688 6.86523438 C-9.49013672 5.98544922 -8.91972656 5.10566406 -8.33203125 4.19921875 C-7.81358643 3.39315186 -7.2951416 2.58708496 -6.76098633 1.7565918 C-5 0 -5 0 0 0 Z " fill="#F6F8FB" transform="translate(675,937)"/>
<path d="M0 0 C3.65705486 0.78365461 5.41930492 1.70222409 7.6171875 4.7734375 C9.37519038 8.70949705 9.21909198 12.56434196 8.5 16.75 C6.9375 20.3125 6.9375 20.3125 4.5 22.75 C1.0625 23.875 1.0625 23.875 -2.5 23.75 C-5.29483727 22.10955204 -7.08420643 21.0266995 -8.109375 17.87890625 C-8.91740191 13.47515958 -9.52811538 9.01369798 -7.62890625 4.83203125 C-5.39992651 1.7553084 -3.68842347 0.79037646 0 0 Z " fill="#EDF4FD" transform="translate(935.5,914.25)"/>
<path d="M0 0 C2.80703896 1.34040619 3.86054551 2.54745461 6 5 C6.33 7.31 6.66 9.62 7 12 C1.06 12 -4.88 12 -11 12 C-9.52360997 17.06008639 -9.52360997 17.06008639 -6 19 C-1.84130536 18.70295038 0.50407222 18.33061852 4 16 C4.33 17.32 4.66 18.64 5 20 C0.89688443 22.98408405 -1.95812953 23.61917707 -7 23 C-10.05357079 21.38679279 -12.23833566 19.96939098 -14.375 17.25 C-15.34165091 13.77005671 -15.68551123 10.536152 -15 7 C-11.42819467 0.82568968 -7.00037259 -1.12993027 0 0 Z " fill="#E3E9F3" transform="translate(353,948)"/>
<path d="M0 0 C1.65 0 3.3 0 5 0 C5 2.97 5 5.94 5 9 C7.97 9 10.94 9 14 9 C14 10.32 14 11.64 14 13 C11.03 13 8.06 13 5 13 C5.13815529 16.81281945 5.28680562 20.62515717 5.4375 24.4375 C5.49647461 26.07041992 5.49647461 26.07041992 5.55664062 27.73632812 C5.61948242 29.28803711 5.61948242 29.28803711 5.68359375 30.87109375 C5.72025146 31.82943115 5.75690918 32.78776855 5.79467773 33.77514648 C5.75834424 35.97138925 5.75834424 35.97138925 7 37 C9.33297433 37.04092937 11.66705225 37.04241723 14 37 C14 38.32 14 39.64 14 41 C11.57847262 42.21076369 10.24576913 42.07767714 7.5625 41.875 C6.78003906 41.83117187 5.99757813 41.78734375 5.19140625 41.7421875 C3 41 3 41 1.38134766 38.79858398 C-0.13916696 35.71805039 -0.35007311 33.88769555 -0.29296875 30.48046875 C-0.28330078 29.45888672 -0.27363281 28.43730469 -0.26367188 27.38476562 C-0.23853516 26.32966797 -0.21339844 25.27457031 -0.1875 24.1875 C-0.17396484 23.11306641 -0.16042969 22.03863281 -0.14648438 20.93164062 C-0.11122577 18.28724545 -0.06194366 15.64388252 0 13 C-2.31 13 -4.62 13 -7 13 C-7 11.68 -7 10.36 -7 9 C-4.69 9 -2.38 9 0 9 C0 6.03 0 3.06 0 0 Z " fill="#F8F9FC" transform="translate(376,218)"/>
<path d="M0 0 C3 2.4375 3 2.4375 5 5 C5.33 5.33 5.66 5.66 6 6 C6 7.98 6 9.96 6 12 C0.06 12 -5.88 12 -12 12 C-11.34 13.98 -10.68 15.96 -10 18 C-4.37051952 19.22121096 -4.37051952 19.22121096 0.875 17.5 C1.926875 16.7575 1.926875 16.7575 3 16 C3.66 16.33 4.32 16.66 5 17 C4.06896676 19.32758311 3.34617872 20.74357132 1.3125 22.25 C-2.03928897 23.33706669 -4.49062916 23.42354476 -8 23 C-10.97239241 21.21523759 -13.42604027 19.14791945 -15 16 C-15.53118252 11.08003072 -15.75105553 7.22672403 -13.125 2.9375 C-9.1803313 -0.6591097 -5.16720373 -0.82996537 0 0 Z " fill="#E5EBF4" transform="translate(212,948)"/>
<path d="M0 0 C2.2346515 2.77890304 3.72822594 5.38541016 5.04296875 8.6953125 C5.39423828 9.57574219 5.74550781 10.45617187 6.10742188 11.36328125 C6.64206055 12.73033203 6.64206055 12.73033203 7.1875 14.125 C7.55552734 15.04410156 7.92355469 15.96320313 8.30273438 16.91015625 C11 23.72588126 11 23.72588126 11 26 C4.07 26 -2.86 26 -10 26 C-9.23036421 22.15182105 -8.46186108 19.42652615 -6.93359375 15.91796875 C-6.53076172 14.98662109 -6.12792969 14.05527344 -5.71289062 13.09570312 C-5.29201172 12.13599609 -4.87113281 11.17628906 -4.4375 10.1875 C-4.01275391 9.20845703 -3.58800781 8.22941406 -3.15039062 7.22070312 C-2.10460494 4.81187093 -1.05435216 2.40509197 0 0 Z " fill="#084198" transform="translate(84,216)"/>
<path d="M0 0 C3.1293173 0.74342897 4.94179824 2.18840477 7.12109375 4.50390625 C8.12109375 6.50390625 8.12109375 6.50390625 8.12109375 12.50390625 C2.18109375 12.50390625 -3.75890625 12.50390625 -9.87890625 12.50390625 C-6.70061864 18.7088932 -6.70061864 18.7088932 -2.31640625 19.44140625 C1.10444663 19.69468943 1.10444663 19.69468943 4.12109375 18.50390625 C4.12109375 17.84390625 4.12109375 17.18390625 4.12109375 16.50390625 C5.11109375 16.83390625 6.10109375 17.16390625 7.12109375 17.50390625 C6.17385248 19.87200943 5.46818241 21.25598578 3.37109375 22.75390625 C0.37145113 23.75378712 -1.72580608 23.88227827 -4.87890625 23.50390625 C-7.88576499 21.88482847 -10.13701415 20.44813257 -12.25390625 17.75390625 C-13.48744503 13.31316663 -13.91135405 9.58843014 -11.8515625 5.4296875 C-8.51863611 0.87807335 -5.61765436 -0.44524411 0 0 Z " fill="#E8EDF5" transform="translate(290.87890625,947.49609375)"/>
<path d="M0 0 C2.8100346 1.79363911 4.50940468 3.01880935 6 6 C6 7.98 6 9.96 6 12 C0.39 12 -5.22 12 -11 12 C-10.01 13.98 -9.02 15.96 -8 18 C-3.91390147 19.28636435 -1.93353457 19.45683606 1.9375 17.5625 C2.618125 17.046875 3.29875 16.53125 4 16 C4 20 4 20 2.4375 21.75 C-0.96849085 23.49666197 -3.21147156 23.45723619 -7 23 C-10.3923422 21.27182567 -12.42158265 19.97279282 -14.375 16.6875 C-16.17415976 8.95111305 -16.17415976 8.95111305 -13.94921875 5.25390625 C-9.85107555 0.21282745 -6.40170369 -0.91978501 0 0 Z " fill="#E8EDF5" transform="translate(162,948)"/>
<path d="M0 0 C2.64 0 5.28 0 8 0 C9 1 9 1 9.11352539 3.95922852 C9.10828857 5.25272217 9.10305176 6.54621582 9.09765625 7.87890625 C9.0962413 8.5655687 9.09482635 9.25223114 9.09336853 9.95970154 C9.08775479 12.16067801 9.07520007 14.36155409 9.0625 16.5625 C9.05748676 18.05143083 9.05292355 19.54036324 9.04882812 21.02929688 C9.03778093 24.68623075 9.02050713 28.34310558 9 32 C6.03 32 3.06 32 0 32 C0 21.44 0 10.88 0 0 Z " fill="#FEFEFE" transform="translate(202,871)"/>
<path d="M0 0 C1.12535156 -0.04253906 1.12535156 -0.04253906 2.2734375 -0.0859375 C5.79018965 0.60339266 7.26094256 1.66730549 9.625 4.375 C10.23287651 7.48133924 10.09745274 10.47516152 9.9375 13.625 C9.91494141 14.46546875 9.89238281 15.3059375 9.86914062 16.171875 C9.81037714 18.24034964 9.72069885 20.30790488 9.625 22.375 C9.00367188 22.19066406 8.38234375 22.00632812 7.7421875 21.81640625 C5.60536686 21.1424919 5.60536686 21.1424919 3.75 22.3125 C0.83364203 23.77067898 -1.15457164 23.77755354 -4.375 23.375 C-6.75 21.8125 -6.75 21.8125 -8.375 19.375 C-8.9375 15.8125 -8.9375 15.8125 -8.375 12.375 C-6.00120356 9.92207702 -4.18846124 9.42964472 -0.81640625 9.203125 C1.67262432 9.18900284 4.13969436 9.24470242 6.625 9.375 C5.965 7.725 5.305 6.075 4.625 4.375 C3.3875 4.375 2.15 4.375 0.875 4.375 C-1.875 4.375 -4.625 4.375 -7.375 4.375 C-7.375 3.715 -7.375 3.055 -7.375 2.375 C-4.32767415 0.34344943 -3.48080195 0.05939935 0 0 Z " fill="#F0F3F8" transform="translate(484.375,947.625)"/>
<path d="M0 0 C0.77085938 -0.03738281 1.54171875 -0.07476563 2.3359375 -0.11328125 C4.625 0.3125 4.625 0.3125 6.8984375 1.75390625 C9.48640486 5.58901625 9.05827482 9.05111987 8.875 13.5625 C8.85695313 14.40296875 8.83890625 15.2434375 8.8203125 16.109375 C8.77330798 18.17757395 8.70156724 20.24518441 8.625 22.3125 C7.7278125 22.003125 7.7278125 22.003125 6.8125 21.6875 C4.34049154 21.00578085 4.34049154 21.00578085 1.625 23.3125 C-2.13765429 23.80328099 -3.92305483 23.56794727 -7.25 21.6875 C-9.375 19.3125 -9.375 19.3125 -10 16.3125 C-9.375 13.3125 -9.375 13.3125 -7.5 10.9375 C-3.10762781 8.65346646 0.77024911 8.97313877 5.625 9.3125 C4.965 7.6625 4.305 6.0125 3.625 4.3125 C-1.95330016 4.18780901 -1.95330016 4.18780901 -7.375 5.3125 C-7 3.375 -7 3.375 -6.375 1.3125 C-4.07513269 0.16256634 -2.56030912 0.0808071 0 0 Z " fill="#ECF1F7" transform="translate(109.375,947.6875)"/>
<path d="M0 0 C3.59889157 0.68189524 5.12929589 2.53813341 7.2265625 5.421875 C8.50959657 9.47685822 8.48470606 13.57881524 8.5390625 17.796875 C8.56806641 18.539375 8.59707031 19.281875 8.62695312 20.046875 C8.68740928 25.31121054 7.71871748 28.25645771 4.2265625 32.421875 C0.47608768 34.92219154 -1.33200016 34.95791054 -5.7734375 34.421875 C-9.51018047 31.51551936 -11.35992805 28.88756415 -12.7734375 24.421875 C-13.07421875 20.86328125 -13.07421875 20.86328125 -13.0859375 16.984375 C-13.10269531 15.70691406 -13.11945312 14.42945313 -13.13671875 13.11328125 C-12.67426258 8.41412986 -11.21319683 5.29913026 -8.359375 1.578125 C-5.68657773 -0.37051537 -3.20560519 -0.10441711 0 0 Z M-6.94921875 5.4453125 C-9.21710785 9.1458082 -9.33202054 12.15271579 -9.2109375 16.359375 C-9.21802734 17.04966797 -9.22511719 17.73996094 -9.23242188 18.45117188 C-9.17270229 23.29764597 -8.33062438 27.86468812 -4.7734375 31.421875 C-2.40121794 31.92322699 -2.40121794 31.92322699 0.2265625 31.421875 C5.53351728 25.96750481 5.55177408 20.96416327 5.52734375 13.67578125 C5.1191494 9.25986059 3.84516799 6.94062613 1.2265625 3.421875 C-2.50900645 2.99737853 -4.12875704 2.82233375 -6.94921875 5.4453125 Z " fill="#ECF0F7" transform="translate(616.7734375,936.578125)"/>
<path d="M0 0 C1.32 0 2.64 0 4 0 C4.27714844 0.99902344 4.55429687 1.99804688 4.83984375 3.02734375 C5.20555549 4.33077791 5.57145038 5.63416069 5.9375 6.9375 C6.11990234 7.59685547 6.30230469 8.25621094 6.49023438 8.93554688 C7.22596101 12.23821173 7.22596101 12.23821173 9 15 C10.65 10.05 12.3 5.1 14 0 C15.32 0 16.64 0 18 0 C19.65 4.62 21.3 9.24 23 14 C25.35126075 10.47310887 26.04142487 7.26154723 27.0234375 3.1796875 C28 1 28 1 30.1015625 0.1953125 C30.72804688 0.13085938 31.35453125 0.06640625 32 0 C30.20645194 7.40315583 28.26858827 14.72764611 26 22 C24.35 21.67 22.7 21.34 21 21 C20.58427734 19.71802734 20.58427734 19.71802734 20.16015625 18.41015625 C19.79792969 17.30542969 19.43570312 16.20070313 19.0625 15.0625 C18.70285156 13.96035156 18.34320313 12.85820313 17.97265625 11.72265625 C17.26143332 9.11876525 17.26143332 9.11876525 16 8 C15.35366725 9.77065111 14.7079517 11.54152753 14.0625 13.3125 C13.70285156 14.29863281 13.34320313 15.28476562 12.97265625 16.30078125 C12.29114035 18.1920563 11.6357189 20.09284329 11 22 C9.68 22 8.36 22 7 22 C5.82828244 18.71010914 4.66348912 15.41780898 3.5 12.125 C3.16613281 11.18785156 2.83226562 10.25070312 2.48828125 9.28515625 C2.17246094 8.38925781 1.85664063 7.49335937 1.53125 6.5703125 C1.23798828 5.74289551 0.94472656 4.91547852 0.64257812 4.06298828 C0 2 0 2 0 0 Z " fill="#E8EDF5" transform="translate(363,948)"/>
<path d="M0 0 C1.32 0 2.64 0 4 0 C5.65 4.95 7.3 9.9 9 15 C10.65 10.05 12.3 5.1 14 0 C15.32 0 16.64 0 18 0 C18.34933594 0.99902344 18.69867188 1.99804688 19.05859375 3.02734375 C19.51807919 4.33078205 19.97772279 5.6341646 20.4375 6.9375 C20.66759766 7.59685547 20.89769531 8.25621094 21.13476562 8.93554688 C22.11964592 12.22328622 22.11964592 12.22328622 24 15 C25.32 10.38 26.64 5.76 28 1 C29.32 0.67 30.64 0.34 32 0 C30.20645194 7.40315583 28.26858827 14.72764611 26 22 C24.35 22 22.7 22 21 22 C20.32815382 19.89748139 19.66269032 17.79292237 19 15.6875 C18.62875 14.51574219 18.2575 13.34398437 17.875 12.13671875 C17 9 17 9 17 6 C16.34 6 15.68 6 15 6 C14.87882812 6.56847656 14.75765625 7.13695312 14.6328125 7.72265625 C13.58677946 12.54245464 12.40795516 17.2732934 11 22 C9.35 21.67 7.7 21.34 6 21 C4.99263372 18.06497405 3.99539496 15.12660539 3 12.1875 C2.71382813 11.35412109 2.42765625 10.52074219 2.1328125 9.66210938 C1.72675781 8.45844727 1.72675781 8.45844727 1.3125 7.23046875 C1.06113281 6.49207764 0.80976563 5.75368652 0.55078125 4.99291992 C0 3 0 3 0 0 Z " fill="#EAEFF6" transform="translate(440,948)"/>
<path d="M0 0 C4.29085983 0.87568568 6.18527073 2.33673797 9.0625 5.625 C9.81416097 8.44942304 9.74948279 10.79119599 9.0625 13.625 C7.26886089 16.4350346 6.04369065 18.13440468 3.0625 19.625 C-0.87179172 20.14957223 -2.48208957 19.93190703 -5.8125 17.6875 C-8.29754541 14.10611103 -8.67877589 12.0597017 -8.421875 7.78515625 C-7.36305136 3.06314437 -4.56614461 0.97152013 0 0 Z " fill="#053F97" transform="translate(423.9375,452.375)"/>
<path d="M0 0 C3.62763593 2.62424727 4.83514312 3.99254127 5.5625 8.4375 C4.51395405 15.07829103 -0.09364361 19.37627341 -4.75 23.875 C-6.4825 25.56625 -8.215 27.2575 -10 29 C-5.05 29.33 -0.1 29.66 5 30 C5 30.99 5 31.98 5 33 C-1.93 33 -8.86 33 -16 33 C-14.8754977 27.37748849 -14.8754977 27.37748849 -11.875 24.51953125 C-11.25109375 23.91302734 -10.6271875 23.30652344 -9.984375 22.68164062 C-9.32953125 22.06482422 -8.6746875 21.44800781 -8 20.8125 C-6.70635974 19.57106373 -5.4145982 18.32766587 -4.125 17.08203125 C-3.55007813 16.53780518 -2.97515625 15.9935791 -2.3828125 15.43286133 C-0.0016866 12.96555414 0.00109571 11.9364486 0.0625 8.375 C0.041875 7.26125 0.02125 6.1475 0 5 C-2.82883747 3.58558126 -4.87376745 3.68099668 -8 4 C-9.63676257 5.9600281 -9.63676257 5.9600281 -11 8 C-12.32 8 -13.64 8 -15 8 C-13.82191948 4.6470016 -12.80593388 2.2447471 -10 0 C-6.1544104 -1.2818632 -3.93271581 -0.94927623 0 0 Z " fill="#EDF1F7" transform="translate(646,937)"/>
<path d="M0 0 C4.25331827 0.86802414 6.18199992 2.40158324 9.0625 5.625 C9.83402986 9.94556721 9.58997866 11.81619939 7.1875 15.5 C4.68795713 17.99954287 3.74074042 18.53456794 0.25 19 C-2.9375 18.625 -2.9375 18.625 -5.8125 16.625 C-8.18016331 13.2824165 -8.69476358 11.56486585 -8.421875 7.5625 C-7.28464708 3.01358834 -4.4078842 0.9378477 0 0 Z " fill="#053F97" transform="translate(375.9375,452.375)"/>
<path d="M0 0 C4.25331827 0.86802414 6.18199992 2.40158324 9.0625 5.625 C9.83402986 9.94556721 9.58997866 11.81619939 7.1875 15.5 C4.68795713 17.99954287 3.74074042 18.53456794 0.25 19 C-2.9375 18.625 -2.9375 18.625 -5.8125 16.625 C-8.18016331 13.2824165 -8.69476358 11.56486585 -8.421875 7.5625 C-7.28464708 3.01358834 -4.4078842 0.9378477 0 0 Z " fill="#053F97" transform="translate(207.9375,452.375)"/>
<path d="M0 0 C4.25331827 0.86802414 6.18199992 2.40158324 9.0625 5.625 C9.83402986 9.94556721 9.58997866 11.81619939 7.1875 15.5 C4.68795713 17.99954287 3.74074042 18.53456794 0.25 19 C-2.9375 18.625 -2.9375 18.625 -5.8125 16.625 C-8.18016331 13.2824165 -8.69476358 11.56486585 -8.421875 7.5625 C-7.28464708 3.01358834 -4.4078842 0.9378477 0 0 Z " fill="#053F97" transform="translate(652.9375,360.375)"/>
<path d="M0 0 C3.69217683 2.43683671 4.72574775 3.92408733 5.8125 8.1875 C3.90516105 17.13732124 -4.19862032 23.41315241 -11 29 C-5.72 29.33 -0.44 29.66 5 30 C5 30.99 5 31.98 5 33 C-1.93 33 -8.86 33 -16 33 C-14.87600693 27.38003463 -14.87600693 27.38003463 -12.12890625 24.80859375 C-11.55462891 24.25623047 -10.98035156 23.70386719 -10.38867188 23.13476562 C-9.4847168 22.29461914 -9.4847168 22.29461914 -8.5625 21.4375 C-7.37177337 20.31598675 -6.18540917 19.18981995 -5.00390625 18.05859375 C-4.47611572 17.56673584 -3.9483252 17.07487793 -3.40454102 16.56811523 C-1.11001986 14.00637191 -0.07562132 11.79402389 0.25 8.375 C0.23209395 5.81262847 0.23209395 5.81262847 -2 4 C-5.58343976 3.83322718 -5.58343976 3.83322718 -9 4 C-9.66 5.32 -10.32 6.64 -11 8 C-12.32 8 -13.64 8 -15 8 C-14.6406828 5.4847796 -13.93759565 3.90232362 -12.5625 1.75 C-8.56749715 -0.97829463 -4.68183866 -0.86224492 0 0 Z " fill="#F1F4F9" transform="translate(593,937)"/>
<path d="M0 0 C3.34265205 1.20706879 3.94704566 1.92056849 6 5 C6.32997475 8.87720334 6.30077936 11.7789089 4 15 C0.78044012 17.29968563 -2.12559532 17.55348638 -6 17 C-9.63525215 14.39210172 -10.83397068 12.9297642 -11.625 8.5 C-10.43770475 1.85114658 -6.64836107 -0.99018144 0 0 Z " fill="#053F97" transform="translate(142,454)"/>
<path d="M0 0 C3.34265205 1.20706879 3.94704566 1.92056849 6 5 C6.32997475 8.87720334 6.30077936 11.7789089 4 15 C0.78044012 17.29968563 -2.12559532 17.55348638 -6 17 C-9.63525215 14.39210172 -10.83397068 12.9297642 -11.625 8.5 C-10.43770475 1.85114658 -6.64836107 -0.99018144 0 0 Z " fill="#053F97" transform="translate(566,362)"/>
<path d="M0 0 C3.34265205 1.20706879 3.94704566 1.92056849 6 5 C6.32997475 8.87720334 6.30077936 11.7789089 4 15 C0.78044012 17.29968563 -2.12559532 17.55348638 -6 17 C-9.63525215 14.39210172 -10.83397068 12.9297642 -11.625 8.5 C-10.43770475 1.85114658 -6.64836107 -0.99018144 0 0 Z " fill="#053F97" transform="translate(263,362)"/>
<path d="M0 0 C0 1.65 0 3.3 0 5 C-0.61488281 5.08636719 -1.22976562 5.17273438 -1.86328125 5.26171875 C-3.07564453 5.47248047 -3.07564453 5.47248047 -4.3125 5.6875 C-5.11300781 5.81511719 -5.91351563 5.94273437 -6.73828125 6.07421875 C-9.11769075 6.86416593 -9.11769075 6.86416593 -10.75 8.875 C-12.64371561 13.60928901 -12.57427727 18.25629644 -12.6875 23.3125 C-12.72166016 24.33923828 -12.75582031 25.36597656 -12.79101562 26.42382812 C-12.87323409 28.94910963 -12.94246936 31.4740554 -13 34 C-14.65 34 -16.3 34 -18 34 C-18 23.11 -18 12.22 -18 1 C-16.35 1 -14.7 1 -13 1 C-12.67 1.99 -12.34 2.98 -12 4 C-11.401875 3.525625 -10.80375 3.05125 -10.1875 2.5625 C-6.76700592 0.11928994 -4.09052446 -0.11055472 0 0 Z " fill="#F1F5F9" transform="translate(222,226)"/>
<path d="M0 0 C3.2783534 0.6631074 3.75888286 1.03971455 5.9375 3.8125 C7.04772544 7.80931159 6.98397538 10.19518863 5.875 14.1875 C3.75094984 17.25557245 2.59026132 18.03531674 -1.0625 18.8125 C-4.57303276 18.09606474 -6.09907453 16.86523506 -8.203125 13.96875 C-9.82752444 10.83007989 -9.74814186 8.61478024 -9.125 5.1875 C-6.55263323 1.32894985 -4.61007625 -0.22965324 0 0 Z " fill="#0A4299" transform="translate(350.125,877.8125)"/>
<path d="M0 0 C4.0769435 0.93429955 5.55804571 2.31185731 8 5.6875 C8.50951861 9.83643725 8.54666957 13.24949608 6 16.6875 C3.85117288 18.16944974 2.11616579 18.66367112 -0.4375 19.1875 C-3.69009209 18.55284789 -5.09909959 17.02728912 -7.04296875 14.3984375 C-8.62357618 11.5726985 -8.65650913 9.83874382 -8 6.6875 C-5.65945491 2.97016368 -4.35321372 0.99761148 0 0 Z " fill="#094298" transform="translate(148,877.3125)"/>
<path d="M0 0 C2.875 1.4375 2.875 1.4375 5 4 C5.72820192 7.14771151 5.68877006 9.84733703 5 13 C2.9375 16.125 2.9375 16.125 0 18 C-3.75602354 18.06475903 -5.94157604 17.819425 -8.9375 15.5 C-10.56582719 11.6686419 -10.66844182 8.09326734 -10 4 C-7.34545768 -0.18600905 -4.80463883 -0.78443083 0 0 Z " fill="#074098" transform="translate(114,878)"/>
<path d="M0 0 C3.38677089 2.45000447 4.78698584 3.86392446 5.5625 8 C4.8491179 11.80470451 3.88381579 13.41196019 1 16 C-2.4375 17.125 -2.4375 17.125 -6 17 C-8.98170781 15.03334166 -10.64103498 13.59330089 -11.4453125 10.0234375 C-11.63539698 6.63993376 -11.23198885 4.37118216 -9.4375 1.5 C-6.00863886 -0.61006839 -3.95779649 -0.62491523 0 0 Z " fill="#094298" transform="translate(531,951)"/>
<path d="M0 0 C3.0625 2.0625 3.0625 2.0625 5 5 C5.0652915 8.78690691 4.83811613 10.960736 2.4375 13.9375 C-1.09387641 15.47681792 -4.21223417 15.68303974 -8 15 C-10.5 13.4375 -10.5 13.4375 -12 11 C-12.55802097 7.09385318 -12.58392818 4.94888329 -10.5 1.5625 C-7.02348669 -0.61032082 -3.92483969 -0.88425242 0 0 Z " fill="#F1F7FD" transform="translate(829,922)"/>
<path d="M0 0 C1.299375 0.02900391 1.299375 0.02900391 2.625 0.05859375 C3.49125 0.05988281 4.3575 0.06117188 5.25 0.0625 C8.07027814 0.57738631 8.98044899 1.16939779 10.625 3.49609375 C11.375 10.24609375 11.375 10.24609375 9.125 13.99609375 C5.5933809 16.11506521 2.64176563 16.29450823 -1.375 15.49609375 C-3.875 13.93359375 -3.875 13.93359375 -5.375 11.49609375 C-5.82843464 7.86861667 -5.95158677 5.5361747 -4.16015625 2.3046875 C-2.375 0.49609375 -2.375 0.49609375 0 0 Z " fill="#F4F8FD" transform="translate(878.375,921.50390625)"/>
<path d="M0 0 C3 2.25 3 2.25 5 5 C5 6.65 5 8.3 5 10 C-2.26 10 -9.52 10 -17 10 C-15 3 -15 3 -13.0625 1.125 C-8.64999556 -1.2818206 -4.77182849 -1.3554221 0 0 Z " fill="#043E96" transform="translate(293,231)"/>
<path d="M0 0 C0.99386719 0.00902344 1.98773438 0.01804688 3.01171875 0.02734375 C4.15060547 0.04474609 4.15060547 0.04474609 5.3125 0.0625 C5.63559965 4.69359503 5.26072192 7.4026383 2.3125 11.0625 C-2.06991525 13.81716101 -5.82098932 13.01984636 -10.6875 12.0625 C-12.6875 10.0625 -12.6875 10.0625 -13.0625 7.125 C-12.6875 4.0625 -12.6875 4.0625 -10.875 2.25 C-7.10992058 0.20609974 -4.21576231 -0.0495972 0 0 Z " fill="#074198" transform="translate(182.6875,243.9375)"/>
<path d="M0 0 C3.0625 0.4375 3.0625 0.4375 5.4375 1.9375 C7.72803108 5.46139397 7.73295833 8.34770416 7.0625 12.4375 C6 14.9375 6 14.9375 4.0625 16.4375 C0.41307669 16.95884619 -1.84372489 17.24901056 -4.875 15 C-6.43309391 11.24224409 -6.68986814 7.44275391 -5.9375 3.4375 C-3.9711182 0.86916458 -3.28445937 0.4891748 0 0 Z " fill="#0A4399" transform="translate(266.9375,877.5625)"/>
<path d="M0 0 C1.98 0 3.96 0 6 0 C6 3.63 6 7.26 6 11 C6.99 10.67 7.98 10.34 9 10 C9.33 6.7 9.66 3.4 10 0 C11.65 0 13.3 0 15 0 C15 4.95 15 9.9 15 15 C3.6122449 15.36734694 3.6122449 15.36734694 1.125 13.875 C-0.51214756 11.14642074 -0.28912073 8.96274248 -0.1875 5.8125 C-0.16042969 4.72582031 -0.13335938 3.63914062 -0.10546875 2.51953125 C-0.07066406 1.68808594 -0.03585937 0.85664062 0 0 Z " fill="#EEF5FD" transform="translate(836,922)"/>
<path d="M0 0 C0 1.32 0 2.64 0 4 C-0.99 4 -1.98 4 -3 4 C-3 4.99 -3 5.98 -3 7 C-2.01 7 -1.02 7 0 7 C0 8.65 0 10.3 0 12 C-0.99 12 -1.98 12 -3 12 C-3 15.63 -3 19.26 -3 23 C-4.98 23 -6.96 23 -9 23 C-9 19.37 -9 15.74 -9 12 C-9.66 12 -10.32 12 -11 12 C-11 10.68 -11 9.36 -11 8 C-10.34 8 -9.68 8 -9 8 C-9.0928125 6.8553125 -9.0928125 6.8553125 -9.1875 5.6875 C-9 3 -9 3 -7.875 1.1875 C-5.22464043 -0.49106106 -3.06753576 -0.20450238 0 0 Z " fill="#E5F0FC" transform="translate(902,914)"/>
<path d="M0 0 C2.5 2 2.5 2 4 4 C3.01 4.66 2.02 5.32 1 6 C0.34 5.34 -0.32 4.68 -1 4 C-4.08347826 3.83318891 -4.08347826 3.83318891 -7 4 C-7.33 5.32 -7.66 6.64 -8 8 C-6.7625 8.268125 -5.525 8.53625 -4.25 8.8125 C1.72807018 10.3494152 1.72807018 10.3494152 4 13 C4.5625 15.9375 4.5625 15.9375 4 19 C1.45944057 21.83944877 -0.1777952 22.86005025 -3.9375 23.5 C-7.73969864 22.87923287 -9.96348352 21.31353637 -13 19 C-12.67 18.34 -12.34 17.68 -12 17 C-11.195625 17.2165625 -11.195625 17.2165625 -10.375 17.4375 C-5.09784403 18.98302116 -5.09784403 18.98302116 0 18 C-0.19637806 16.03399225 -0.19637806 16.03399225 -1 14 C-2.78306412 12.93960012 -2.78306412 12.93960012 -4.9375 12.375 C-7.75252096 11.50648174 -8.86379137 11.13620863 -11 9 C-11.32339354 5.96010077 -11.45670212 3.85631647 -10 1.125 C-6.79527772 -0.67765628 -3.52877299 -0.67451395 0 0 Z " fill="#EBEFF6" transform="translate(557,948)"/>
<path d="M0 0 C8.25 0 16.5 0 25 0 C25 0.99 25 1.98 25 3 C21.37 3 17.74 3 14 3 C14 12.9 14 22.8 14 33 C13.01 33 12.02 33 11 33 C11 23.1 11 13.2 11 3 C7.37 3 3.74 3 0 3 C0 2.01 0 1.02 0 0 Z " fill="#F5F7FB" transform="translate(60,937)"/>
<path d="M0 0 C1.93719378 -0.05406122 3.87481921 -0.09282025 5.8125 -0.125 C6.89144531 -0.14820313 7.97039062 -0.17140625 9.08203125 -0.1953125 C12 0 12 0 15 2 C15.4375 4.9375 15.4375 4.9375 15 8 C12.73503621 10.28087688 11.42146937 10.95585167 8.203125 11.29296875 C5.46875 11.1953125 2.734375 11.09765625 0 11 C0 7.37 0 3.74 0 0 Z " fill="#043E96" transform="translate(270,459)"/>
<path d="M0 0 C2.32421875 0.1015625 2.32421875 0.1015625 5 1 C6.58203125 3.8359375 6.58203125 3.8359375 7.8125 7.375 C8.23144531 8.53773438 8.65039062 9.70046875 9.08203125 10.8984375 C10 14 10 14 10 17 C10.66 17 11.32 17 12 17 C12.16822266 15.95779297 12.16822266 15.95779297 12.33984375 14.89453125 C13.08446115 11.62967036 14.24400088 8.76399795 15.5625 5.6875 C16.24505859 4.08455078 16.24505859 4.08455078 16.94140625 2.44921875 C17.29074219 1.64097656 17.64007813 0.83273437 18 0 C18.99 0 19.98 0 21 0 C20.40644629 5.30018387 18.62627368 9.58136893 16.4375 14.375 C16.10814453 15.11105469 15.77878906 15.84710937 15.43945312 16.60546875 C14.63252195 18.40644557 13.8171174 20.20362181 13 22 C10.734375 22.0546875 10.734375 22.0546875 8 21 C6.29719358 18.21516909 5.3074075 15.20238774 4.25 12.125 C3.94707031 11.29613281 3.64414062 10.46726562 3.33203125 9.61328125 C2.17276239 6.4240038 1.07308591 3.21925772 0 0 Z " fill="#E8EEF5" transform="translate(302,948)"/>
<path d="M0 0 C1.32 0 2.64 0 4 0 C5.98 5.28 7.96 10.56 10 16 C12.37247413 10.68238557 14.72004216 5.35790092 17 0 C18.32 0 19.64 0 21 0 C19.34772342 5.21771551 17.56563285 10.38211652 15.625 15.5 C15.05652344 17.03140625 15.05652344 17.03140625 14.4765625 18.59375 C13 21 13 21 10.40771484 21.65039062 C9.61316895 21.76576172 8.81862305 21.88113281 8 22 C6.66108439 18.71057634 5.32982297 15.41810891 4 12.125 C3.6184375 11.18785156 3.236875 10.25070312 2.84375 9.28515625 C2.4828125 8.38925781 2.121875 7.49335937 1.75 6.5703125 C1.41484375 5.74289551 1.0796875 4.91547852 0.734375 4.06298828 C0 2 0 2 0 0 Z " fill="#E8EDF5" transform="translate(123,948)"/>
<path d="M0 0 C8.24615385 -0.49230769 8.24615385 -0.49230769 12.0625 2 C12.701875 2.66 13.34125 3.32 14 4 C13.75 6.875 13.75 6.875 13 10 C8.86863162 12.80342854 4.81544138 12.14163063 0 12 C0 8.04 0 4.08 0 0 Z " fill="#12499C" transform="translate(256,940)"/>
<path d="M0 0 C0.79148437 -0.02578125 1.58296875 -0.0515625 2.3984375 -0.078125 C4.625 0.25 4.625 0.25 6.39453125 1.54296875 C8.41202215 4.34183707 7.92712669 6.92660637 7.625 10.25 C5.625 12.25 5.625 12.25 3.0234375 12.4453125 C2.02570313 12.42210937 1.02796875 12.39890625 0 12.375 C-1.50433594 12.34792969 -1.50433594 12.34792969 -3.0390625 12.3203125 C-3.80992188 12.29710937 -4.58078125 12.27390625 -5.375 12.25 C-5.40187279 10.43757948 -5.42133715 8.62504767 -5.4375 6.8125 C-5.44910156 5.80316406 -5.46070312 4.79382813 -5.47265625 3.75390625 C-5.31054404 -0.40265091 -3.74337755 0.07268694 0 0 Z " fill="#084198" transform="translate(74.375,882.75)"/>
<path d="M0 0 C2.7912125 1.98322993 3.82597224 3.12986121 4.5 6.5 C3.82597224 9.87013879 2.7912125 11.01677007 0 13 C-3.70758991 13.61793165 -5.2935202 13.50197249 -8.375 11.3125 C-10 9 -10 9 -10.5 6.5 C-9.33827182 0.69135908 -5.5534724 -0.92557873 0 0 Z " fill="#F4F6FA" transform="translate(345,426)"/>
<path d="M0 0 C2.7912125 1.98322993 3.82597224 3.12986121 4.5 6.5 C3.82597224 9.87013879 2.7912125 11.01677007 0 13 C-3.70758991 13.61793165 -5.2935202 13.50197249 -8.375 11.3125 C-10 9 -10 9 -10.5 6.5 C-9.33827182 0.69135908 -5.5534724 -0.92557873 0 0 Z " fill="#F4F6FA" transform="translate(623,334)"/>
<path d="M0 0 C1.98 0 3.96 0 6 0 C6 1.32 6 2.64 6 4 C6.99 4 7.98 4 9 4 C9 5.32 9 6.64 9 8 C8.01 8 7.02 8 6 8 C6 10.31 6 12.62 6 15 C6.99 15 7.98 15 9 15 C9 16.32 9 17.64 9 19 C5.625 19.1875 5.625 19.1875 2 19 C-0.67927341 14.98108988 -0.15601248 12.75838077 0 8 C-0.66 8 -1.32 8 -2 8 C-2 6.68 -2 5.36 -2 4 C-1.34 4 -0.68 4 0 4 C0 2.68 0 1.36 0 0 Z " fill="#E4EFFC" transform="translate(855,918)"/>
<path d="M0 0 C1.32 0 2.64 0 4 0 C4 11.55 4 23.1 4 35 C2.68 35 1.36 35 0 35 C0 23.45 0 11.9 0 0 Z " fill="#DFE6F1" transform="translate(186,935)"/>
<path d="M0 0 C0 6.93 0 13.86 0 21 C-1.65 21 -3.3 21 -5 21 C-5.33 16.38 -5.66 11.76 -6 7 C-7.32 7.33 -8.64 7.66 -10 8 C-10.33 6.68 -10.66 5.36 -11 4 C-6.85299144 0.09693312 -6.17456556 0 0 0 Z " fill="#FAFCFE" transform="translate(923,916)"/>
<path d="M0 0 C1.77007714 -0.08114106 3.54122098 -0.13925505 5.3125 -0.1875 C6.29863281 -0.22230469 7.28476562 -0.25710938 8.30078125 -0.29296875 C11 0 11 0 12.8671875 1.3515625 C14 3 14 3 13.8125 5.5625 C13 8 13 8 11 10 C8.3984375 10.1953125 8.3984375 10.1953125 5.375 10.125 C3.87066406 10.09792969 3.87066406 10.09792969 2.3359375 10.0703125 C1.56507813 10.04710937 0.79421875 10.02390625 0 10 C0 6.7 0 3.4 0 0 Z " fill="#074097" transform="translate(270,440)"/>
<path d="M0 0 C2.475 0.495 2.475 0.495 5 1 C5.66 0.67 6.32 0.34 7 0 C8.99960012 -0.039992 11.00047242 -0.04346799 13 0 C13 0.99 13 1.98 13 3 C11.865625 3.309375 10.73125 3.61875 9.5625 3.9375 C6.21224901 4.62924531 6.21224901 4.62924531 5 6 C4.76321284 8.69235776 4.57801975 11.36498156 4.4375 14.0625 C4.39431641 14.82111328 4.35113281 15.57972656 4.30664062 16.36132812 C4.20026367 18.24065438 4.09960066 20.12030244 4 22 C2.68 22 1.36 22 0 22 C0 14.74 0 7.48 0 0 Z " fill="#D3DDEC" transform="translate(224,948)"/>
<path d="M0 0 C1.32 0 2.64 0 4 0 C4.33 0.66 4.66 1.32 5 2 C5.66 1.34 6.32 0.68 7 0 C10.125 -0.125 10.125 -0.125 13 0 C13 0.99 13 1.98 13 3 C11.2984375 3.433125 11.2984375 3.433125 9.5625 3.875 C8.386875 4.24625 7.21125 4.6175 6 5 C4.47893366 8.04213267 4.62570662 11.28047572 4.4375 14.625 C4.39431641 15.33140625 4.35113281 16.0378125 4.30664062 16.765625 C4.20055249 18.51018537 4.09977111 20.25506697 4 22 C2.68 22 1.36 22 0 22 C0 14.74 0 7.48 0 0 Z " fill="#DBE3F0" transform="translate(85,948)"/>
<path d="M0 0 C2.375 1.1875 2.375 1.1875 4 3 C4.4375 5.5 4.4375 5.5 4 8 C2.765625 9.64453125 2.765625 9.64453125 1 11 C-1.26171875 11.29296875 -1.26171875 11.29296875 -3.6875 11.1875 C-5.110625 11.125625 -6.53375 11.06375 -8 11 C-8 7.7 -8 4.4 -8 1 C-5.19084526 -0.40457737 -3.11189466 -0.24895157 0 0 Z " fill="#0D459A" transform="translate(77,865)"/>
<path d="M0 0 C0.66 0 1.32 0 2 0 C3.98 4.95 5.96 9.9 8 15 C3.38 15 -1.24 15 -6 15 C-4.02 10.05 -2.04 5.1 0 0 Z " fill="#0A4299" transform="translate(422,943)"/>
<path d="M0 0 C0.99 0 1.98 0 3 0 C3 11.55 3 23.1 3 35 C2.01 35 1.02 35 0 35 C0 23.45 0 11.9 0 0 Z " fill="#FFFFFF" transform="translate(175,935)"/>
<path d="M0 0 C0.33 0 0.66 0 1 0 C1 5.61 1 11.22 1 17 C-2.63 17 -6.26 17 -10 17 C-8.27738522 12.69346304 -6.50068956 9.49739519 -3.9375 5.6875 C-3.22464844 4.61886719 -2.51179687 3.55023437 -1.77734375 2.44921875 C-1.19082031 1.64097656 -0.60429688 0.83273437 0 0 Z " fill="#194E9F" transform="translate(671,942)"/>
<path d="M0 0 C3.0625 0.3125 3.0625 0.3125 4.9375 1.5 C6.48479478 3.99286381 6.56655716 5.43217335 6.0625 8.3125 C4.375 10.1875 4.375 10.1875 2.0625 11.3125 C-1.30786311 11.07175978 -2.52548021 10.72451979 -4.9375 8.3125 C-5.1875 5.3125 -5.1875 5.3125 -4.9375 2.3125 C-2.9375 0.3125 -2.9375 0.3125 0 0 Z " fill="#F4F7FA" transform="translate(291.9375,892.6875)"/>
<path d="M0 0 C2.9375 0.875 2.9375 0.875 4.9375 3.875 C4.38194444 9.43055556 4.38194444 9.43055556 2.9375 10.875 C-0.5 11.0625 -0.5 11.0625 -4.0625 10.875 C-6.0625 8.875 -6.0625 8.875 -6.375 5.9375 C-6.0625 2.875 -6.0625 2.875 -4.9375 0.9375 C-3.0625 -0.125 -3.0625 -0.125 0 0 Z " fill="#F4F6FA" transform="translate(207.0625,856.125)"/>
<path d="M0 0 C0.99 0 1.98 0 3 0 C3.33 0.66 3.66 1.32 4 2 C4.66 1.34 5.32 0.68 6 0 C9.125 -0.125 9.125 -0.125 12 0 C12 0.99 12 1.98 12 3 C11.05125 3.28875 10.1025 3.5775 9.125 3.875 C5.94788422 4.76825109 5.94788422 4.76825109 4 7 C3.69400937 9.56916657 3.48912913 12.04758384 3.375 14.625 C3.33632813 15.33140625 3.29765625 16.0378125 3.2578125 16.765625 C3.16352276 18.50998524 3.08067109 20.25495691 3 22 C2.01 22 1.02 22 0 22 C0 14.74 0 7.48 0 0 Z " fill="#F8FAFC" transform="translate(502,948)"/>
<path d="M0 0 C1.32 0 2.64 0 4 0 C4 7.26 4 14.52 4 22 C2.68 22 1.36 22 0 22 C0 14.74 0 7.48 0 0 Z " fill="#CDD8EA" transform="translate(328,948)"/>
<path d="M0 0 C-0.32735528 2.94619748 -0.62467313 5.35360372 -2.125 7.9375 C-5.13768486 9.64468809 -7.7310945 8.67845209 -11 8 C-11.33 6.35 -11.66 4.7 -12 3 C-7.89542386 0.01485372 -5.02254631 -0.2954439 0 0 Z " fill="#1B50A0" transform="translate(491,959)"/>
<path d="M0 0 C0.25 2.3125 0.25 2.3125 0 5 C-2.32000152 7.587694 -3.64794962 7.97183597 -7.125 8.25 C-10 8 -10 8 -12 7 C-12 5.35 -12 3.7 -12 2 C-8.09971775 -0.60018816 -4.52565431 -0.15085514 0 0 Z " fill="#0B4399" transform="translate(705,373)"/>
<path d="M0 0 C0.36337162 3.27034459 0.28544288 4.60883753 -1.6875 7.3125 C-4 9 -4 9 -6.625 9.375 C-9 9 -9 9 -11 7 C-10.875 4.5 -10.875 4.5 -10 2 C-6.88390372 -0.42363044 -3.82627315 -0.17392151 0 0 Z " fill="#11489C" transform="translate(115,959)"/>
<path d="M0 0 C2.4375 1.3125 2.4375 1.3125 4 3 C4 3.99 4 4.98 4 6 C-0.95 6 -5.9 6 -11 6 C-9.37304347 -0.50782611 -6.13043691 -0.53775762 0 0 Z " fill="#0B4399" transform="translate(476,452)"/>
<path d="M0 0 C2.4375 1.3125 2.4375 1.3125 4 3 C4 3.99 4 4.98 4 6 C-0.95 6 -5.9 6 -11 6 C-9.37304347 -0.50782611 -6.13043691 -0.53775762 0 0 Z " fill="#0B4399" transform="translate(465,360)"/>
<path d="M0 0 C2.4375 1.3125 2.4375 1.3125 4 3 C4 3.99 4 4.98 4 6 C-0.95 6 -5.9 6 -11 6 C-9.37304347 -0.50782611 -6.13043691 -0.53775762 0 0 Z " fill="#0B4399" transform="translate(339,360)"/>
<path d="M0 0 C2.375 1.875 2.375 1.875 4 4 C4 4.66 4 5.32 4 6 C-0.62 6 -5.24 6 -10 6 C-7.51706914 -0.20732716 -6.4253917 -0.64253917 0 0 Z " fill="#084198" transform="translate(161,951)"/>
<path d="M0 0 C3.5625 0.375 3.5625 0.375 5.5 2.25 C6.5625 4.375 6.5625 4.375 6.5625 6.375 C1.9425 6.375 -2.6775 6.375 -7.4375 6.375 C-4.49519231 0.49038462 -4.49519231 0.49038462 0 0 Z " fill="#053F97" transform="translate(349.4375,950.625)"/>
<path d="M0 0 C0.99 0.66 1.98 1.32 3 2 C3 3.32 3 4.64 3 6 C-1.29 6 -5.58 6 -10 6 C-8.4787794 -0.08488238 -5.80683625 -0.48390302 0 0 Z " fill="#074198" transform="translate(292,951)"/>
<path d="M0 0 C3.5625 0.3125 3.5625 0.3125 5.5 1.625 C6.5625 3.3125 6.5625 3.3125 6.5625 6.3125 C2.2725 6.3125 -2.0175 6.3125 -6.4375 6.3125 C-4.97238372 0.45203488 -4.97238372 0.45203488 0 0 Z " fill="#053E97" transform="translate(207.4375,950.6875)"/>
<path d="M0 0 C2.0625 0.4375 2.0625 0.4375 4 1 C4.02698189 2.62490954 4.04638757 4.24994633 4.0625 5.875 C4.07410156 6.77992188 4.08570313 7.68484375 4.09765625 8.6171875 C4 11 4 11 3 13 C2.01 13 1.02 13 0 13 C-1.25069801 10.49860398 -1.13302467 8.72607309 -1.125 5.9375 C-1.12757813 5.03902344 -1.13015625 4.14054688 -1.1328125 3.21484375 C-1 1 -1 1 0 0 Z " fill="#0870E4" transform="translate(934,920)"/>
<path d="M0 0 C1.67542976 0.28604898 3.34385343 0.61781233 5 1 C5 2.65 5 4.3 5 6 C3.35 6.33 1.7 6.66 0 7 C-0.38133299 5.0085944 -0.71325582 3.00720923 -1 1 C-0.67 0.67 -0.34 0.34 0 0 Z " fill="#0A72E5" transform="translate(879,926)"/>
<path d="M0 0 C1.67542976 0.28604898 3.34385343 0.61781233 5 1 C5 2.65 5 4.3 5 6 C3.35 6.33 1.7 6.66 0 7 C-0.38133299 5.0085944 -0.71325582 3.00720923 -1 1 C-0.67 0.67 -0.34 0.34 0 0 Z " fill="#0B72E5" transform="translate(823,926)"/>
<path d="M0 0 C0 0.99 0 1.98 0 3 C-1.28745036 3.38922918 -2.58019597 3.76098036 -3.875 4.125 C-4.95394531 4.43824219 -4.95394531 4.43824219 -6.0546875 4.7578125 C-6.69664063 4.83773437 -7.33859375 4.91765625 -8 5 C-8.66 4.34 -9.32 3.68 -10 3 C-6.68152292 -0.06320961 -4.44849969 -0.3033068 0 0 Z " fill="#EBF0F7" transform="translate(98,948)"/>
<path d="M0 0 C1.98 0 3.96 0 6 0 C6 0.99 6 1.98 6 3 C3.36 3.66 0.72 4.32 -2 5 C-1.34 3.35 -0.68 1.7 0 0 Z " fill="#E6ECF5" transform="translate(231,948)"/>
<path d="M0 0 C3 1 3 1 6 3 C3.03 3.66 0.06 4.32 -3 5 C-2.67 3.68 -2.34 2.36 -2 1 C-1.34 0.67 -0.68 0.34 0 0 Z " fill="#E1E8F2" transform="translate(105,948)"/>
<path d="M0 0 C1.98 0 3.96 0 6 0 C6 0.99 6 1.98 6 3 C4.02 3.33 2.04 3.66 0 4 C0 2.68 0 1.36 0 0 Z " fill="#F0F3F8" transform="translate(508,948)"/>
</svg>
