%
M48
METRIC,TZ,000.000
ICI,OFF
T1C0.25
T2C1.3
T3C0.8
T4C1.5
T5C0.813
T6C1.1
T7C1.2
T8C0.9
T9C0.999
T10C0.5
T11C0.75
T12C1.016
T13C3.556
T14C2.997
T15C2.007
T16C1.524
T17C1.067
%
T1
X17939Y44540
T1
X19460Y43000
T1
X59460Y23148
T1
X61632Y25419
T1
X64034Y25435
T1
X74728Y45000
T1
X72460Y47300
T1
X58489Y24774
T1
X60354Y26582
T1
X66657Y27000
T1
X35002Y33000
T1
X24460Y34243
T1
X7460Y10092
T2
X37660Y48000
T2
X23460Y54000
T2
X35660Y54000
T2
X35660Y42000
T2
X23460Y42000
T3
X38730Y36470
T3
X37460Y34565
T3
X36190Y36470
T4
X56060Y4227
T4
X51060Y24227
T4
X36060Y4227
T4
X41060Y24227
T3
X39460Y30800
T3
X41461Y30800
T3
X66260Y20100
T3
X66260Y18100
T3
X66260Y16100
T3
X66260Y14100
T3
X66260Y12100
T3
X66260Y10100
T3
X66260Y8100
T3
X66260Y6100
T3
X66260Y4100
T3
X66260Y2100
T3
X88260Y2100
T3
X88260Y4100
T3
X88260Y6100
T3
X88260Y8100
T3
X88260Y10100
T3
X88260Y12100
T3
X88260Y14100
T3
X88260Y16100
T3
X88260Y18100
T3
X88260Y20100
T5
X8532Y53243
T5
X8532Y55783
T5
X3262Y53243
T5
X3262Y55783
T3
X13000Y42905
T3
X11730Y41000
T3
X10460Y42905
T5
X3460Y36540
T5
X3460Y39080
T6
X32460Y37355
T6
X32460Y29735
T7
X11730Y35705
T7
X11730Y32205
T5
X13858Y53243
T5
X13858Y55783
T3
X7208Y50000
T3
X7208Y42000
T3
X51757Y44540
T3
X51757Y52540
T3
X56460Y44540
T3
X56460Y52540
T3
X4727Y50000
T3
X4727Y42000
T3
X2365Y50000
T3
X2365Y42000
T6
X26460Y14227
T6
X21380Y14227
T7
X3660Y18517
T7
X11260Y18517
T3
X45000Y36470
T3
X43730Y34565
T3
X42460Y36470
T3
X54092Y44540
T3
X54092Y52540
T3
X44811Y43810
T3
X44811Y51810
T3
X42434Y51810
T3
X42434Y43810
T6
X27343Y26427
T6
X17183Y26427
T6
X22263Y26427
T8
X19360Y20490
T8
X26990Y20490
T9
X73080Y31555
T9
X65460Y31555
T9
X70540Y31555
T9
X62920Y31555
T9
X68000Y31555
T9
X60380Y31555
T9
X57840Y31555
T10
X10460Y3730
T10
X10460Y2460
T10
X10460Y6270
T10
X10460Y5000
T9
X51460Y29460
T9
X51460Y34540
T9
X51460Y32000
T9
X51460Y37080
T3
X76160Y40920
T3
X73620Y40920
T3
X48220Y43460
T3
X50760Y40920
T3
X68540Y56160
T3
X63460Y40920
T3
X48220Y46000
T3
X58380Y56160
T3
X71080Y56160
T3
X67270Y43460
T3
X48220Y40920
T3
X73620Y56160
T3
X58380Y40920
T3
X66000Y40920
T3
X55840Y40920
T3
X53300Y56160
T3
X63460Y56160
T3
X66000Y56160
T3
X71080Y40920
T3
X68540Y40920
T3
X53300Y40920
T3
X60920Y40920
T3
X76160Y56160
T3
X55840Y56160
T3
X60920Y56160
T3
X48220Y48540
T3
X48220Y56160
T3
X50760Y56160
T3
X64730Y43460
T11
X87639Y55080
T11
X87639Y52540
T11
X87639Y50000
T11
X87639Y47460
T11
X87639Y44920
T11
X87639Y42380
T12
X87639Y38270
T12
X87639Y35730
T13
X3460Y29000
T13
X87460Y29000
T14
X81860Y10626
T14
X13460Y47226
T14
X13460Y10626
T14
X81860Y47226
T15
X2365Y11000
T15
X74460Y4100
T15
X43091Y56000
T15
X82928Y54000
T16
X68955Y2000
T16
X70947Y2000
T16
X72922Y2000
T16
X75822Y2000
T16
X77857Y2000
T16
X79832Y2000
T16
X81809Y2000
T16
X83865Y2000
T16
X85819Y2000
T16
X17183Y1578
T16
X19221Y1578
T16
X21196Y1578
T16
X24079Y1586
T16
X26114Y1586
T16
X28089Y1586
T17
X16460Y56825
T17
X17987Y56893
T17
X19560Y56884
T17
X22760Y56928
T17
X21214Y56938
T17
X24315Y56918
T17
X32206Y56927
T17
X33761Y56916
T17
X30661Y56937
T17
X29007Y56883
T17
X27452Y56893
T17
X25906Y56904
T17
X35365Y56907
T17
X36910Y56896
T17
X38465Y56886
T17
X39974Y56929
T16
X1566Y33258
T16
X3558Y33258
T16
X5533Y33258
T16
X85493Y33000
T16
X87485Y33000
T16
X89460Y33000
M30
