G75*
G71*
%OFA0B0*%
%FSLAX23Y23*%
%IPPOS*%
%LPD*%
%ADD10C,0.1*%
%LPD*%D10*
X38500Y0D02*
X38400Y0D01*
X38300Y0D01*
X38200Y0D01*
X38100Y0D01*
X38000Y0D01*
X37900Y0D01*
X37800Y0D01*
X37700Y0D01*
X37600Y0D01*
X37500Y0D01*
X37400Y0D01*
X37300Y0D01*
X37200Y0D01*
X37100Y0D01*
X37000Y0D01*
X36900Y0D01*
X36800Y0D01*
X36700Y0D01*
X36600Y0D01*
X36500Y0D01*
X36400Y0D01*
X36300Y0D01*
X36200Y0D01*
X36100Y0D01*
X36000Y0D01*
X35900Y0D01*
X35800Y0D01*
X35700Y0D01*
X35600Y0D01*
X35500Y0D01*
X35400Y0D01*
X35300Y0D01*
X35200Y0D01*
X35100Y0D01*
X35000Y0D01*
X34900Y0D01*
X34800Y0D01*
X34700Y0D01*
X34600Y0D01*
X34500Y0D01*
X34400Y0D01*
X34300Y0D01*
X34200Y0D01*
X34100Y0D01*
X34000Y0D01*
X33900Y0D01*
X33800Y0D01*
X33700Y0D01*
X33600Y0D01*
X33500Y0D01*
X33400Y0D01*
X33300Y0D01*
X33200Y0D01*
X33100Y0D01*
X33000Y0D01*
X32900Y0D01*
X32800Y0D01*
X32700Y0D01*
X32600Y0D01*
X32500Y0D01*
X32400Y0D01*
X32300Y0D01*
X32200Y0D01*
X32100Y0D01*
X32000Y0D01*
X31900Y0D01*
X31800Y0D01*
X31700Y0D01*
X31600Y0D01*
X31500Y0D01*
X31400Y0D01*
X31300Y0D01*
X31200Y0D01*
X31100Y0D01*
X31000Y0D01*
X30900Y0D01*
X30800Y0D01*
X30700Y0D01*
X30600Y0D01*
X30500Y0D01*
X30400Y0D01*
X30300Y0D01*
X30200Y0D01*
X30100Y0D01*
X30000Y0D01*
X29900Y0D01*
X29800Y0D01*
X29700Y0D01*
X29600Y0D01*
X29500Y0D01*
X29400Y0D01*
X29300Y0D01*
X29200Y0D01*
X29100Y0D01*
X29000Y0D01*
X28900Y0D01*
X28800Y0D01*
X28700Y0D01*
X28600Y0D01*
X28500Y0D01*
X28400Y0D01*
X28300Y0D01*
X28200Y0D01*
X28100Y0D01*
X28000Y0D01*
X27900Y0D01*
X27800Y0D01*
X27700Y0D01*
X27600Y0D01*
X27500Y0D01*
X27400Y0D01*
X27300Y0D01*
X27200Y0D01*
X27100Y0D01*
X27000Y0D01*
X26900Y0D01*
X26800Y0D01*
X26700Y0D01*
X26600Y0D01*
X26500Y0D01*
X26400Y0D01*
X26300Y0D01*
X26200Y0D01*
X26100Y0D01*
X26000Y0D01*
X25900Y0D01*
X25800Y0D01*
X25700Y0D01*
X25600Y0D01*
X25500Y0D01*
X25400Y0D01*
X25300Y0D01*
X25200Y0D01*
X25100Y0D01*
X25000Y0D01*
X24900Y0D01*
X24800Y0D01*
X24700Y0D01*
X24600Y0D01*
X24500Y0D01*
X24400Y0D01*
X24300Y0D01*
X24200Y0D01*
X24100Y0D01*
X24000Y0D01*
X23900Y0D01*
X23800Y0D01*
X23700Y0D01*
X23600Y0D01*
X23500Y0D01*
X23400Y0D01*
X23300Y0D01*
X23200Y0D01*
X23100Y0D01*
X23000Y0D01*
X22900Y0D01*
X22800Y0D01*
X22700Y0D01*
X22600Y0D01*
X22500Y0D01*
X22400Y0D01*
X22300Y0D01*
X22200Y0D01*
X22100Y0D01*
X22000Y0D01*
X21900Y0D01*
X21800Y0D01*
X21700Y0D01*
X21600Y0D01*
X21500Y0D01*
X21400Y0D01*
X21300Y0D01*
X21200Y0D01*
X21100Y0D01*
X21000Y0D01*
X20900Y0D01*
X20800Y0D01*
X20700Y0D01*
X20600Y0D01*
X20500Y0D01*
X20400Y0D01*
X20300Y0D01*
X20200Y0D01*
X20100Y0D01*
X20000Y0D01*
X19900Y0D01*
X19800Y0D01*
X19700Y0D01*
X19600Y0D01*
X19500Y0D01*
X19400Y0D01*
X19300Y0D01*
X19200Y0D01*
X19100Y0D01*
X19000Y0D01*
X18900Y0D01*
X18800Y0D01*
X18700Y0D01*
X18600Y0D01*
X18500Y0D01*
X18400Y0D01*
X18300Y0D01*
X18200Y0D01*
X18100Y0D01*
X18000Y0D01*
X17900Y0D01*
X17800Y0D01*
X17700Y0D01*
X17600Y0D01*
X17500Y0D01*
X17400Y0D01*
X17300Y0D01*
X17200Y0D01*
X17100Y0D01*
X17000Y0D01*
X16900Y0D01*
X16800Y0D01*
X16700Y0D01*
X16600Y0D01*
X16500Y0D01*
X16400Y0D01*
X16300Y0D01*
X16200Y0D01*
X16100Y0D01*
X16000Y0D01*
X15900Y0D01*
X15800Y0D01*
X15700Y0D01*
X15600Y0D01*
X15500Y0D01*
X15400Y0D01*
X15300Y0D01*
X15200Y0D01*
X15100Y0D01*
X15000Y0D01*
X14900Y0D01*
X14800Y0D01*
X14700Y0D01*
X14600Y0D01*
X14500Y0D01*
X14400Y0D01*
X14300Y0D01*
X14200Y0D01*
X14100Y0D01*
X14000Y0D01*
X13900Y0D01*
X13800Y0D01*
X13700Y0D01*
X13600Y0D01*
X13500Y0D01*
X13400Y0D01*
X13300Y0D01*
X13200Y0D01*
X13100Y0D01*
X13000Y0D01*
X12900Y0D01*
X12800Y0D01*
X12700Y0D01*
X12600Y0D01*
X12500Y0D01*
X12400Y0D01*
X12300Y0D01*
X12200Y0D01*
X12100Y0D01*
X12000Y0D01*
X11900Y0D01*
X11800Y0D01*
X11700Y0D01*
X11600Y0D01*
X11500Y0D01*
X11400Y0D01*
X11300Y0D01*
X11200Y0D01*
X11100Y0D01*
X11000Y0D01*
X10900Y0D01*
X10800Y0D01*
X10700Y0D01*
X10600Y0D01*
X10500Y0D01*
X10400Y0D01*
X10300Y0D01*
X10200Y0D01*
X10100Y0D01*
X10000Y0D01*
X9900Y0D01*
X9800Y0D01*
X9700Y0D01*
X9600Y0D01*
X9500Y0D01*
X9400Y0D01*
X9300Y0D01*
X9200Y0D01*
X9100Y0D01*
X9000Y0D01*
X8900Y0D01*
X8800Y0D01*
X8700Y0D01*
X8600Y0D01*
X8500Y0D01*
X8400Y0D01*
X8300Y0D01*
X8200Y0D01*
X8100Y0D01*
X8000Y0D01*
X7900Y0D01*
X7800Y0D01*
X7700Y0D01*
X7600Y0D01*
X7500Y0D01*
X7400Y0D01*
X7300Y0D01*
X7200Y0D01*
X7100Y0D01*
X7000Y0D01*
X6900Y0D01*
X6800Y0D01*
X6700Y0D01*
X6600Y0D01*
X6500Y0D01*
X6400Y0D01*
X6300Y0D01*
X6200Y0D01*
X6100Y0D01*
X6000Y0D01*
X5900Y0D01*
X5800Y0D01*
X5700Y0D01*
X5600Y0D01*
X5500Y0D01*
X5400Y0D01*
X5300Y0D01*
X5200Y0D01*
X5100Y0D01*
X5000Y0D01*
X4900Y0D01*
X4800Y0D01*
X4700Y0D01*
X4600Y0D01*
X4500Y0D01*
X4400Y0D01*
X4300Y0D01*
X4200Y0D01*
X4100Y0D01*
X4000Y0D01*
X3900Y0D01*
X3800Y0D01*
X3700Y0D01*
X3600Y0D01*
X3500Y0D01*
X3400Y0D01*
X3300Y0D01*
X3200Y0D01*
X3100Y0D01*
X3000Y0D01*
X2900Y0D01*
X2800Y0D01*
X2700Y0D01*
X2600Y0D01*
X2500Y0D01*
X2400Y0D01*
X2300Y0D01*
X2200Y0D01*
X2100Y0D01*
X2000Y0D01*
X1900Y0D01*
X1800Y0D01*
X1700Y0D01*
X1600Y0D01*
X1500Y0D01*
X1400Y0D01*
X1300Y0D01*
X1200Y0D01*
X1100Y0D01*
X1000Y0D01*
X900Y0D01*
X800Y0D01*
X700Y0D01*
X600Y0D01*
X500Y0D01*
X400Y0D01*
X300Y0D01*
X200Y0D01*
X100Y0D01*
X0Y0D01*
X0Y100D01*
X0Y200D01*
X0Y300D01*
X0Y400D01*
X0Y500D01*
X0Y600D01*
X0Y700D01*
X0Y800D01*
X0Y900D01*
X0Y1000D01*
X0Y1100D01*
X0Y1200D01*
X0Y1300D01*
X0Y1400D01*
X0Y1500D01*
X0Y1600D01*
X0Y1700D01*
X0Y1800D01*
X0Y1900D01*
X0Y2000D01*
X0Y2100D01*
X0Y2200D01*
X0Y2300D01*
X0Y2400D01*
X0Y2500D01*
X0Y2600D01*
X0Y2700D01*
X0Y2800D01*
X0Y2900D01*
X0Y3000D01*
X0Y3100D01*
X0Y3200D01*
X0Y3300D01*
X0Y3400D01*
X0Y3500D01*
X0Y3600D01*
X0Y3700D01*
X0Y3800D01*
X0Y3900D01*
X0Y4000D01*
X0Y4100D01*
X0Y4200D01*
X0Y4300D01*
X0Y4400D01*
X0Y4500D01*
X0Y4600D01*
X0Y4700D01*
X0Y4800D01*
X0Y4900D01*
X0Y5000D01*
X0Y5100D01*
X0Y5200D01*
X0Y5300D01*
X0Y5400D01*
X0Y5500D01*
X0Y5600D01*
X0Y5700D01*
X0Y5800D01*
X0Y5900D01*
X0Y6000D01*
X0Y6100D01*
X0Y6200D01*
X0Y6300D01*
X0Y6400D01*
X0Y6500D01*
X0Y6600D01*
X0Y6700D01*
X0Y6800D01*
X0Y6900D01*
X0Y7000D01*
X0Y7100D01*
X0Y7200D01*
X0Y7300D01*
X0Y7400D01*
X0Y7500D01*
X0Y7600D01*
X0Y7700D01*
X0Y7800D01*
X0Y7900D01*
X0Y8000D01*
X0Y8100D01*
X0Y8200D01*
X0Y8300D01*
X0Y8400D01*
X0Y8500D01*
X0Y8600D01*
X0Y8700D01*
X0Y8800D01*
X0Y8900D01*
X0Y9000D01*
X0Y9100D01*
X0Y9200D01*
X0Y9300D01*
X0Y9400D01*
X0Y9500D01*
X0Y9600D01*
X0Y9700D01*
X0Y9800D01*
X0Y9900D01*
X0Y10000D01*
X0Y10100D01*
X0Y10200D01*
X0Y10300D01*
X0Y10400D01*
X0Y10500D01*
X0Y10600D01*
X0Y10700D01*
X0Y10800D01*
X0Y10900D01*
X0Y11000D01*
X0Y11100D01*
X0Y11200D01*
X0Y11300D01*
X0Y11400D01*
X0Y11500D01*
X0Y11600D01*
X0Y11700D01*
X0Y11800D01*
X0Y11900D01*
X0Y12000D01*
X0Y12100D01*
X0Y12200D01*
X0Y12300D01*
X0Y12400D01*
X0Y12500D01*
X0Y12600D01*
X0Y12700D01*
X0Y12800D01*
X0Y12900D01*
X0Y13000D01*
X0Y13100D01*
X0Y13200D01*
X0Y13300D01*
X0Y13400D01*
X0Y13500D01*
X0Y13600D01*
X0Y13700D01*
X0Y13800D01*
X0Y13900D01*
X0Y14000D01*
X0Y14100D01*
X0Y14200D01*
X0Y14300D01*
X0Y14400D01*
X0Y14500D01*
X0Y14600D01*
X0Y14700D01*
X0Y14800D01*
X0Y14900D01*
X0Y15000D01*
X0Y15100D01*
X0Y15200D01*
X0Y15300D01*
X0Y15400D01*
X0Y15500D01*
X0Y15600D01*
X0Y15700D01*
X0Y15800D01*
X0Y15900D01*
X0Y16000D01*
X0Y16100D01*
X0Y16200D01*
X0Y16300D01*
X0Y16400D01*
X0Y16500D01*
X0Y16600D01*
X0Y16700D01*
X0Y16800D01*
X0Y16900D01*
X0Y17000D01*
X0Y17100D01*
X0Y17200D01*
X0Y17300D01*
X0Y17400D01*
X0Y17500D01*
X0Y17600D01*
X0Y17700D01*
X0Y17800D01*
X0Y17900D01*
X0Y18000D01*
X0Y18100D01*
X0Y18200D01*
X0Y18300D01*
X0Y18400D01*
X0Y18500D01*
X0Y18600D01*
X0Y18700D01*
X0Y18800D01*
X0Y18900D01*
X0Y19000D01*
X0Y19100D01*
X0Y19200D01*
X0Y19300D01*
X0Y19400D01*
X0Y19500D01*
X0Y19600D01*
X0Y19700D01*
X0Y19800D01*
X0Y19900D01*
X0Y20000D01*
X0Y20100D01*
X0Y20200D01*
X0Y20300D01*
X0Y20400D01*
X0Y20500D01*
X0Y20600D01*
X0Y20700D01*
X0Y20800D01*
X0Y20900D01*
X0Y21000D01*
X0Y21100D01*
X0Y21200D01*
X0Y21300D01*
X0Y21400D01*
X0Y21500D01*
X0Y21600D01*
X0Y21700D01*
X0Y21800D01*
X0Y21900D01*
X0Y22000D01*
X0Y22100D01*
X0Y22200D01*
X0Y22300D01*
X0Y22400D01*
X0Y22500D01*
X0Y22600D01*
X0Y22700D01*
X0Y22800D01*
X0Y22900D01*
X0Y23000D01*
X0Y23100D01*
X0Y23200D01*
X0Y23300D01*
X0Y23400D01*
X0Y23500D01*
X0Y23600D01*
X0Y23700D01*
X0Y23800D01*
X0Y23900D01*
X0Y24000D01*
X0Y24100D01*
X0Y24200D01*
X0Y24300D01*
X0Y24400D01*
X0Y24500D01*
X0Y24600D01*
X0Y24700D01*
X0Y24800D01*
X0Y24900D01*
X0Y25000D01*
X0Y25100D01*
X0Y25200D01*
X0Y25300D01*
X0Y25400D01*
X0Y25500D01*
X0Y25600D01*
X0Y25700D01*
X0Y25800D01*
X0Y25900D01*
X0Y26000D01*
X0Y26100D01*
X0Y26200D01*
X0Y26300D01*
X0Y26400D01*
X0Y26500D01*
X0Y26600D01*
X0Y26700D01*
X0Y26800D01*
X0Y26900D01*
X0Y27000D01*
X0Y27100D01*
X0Y27200D01*
X0Y27300D01*
X0Y27400D01*
X0Y27500D01*
X0Y27600D01*
X0Y27700D01*
X0Y27800D01*
X0Y27900D01*
X0Y28000D01*
X0Y28100D01*
X0Y28200D01*
X0Y28300D01*
X0Y28400D01*
X0Y28500D01*
X0Y28600D01*
X0Y28700D01*
X0Y28800D01*
X0Y28900D01*
X0Y29000D01*
X0Y29100D01*
X0Y29200D01*
X0Y29300D01*
X0Y29400D01*
X0Y29500D01*
X0Y29600D01*
X0Y29700D01*
X0Y29800D01*
X0Y29900D01*
X0Y30000D01*
X0Y30100D01*
X0Y30200D01*
X0Y30300D01*
X0Y30400D01*
X0Y30500D01*
X0Y30600D01*
X0Y30700D01*
X0Y30800D01*
X0Y30900D01*
X0Y31000D01*
X0Y31100D01*
X0Y31200D01*
X0Y31300D01*
X0Y31400D01*
X0Y31500D01*
X0Y31600D01*
X0Y31700D01*
X0Y31800D01*
X0Y31900D01*
X0Y32000D01*
X0Y32100D01*
X0Y32200D01*
X0Y32300D01*
X0Y32400D01*
X0Y32500D01*
X0Y32600D01*
X0Y32700D01*
X0Y32800D01*
X0Y32900D01*
X0Y33000D01*
X0Y33100D01*
X0Y33200D01*
X0Y33300D01*
X0Y33400D01*
X0Y33500D01*
X0Y33600D01*
X0Y33700D01*
X0Y33800D01*
X0Y33900D01*
X0Y34000D01*
X0Y34100D01*
X0Y34200D01*
X0Y34300D01*
X0Y34400D01*
X0Y34500D01*
X0Y34600D01*
X0Y34700D01*
X0Y34800D01*
X0Y34900D01*
X0Y35000D01*
X0Y35100D01*
X0Y35200D01*
X0Y35300D01*
X0Y35400D01*
X0Y35500D01*
X0Y35600D01*
X0Y35700D01*
X0Y35800D01*
X0Y35900D01*
X0Y36000D01*
X0Y36100D01*
X0Y36200D01*
X0Y36300D01*
X0Y36400D01*
X0Y36500D01*
X0Y36600D01*
X0Y36700D01*
X0Y36800D01*
X0Y36900D01*
X0Y37000D01*
X0Y37100D01*
X0Y37200D01*
X0Y37300D01*
X0Y37400D01*
X0Y37500D01*
X0Y37600D01*
X0Y37700D01*
X0Y37800D01*
X0Y37900D01*
X0Y38000D01*
X0Y38100D01*
X0Y38200D01*
X0Y38300D01*
X0Y38400D01*
X0Y38500D01*
X0Y38600D01*
X0Y38700D01*
X0Y38800D01*
X0Y38900D01*
X0Y39000D01*
X0Y39100D01*
X0Y39200D01*
X0Y39300D01*
X0Y39400D01*
X0Y39500D01*
X0Y39600D01*
X0Y39700D01*
X0Y39800D01*
X0Y39900D01*
X0Y40000D01*
X0Y40100D01*
X0Y40200D01*
X0Y40300D01*
X0Y40400D01*
X0Y40500D01*
X0Y40600D01*
X0Y40700D01*
X0Y40800D01*
X0Y40900D01*
X0Y41000D01*
X0Y41100D01*
X0Y41200D01*
X0Y41300D01*
X0Y41400D01*
X0Y41500D01*
X0Y41600D01*
X0Y41700D01*
X0Y41800D01*
X0Y41900D01*
X0Y42000D01*
X0Y42100D01*
X0Y42200D01*
X0Y42300D01*
X0Y42400D01*
X0Y42500D01*
X0Y42600D01*
X0Y42700D01*
X0Y42800D01*
X0Y42900D01*
X0Y43000D01*
X0Y43100D01*
X0Y43200D01*
X0Y43300D01*
X0Y43400D01*
X0Y43500D01*
X0Y43600D01*
X0Y43700D01*
X0Y43800D01*
X0Y43900D01*
X0Y44000D01*
X0Y44100D01*
X0Y44200D01*
X0Y44300D01*
X0Y44400D01*
X0Y44500D01*
X0Y44600D01*
X0Y44700D01*
X0Y44800D01*
X0Y44900D01*
X0Y45000D01*
X0Y45100D01*
X0Y45200D01*
X0Y45300D01*
X0Y45400D01*
X0Y45500D01*
X0Y45600D01*
X0Y45700D01*
X0Y45800D01*
X0Y45900D01*
X0Y46000D01*
X0Y46100D01*
X0Y46200D01*
X0Y46300D01*
X0Y46400D01*
X0Y46500D01*
X0Y46600D01*
X0Y46700D01*
X0Y46800D01*
X0Y46900D01*
X0Y47000D01*
X0Y47100D01*
X0Y47200D01*
X0Y47300D01*
X0Y47400D01*
X0Y47500D01*
X0Y47600D01*
X0Y47700D01*
X0Y47800D01*
X0Y47900D01*
X0Y48000D01*
X0Y48100D01*
X0Y48200D01*
X0Y48300D01*
X0Y48400D01*
X0Y48500D01*
X0Y48600D01*
X0Y48700D01*
X0Y48800D01*
X0Y48900D01*
X0Y49000D01*
X0Y49100D01*
X0Y49200D01*
X0Y49300D01*
X0Y49400D01*
X0Y49500D01*
X0Y49600D01*
X0Y49700D01*
X0Y49800D01*
X0Y49900D01*
X0Y50000D01*
X0Y50100D01*
X0Y50200D01*
X0Y50300D01*
X0Y50400D01*
X0Y50500D01*
X0Y50600D01*
X0Y50700D01*
X0Y50800D01*
X0Y50900D01*
X0Y51000D01*
X0Y51100D01*
X0Y51200D01*
X0Y51300D01*
X0Y51400D01*
X0Y51500D01*
X0Y51600D01*
X0Y51700D01*
X0Y51800D01*
X0Y51900D01*
X0Y52000D01*
X0Y52100D01*
X0Y52200D01*
X0Y52300D01*
X0Y52400D01*
X0Y52500D01*
X0Y52600D01*
X0Y52700D01*
X0Y52800D01*
X0Y52900D01*
X0Y53000D01*
X0Y53100D01*
X0Y53200D01*
X0Y53300D01*
X0Y53400D01*
X0Y53500D01*
X0Y53600D01*
X0Y53700D01*
X0Y53800D01*
X0Y53900D01*
X0Y54000D01*
X0Y54100D01*
X0Y54200D01*
X0Y54300D01*
X0Y54400D01*
X0Y54500D01*
X0Y54600D01*
X0Y54700D01*
X0Y54800D01*
X0Y54900D01*
X0Y55000D01*
X0Y55100D01*
X0Y55200D01*
X0Y55300D01*
X0Y55400D01*
X0Y55500D01*
X0Y55600D01*
X0Y55700D01*
X0Y55800D01*
X0Y55900D01*
X0Y56000D01*
X0Y56100D01*
X0Y56200D01*
X0Y56300D01*
X0Y56400D01*
X0Y56500D01*
X0Y56600D01*
X0Y56700D01*
X0Y56800D01*
X0Y56900D01*
X0Y57000D01*
X0Y57100D01*
X0Y57200D01*
X0Y57300D01*
X0Y57400D01*
X0Y57500D01*
X0Y57600D01*
X0Y57700D01*
X0Y57800D01*
X0Y57900D01*
X0Y58000D01*
X100Y58000D01*
X200Y58000D01*
X300Y58000D01*
X400Y58000D01*
X500Y58000D01*
X600Y58000D01*
X700Y58000D01*
X800Y58000D01*
X900Y58000D01*
X1000Y58000D01*
X1100Y58000D01*
X1199Y58000D01*
X1299Y58000D01*
X1399Y58000D01*
X1499Y58000D01*
X1599Y58000D01*
X1699Y58000D01*
X1799Y58000D01*
X1899Y58000D01*
X1999Y58000D01*
X2099Y58000D01*
X2199Y58000D01*
X2299Y58000D01*
X2399Y58000D01*
X2499Y58000D01*
X2599Y58000D01*
X2699Y58000D01*
X2799Y58000D01*
X2899Y58000D01*
X2999Y58000D01*
X3099Y58000D01*
X3199Y58000D01*
X3299Y58000D01*
X3398Y58000D01*
X3498Y58000D01*
X3598Y58000D01*
X3698Y58000D01*
X3798Y58000D01*
X3898Y58000D01*
X3998Y58000D01*
X4098Y58000D01*
X4198Y58000D01*
X4298Y58000D01*
X4398Y58000D01*
X4498Y58000D01*
X4598Y58000D01*
X4698Y58000D01*
X4798Y58000D01*
X4898Y58000D01*
X4998Y58000D01*
X5098Y58000D01*
X5198Y58000D01*
X5298Y58000D01*
X5398Y58000D01*
X5498Y58000D01*
X5597Y58000D01*
X5697Y58000D01*
X5797Y58000D01*
X5897Y58000D01*
X5997Y58000D01*
X6097Y58000D01*
X6197Y58000D01*
X6297Y58000D01*
X6397Y58000D01*
X6497Y58000D01*
X6597Y58000D01*
X6697Y58000D01*
X6797Y58000D01*
X6897Y58000D01*
X6997Y58000D01*
X7097Y58000D01*
X7197Y58000D01*
X7297Y58000D01*
X7397Y58000D01*
X7497Y58000D01*
X7597Y58000D01*
X7697Y58000D01*
X7797Y58000D01*
X7896Y58000D01*
X7996Y58000D01*
X8096Y58000D01*
X8196Y58000D01*
X8296Y58000D01*
X8396Y58000D01*
X8496Y58000D01*
X8596Y58000D01*
X8696Y58000D01*
X8796Y58000D01*
X8896Y58000D01*
X8996Y58000D01*
X9096Y58000D01*
X9196Y58000D01*
X9296Y58000D01*
X9396Y58000D01*
X9496Y58000D01*
X9596Y58000D01*
X9696Y58000D01*
X9796Y58000D01*
X9896Y58000D01*
X9996Y58000D01*
X10096Y58000D01*
X10195Y58000D01*
X10295Y58000D01*
X10395Y58000D01*
X10495Y58000D01*
X10595Y58000D01*
X10695Y58000D01*
X10795Y58000D01*
X10895Y58000D01*
X10995Y58000D01*
X11095Y58000D01*
X11195Y58000D01*
X11295Y58000D01*
X11395Y58000D01*
X11495Y58000D01*
X11595Y58000D01*
X11695Y58000D01*
X11795Y58000D01*
X11895Y58000D01*
X11995Y58000D01*
X12095Y58000D01*
X12195Y58000D01*
X12295Y58000D01*
X12394Y58000D01*
X12494Y58000D01*
X12594Y58000D01*
X12694Y58000D01*
X12794Y58000D01*
X12894Y58000D01*
X12994Y58000D01*
X13094Y58000D01*
X13194Y58000D01*
X13294Y58000D01*
X13394Y58000D01*
X13494Y58000D01*
X13594Y58000D01*
X13694Y58000D01*
X13794Y58000D01*
X13894Y58000D01*
X13994Y58000D01*
X14094Y58000D01*
X14194Y58000D01*
X14294Y58000D01*
X14394Y58000D01*
X14494Y58000D01*
X14593Y58000D01*
X14693Y58000D01*
X14793Y58000D01*
X14893Y58000D01*
X14993Y58000D01*
X15093Y58000D01*
X15193Y58000D01*
X15293Y58000D01*
X15393Y58000D01*
X15493Y58000D01*
X15593Y58000D01*
X15693Y58000D01*
X15793Y58000D01*
X15893Y58000D01*
X15993Y58000D01*
X16093Y58000D01*
X16193Y58000D01*
X16293Y58000D01*
X16393Y58000D01*
X16493Y58000D01*
X16593Y58000D01*
X16693Y58000D01*
X16793Y58000D01*
X16892Y58000D01*
X16992Y58000D01*
X17092Y58000D01*
X17192Y58000D01*
X17292Y58000D01*
X17392Y58000D01*
X17492Y58000D01*
X17592Y58000D01*
X17692Y58000D01*
X17792Y58000D01*
X17892Y58000D01*
X17992Y58000D01*
X18092Y58000D01*
X18192Y58000D01*
X18292Y58000D01*
X18392Y58000D01*
X18492Y58000D01*
X18592Y58000D01*
X18692Y58000D01*
X18792Y58000D01*
X18892Y58000D01*
X18992Y58000D01*
X19092Y58000D01*
X19191Y58000D01*
X19291Y58000D01*
X19391Y58000D01*
X19491Y58000D01*
X19591Y58000D01*
X19691Y58000D01*
X19791Y58000D01*
X19891Y58000D01*
X19991Y58000D01*
X20091Y58000D01*
X20191Y58000D01*
X20291Y58000D01*
X20391Y58000D01*
X20491Y58000D01*
X20591Y58000D01*
X20691Y58000D01*
X20791Y58000D01*
X20891Y58000D01*
X20991Y58000D01*
X21091Y58000D01*
X21191Y58000D01*
X21291Y58000D01*
X21390Y58000D01*
X21490Y58000D01*
X21590Y58000D01*
X21690Y58000D01*
X21790Y58000D01*
X21890Y58000D01*
X21990Y58000D01*
X22090Y58000D01*
X22190Y58000D01*
X22290Y58000D01*
X22390Y58000D01*
X22490Y58000D01*
X22590Y58000D01*
X22690Y58000D01*
X22790Y58000D01*
X22890Y58000D01*
X22990Y58000D01*
X23090Y58000D01*
X23190Y58000D01*
X23290Y58000D01*
X23390Y58000D01*
X23490Y58000D01*
X23590Y58000D01*
X23689Y58000D01*
X23789Y58000D01*
X23889Y58000D01*
X23989Y58000D01*
X24089Y58000D01*
X24189Y58000D01*
X24289Y58000D01*
X24389Y58000D01*
X24489Y58000D01*
X24589Y58000D01*
X24689Y58000D01*
X24789Y58000D01*
X24889Y58000D01*
X24989Y58000D01*
X25089Y58000D01*
X25189Y58000D01*
X25289Y58000D01*
X25389Y58000D01*
X25489Y58000D01*
X25589Y58000D01*
X25689Y58000D01*
X25789Y58000D01*
X25888Y58000D01*
X25988Y58000D01*
X26088Y58000D01*
X26188Y58000D01*
X26288Y58000D01*
X26388Y58000D01*
X26488Y58000D01*
X26588Y58000D01*
X26688Y58000D01*
X26788Y58000D01*
X26888Y58000D01*
X26988Y58000D01*
X27088Y58000D01*
X27188Y58000D01*
X27288Y58000D01*
X27388Y58000D01*
X27488Y58000D01*
X27588Y58000D01*
X27688Y58000D01*
X27788Y58000D01*
X27888Y58000D01*
X27988Y58000D01*
X28088Y58000D01*
X28187Y58000D01*
X28287Y58000D01*
X28387Y58000D01*
X28487Y58000D01*
X28587Y58000D01*
X28687Y58000D01*
X28787Y58000D01*
X28887Y58000D01*
X28987Y58000D01*
X29087Y58000D01*
X29187Y58000D01*
X29287Y58000D01*
X29387Y58000D01*
X29487Y58000D01*
X29587Y58000D01*
X29687Y58000D01*
X29787Y58000D01*
X29887Y58000D01*
X29987Y58000D01*
X30087Y58000D01*
X30187Y58000D01*
X30287Y58000D01*
X30387Y58000D01*
X30486Y58000D01*
X30586Y58000D01*
X30686Y58000D01*
X30786Y58000D01*
X30886Y58000D01*
X30986Y58000D01*
X31086Y58000D01*
X31186Y58000D01*
X31286Y58000D01*
X31386Y58000D01*
X31486Y58000D01*
X31586Y58000D01*
X31686Y58000D01*
X31786Y58000D01*
X31886Y58000D01*
X31986Y58000D01*
X32086Y58000D01*
X32186Y58000D01*
X32286Y58000D01*
X32386Y58000D01*
X32486Y58000D01*
X32586Y58000D01*
X32685Y58000D01*
X32785Y58000D01*
X32885Y58000D01*
X32985Y58000D01*
X33085Y58000D01*
X33185Y58000D01*
X33285Y58000D01*
X33385Y58000D01*
X33485Y58000D01*
X33585Y58000D01*
X33685Y58000D01*
X33785Y58000D01*
X33885Y58000D01*
X33985Y58000D01*
X34085Y58000D01*
X34185Y58000D01*
X34285Y58000D01*
X34385Y58000D01*
X34485Y58000D01*
X34585Y58000D01*
X34685Y58000D01*
X34785Y58000D01*
X34884Y58000D01*
X34984Y58000D01*
X35084Y58000D01*
X35184Y58000D01*
X35284Y58000D01*
X35384Y58000D01*
X35484Y58000D01*
X35584Y58000D01*
X35684Y58000D01*
X35784Y58000D01*
X35884Y58000D01*
X35984Y58000D01*
X36084Y58000D01*
X36184Y58000D01*
X36284Y58000D01*
X36384Y58000D01*
X36484Y58000D01*
X36584Y58000D01*
X36684Y58000D01*
X36784Y58000D01*
X36884Y58000D01*
X36984Y58000D01*
X37084Y58000D01*
X37183Y58000D01*
X37283Y58000D01*
X37383Y58000D01*
X37483Y58000D01*
X37583Y58000D01*
X37683Y58000D01*
X37783Y58000D01*
X37883Y58000D01*
X37983Y58000D01*
X38083Y58000D01*
X38183Y58000D01*
X38283Y58000D01*
X38383Y58000D01*
X38483Y58000D01*
X38583Y58000D01*
X38683Y58000D01*
X38783Y58000D01*
X38883Y58000D01*
X38983Y58000D01*
X39083Y58000D01*
X39183Y58000D01*
X39283Y58000D01*
X39383Y58000D01*
X39482Y58000D01*
X39582Y58000D01*
X39682Y58000D01*
X39782Y58000D01*
X39882Y58000D01*
X39982Y58000D01*
X40082Y58000D01*
X40182Y58000D01*
X40282Y58000D01*
X40382Y58000D01*
X40482Y58000D01*
X40582Y58000D01*
X40682Y58000D01*
X40782Y58000D01*
X40882Y58000D01*
X40982Y58000D01*
X41082Y58000D01*
X41182Y58000D01*
X41282Y58000D01*
X41382Y58000D01*
X41482Y58000D01*
X41582Y58000D01*
X41681Y58000D01*
X41781Y58000D01*
X41881Y58000D01*
X41981Y58000D01*
X42081Y58000D01*
X42181Y58000D01*
X42281Y58000D01*
X42381Y58000D01*
X42481Y58000D01*
X42581Y58000D01*
X42681Y58000D01*
X42781Y58000D01*
X42881Y58000D01*
X42981Y58000D01*
X43081Y58000D01*
X43181Y58000D01*
X43281Y58000D01*
X43381Y58000D01*
X43481Y58000D01*
X43581Y58000D01*
X43681Y58000D01*
X43781Y58000D01*
X43881Y58000D01*
X43980Y58000D01*
X44080Y58000D01*
X44180Y58000D01*
X44280Y58000D01*
X44380Y58000D01*
X44480Y58000D01*
X44580Y58000D01*
X44680Y58000D01*
X44780Y58000D01*
X44880Y58000D01*
X44980Y58000D01*
X45080Y58000D01*
X45180Y58000D01*
X45280Y58000D01*
X45380Y58000D01*
X45480Y58000D01*
X45580Y58000D01*
X45680Y58000D01*
X45780Y58000D01*
X45880Y58000D01*
X45980Y58000D01*
X46080Y58000D01*
X46179Y58000D01*
X46279Y58000D01*
X46379Y58000D01*
X46479Y58000D01*
X46579Y58000D01*
X46679Y58000D01*
X46779Y58000D01*
X46879Y58000D01*
X46979Y58000D01*
X47079Y58000D01*
X47179Y58000D01*
X47279Y58000D01*
X47379Y58000D01*
X47479Y58000D01*
X47579Y58000D01*
X47679Y58000D01*
X47779Y58000D01*
X47879Y58000D01*
X47979Y58000D01*
X48079Y58000D01*
X48179Y58000D01*
X48279Y58000D01*
X48379Y58000D01*
X48478Y58000D01*
X48578Y58000D01*
X48678Y58000D01*
X48778Y58000D01*
X48878Y58000D01*
X48978Y58000D01*
X49078Y58000D01*
X49178Y58000D01*
X49278Y58000D01*
X49378Y58000D01*
X49478Y58000D01*
X49578Y58000D01*
X49678Y58000D01*
X49778Y58000D01*
X49878Y58000D01*
X49978Y58000D01*
X50078Y58000D01*
X50178Y58000D01*
X50278Y58000D01*
X50378Y58000D01*
X50478Y58000D01*
X50578Y58000D01*
X50678Y58000D01*
X50777Y58000D01*
X50877Y58000D01*
X50977Y58000D01*
X51077Y58000D01*
X51177Y58000D01*
X51277Y58000D01*
X51377Y58000D01*
X51477Y58000D01*
X51577Y58000D01*
X51677Y58000D01*
X51777Y58000D01*
X51877Y58000D01*
X51977Y58000D01*
X52077Y58000D01*
X52177Y58000D01*
X52277Y58000D01*
X52377Y58000D01*
X52477Y58000D01*
X52577Y58000D01*
X52677Y58000D01*
X52777Y58000D01*
X52877Y58000D01*
X52976Y58000D01*
X53076Y58000D01*
X53176Y58000D01*
X53276Y58000D01*
X53376Y58000D01*
X53476Y58000D01*
X53576Y58000D01*
X53676Y58000D01*
X53776Y58000D01*
X53876Y58000D01*
X53976Y58000D01*
X54076Y58000D01*
X54176Y58000D01*
X54276Y58000D01*
X54376Y58000D01*
X54476Y58000D01*
X54576Y58000D01*
X54676Y58000D01*
X54776Y58000D01*
X54876Y58000D01*
X54976Y58000D01*
X55076Y58000D01*
X55176Y58000D01*
X55275Y58000D01*
X55375Y58000D01*
X55475Y58000D01*
X55575Y58000D01*
X55675Y58000D01*
X55775Y58000D01*
X55875Y58000D01*
X55975Y58000D01*
X56075Y58000D01*
X56175Y58000D01*
X56275Y58000D01*
X56375Y58000D01*
X56475Y58000D01*
X56575Y58000D01*
X56675Y58000D01*
X56775Y58000D01*
X56875Y58000D01*
X56975Y58000D01*
X57075Y58000D01*
X57175Y58000D01*
X57275Y58000D01*
X57375Y58000D01*
X57474Y58000D01*
X57574Y58000D01*
X57674Y58000D01*
X57774Y58000D01*
X57874Y58000D01*
X57974Y58000D01*
X58074Y58000D01*
X58174Y58000D01*
X58274Y58000D01*
X58374Y58000D01*
X58474Y58000D01*
X58574Y58000D01*
X58674Y58000D01*
X58774Y58000D01*
X58874Y58000D01*
X58974Y58000D01*
X59074Y58000D01*
X59174Y58000D01*
X59274Y58000D01*
X59374Y58000D01*
X59474Y58000D01*
X59574Y58000D01*
X59674Y58000D01*
X59773Y58000D01*
X59873Y58000D01*
X59973Y58000D01*
X60073Y58000D01*
X60173Y58000D01*
X60273Y58000D01*
X60373Y58000D01*
X60473Y58000D01*
X60573Y58000D01*
X60673Y58000D01*
X60773Y58000D01*
X60873Y58000D01*
X60973Y58000D01*
X61073Y58000D01*
X61173Y58000D01*
X61273Y58000D01*
X61373Y58000D01*
X61473Y58000D01*
X61573Y58000D01*
X61673Y58000D01*
X61773Y58000D01*
X61873Y58000D01*
X61973Y58000D01*
X62072Y58000D01*
X62172Y58000D01*
X62272Y58000D01*
X62372Y58000D01*
X62472Y58000D01*
X62572Y58000D01*
X62672Y58000D01*
X62772Y58000D01*
X62872Y58000D01*
X62972Y58000D01*
X63072Y58000D01*
X63172Y58000D01*
X63272Y58000D01*
X63372Y58000D01*
X63472Y58000D01*
X63572Y58000D01*
X63672Y58000D01*
X63772Y58000D01*
X63872Y58000D01*
X63972Y58000D01*
X64072Y58000D01*
X64172Y58000D01*
X64272Y58000D01*
X64371Y58000D01*
X64471Y58000D01*
X64571Y58000D01*
X64671Y58000D01*
X64771Y58000D01*
X64871Y58000D01*
X64971Y58000D01*
X65071Y58000D01*
X65171Y58000D01*
X65271Y58000D01*
X65371Y58000D01*
X65471Y58000D01*
X65571Y58000D01*
X65671Y58000D01*
X65771Y58000D01*
X65871Y58000D01*
X65971Y58000D01*
X66071Y58000D01*
X66171Y58000D01*
X66271Y58000D01*
X66371Y58000D01*
X66471Y58000D01*
X66570Y58000D01*
X66670Y58000D01*
X66770Y58000D01*
X66870Y58000D01*
X66970Y58000D01*
X67070Y58000D01*
X67170Y58000D01*
X67270Y58000D01*
X67370Y58000D01*
X67470Y58000D01*
X67570Y58000D01*
X67670Y58000D01*
X67770Y58000D01*
X67870Y58000D01*
X67970Y58000D01*
X68070Y58000D01*
X68170Y58000D01*
X68270Y58000D01*
X68370Y58000D01*
X68470Y58000D01*
X68570Y58000D01*
X68670Y58000D01*
X68770Y58000D01*
X68869Y58000D01*
X68969Y58000D01*
X69069Y58000D01*
X69169Y58000D01*
X69269Y58000D01*
X69369Y58000D01*
X69469Y58000D01*
X69569Y58000D01*
X69669Y58000D01*
X69769Y58000D01*
X69869Y58000D01*
X69969Y58000D01*
X70069Y58000D01*
X70169Y58000D01*
X70269Y58000D01*
X70369Y58000D01*
X70469Y58000D01*
X70569Y58000D01*
X70669Y58000D01*
X70769Y58000D01*
X70869Y58000D01*
X70969Y58000D01*
X71069Y58000D01*
X71168Y58000D01*
X71268Y58000D01*
X71368Y58000D01*
X71468Y58000D01*
X71568Y58000D01*
X71668Y58000D01*
X71768Y58000D01*
X71868Y58000D01*
X71968Y58000D01*
X72068Y58000D01*
X72168Y58000D01*
X72268Y58000D01*
X72368Y58000D01*
X72468Y58000D01*
X72568Y58000D01*
X72668Y58000D01*
X72768Y58000D01*
X72868Y58000D01*
X72968Y58000D01*
X73068Y58000D01*
X73168Y58000D01*
X73268Y58000D01*
X73368Y58000D01*
X73467Y58000D01*
X73567Y58000D01*
X73667Y58000D01*
X73767Y58000D01*
X73867Y58000D01*
X73967Y58000D01*
X74067Y58000D01*
X74167Y58000D01*
X74267Y58000D01*
X74367Y58000D01*
X74467Y58000D01*
X74567Y58000D01*
X74667Y58000D01*
X74767Y58000D01*
X74867Y58000D01*
X74967Y58000D01*
X75067Y58000D01*
X75167Y58000D01*
X75267Y58000D01*
X75367Y58000D01*
X75467Y58000D01*
X75567Y58000D01*
X75667Y58000D01*
X75766Y58000D01*
X75866Y58000D01*
X75966Y58000D01*
X76066Y58000D01*
X76166Y58000D01*
X76266Y58000D01*
X76366Y58000D01*
X76466Y58000D01*
X76566Y58000D01*
X76666Y58000D01*
X76766Y58000D01*
X76866Y58000D01*
X76966Y58000D01*
X77066Y58000D01*
X77166Y58000D01*
X77266Y58000D01*
X77366Y58000D01*
X77466Y58000D01*
X77566Y58000D01*
X77666Y58000D01*
X77766Y58000D01*
X77866Y58000D01*
X77965Y58000D01*
X78065Y58000D01*
X78165Y58000D01*
X78265Y58000D01*
X78365Y58000D01*
X78465Y58000D01*
X78565Y58000D01*
X78665Y58000D01*
X78765Y58000D01*
X78865Y58000D01*
X78965Y58000D01*
X79065Y58000D01*
X79165Y58000D01*
X79265Y58000D01*
X79365Y58000D01*
X79465Y58000D01*
X79565Y58000D01*
X79665Y58000D01*
X79765Y58000D01*
X79865Y58000D01*
X79965Y58000D01*
X80065Y58000D01*
X80165Y58000D01*
X80264Y58000D01*
X80364Y58000D01*
X80464Y58000D01*
X80564Y58000D01*
X80664Y58000D01*
X80764Y58000D01*
X80864Y58000D01*
X80964Y58000D01*
X81064Y58000D01*
X81164Y58000D01*
X81264Y58000D01*
X81364Y58000D01*
X81464Y58000D01*
X81564Y58000D01*
X81664Y58000D01*
X81764Y58000D01*
X81864Y58000D01*
X81964Y58000D01*
X82064Y58000D01*
X82164Y58000D01*
X82264Y58000D01*
X82364Y58000D01*
X82464Y58000D01*
X82564Y58000D01*
X82663Y58000D01*
X82763Y58000D01*
X82863Y58000D01*
X82963Y58000D01*
X83063Y58000D01*
X83163Y58000D01*
X83263Y58000D01*
X83363Y58000D01*
X83463Y58000D01*
X83563Y58000D01*
X83663Y58000D01*
X83763Y58000D01*
X83863Y58000D01*
X83963Y58000D01*
X84063Y58000D01*
X84163Y58000D01*
X84263Y58000D01*
X84363Y58000D01*
X84463Y58000D01*
X84563Y58000D01*
X84663Y58000D01*
X84763Y58000D01*
X84862Y58000D01*
X84962Y58000D01*
X85062Y58000D01*
X85162Y58000D01*
X85262Y58000D01*
X85362Y58000D01*
X85462Y58000D01*
X85562Y58000D01*
X85662Y58000D01*
X85762Y58000D01*
X85862Y58000D01*
X85962Y58000D01*
X86062Y58000D01*
X86162Y58000D01*
X86262Y58000D01*
X86362Y58000D01*
X86462Y58000D01*
X86562Y58000D01*
X86662Y58000D01*
X86762Y58000D01*
X86862Y58000D01*
X86962Y58000D01*
X87062Y58000D01*
X87162Y58000D01*
X87261Y58000D01*
X87361Y58000D01*
X87461Y58000D01*
X87561Y58000D01*
X87661Y58000D01*
X87761Y58000D01*
X87861Y58000D01*
X87961Y58000D01*
X88061Y58000D01*
X88161Y58000D01*
X88261Y58000D01*
X88361Y58000D01*
X88461Y58000D01*
X88561Y58000D01*
X88661Y58000D01*
X88761Y58000D01*
X88861Y58000D01*
X88961Y58000D01*
X89061Y58000D01*
X89161Y58000D01*
X89261Y58000D01*
X89361Y58000D01*
X89461Y58000D01*
X89561Y58000D01*
X89660Y58000D01*
X89760Y58000D01*
X89860Y58000D01*
X89960Y58000D01*
X90060Y58000D01*
X90160Y58000D01*
X90260Y58000D01*
X90360Y58000D01*
X90460Y58000D01*
X90560Y58000D01*
X90660Y58000D01*
X90760Y58000D01*
X90860Y58000D01*
X90960Y58000D01*
X90960Y57900D01*
X90960Y57800D01*
X90960Y57700D01*
X90960Y57600D01*
X90960Y57500D01*
X90960Y57400D01*
X90960Y57300D01*
X90960Y57200D01*
X90960Y57100D01*
X90960Y57000D01*
X90960Y56900D01*
X90960Y56800D01*
X90960Y56700D01*
X90960Y56600D01*
X90960Y56500D01*
X90960Y56400D01*
X90960Y56300D01*
X90960Y56200D01*
X90960Y56100D01*
X90960Y56000D01*
X90960Y55900D01*
X90960Y55800D01*
X90960Y55700D01*
X90960Y55600D01*
X90960Y55500D01*
X90960Y55400D01*
X90960Y55300D01*
X90960Y55200D01*
X90960Y55100D01*
X90960Y55000D01*
X90960Y54900D01*
X90960Y54800D01*
X90960Y54700D01*
X90960Y54600D01*
X90960Y54500D01*
X90960Y54400D01*
X90960Y54300D01*
X90960Y54200D01*
X90960Y54100D01*
X90960Y54000D01*
X90960Y53900D01*
X90960Y53800D01*
X90960Y53700D01*
X90960Y53600D01*
X90960Y53500D01*
X90960Y53400D01*
X90960Y53300D01*
X90960Y53200D01*
X90960Y53100D01*
X90960Y53000D01*
X90960Y52900D01*
X90960Y52800D01*
X90960Y52700D01*
X90960Y52600D01*
X90960Y52500D01*
X90960Y52400D01*
X90960Y52300D01*
X90960Y52200D01*
X90960Y52100D01*
X90960Y52000D01*
X90960Y51900D01*
X90960Y51800D01*
X90960Y51700D01*
X90960Y51600D01*
X90960Y51500D01*
X90960Y51400D01*
X90960Y51300D01*
X90960Y51200D01*
X90960Y51100D01*
X90960Y51000D01*
X90960Y50900D01*
X90960Y50800D01*
X90960Y50700D01*
X90960Y50600D01*
X90960Y50500D01*
X90960Y50400D01*
X90960Y50300D01*
X90960Y50200D01*
X90960Y50100D01*
X90960Y50000D01*
X90960Y49900D01*
X90960Y49800D01*
X90960Y49700D01*
X90960Y49600D01*
X90960Y49500D01*
X90960Y49400D01*
X90960Y49300D01*
X90960Y49200D01*
X90960Y49100D01*
X90960Y49000D01*
X90960Y48900D01*
X90960Y48800D01*
X90960Y48700D01*
X90960Y48600D01*
X90960Y48500D01*
X90960Y48400D01*
X90960Y48300D01*
X90960Y48200D01*
X90960Y48100D01*
X90960Y48000D01*
X90960Y47900D01*
X90960Y47800D01*
X90960Y47700D01*
X90960Y47600D01*
X90960Y47500D01*
X90960Y47400D01*
X90960Y47300D01*
X90960Y47200D01*
X90960Y47100D01*
X90960Y47000D01*
X90960Y46900D01*
X90960Y46800D01*
X90960Y46700D01*
X90960Y46600D01*
X90960Y46500D01*
X90960Y46400D01*
X90960Y46300D01*
X90960Y46200D01*
X90960Y46100D01*
X90960Y46000D01*
X90960Y45900D01*
X90960Y45800D01*
X90960Y45700D01*
X90960Y45600D01*
X90960Y45500D01*
X90960Y45400D01*
X90960Y45300D01*
X90960Y45200D01*
X90960Y45100D01*
X90960Y45000D01*
X90960Y44900D01*
X90960Y44800D01*
X90960Y44700D01*
X90960Y44600D01*
X90960Y44500D01*
X90960Y44400D01*
X90960Y44300D01*
X90960Y44200D01*
X90960Y44100D01*
X90960Y44000D01*
X90960Y43900D01*
X90960Y43800D01*
X90960Y43700D01*
X90960Y43600D01*
X90960Y43500D01*
X90960Y43400D01*
X90960Y43300D01*
X90960Y43200D01*
X90960Y43100D01*
X90960Y43000D01*
X90960Y42900D01*
X90960Y42800D01*
X90960Y42700D01*
X90960Y42600D01*
X90960Y42500D01*
X90960Y42400D01*
X90960Y42300D01*
X90960Y42200D01*
X90960Y42100D01*
X90960Y42000D01*
X90960Y41900D01*
X90960Y41800D01*
X90960Y41700D01*
X90960Y41600D01*
X90960Y41500D01*
X90960Y41400D01*
X90960Y41300D01*
X90960Y41200D01*
X90960Y41100D01*
X90960Y41000D01*
X90960Y40900D01*
X90960Y40800D01*
X90960Y40700D01*
X90960Y40600D01*
X90960Y40500D01*
X90960Y40400D01*
X90960Y40300D01*
X90960Y40200D01*
X90960Y40100D01*
X90960Y40000D01*
X90960Y39900D01*
X90960Y39800D01*
X90960Y39700D01*
X90960Y39600D01*
X90960Y39500D01*
X90960Y39400D01*
X90960Y39300D01*
X90960Y39200D01*
X90960Y39100D01*
X90960Y39000D01*
X90960Y38900D01*
X90960Y38800D01*
X90960Y38700D01*
X90960Y38600D01*
X90960Y38500D01*
X90960Y38400D01*
X90960Y38300D01*
X90960Y38200D01*
X90960Y38100D01*
X90960Y38000D01*
X90960Y37900D01*
X90960Y37800D01*
X90960Y37700D01*
X90960Y37600D01*
X90960Y37500D01*
X90960Y37400D01*
X90960Y37300D01*
X90960Y37200D01*
X90960Y37100D01*
X90960Y37000D01*
X90960Y36900D01*
X90960Y36800D01*
X90960Y36700D01*
X90960Y36600D01*
X90960Y36500D01*
X90960Y36400D01*
X90960Y36300D01*
X90960Y36200D01*
X90960Y36100D01*
X90960Y36000D01*
X90960Y35900D01*
X90960Y35800D01*
X90960Y35700D01*
X90960Y35600D01*
X90960Y35500D01*
X90960Y35400D01*
X90960Y35300D01*
X90960Y35200D01*
X90960Y35100D01*
X90960Y35000D01*
X90960Y34900D01*
X90960Y34800D01*
X90960Y34700D01*
X90960Y34600D01*
X90960Y34500D01*
X90960Y34400D01*
X90960Y34300D01*
X90960Y34200D01*
X90960Y34100D01*
X90960Y34000D01*
X90960Y33900D01*
X90960Y33800D01*
X90960Y33700D01*
X90960Y33600D01*
X90960Y33500D01*
X90960Y33400D01*
X90960Y33300D01*
X90960Y33200D01*
X90960Y33100D01*
X90960Y33000D01*
X90960Y32900D01*
X90960Y32800D01*
X90960Y32700D01*
X90960Y32600D01*
X90960Y32500D01*
X90960Y32400D01*
X90960Y32300D01*
X90960Y32200D01*
X90960Y32100D01*
X90960Y32000D01*
X90960Y31900D01*
X90960Y31800D01*
X90960Y31700D01*
X90960Y31600D01*
X90960Y31500D01*
X90960Y31400D01*
X90960Y31300D01*
X90960Y31200D01*
X90960Y31100D01*
X90960Y31000D01*
X90960Y30900D01*
X90960Y30800D01*
X90960Y30700D01*
X90960Y30600D01*
X90960Y30500D01*
X90960Y30400D01*
X90960Y30300D01*
X90960Y30200D01*
X90960Y30100D01*
X90960Y30000D01*
X90960Y29900D01*
X90960Y29800D01*
X90960Y29700D01*
X90960Y29600D01*
X90960Y29500D01*
X90960Y29400D01*
X90960Y29300D01*
X90960Y29200D01*
X90960Y29100D01*
X90960Y29000D01*
X90960Y28900D01*
X90960Y28800D01*
X90960Y28700D01*
X90960Y28600D01*
X90960Y28500D01*
X90960Y28400D01*
X90960Y28300D01*
X90960Y28200D01*
X90960Y28100D01*
X90960Y28000D01*
X90960Y27900D01*
X90960Y27800D01*
X90960Y27700D01*
X90960Y27600D01*
X90960Y27500D01*
X90960Y27400D01*
X90960Y27300D01*
X90960Y27200D01*
X90960Y27100D01*
X90960Y27000D01*
X90960Y26900D01*
X90960Y26800D01*
X90960Y26700D01*
X90960Y26600D01*
X90960Y26500D01*
X90960Y26400D01*
X90960Y26300D01*
X90960Y26200D01*
X90960Y26100D01*
X90960Y26000D01*
X90960Y25900D01*
X90960Y25800D01*
X90960Y25700D01*
X90960Y25600D01*
X90960Y25500D01*
X90960Y25400D01*
X90960Y25300D01*
X90960Y25200D01*
X90960Y25100D01*
X90960Y25000D01*
X90960Y24900D01*
X90960Y24800D01*
X90960Y24700D01*
X90960Y24600D01*
X90960Y24500D01*
X90960Y24400D01*
X90960Y24300D01*
X90960Y24200D01*
X90960Y24100D01*
X90960Y24000D01*
X90960Y23900D01*
X90960Y23800D01*
X90960Y23700D01*
X90960Y23600D01*
X90960Y23500D01*
X90960Y23400D01*
X90960Y23300D01*
X90960Y23200D01*
X90960Y23100D01*
X90960Y23000D01*
X90960Y22900D01*
X90960Y22800D01*
X90960Y22700D01*
X90960Y22600D01*
X90960Y22500D01*
X90960Y22400D01*
X90960Y22300D01*
X90960Y22200D01*
X90960Y22100D01*
X90960Y22000D01*
X90960Y21900D01*
X90960Y21800D01*
X90960Y21700D01*
X90960Y21600D01*
X90960Y21500D01*
X90960Y21400D01*
X90960Y21300D01*
X90960Y21200D01*
X90960Y21100D01*
X90960Y21000D01*
X90960Y20900D01*
X90960Y20800D01*
X90960Y20700D01*
X90960Y20600D01*
X90960Y20500D01*
X90960Y20400D01*
X90960Y20300D01*
X90960Y20200D01*
X90960Y20100D01*
X90960Y20000D01*
X90960Y19900D01*
X90960Y19800D01*
X90960Y19700D01*
X90960Y19600D01*
X90960Y19500D01*
X90960Y19400D01*
X90960Y19300D01*
X90960Y19200D01*
X90960Y19100D01*
X90960Y19000D01*
X90960Y18900D01*
X90960Y18800D01*
X90960Y18700D01*
X90960Y18600D01*
X90960Y18500D01*
X90960Y18400D01*
X90960Y18300D01*
X90960Y18200D01*
X90960Y18100D01*
X90960Y18000D01*
X90960Y17900D01*
X90960Y17800D01*
X90960Y17700D01*
X90960Y17600D01*
X90960Y17500D01*
X90960Y17400D01*
X90960Y17300D01*
X90960Y17200D01*
X90960Y17100D01*
X90960Y17000D01*
X90960Y16900D01*
X90960Y16800D01*
X90960Y16700D01*
X90960Y16600D01*
X90960Y16500D01*
X90960Y16400D01*
X90960Y16300D01*
X90960Y16200D01*
X90960Y16100D01*
X90960Y16000D01*
X90960Y15900D01*
X90960Y15800D01*
X90960Y15700D01*
X90960Y15600D01*
X90960Y15500D01*
X90960Y15400D01*
X90960Y15300D01*
X90960Y15200D01*
X90960Y15100D01*
X90960Y15000D01*
X90960Y14900D01*
X90960Y14800D01*
X90960Y14700D01*
X90960Y14600D01*
X90960Y14500D01*
X90960Y14400D01*
X90960Y14300D01*
X90960Y14200D01*
X90960Y14100D01*
X90960Y14000D01*
X90960Y13900D01*
X90960Y13800D01*
X90960Y13700D01*
X90960Y13600D01*
X90960Y13500D01*
X90960Y13400D01*
X90960Y13300D01*
X90960Y13200D01*
X90960Y13100D01*
X90960Y13000D01*
X90960Y12900D01*
X90960Y12800D01*
X90960Y12700D01*
X90960Y12600D01*
X90960Y12500D01*
X90960Y12400D01*
X90960Y12300D01*
X90960Y12200D01*
X90960Y12100D01*
X90960Y12000D01*
X90960Y11900D01*
X90960Y11800D01*
X90960Y11700D01*
X90960Y11600D01*
X90960Y11500D01*
X90960Y11400D01*
X90960Y11300D01*
X90960Y11200D01*
X90960Y11100D01*
X90960Y11000D01*
X90960Y10900D01*
X90960Y10800D01*
X90960Y10700D01*
X90960Y10600D01*
X90960Y10500D01*
X90960Y10400D01*
X90960Y10300D01*
X90960Y10200D01*
X90960Y10100D01*
X90960Y10000D01*
X90960Y9900D01*
X90960Y9800D01*
X90960Y9700D01*
X90960Y9600D01*
X90960Y9500D01*
X90960Y9400D01*
X90960Y9300D01*
X90960Y9200D01*
X90960Y9100D01*
X90960Y9000D01*
X90960Y8900D01*
X90960Y8800D01*
X90960Y8700D01*
X90960Y8600D01*
X90960Y8500D01*
X90960Y8400D01*
X90960Y8300D01*
X90960Y8200D01*
X90960Y8100D01*
X90960Y8000D01*
X90960Y7900D01*
X90960Y7800D01*
X90960Y7700D01*
X90960Y7600D01*
X90960Y7500D01*
X90960Y7400D01*
X90960Y7300D01*
X90960Y7200D01*
X90960Y7100D01*
X90960Y7000D01*
X90960Y6900D01*
X90960Y6800D01*
X90960Y6700D01*
X90960Y6600D01*
X90960Y6500D01*
X90960Y6400D01*
X90960Y6300D01*
X90960Y6200D01*
X90960Y6100D01*
X90960Y6000D01*
X90960Y5900D01*
X90960Y5800D01*
X90960Y5700D01*
X90960Y5600D01*
X90960Y5500D01*
X90960Y5400D01*
X90960Y5300D01*
X90960Y5200D01*
X90960Y5100D01*
X90960Y5000D01*
X90960Y4900D01*
X90960Y4800D01*
X90960Y4700D01*
X90960Y4600D01*
X90960Y4500D01*
X90960Y4400D01*
X90960Y4300D01*
X90960Y4200D01*
X90960Y4100D01*
X90960Y4000D01*
X90960Y3900D01*
X90960Y3800D01*
X90960Y3700D01*
X90960Y3600D01*
X90960Y3500D01*
X90960Y3400D01*
X90960Y3300D01*
X90960Y3200D01*
X90960Y3100D01*
X90960Y3000D01*
X90960Y2900D01*
X90960Y2800D01*
X90960Y2700D01*
X90960Y2600D01*
X90960Y2500D01*
X90960Y2400D01*
X90960Y2300D01*
X90960Y2200D01*
X90960Y2100D01*
X90960Y2000D01*
X90960Y1900D01*
X90960Y1800D01*
X90960Y1700D01*
X90960Y1600D01*
X90960Y1500D01*
X90960Y1400D01*
X90960Y1300D01*
X90960Y1200D01*
X90960Y1100D01*
X90960Y1000D01*
X90960Y900D01*
X90960Y800D01*
X90960Y700D01*
X90960Y600D01*
X90960Y500D01*
X90960Y400D01*
X90960Y300D01*
X90960Y200D01*
X90960Y100D01*
X90960Y0D01*
X90860Y0D01*
X90760Y0D01*
X90660Y0D01*
X90560Y0D01*
X90460Y0D01*
X90360Y0D01*
X90261Y0D01*
X90161Y0D01*
X90061Y0D01*
X89961Y0D01*
X89861Y0D01*
X89761Y0D01*
X89661Y0D01*
X89561Y0D01*
X89461Y0D01*
X89361Y0D01*
X89261Y0D01*
X89161Y0D01*
X89061Y0D01*
X88962Y0D01*
X88862Y0D01*
X88762Y0D01*
X88662Y0D01*
X88562Y0D01*
X88462Y0D01*
X88362Y0D01*
X88262Y0D01*
X88162Y0D01*
X88062Y0D01*
X87962Y0D01*
X87862Y0D01*
X87762Y0D01*
X87663Y0D01*
X87563Y0D01*
X87463Y0D01*
X87363Y0D01*
X87263Y0D01*
X87163Y0D01*
X87063Y0D01*
X86963Y0D01*
X86863Y0D01*
X86763Y0D01*
X86663Y0D01*
X86563Y0D01*
X86463Y0D01*
X86364Y0D01*
X86264Y0D01*
X86164Y0D01*
X86064Y0D01*
X85964Y0D01*
X85864Y0D01*
X85764Y0D01*
X85664Y0D01*
X85564Y0D01*
X85464Y0D01*
X85364Y0D01*
X85264Y0D01*
X85164Y0D01*
X85065Y0D01*
X84965Y0D01*
X84865Y0D01*
X84765Y0D01*
X84665Y0D01*
X84565Y0D01*
X84465Y0D01*
X84365Y0D01*
X84265Y0D01*
X84165Y0D01*
X84065Y0D01*
X83965Y0D01*
X83865Y0D01*
X83766Y0D01*
X83666Y0D01*
X83566Y0D01*
X83466Y0D01*
X83366Y0D01*
X83266Y0D01*
X83166Y0D01*
X83066Y0D01*
X82966Y0D01*
X82866Y0D01*
X82766Y0D01*
X82666Y0D01*
X82566Y0D01*
X82467Y0D01*
X82367Y0D01*
X82267Y0D01*
X82167Y0D01*
X82067Y0D01*
X81967Y0D01*
X81867Y0D01*
X81767Y0D01*
X81667Y0D01*
X81567Y0D01*
X81467Y0D01*
X81367Y0D01*
X81267Y0D01*
X81168Y0D01*
X81068Y0D01*
X80968Y0D01*
X80868Y0D01*
X80768Y0D01*
X80668Y0D01*
X80568Y0D01*
X80468Y0D01*
X80368Y0D01*
X80268Y0D01*
X80168Y0D01*
X80068Y0D01*
X79968Y0D01*
X79869Y0D01*
X79769Y0D01*
X79669Y0D01*
X79569Y0D01*
X79469Y0D01*
X79369Y0D01*
X79269Y0D01*
X79169Y0D01*
X79069Y0D01*
X78969Y0D01*
X78869Y0D01*
X78769Y0D01*
X78669Y0D01*
X78570Y0D01*
X78470Y0D01*
X78370Y0D01*
X78270Y0D01*
X78170Y0D01*
X78070Y0D01*
X77970Y0D01*
X77870Y0D01*
X77770Y0D01*
X77670Y0D01*
X77570Y0D01*
X77470Y0D01*
X77370Y0D01*
X77270Y0D01*
X77171Y0D01*
X77071Y0D01*
X76971Y0D01*
X76871Y0D01*
X76771Y0D01*
X76671Y0D01*
X76571Y0D01*
X76471Y0D01*
X76371Y0D01*
X76271Y0D01*
X76171Y0D01*
X76071Y0D01*
X75971Y0D01*
X75872Y0D01*
X75772Y0D01*
X75672Y0D01*
X75572Y0D01*
X75472Y0D01*
X75372Y0D01*
X75272Y0D01*
X75172Y0D01*
X75072Y0D01*
X74972Y0D01*
X74872Y0D01*
X74772Y0D01*
X74672Y0D01*
X74573Y0D01*
X74473Y0D01*
X74373Y0D01*
X74273Y0D01*
X74173Y0D01*
X74073Y0D01*
X73973Y0D01*
X73873Y0D01*
X73773Y0D01*
X73673Y0D01*
X73573Y0D01*
X73473Y0D01*
X73373Y0D01*
X73274Y0D01*
X73174Y0D01*
X73074Y0D01*
X72974Y0D01*
X72874Y0D01*
X72774Y0D01*
X72674Y0D01*
X72574Y0D01*
X72474Y0D01*
X72374Y0D01*
X72274Y0D01*
X72174Y0D01*
X72074Y0D01*
X71975Y0D01*
X71875Y0D01*
X71775Y0D01*
X71675Y0D01*
X71575Y0D01*
X71475Y0D01*
X71375Y0D01*
X71275Y0D01*
X71175Y0D01*
X71075Y0D01*
X70975Y0D01*
X70875Y0D01*
X70775Y0D01*
X70676Y0D01*
X70576Y0D01*
X70476Y0D01*
X70376Y0D01*
X70276Y0D01*
X70176Y0D01*
X70076Y0D01*
X69976Y0D01*
X69876Y0D01*
X69776Y0D01*
X69676Y0D01*
X69576Y0D01*
X69476Y0D01*
X69377Y0D01*
X69277Y0D01*
X69177Y0D01*
X69077Y0D01*
X68977Y0D01*
X68877Y0D01*
X68777Y0D01*
X68677Y0D01*
X68577Y0D01*
X68477Y0D01*
X68377Y0D01*
X68277Y0D01*
X68177Y0D01*
X68078Y0D01*
X67978Y0D01*
X67878Y0D01*
X67778Y0D01*
X67678Y0D01*
X67578Y0D01*
X67478Y0D01*
X67378Y0D01*
X67278Y0D01*
X67178Y0D01*
X67078Y0D01*
X66978Y0D01*
X66878Y0D01*
X66779Y0D01*
X66679Y0D01*
X66579Y0D01*
X66479Y0D01*
X66379Y0D01*
X66279Y0D01*
X66179Y0D01*
X66079Y0D01*
X65979Y0D01*
X65879Y0D01*
X65779Y0D01*
X65679Y0D01*
X65579Y0D01*
X65480Y0D01*
X65380Y0D01*
X65280Y0D01*
X65180Y0D01*
X65080Y0D01*
X64980Y0D01*
X64880Y0D01*
X64780Y0D01*
X64680Y0D01*
X64580Y0D01*
X64480Y0D01*
X64380Y0D01*
X64280Y0D01*
X64181Y0D01*
X64081Y0D01*
X63981Y0D01*
X63881Y0D01*
X63781Y0D01*
X63681Y0D01*
X63581Y0D01*
X63481Y0D01*
X63381Y0D01*
X63281Y0D01*
X63181Y0D01*
X63081Y0D01*
X62981Y0D01*
X62882Y0D01*
X62782Y0D01*
X62682Y0D01*
X62582Y0D01*
X62482Y0D01*
X62382Y0D01*
X62282Y0D01*
X62182Y0D01*
X62082Y0D01*
X61982Y0D01*
X61882Y0D01*
X61782Y0D01*
X61682Y0D01*
X61582Y0D01*
X61483Y0D01*
X61383Y0D01*
X61283Y0D01*
X61183Y0D01*
X61083Y0D01*
X60983Y0D01*
X60883Y0D01*
X60783Y0D01*
X60683Y0D01*
X60583Y0D01*
X60483Y0D01*
X60383Y0D01*
X60283Y0D01*
X60184Y0D01*
X60084Y0D01*
X59984Y0D01*
X59884Y0D01*
X59784Y0D01*
X59684Y0D01*
X59584Y0D01*
X59484Y0D01*
X59384Y0D01*
X59284Y0D01*
X59184Y0D01*
X59084Y0D01*
X58984Y0D01*
X58885Y0D01*
X58785Y0D01*
X58685Y0D01*
X58585Y0D01*
X58485Y0D01*
X58385Y0D01*
X58285Y0D01*
X58185Y0D01*
X58085Y0D01*
X57985Y0D01*
X57885Y0D01*
X57785Y0D01*
X57685Y0D01*
X57586Y0D01*
X57486Y0D01*
X57386Y0D01*
X57286Y0D01*
X57186Y0D01*
X57086Y0D01*
X56986Y0D01*
X56886Y0D01*
X56786Y0D01*
X56686Y0D01*
X56586Y0D01*
X56486Y0D01*
X56386Y0D01*
X56287Y0D01*
X56187Y0D01*
X56087Y0D01*
X55987Y0D01*
X55887Y0D01*
X55787Y0D01*
X55687Y0D01*
X55587Y0D01*
X55487Y0D01*
X55387Y0D01*
X55287Y0D01*
X55187Y0D01*
X55087Y0D01*
X54988Y0D01*
X54888Y0D01*
X54788Y0D01*
X54688Y0D01*
X54588Y0D01*
X54488Y0D01*
X54388Y0D01*
X54288Y0D01*
X54188Y0D01*
X54088Y0D01*
X53988Y0D01*
X53888Y0D01*
X53788Y0D01*
X53689Y0D01*
X53589Y0D01*
X53489Y0D01*
X53389Y0D01*
X53289Y0D01*
X53189Y0D01*
X53089Y0D01*
X52989Y0D01*
X52889Y0D01*
X52789Y0D01*
X52689Y0D01*
X52589Y0D01*
X52489Y0D01*
X52390Y0D01*
X52290Y0D01*
X52190Y0D01*
X52090Y0D01*
X51990Y0D01*
X51890Y0D01*
X51790Y0D01*
X51690Y0D01*
X51590Y0D01*
X51490Y0D01*
X51390Y0D01*
X51290Y0D01*
X51190Y0D01*
X51090Y0D01*
X50991Y0D01*
X50891Y0D01*
X50791Y0D01*
X50691Y0D01*
X50591Y0D01*
X50491Y0D01*
X50391Y0D01*
X50291Y0D01*
X50191Y0D01*
X50091Y0D01*
X49991Y0D01*
X49891Y0D01*
X49791Y0D01*
X49692Y0D01*
X49592Y0D01*
X49492Y0D01*
X49392Y0D01*
X49292Y0D01*
X49192Y0D01*
X49092Y0D01*
X48992Y0D01*
X48892Y0D01*
X48792Y0D01*
X48692Y0D01*
X48592Y0D01*
X48492Y0D01*
X48393Y0D01*
X48293Y0D01*
X48193Y0D01*
X48093Y0D01*
X47993Y0D01*
X47893Y0D01*
X47793Y0D01*
X47693Y0D01*
X47593Y0D01*
X47493Y0D01*
X47393Y0D01*
X47293Y0D01*
X47193Y0D01*
X47094Y0D01*
X46994Y0D01*
X46894Y0D01*
X46794Y0D01*
X46694Y0D01*
X46594Y0D01*
X46494Y0D01*
X46394Y0D01*
X46294Y0D01*
X46194Y0D01*
X46094Y0D01*
X45994Y0D01*
X45894Y0D01*
X45795Y0D01*
X45695Y0D01*
X45595Y0D01*
X45495Y0D01*
X45395Y0D01*
X45295Y0D01*
X45195Y0D01*
X45095Y0D01*
X44995Y0D01*
X44895Y0D01*
X44795Y0D01*
X44695Y0D01*
X44595Y0D01*
X44496Y0D01*
X44396Y0D01*
X44296Y0D01*
X44196Y0D01*
X44096Y0D01*
X43996Y0D01*
X43896Y0D01*
X43796Y0D01*
X43696Y0D01*
X43596Y0D01*
X43496Y0D01*
X43396Y0D01*
X43296Y0D01*
X43196Y0D01*
X43097Y0D01*
X42997Y0D01*
X42897Y0D01*
X42797Y0D01*
X42697Y0D01*
X42597Y0D01*
X42497Y0D01*
X42397Y0D01*
X42297Y0D01*
X42197Y0D01*
X42097Y0D01*
X41997Y0D01*
X41897Y0D01*
X41798Y0D01*
X41698Y0D01*
X41598Y0D01*
X41498Y0D01*
X41398Y0D01*
X41298Y0D01*
X41198Y0D01*
X41098Y0D01*
X40998Y0D01*
X40898Y0D01*
X40798Y0D01*
X40698Y0D01*
X40598Y0D01*
X40499Y0D01*
X40399Y0D01*
X40299Y0D01*
X40199Y0D01*
X40099Y0D01*
X39999Y0D01*
X39899Y0D01*
X39799Y0D01*
X39699Y0D01*
X39599Y0D01*
X39499Y0D01*
X39399Y0D01*
X39299Y0D01*
X39199Y0D01*
X39100Y0D01*
X39000Y0D01*
X38900Y0D01*
X38800Y0D01*
X38700Y0D01*
X38600Y0D01*
X38500Y0D01*
X38500Y0D01*
G36*
X39060Y47009D02*
X36260Y47009D01*
X36162Y47019D01*
X36069Y47047D01*
X35982Y47094D01*
X35906Y47156D01*
X35844Y47232D01*
X35798Y47318D01*
X35770Y47412D01*
X35760Y47509D01*
X35760Y48491D01*
X35770Y48588D01*
X35798Y48682D01*
X35844Y48768D01*
X35906Y48844D01*
X35982Y48906D01*
X36069Y48953D01*
X36162Y48981D01*
X36260Y48991D01*
X39060Y48991D01*
X39158Y48981D01*
X39251Y48953D01*
X39338Y48906D01*
X39414Y48844D01*
X39476Y48768D01*
X39522Y48682D01*
X39550Y48588D01*
X39560Y48491D01*
X39560Y47509D01*
X39550Y47412D01*
X39522Y47318D01*
X39476Y47232D01*
X39414Y47156D01*
X39338Y47094D01*
X39251Y47047D01*
X39158Y47019D01*
X39060Y47009D01*
G37*
G36*
X24860Y53009D02*
X22060Y53009D01*
X21962Y53019D01*
X21869Y53047D01*
X21782Y53094D01*
X21706Y53156D01*
X21644Y53232D01*
X21598Y53318D01*
X21570Y53412D01*
X21560Y53509D01*
X21560Y54491D01*
X21570Y54588D01*
X21598Y54682D01*
X21644Y54768D01*
X21706Y54844D01*
X21782Y54906D01*
X21869Y54953D01*
X21962Y54981D01*
X22060Y54991D01*
X24860Y54991D01*
X24958Y54981D01*
X25051Y54953D01*
X25138Y54906D01*
X25214Y54844D01*
X25276Y54768D01*
X25322Y54682D01*
X25350Y54588D01*
X25360Y54491D01*
X25360Y53509D01*
X25350Y53412D01*
X25322Y53318D01*
X25276Y53232D01*
X25214Y53156D01*
X25138Y53094D01*
X25051Y53047D01*
X24958Y53019D01*
X24860Y53009D01*
G37*
G36*
X37060Y53009D02*
X34260Y53009D01*
X34162Y53019D01*
X34069Y53047D01*
X33982Y53094D01*
X33906Y53156D01*
X33844Y53232D01*
X33798Y53318D01*
X33770Y53412D01*
X33760Y53509D01*
X33760Y54491D01*
X33770Y54588D01*
X33798Y54682D01*
X33844Y54768D01*
X33906Y54844D01*
X33982Y54906D01*
X34069Y54953D01*
X34162Y54981D01*
X34260Y54991D01*
X37060Y54991D01*
X37158Y54981D01*
X37251Y54953D01*
X37338Y54906D01*
X37414Y54844D01*
X37476Y54768D01*
X37522Y54682D01*
X37550Y54588D01*
X37560Y54491D01*
X37560Y53509D01*
X37550Y53412D01*
X37522Y53318D01*
X37476Y53232D01*
X37414Y53156D01*
X37338Y53094D01*
X37251Y53047D01*
X37158Y53019D01*
X37060Y53009D01*
G37*
G36*
X37060Y41009D02*
X34260Y41009D01*
X34162Y41019D01*
X34069Y41047D01*
X33982Y41094D01*
X33906Y41156D01*
X33844Y41232D01*
X33798Y41318D01*
X33770Y41412D01*
X33760Y41509D01*
X33760Y42491D01*
X33770Y42588D01*
X33798Y42682D01*
X33844Y42768D01*
X33906Y42844D01*
X33982Y42906D01*
X34069Y42953D01*
X34162Y42981D01*
X34260Y42991D01*
X37060Y42991D01*
X37158Y42981D01*
X37251Y42953D01*
X37338Y42906D01*
X37414Y42844D01*
X37476Y42768D01*
X37522Y42682D01*
X37550Y42588D01*
X37560Y42491D01*
X37560Y41509D01*
X37550Y41412D01*
X37522Y41318D01*
X37476Y41232D01*
X37414Y41156D01*
X37338Y41094D01*
X37251Y41047D01*
X37158Y41019D01*
X37060Y41009D01*
G37*
G36*
X24860Y41009D02*
X22060Y41009D01*
X21962Y41019D01*
X21869Y41047D01*
X21782Y41094D01*
X21706Y41156D01*
X21644Y41232D01*
X21598Y41318D01*
X21570Y41412D01*
X21560Y41509D01*
X21560Y42491D01*
X21570Y42588D01*
X21598Y42682D01*
X21644Y42768D01*
X21706Y42844D01*
X21782Y42906D01*
X21869Y42953D01*
X21962Y42981D01*
X22060Y42991D01*
X24860Y42991D01*
X24958Y42981D01*
X25051Y42953D01*
X25138Y42906D01*
X25214Y42844D01*
X25276Y42768D01*
X25322Y42682D01*
X25350Y42588D01*
X25360Y42491D01*
X25360Y41509D01*
X25350Y41412D01*
X25322Y41318D01*
X25276Y41232D01*
X25214Y41156D01*
X25138Y41094D01*
X25051Y41047D01*
X24958Y41019D01*
X24860Y41009D01*
G37*
G36*
X38730Y35770D02*
X38730Y35770D01*
X38630Y35777D01*
X38533Y35798D01*
X38439Y35833D01*
X38352Y35881D01*
X38272Y35941D01*
X38201Y36012D01*
X38141Y36092D01*
X38093Y36179D01*
X38058Y36273D01*
X38037Y36371D01*
X38030Y36470D01*
X38030Y36470D01*
X38037Y36570D01*
X38058Y36668D01*
X38093Y36761D01*
X38141Y36849D01*
X38201Y36929D01*
X38272Y36999D01*
X38352Y37059D01*
X38439Y37107D01*
X38533Y37142D01*
X38630Y37163D01*
X38730Y37170D01*
X38730Y37170D01*
X38830Y37163D01*
X38927Y37142D01*
X39021Y37107D01*
X39108Y37059D01*
X39188Y36999D01*
X39259Y36929D01*
X39319Y36849D01*
X39367Y36761D01*
X39402Y36668D01*
X39423Y36570D01*
X39430Y36470D01*
X39430Y36470D01*
X39423Y36371D01*
X39402Y36273D01*
X39367Y36179D01*
X39319Y36092D01*
X39259Y36012D01*
X39188Y35941D01*
X39108Y35881D01*
X39021Y35833D01*
X38927Y35798D01*
X38830Y35777D01*
X38730Y35770D01*
G37*
G36*
X37460Y33865D02*
X37460Y33865D01*
X37360Y33872D01*
X37263Y33893D01*
X37169Y33928D01*
X37082Y33976D01*
X37002Y34036D01*
X36931Y34107D01*
X36871Y34187D01*
X36823Y34274D01*
X36788Y34368D01*
X36767Y34466D01*
X36760Y34565D01*
X36760Y34565D01*
X36767Y34665D01*
X36788Y34763D01*
X36823Y34856D01*
X36871Y34944D01*
X36931Y35024D01*
X37002Y35094D01*
X37082Y35154D01*
X37169Y35202D01*
X37263Y35237D01*
X37360Y35258D01*
X37460Y35265D01*
X37460Y35265D01*
X37560Y35258D01*
X37657Y35237D01*
X37751Y35202D01*
X37838Y35154D01*
X37918Y35094D01*
X37989Y35024D01*
X38049Y34944D01*
X38097Y34856D01*
X38132Y34763D01*
X38153Y34665D01*
X38160Y34565D01*
X38160Y34565D01*
X38153Y34466D01*
X38132Y34368D01*
X38097Y34274D01*
X38049Y34187D01*
X37989Y34107D01*
X37918Y34036D01*
X37838Y33976D01*
X37751Y33928D01*
X37657Y33893D01*
X37560Y33872D01*
X37460Y33865D01*
G37*
G36*
X36190Y35770D02*
X36190Y35770D01*
X36090Y35777D01*
X35993Y35798D01*
X35899Y35833D01*
X35812Y35881D01*
X35732Y35941D01*
X35661Y36012D01*
X35601Y36092D01*
X35553Y36179D01*
X35518Y36273D01*
X35497Y36371D01*
X35490Y36470D01*
X35490Y36470D01*
X35497Y36570D01*
X35518Y36668D01*
X35553Y36761D01*
X35601Y36849D01*
X35661Y36929D01*
X35732Y36999D01*
X35812Y37059D01*
X35899Y37107D01*
X35993Y37142D01*
X36090Y37163D01*
X36190Y37170D01*
X36190Y37170D01*
X36290Y37163D01*
X36387Y37142D01*
X36481Y37107D01*
X36568Y37059D01*
X36648Y36999D01*
X36719Y36929D01*
X36779Y36849D01*
X36827Y36761D01*
X36862Y36668D01*
X36883Y36570D01*
X36890Y36470D01*
X36890Y36470D01*
X36883Y36371D01*
X36862Y36273D01*
X36827Y36179D01*
X36779Y36092D01*
X36719Y36012D01*
X36648Y35941D01*
X36568Y35881D01*
X36481Y35833D01*
X36387Y35798D01*
X36290Y35777D01*
X36190Y35770D01*
G37*
G36*
X54560Y2727D02*
X54560Y5727D01*
X57560Y5727D01*
X57560Y2727D01*
G37*
G36*
X49560Y24227D02*
X49560Y24227D01*
X49563Y24325D01*
X49573Y24423D01*
X49589Y24520D01*
X49611Y24615D01*
X49639Y24709D01*
X49674Y24801D01*
X49714Y24890D01*
X49761Y24977D01*
X49813Y25060D01*
X49870Y25140D01*
X49932Y25216D01*
X49999Y25288D01*
X50071Y25355D01*
X50147Y25417D01*
X50227Y25474D01*
X50310Y25526D01*
X50396Y25573D01*
X50486Y25613D01*
X50578Y25648D01*
X50672Y25676D01*
X50767Y25698D01*
X50864Y25714D01*
X50962Y25724D01*
X51060Y25727D01*
X51060Y25727D01*
X51158Y25724D01*
X51256Y25714D01*
X51353Y25698D01*
X51448Y25676D01*
X51542Y25648D01*
X51634Y25613D01*
X51724Y25573D01*
X51810Y25526D01*
X51893Y25474D01*
X51973Y25417D01*
X52049Y25355D01*
X52121Y25288D01*
X52188Y25216D01*
X52250Y25140D01*
X52307Y25060D01*
X52359Y24977D01*
X52406Y24890D01*
X52446Y24801D01*
X52481Y24709D01*
X52509Y24615D01*
X52531Y24520D01*
X52547Y24423D01*
X52557Y24325D01*
X52560Y24227D01*
X52560Y24227D01*
X52557Y24129D01*
X52547Y24031D01*
X52531Y23934D01*
X52509Y23839D01*
X52481Y23745D01*
X52446Y23653D01*
X52406Y23563D01*
X52359Y23477D01*
X52307Y23393D01*
X52250Y23314D01*
X52188Y23238D01*
X52121Y23166D01*
X52049Y23099D01*
X51973Y23037D01*
X51893Y22980D01*
X51810Y22928D01*
X51724Y22881D01*
X51634Y22841D01*
X51542Y22806D01*
X51448Y22778D01*
X51353Y22755D01*
X51256Y22740D01*
X51158Y22730D01*
X51060Y22727D01*
X51060Y22727D01*
X50962Y22730D01*
X50864Y22740D01*
X50767Y22755D01*
X50672Y22778D01*
X50578Y22806D01*
X50486Y22841D01*
X50396Y22881D01*
X50310Y22928D01*
X50227Y22980D01*
X50147Y23037D01*
X50071Y23099D01*
X49999Y23166D01*
X49932Y23238D01*
X49870Y23314D01*
X49813Y23393D01*
X49761Y23477D01*
X49714Y23563D01*
X49674Y23653D01*
X49639Y23745D01*
X49611Y23839D01*
X49589Y23934D01*
X49573Y24031D01*
X49563Y24129D01*
X49560Y24227D01*
G37*
G36*
X34560Y2727D02*
X34560Y5727D01*
X37560Y5727D01*
X37560Y2727D01*
G37*
G36*
X39560Y22727D02*
X39560Y25727D01*
X42560Y25727D01*
X42560Y22727D01*
G37*
G36*
X40110Y30150D02*
X38810Y30150D01*
X38810Y31450D01*
X40110Y31450D01*
G37*
G36*
X41461Y30150D02*
X41461Y30150D01*
X41368Y30157D01*
X41278Y30176D01*
X41191Y30209D01*
X41109Y30253D01*
X41035Y30309D01*
X40970Y30374D01*
X40914Y30449D01*
X40869Y30530D01*
X40837Y30617D01*
X40817Y30707D01*
X40811Y30800D01*
X40811Y30800D01*
X40817Y30893D01*
X40837Y30983D01*
X40869Y31070D01*
X40914Y31151D01*
X40970Y31226D01*
X41035Y31291D01*
X41109Y31347D01*
X41191Y31391D01*
X41278Y31424D01*
X41368Y31443D01*
X41461Y31450D01*
X41461Y31450D01*
X41553Y31443D01*
X41644Y31424D01*
X41731Y31391D01*
X41812Y31347D01*
X41886Y31291D01*
X41952Y31226D01*
X42008Y31151D01*
X42052Y31070D01*
X42085Y30983D01*
X42104Y30893D01*
X42111Y30800D01*
X42111Y30800D01*
X42104Y30707D01*
X42085Y30617D01*
X42052Y30530D01*
X42008Y30449D01*
X41952Y30374D01*
X41886Y30309D01*
X41812Y30253D01*
X41731Y30209D01*
X41644Y30176D01*
X41553Y30157D01*
X41461Y30150D01*
G37*
G36*
X65560Y20800D02*
X66960Y20800D01*
X66960Y19400D01*
X65560Y19400D01*
G37*
G36*
X65560Y18800D02*
X66960Y18800D01*
X66960Y17400D01*
X65560Y17400D01*
G37*
G36*
X65560Y16800D02*
X66960Y16800D01*
X66960Y15400D01*
X65560Y15400D01*
G37*
G36*
X65560Y14800D02*
X66960Y14800D01*
X66960Y13400D01*
X65560Y13400D01*
G37*
G36*
X65560Y12800D02*
X66960Y12800D01*
X66960Y11400D01*
X65560Y11400D01*
G37*
G36*
X65560Y10800D02*
X66960Y10800D01*
X66960Y9400D01*
X65560Y9400D01*
G37*
G36*
X65560Y8800D02*
X66960Y8800D01*
X66960Y7400D01*
X65560Y7400D01*
G37*
G36*
X65560Y6800D02*
X66960Y6800D01*
X66960Y5400D01*
X65560Y5400D01*
G37*
G36*
X65560Y4800D02*
X66960Y4800D01*
X66960Y3400D01*
X65560Y3400D01*
G37*
G36*
X65560Y2800D02*
X66960Y2800D01*
X66960Y1400D01*
X65560Y1400D01*
G37*
G36*
X87560Y2800D02*
X88960Y2800D01*
X88960Y1400D01*
X87560Y1400D01*
G37*
G36*
X87560Y4800D02*
X88960Y4800D01*
X88960Y3400D01*
X87560Y3400D01*
G37*
G36*
X87560Y6800D02*
X88960Y6800D01*
X88960Y5400D01*
X87560Y5400D01*
G37*
G36*
X87560Y8800D02*
X88960Y8800D01*
X88960Y7400D01*
X87560Y7400D01*
G37*
G36*
X87560Y10800D02*
X88960Y10800D01*
X88960Y9400D01*
X87560Y9400D01*
G37*
G36*
X87560Y12800D02*
X88960Y12800D01*
X88960Y11400D01*
X87560Y11400D01*
G37*
G36*
X87560Y14800D02*
X88960Y14800D01*
X88960Y13400D01*
X87560Y13400D01*
G37*
G36*
X87560Y16800D02*
X88960Y16800D01*
X88960Y15400D01*
X87560Y15400D01*
G37*
G36*
X87560Y18800D02*
X88960Y18800D01*
X88960Y17400D01*
X87560Y17400D01*
G37*
G36*
X87560Y20800D02*
X88960Y20800D01*
X88960Y19400D01*
X87560Y19400D01*
G37*
G36*
X8532Y54183D02*
X8415Y54175D01*
X8299Y54153D01*
X8186Y54117D01*
X8080Y54066D01*
X7980Y54003D01*
X7889Y53928D01*
X7808Y53842D01*
X7739Y53746D01*
X7682Y53643D01*
X7639Y53533D01*
X7609Y53419D01*
X7594Y53302D01*
X7594Y53184D01*
X7609Y53067D01*
X7639Y52953D01*
X7682Y52843D01*
X7739Y52739D01*
X7808Y52644D01*
X7889Y52558D01*
X7980Y52483D01*
X8080Y52419D01*
X8186Y52369D01*
X8299Y52333D01*
X8415Y52311D01*
X8532Y52303D01*
X8650Y52311D01*
X8766Y52333D01*
X8878Y52369D01*
X8985Y52419D01*
X9085Y52483D01*
X9176Y52558D01*
X9256Y52644D01*
X9326Y52739D01*
X9383Y52843D01*
X9426Y52953D01*
X9456Y53067D01*
X9470Y53184D01*
X9470Y53302D01*
X9456Y53419D01*
X9426Y53533D01*
X9383Y53643D01*
X9326Y53746D01*
X9256Y53842D01*
X9176Y53928D01*
X9085Y54003D01*
X8985Y54066D01*
X8878Y54117D01*
X8766Y54153D01*
X8650Y54175D01*
X8532Y54183D01*
G37*
G36*
X8532Y56723D02*
X8415Y56715D01*
X8299Y56693D01*
X8186Y56657D01*
X8080Y56606D01*
X7980Y56543D01*
X7889Y56468D01*
X7808Y56382D01*
X7739Y56286D01*
X7682Y56183D01*
X7639Y56073D01*
X7609Y55959D01*
X7594Y55842D01*
X7594Y55724D01*
X7609Y55607D01*
X7639Y55493D01*
X7682Y55383D01*
X7739Y55279D01*
X7808Y55184D01*
X7889Y55098D01*
X7980Y55023D01*
X8080Y54959D01*
X8186Y54909D01*
X8299Y54873D01*
X8415Y54851D01*
X8532Y54843D01*
X8650Y54851D01*
X8766Y54873D01*
X8878Y54909D01*
X8985Y54959D01*
X9085Y55023D01*
X9176Y55098D01*
X9256Y55184D01*
X9326Y55279D01*
X9383Y55383D01*
X9426Y55493D01*
X9456Y55607D01*
X9470Y55724D01*
X9470Y55842D01*
X9456Y55959D01*
X9426Y56073D01*
X9383Y56183D01*
X9326Y56286D01*
X9256Y56382D01*
X9176Y56468D01*
X9085Y56543D01*
X8985Y56606D01*
X8878Y56657D01*
X8766Y56693D01*
X8650Y56715D01*
X8532Y56723D01*
G37*
G36*
X3262Y54183D02*
X3145Y54175D01*
X3029Y54153D01*
X2916Y54117D01*
X2810Y54066D01*
X2710Y54003D01*
X2619Y53928D01*
X2538Y53842D01*
X2469Y53746D01*
X2412Y53643D01*
X2369Y53533D01*
X2339Y53419D01*
X2324Y53302D01*
X2324Y53184D01*
X2339Y53067D01*
X2369Y52953D01*
X2412Y52843D01*
X2469Y52739D01*
X2538Y52644D01*
X2619Y52558D01*
X2710Y52483D01*
X2810Y52419D01*
X2916Y52369D01*
X3029Y52333D01*
X3145Y52311D01*
X3262Y52303D01*
X3380Y52311D01*
X3496Y52333D01*
X3608Y52369D01*
X3715Y52419D01*
X3815Y52483D01*
X3906Y52558D01*
X3986Y52644D01*
X4056Y52739D01*
X4113Y52843D01*
X4156Y52953D01*
X4186Y53067D01*
X4200Y53184D01*
X4200Y53302D01*
X4186Y53419D01*
X4156Y53533D01*
X4113Y53643D01*
X4056Y53746D01*
X3986Y53842D01*
X3906Y53928D01*
X3815Y54003D01*
X3715Y54066D01*
X3608Y54117D01*
X3496Y54153D01*
X3380Y54175D01*
X3262Y54183D01*
G37*
G36*
X3262Y56723D02*
X3145Y56715D01*
X3029Y56693D01*
X2916Y56657D01*
X2810Y56606D01*
X2710Y56543D01*
X2619Y56468D01*
X2538Y56382D01*
X2469Y56286D01*
X2412Y56183D01*
X2369Y56073D01*
X2339Y55959D01*
X2324Y55842D01*
X2324Y55724D01*
X2339Y55607D01*
X2369Y55493D01*
X2412Y55383D01*
X2469Y55279D01*
X2538Y55184D01*
X2619Y55098D01*
X2710Y55023D01*
X2810Y54959D01*
X2916Y54909D01*
X3029Y54873D01*
X3145Y54851D01*
X3262Y54843D01*
X3380Y54851D01*
X3496Y54873D01*
X3608Y54909D01*
X3715Y54959D01*
X3815Y55023D01*
X3906Y55098D01*
X3986Y55184D01*
X4056Y55279D01*
X4113Y55383D01*
X4156Y55493D01*
X4186Y55607D01*
X4200Y55724D01*
X4200Y55842D01*
X4186Y55959D01*
X4156Y56073D01*
X4113Y56183D01*
X4056Y56286D01*
X3986Y56382D01*
X3906Y56468D01*
X3815Y56543D01*
X3715Y56606D01*
X3608Y56657D01*
X3496Y56693D01*
X3380Y56715D01*
X3262Y56723D01*
G37*
G36*
X13000Y42205D02*
X13000Y42205D01*
X12900Y42212D01*
X12803Y42233D01*
X12709Y42268D01*
X12622Y42316D01*
X12542Y42376D01*
X12471Y42447D01*
X12411Y42527D01*
X12363Y42614D01*
X12328Y42708D01*
X12307Y42805D01*
X12300Y42905D01*
X12300Y42905D01*
X12307Y43005D01*
X12328Y43102D01*
X12363Y43196D01*
X12411Y43283D01*
X12471Y43363D01*
X12542Y43434D01*
X12622Y43494D01*
X12709Y43542D01*
X12803Y43577D01*
X12900Y43598D01*
X13000Y43605D01*
X13000Y43605D01*
X13100Y43598D01*
X13197Y43577D01*
X13291Y43542D01*
X13378Y43494D01*
X13458Y43434D01*
X13529Y43363D01*
X13589Y43283D01*
X13637Y43196D01*
X13672Y43102D01*
X13693Y43005D01*
X13700Y42905D01*
X13700Y42905D01*
X13693Y42805D01*
X13672Y42708D01*
X13637Y42614D01*
X13589Y42527D01*
X13529Y42447D01*
X13458Y42376D01*
X13378Y42316D01*
X13291Y42268D01*
X13197Y42233D01*
X13100Y42212D01*
X13000Y42205D01*
G37*
G36*
X11730Y40300D02*
X11730Y40300D01*
X11630Y40307D01*
X11533Y40328D01*
X11439Y40363D01*
X11352Y40411D01*
X11272Y40471D01*
X11201Y40542D01*
X11141Y40622D01*
X11093Y40709D01*
X11058Y40803D01*
X11037Y40900D01*
X11030Y41000D01*
X11030Y41000D01*
X11037Y41100D01*
X11058Y41197D01*
X11093Y41291D01*
X11141Y41378D01*
X11201Y41458D01*
X11272Y41529D01*
X11352Y41589D01*
X11439Y41637D01*
X11533Y41672D01*
X11630Y41693D01*
X11730Y41700D01*
X11730Y41700D01*
X11830Y41693D01*
X11927Y41672D01*
X12021Y41637D01*
X12108Y41589D01*
X12188Y41529D01*
X12259Y41458D01*
X12319Y41378D01*
X12367Y41291D01*
X12402Y41197D01*
X12423Y41100D01*
X12430Y41000D01*
X12430Y41000D01*
X12423Y40900D01*
X12402Y40803D01*
X12367Y40709D01*
X12319Y40622D01*
X12259Y40542D01*
X12188Y40471D01*
X12108Y40411D01*
X12021Y40363D01*
X11927Y40328D01*
X11830Y40307D01*
X11730Y40300D01*
G37*
G36*
X10460Y42205D02*
X10460Y42205D01*
X10360Y42212D01*
X10263Y42233D01*
X10169Y42268D01*
X10082Y42316D01*
X10002Y42376D01*
X9931Y42447D01*
X9871Y42527D01*
X9823Y42614D01*
X9788Y42708D01*
X9767Y42805D01*
X9760Y42905D01*
X9760Y42905D01*
X9767Y43005D01*
X9788Y43102D01*
X9823Y43196D01*
X9871Y43283D01*
X9931Y43363D01*
X10002Y43434D01*
X10082Y43494D01*
X10169Y43542D01*
X10263Y43577D01*
X10360Y43598D01*
X10460Y43605D01*
X10460Y43605D01*
X10560Y43598D01*
X10657Y43577D01*
X10751Y43542D01*
X10838Y43494D01*
X10918Y43434D01*
X10989Y43363D01*
X11049Y43283D01*
X11097Y43196D01*
X11132Y43102D01*
X11153Y43005D01*
X11160Y42905D01*
X11160Y42905D01*
X11153Y42805D01*
X11132Y42708D01*
X11097Y42614D01*
X11049Y42527D01*
X10989Y42447D01*
X10918Y42376D01*
X10838Y42316D01*
X10751Y42268D01*
X10657Y42233D01*
X10560Y42212D01*
X10460Y42205D01*
G37*
G36*
X3460Y37480D02*
X3342Y37472D01*
X3226Y37450D01*
X3114Y37414D01*
X3007Y37364D01*
X2908Y37300D01*
X2817Y37225D01*
X2736Y37139D01*
X2667Y37044D01*
X2610Y36940D01*
X2566Y36830D01*
X2537Y36716D01*
X2522Y36599D01*
X2522Y36481D01*
X2537Y36364D01*
X2566Y36250D01*
X2610Y36140D01*
X2667Y36036D01*
X2736Y35941D01*
X2817Y35855D01*
X2908Y35780D01*
X3007Y35716D01*
X3114Y35666D01*
X3226Y35630D01*
X3342Y35608D01*
X3460Y35600D01*
X3578Y35608D01*
X3694Y35630D01*
X3806Y35666D01*
X3913Y35716D01*
X4012Y35780D01*
X4103Y35855D01*
X4184Y35941D01*
X4253Y36036D01*
X4310Y36140D01*
X4354Y36250D01*
X4383Y36364D01*
X4398Y36481D01*
X4398Y36599D01*
X4383Y36716D01*
X4354Y36830D01*
X4310Y36940D01*
X4253Y37044D01*
X4184Y37139D01*
X4103Y37225D01*
X4012Y37300D01*
X3913Y37364D01*
X3806Y37414D01*
X3694Y37450D01*
X3578Y37472D01*
X3460Y37480D01*
G37*
G36*
X3460Y40020D02*
X3342Y40012D01*
X3226Y39990D01*
X3114Y39954D01*
X3007Y39904D01*
X2908Y39840D01*
X2817Y39765D01*
X2736Y39679D01*
X2667Y39584D01*
X2610Y39480D01*
X2566Y39370D01*
X2537Y39256D01*
X2522Y39139D01*
X2522Y39021D01*
X2537Y38904D01*
X2566Y38790D01*
X2610Y38680D01*
X2667Y38576D01*
X2736Y38481D01*
X2817Y38395D01*
X2908Y38320D01*
X3007Y38256D01*
X3114Y38206D01*
X3226Y38170D01*
X3342Y38148D01*
X3460Y38140D01*
X3578Y38148D01*
X3694Y38170D01*
X3806Y38206D01*
X3913Y38256D01*
X4012Y38320D01*
X4103Y38395D01*
X4184Y38481D01*
X4253Y38576D01*
X4310Y38680D01*
X4354Y38790D01*
X4383Y38904D01*
X4398Y39021D01*
X4398Y39139D01*
X4383Y39256D01*
X4354Y39370D01*
X4310Y39480D01*
X4253Y39584D01*
X4184Y39679D01*
X4103Y39765D01*
X4012Y39840D01*
X3913Y39904D01*
X3806Y39954D01*
X3694Y39990D01*
X3578Y40012D01*
X3460Y40020D01*
G37*
G36*
X32460Y36505D02*
X32559Y36510D01*
X32656Y36527D01*
X32751Y36555D01*
X32842Y36594D01*
X32928Y36643D01*
X33007Y36703D01*
X33078Y36771D01*
X33142Y36847D01*
X33196Y36929D01*
X33241Y37018D01*
X33275Y37110D01*
X33298Y37207D01*
X33310Y37305D01*
X33310Y37404D01*
X33298Y37502D01*
X33275Y37598D01*
X33241Y37691D01*
X33196Y37779D01*
X33142Y37862D01*
X33079Y37938D01*
X33007Y38005D01*
X32927Y38065D01*
X32842Y38114D01*
X32751Y38153D01*
X32656Y38182D01*
X32559Y38199D01*
X32460Y38205D01*
X32361Y38199D01*
X32264Y38182D01*
X32169Y38154D01*
X32078Y38115D01*
X31992Y38066D01*
X31913Y38006D01*
X31842Y37938D01*
X31778Y37862D01*
X31724Y37780D01*
X31679Y37691D01*
X31645Y37599D01*
X31622Y37502D01*
X31610Y37404D01*
X31610Y37305D01*
X31622Y37207D01*
X31645Y37111D01*
X31679Y37018D01*
X31724Y36930D01*
X31778Y36847D01*
X31841Y36771D01*
X31913Y36704D01*
X31993Y36645D01*
X32078Y36595D01*
X32169Y36556D01*
X32264Y36527D01*
X32361Y36510D01*
X32460Y36505D01*
G37*
G36*
X32460Y28885D02*
X32559Y28890D01*
X32656Y28907D01*
X32751Y28935D01*
X32842Y28974D01*
X32928Y29023D01*
X33007Y29083D01*
X33078Y29151D01*
X33142Y29227D01*
X33196Y29309D01*
X33241Y29398D01*
X33275Y29490D01*
X33298Y29587D01*
X33310Y29685D01*
X33310Y29784D01*
X33298Y29882D01*
X33275Y29978D01*
X33241Y30071D01*
X33196Y30159D01*
X33142Y30242D01*
X33079Y30318D01*
X33007Y30385D01*
X32927Y30445D01*
X32842Y30494D01*
X32751Y30533D01*
X32656Y30562D01*
X32559Y30579D01*
X32460Y30585D01*
X32361Y30579D01*
X32264Y30562D01*
X32169Y30534D01*
X32078Y30495D01*
X31992Y30446D01*
X31913Y30386D01*
X31842Y30318D01*
X31778Y30242D01*
X31724Y30160D01*
X31679Y30071D01*
X31645Y29979D01*
X31622Y29882D01*
X31610Y29784D01*
X31610Y29685D01*
X31622Y29587D01*
X31645Y29491D01*
X31679Y29398D01*
X31724Y29310D01*
X31778Y29227D01*
X31841Y29151D01*
X31913Y29084D01*
X31993Y29025D01*
X32078Y28975D01*
X32169Y28936D01*
X32264Y28907D01*
X32361Y28890D01*
X32460Y28885D01*
G37*
G36*
X12880Y35705D02*
X12880Y35705D01*
X12876Y35610D01*
X12864Y35516D01*
X12845Y35423D01*
X12818Y35332D01*
X12783Y35243D01*
X12742Y35158D01*
X12693Y35076D01*
X12638Y34999D01*
X12576Y34926D01*
X12509Y34859D01*
X12436Y34798D01*
X12359Y34742D01*
X12277Y34693D01*
X12192Y34652D01*
X12104Y34617D01*
X12012Y34590D01*
X11919Y34571D01*
X11825Y34559D01*
X11730Y34555D01*
X11730Y34555D01*
X11635Y34559D01*
X11541Y34571D01*
X11448Y34590D01*
X11356Y34617D01*
X11268Y34652D01*
X11183Y34693D01*
X11101Y34742D01*
X11024Y34798D01*
X10951Y34859D01*
X10884Y34926D01*
X10822Y34999D01*
X10767Y35076D01*
X10718Y35158D01*
X10677Y35243D01*
X10642Y35332D01*
X10615Y35423D01*
X10596Y35516D01*
X10584Y35610D01*
X10580Y35705D01*
X10580Y35705D01*
X10584Y35800D01*
X10596Y35894D01*
X10615Y35987D01*
X10642Y36079D01*
X10677Y36167D01*
X10718Y36252D01*
X10767Y36334D01*
X10822Y36411D01*
X10884Y36484D01*
X10951Y36551D01*
X11024Y36613D01*
X11101Y36668D01*
X11183Y36717D01*
X11268Y36758D01*
X11356Y36793D01*
X11448Y36820D01*
X11541Y36840D01*
X11635Y36851D01*
X11730Y36855D01*
X11730Y36855D01*
X11825Y36851D01*
X11919Y36840D01*
X12012Y36820D01*
X12104Y36793D01*
X12192Y36758D01*
X12277Y36717D01*
X12359Y36668D01*
X12436Y36613D01*
X12509Y36551D01*
X12576Y36484D01*
X12638Y36411D01*
X12693Y36334D01*
X12742Y36252D01*
X12783Y36167D01*
X12818Y36079D01*
X12845Y35987D01*
X12864Y35894D01*
X12876Y35800D01*
X12880Y35705D01*
G37*
G36*
X12880Y32205D02*
X12880Y32205D01*
X12876Y32110D01*
X12864Y32016D01*
X12845Y31923D01*
X12818Y31832D01*
X12783Y31743D01*
X12742Y31658D01*
X12693Y31576D01*
X12638Y31499D01*
X12576Y31426D01*
X12509Y31359D01*
X12436Y31298D01*
X12359Y31242D01*
X12277Y31193D01*
X12192Y31152D01*
X12104Y31117D01*
X12012Y31090D01*
X11919Y31071D01*
X11825Y31059D01*
X11730Y31055D01*
X11730Y31055D01*
X11635Y31059D01*
X11541Y31071D01*
X11448Y31090D01*
X11356Y31117D01*
X11268Y31152D01*
X11183Y31193D01*
X11101Y31242D01*
X11024Y31298D01*
X10951Y31359D01*
X10884Y31426D01*
X10822Y31499D01*
X10767Y31576D01*
X10718Y31658D01*
X10677Y31743D01*
X10642Y31832D01*
X10615Y31923D01*
X10596Y32016D01*
X10584Y32110D01*
X10580Y32205D01*
X10580Y32205D01*
X10584Y32300D01*
X10596Y32394D01*
X10615Y32487D01*
X10642Y32579D01*
X10677Y32667D01*
X10718Y32752D01*
X10767Y32834D01*
X10822Y32911D01*
X10884Y32984D01*
X10951Y33051D01*
X11024Y33113D01*
X11101Y33168D01*
X11183Y33217D01*
X11268Y33258D01*
X11356Y33293D01*
X11448Y33320D01*
X11541Y33340D01*
X11635Y33351D01*
X11730Y33355D01*
X11730Y33355D01*
X11825Y33351D01*
X11919Y33340D01*
X12012Y33320D01*
X12104Y33293D01*
X12192Y33258D01*
X12277Y33217D01*
X12359Y33168D01*
X12436Y33113D01*
X12509Y33051D01*
X12576Y32984D01*
X12638Y32911D01*
X12693Y32834D01*
X12742Y32752D01*
X12783Y32667D01*
X12818Y32579D01*
X12845Y32487D01*
X12864Y32394D01*
X12876Y32300D01*
X12880Y32205D01*
G37*
G36*
X13858Y54183D02*
X13740Y54175D01*
X13624Y54153D01*
X13512Y54117D01*
X13405Y54066D01*
X13306Y54003D01*
X13215Y53928D01*
X13134Y53842D01*
X13064Y53746D01*
X13008Y53643D01*
X12964Y53533D01*
X12935Y53419D01*
X12920Y53302D01*
X12920Y53184D01*
X12935Y53067D01*
X12964Y52953D01*
X13008Y52843D01*
X13064Y52739D01*
X13134Y52644D01*
X13215Y52558D01*
X13306Y52483D01*
X13405Y52419D01*
X13512Y52369D01*
X13624Y52333D01*
X13740Y52311D01*
X13858Y52303D01*
X13976Y52311D01*
X14092Y52333D01*
X14204Y52369D01*
X14311Y52419D01*
X14410Y52483D01*
X14501Y52558D01*
X14582Y52644D01*
X14651Y52739D01*
X14708Y52843D01*
X14752Y52953D01*
X14781Y53067D01*
X14796Y53184D01*
X14796Y53302D01*
X14781Y53419D01*
X14752Y53533D01*
X14708Y53643D01*
X14651Y53746D01*
X14582Y53842D01*
X14501Y53928D01*
X14410Y54003D01*
X14311Y54066D01*
X14204Y54117D01*
X14092Y54153D01*
X13976Y54175D01*
X13858Y54183D01*
G37*
G36*
X13858Y56723D02*
X13740Y56715D01*
X13624Y56693D01*
X13512Y56657D01*
X13405Y56606D01*
X13306Y56543D01*
X13215Y56468D01*
X13134Y56382D01*
X13064Y56286D01*
X13008Y56183D01*
X12964Y56073D01*
X12935Y55959D01*
X12920Y55842D01*
X12920Y55724D01*
X12935Y55607D01*
X12964Y55493D01*
X13008Y55383D01*
X13064Y55279D01*
X13134Y55184D01*
X13215Y55098D01*
X13306Y55023D01*
X13405Y54959D01*
X13512Y54909D01*
X13624Y54873D01*
X13740Y54851D01*
X13858Y54843D01*
X13976Y54851D01*
X14092Y54873D01*
X14204Y54909D01*
X14311Y54959D01*
X14410Y55023D01*
X14501Y55098D01*
X14582Y55184D01*
X14651Y55279D01*
X14708Y55383D01*
X14752Y55493D01*
X14781Y55607D01*
X14796Y55724D01*
X14796Y55842D01*
X14781Y55959D01*
X14752Y56073D01*
X14708Y56183D01*
X14651Y56286D01*
X14582Y56382D01*
X14501Y56468D01*
X14410Y56543D01*
X14311Y56606D01*
X14204Y56657D01*
X14092Y56693D01*
X13976Y56715D01*
X13858Y56723D01*
G37*
G36*
X7958Y50000D02*
X7958Y50000D01*
X7952Y49902D01*
X7933Y49806D01*
X7901Y49713D01*
X7858Y49625D01*
X7803Y49543D01*
X7738Y49470D01*
X7665Y49405D01*
X7583Y49350D01*
X7495Y49307D01*
X7402Y49275D01*
X7306Y49256D01*
X7208Y49250D01*
X7208Y49250D01*
X7110Y49256D01*
X7014Y49275D01*
X6921Y49307D01*
X6833Y49350D01*
X6751Y49405D01*
X6678Y49470D01*
X6613Y49543D01*
X6558Y49625D01*
X6515Y49713D01*
X6483Y49806D01*
X6464Y49902D01*
X6458Y50000D01*
X6458Y50000D01*
X6464Y50098D01*
X6483Y50194D01*
X6515Y50287D01*
X6558Y50375D01*
X6613Y50457D01*
X6678Y50530D01*
X6751Y50595D01*
X6833Y50650D01*
X6921Y50693D01*
X7014Y50725D01*
X7110Y50744D01*
X7208Y50750D01*
X7208Y50750D01*
X7306Y50744D01*
X7402Y50725D01*
X7495Y50693D01*
X7583Y50650D01*
X7665Y50595D01*
X7738Y50530D01*
X7803Y50457D01*
X7858Y50375D01*
X7901Y50287D01*
X7933Y50194D01*
X7952Y50098D01*
X7958Y50000D01*
G37*
G36*
X7958Y42000D02*
X7958Y42000D01*
X7952Y41902D01*
X7933Y41806D01*
X7901Y41713D01*
X7858Y41625D01*
X7803Y41543D01*
X7738Y41470D01*
X7665Y41405D01*
X7583Y41350D01*
X7495Y41307D01*
X7402Y41275D01*
X7306Y41256D01*
X7208Y41250D01*
X7208Y41250D01*
X7110Y41256D01*
X7014Y41275D01*
X6921Y41307D01*
X6833Y41350D01*
X6751Y41405D01*
X6678Y41470D01*
X6613Y41543D01*
X6558Y41625D01*
X6515Y41713D01*
X6483Y41806D01*
X6464Y41902D01*
X6458Y42000D01*
X6458Y42000D01*
X6464Y42098D01*
X6483Y42194D01*
X6515Y42287D01*
X6558Y42375D01*
X6613Y42457D01*
X6678Y42530D01*
X6751Y42595D01*
X6833Y42650D01*
X6921Y42693D01*
X7014Y42725D01*
X7110Y42744D01*
X7208Y42750D01*
X7208Y42750D01*
X7306Y42744D01*
X7402Y42725D01*
X7495Y42693D01*
X7583Y42650D01*
X7665Y42595D01*
X7738Y42530D01*
X7803Y42457D01*
X7858Y42375D01*
X7901Y42287D01*
X7933Y42194D01*
X7952Y42098D01*
X7958Y42000D01*
G37*
G36*
X51007Y44540D02*
X51007Y44540D01*
X51013Y44638D01*
X51032Y44734D01*
X51064Y44827D01*
X51107Y44915D01*
X51162Y44997D01*
X51227Y45070D01*
X51300Y45135D01*
X51382Y45190D01*
X51470Y45233D01*
X51563Y45265D01*
X51659Y45284D01*
X51757Y45290D01*
X51757Y45290D01*
X51855Y45284D01*
X51951Y45265D01*
X52044Y45233D01*
X52132Y45190D01*
X52213Y45135D01*
X52287Y45070D01*
X52352Y44997D01*
X52406Y44915D01*
X52450Y44827D01*
X52481Y44734D01*
X52501Y44638D01*
X52507Y44540D01*
X52507Y44540D01*
X52501Y44442D01*
X52481Y44346D01*
X52450Y44253D01*
X52406Y44165D01*
X52352Y44083D01*
X52287Y44010D01*
X52213Y43945D01*
X52132Y43890D01*
X52044Y43847D01*
X51951Y43815D01*
X51855Y43796D01*
X51757Y43790D01*
X51757Y43790D01*
X51659Y43796D01*
X51563Y43815D01*
X51470Y43847D01*
X51382Y43890D01*
X51300Y43945D01*
X51227Y44010D01*
X51162Y44083D01*
X51107Y44165D01*
X51064Y44253D01*
X51032Y44346D01*
X51013Y44442D01*
X51007Y44540D01*
G37*
G36*
X51007Y52540D02*
X51007Y52540D01*
X51013Y52638D01*
X51032Y52734D01*
X51064Y52827D01*
X51107Y52915D01*
X51162Y52997D01*
X51227Y53070D01*
X51300Y53135D01*
X51382Y53190D01*
X51470Y53233D01*
X51563Y53265D01*
X51659Y53284D01*
X51757Y53290D01*
X51757Y53290D01*
X51855Y53284D01*
X51951Y53265D01*
X52044Y53233D01*
X52132Y53190D01*
X52213Y53135D01*
X52287Y53070D01*
X52352Y52997D01*
X52406Y52915D01*
X52450Y52827D01*
X52481Y52734D01*
X52501Y52638D01*
X52507Y52540D01*
X52507Y52540D01*
X52501Y52442D01*
X52481Y52346D01*
X52450Y52253D01*
X52406Y52165D01*
X52352Y52083D01*
X52287Y52010D01*
X52213Y51945D01*
X52132Y51890D01*
X52044Y51847D01*
X51951Y51815D01*
X51855Y51796D01*
X51757Y51790D01*
X51757Y51790D01*
X51659Y51796D01*
X51563Y51815D01*
X51470Y51847D01*
X51382Y51890D01*
X51300Y51945D01*
X51227Y52010D01*
X51162Y52083D01*
X51107Y52165D01*
X51064Y52253D01*
X51032Y52346D01*
X51013Y52442D01*
X51007Y52540D01*
G37*
G36*
X55710Y44540D02*
X55710Y44540D01*
X55716Y44638D01*
X55735Y44734D01*
X55767Y44827D01*
X55810Y44915D01*
X55865Y44997D01*
X55930Y45070D01*
X56003Y45135D01*
X56085Y45190D01*
X56173Y45233D01*
X56266Y45265D01*
X56362Y45284D01*
X56460Y45290D01*
X56460Y45290D01*
X56558Y45284D01*
X56654Y45265D01*
X56747Y45233D01*
X56835Y45190D01*
X56917Y45135D01*
X56990Y45070D01*
X57055Y44997D01*
X57110Y44915D01*
X57153Y44827D01*
X57185Y44734D01*
X57204Y44638D01*
X57210Y44540D01*
X57210Y44540D01*
X57204Y44442D01*
X57185Y44346D01*
X57153Y44253D01*
X57110Y44165D01*
X57055Y44083D01*
X56990Y44010D01*
X56917Y43945D01*
X56835Y43890D01*
X56747Y43847D01*
X56654Y43815D01*
X56558Y43796D01*
X56460Y43790D01*
X56460Y43790D01*
X56362Y43796D01*
X56266Y43815D01*
X56173Y43847D01*
X56085Y43890D01*
X56003Y43945D01*
X55930Y44010D01*
X55865Y44083D01*
X55810Y44165D01*
X55767Y44253D01*
X55735Y44346D01*
X55716Y44442D01*
X55710Y44540D01*
G37*
G36*
X55710Y52540D02*
X55710Y52540D01*
X55716Y52638D01*
X55735Y52734D01*
X55767Y52827D01*
X55810Y52915D01*
X55865Y52997D01*
X55930Y53070D01*
X56003Y53135D01*
X56085Y53190D01*
X56173Y53233D01*
X56266Y53265D01*
X56362Y53284D01*
X56460Y53290D01*
X56460Y53290D01*
X56558Y53284D01*
X56654Y53265D01*
X56747Y53233D01*
X56835Y53190D01*
X56917Y53135D01*
X56990Y53070D01*
X57055Y52997D01*
X57110Y52915D01*
X57153Y52827D01*
X57185Y52734D01*
X57204Y52638D01*
X57210Y52540D01*
X57210Y52540D01*
X57204Y52442D01*
X57185Y52346D01*
X57153Y52253D01*
X57110Y52165D01*
X57055Y52083D01*
X56990Y52010D01*
X56917Y51945D01*
X56835Y51890D01*
X56747Y51847D01*
X56654Y51815D01*
X56558Y51796D01*
X56460Y51790D01*
X56460Y51790D01*
X56362Y51796D01*
X56266Y51815D01*
X56173Y51847D01*
X56085Y51890D01*
X56003Y51945D01*
X55930Y52010D01*
X55865Y52083D01*
X55810Y52165D01*
X55767Y52253D01*
X55735Y52346D01*
X55716Y52442D01*
X55710Y52540D01*
G37*
G36*
X5477Y50000D02*
X5477Y50000D01*
X5471Y49902D01*
X5452Y49806D01*
X5420Y49713D01*
X5377Y49625D01*
X5322Y49543D01*
X5257Y49470D01*
X5184Y49405D01*
X5102Y49350D01*
X5014Y49307D01*
X4921Y49275D01*
X4825Y49256D01*
X4727Y49250D01*
X4727Y49250D01*
X4629Y49256D01*
X4533Y49275D01*
X4440Y49307D01*
X4352Y49350D01*
X4270Y49405D01*
X4197Y49470D01*
X4132Y49543D01*
X4077Y49625D01*
X4034Y49713D01*
X4002Y49806D01*
X3983Y49902D01*
X3977Y50000D01*
X3977Y50000D01*
X3983Y50098D01*
X4002Y50194D01*
X4034Y50287D01*
X4077Y50375D01*
X4132Y50457D01*
X4197Y50530D01*
X4270Y50595D01*
X4352Y50650D01*
X4440Y50693D01*
X4533Y50725D01*
X4629Y50744D01*
X4727Y50750D01*
X4727Y50750D01*
X4825Y50744D01*
X4921Y50725D01*
X5014Y50693D01*
X5102Y50650D01*
X5184Y50595D01*
X5257Y50530D01*
X5322Y50457D01*
X5377Y50375D01*
X5420Y50287D01*
X5452Y50194D01*
X5471Y50098D01*
X5477Y50000D01*
G37*
G36*
X5477Y42000D02*
X5477Y42000D01*
X5471Y41902D01*
X5452Y41806D01*
X5420Y41713D01*
X5377Y41625D01*
X5322Y41543D01*
X5257Y41470D01*
X5184Y41405D01*
X5102Y41350D01*
X5014Y41307D01*
X4921Y41275D01*
X4825Y41256D01*
X4727Y41250D01*
X4727Y41250D01*
X4629Y41256D01*
X4533Y41275D01*
X4440Y41307D01*
X4352Y41350D01*
X4270Y41405D01*
X4197Y41470D01*
X4132Y41543D01*
X4077Y41625D01*
X4034Y41713D01*
X4002Y41806D01*
X3983Y41902D01*
X3977Y42000D01*
X3977Y42000D01*
X3983Y42098D01*
X4002Y42194D01*
X4034Y42287D01*
X4077Y42375D01*
X4132Y42457D01*
X4197Y42530D01*
X4270Y42595D01*
X4352Y42650D01*
X4440Y42693D01*
X4533Y42725D01*
X4629Y42744D01*
X4727Y42750D01*
X4727Y42750D01*
X4825Y42744D01*
X4921Y42725D01*
X5014Y42693D01*
X5102Y42650D01*
X5184Y42595D01*
X5257Y42530D01*
X5322Y42457D01*
X5377Y42375D01*
X5420Y42287D01*
X5452Y42194D01*
X5471Y42098D01*
X5477Y42000D01*
G37*
G36*
X3115Y50000D02*
X3115Y50000D01*
X3109Y49902D01*
X3090Y49806D01*
X3058Y49713D01*
X3015Y49625D01*
X2960Y49543D01*
X2895Y49470D01*
X2822Y49405D01*
X2740Y49350D01*
X2652Y49307D01*
X2559Y49275D01*
X2463Y49256D01*
X2365Y49250D01*
X2365Y49250D01*
X2267Y49256D01*
X2171Y49275D01*
X2078Y49307D01*
X1990Y49350D01*
X1909Y49405D01*
X1835Y49470D01*
X1770Y49543D01*
X1715Y49625D01*
X1672Y49713D01*
X1640Y49806D01*
X1621Y49902D01*
X1615Y50000D01*
X1615Y50000D01*
X1621Y50098D01*
X1640Y50194D01*
X1672Y50287D01*
X1715Y50375D01*
X1770Y50457D01*
X1835Y50530D01*
X1909Y50595D01*
X1990Y50650D01*
X2078Y50693D01*
X2171Y50725D01*
X2267Y50744D01*
X2365Y50750D01*
X2365Y50750D01*
X2463Y50744D01*
X2559Y50725D01*
X2652Y50693D01*
X2740Y50650D01*
X2822Y50595D01*
X2895Y50530D01*
X2960Y50457D01*
X3015Y50375D01*
X3058Y50287D01*
X3090Y50194D01*
X3109Y50098D01*
X3115Y50000D01*
G37*
G36*
X3115Y42000D02*
X3115Y42000D01*
X3109Y41902D01*
X3090Y41806D01*
X3058Y41713D01*
X3015Y41625D01*
X2960Y41543D01*
X2895Y41470D01*
X2822Y41405D01*
X2740Y41350D01*
X2652Y41307D01*
X2559Y41275D01*
X2463Y41256D01*
X2365Y41250D01*
X2365Y41250D01*
X2267Y41256D01*
X2171Y41275D01*
X2078Y41307D01*
X1990Y41350D01*
X1909Y41405D01*
X1835Y41470D01*
X1770Y41543D01*
X1715Y41625D01*
X1672Y41713D01*
X1640Y41806D01*
X1621Y41902D01*
X1615Y42000D01*
X1615Y42000D01*
X1621Y42098D01*
X1640Y42194D01*
X1672Y42287D01*
X1715Y42375D01*
X1770Y42457D01*
X1835Y42530D01*
X1909Y42595D01*
X1990Y42650D01*
X2078Y42693D01*
X2171Y42725D01*
X2267Y42744D01*
X2365Y42750D01*
X2365Y42750D01*
X2463Y42744D01*
X2559Y42725D01*
X2652Y42693D01*
X2740Y42650D01*
X2822Y42595D01*
X2895Y42530D01*
X2960Y42457D01*
X3015Y42375D01*
X3058Y42287D01*
X3090Y42194D01*
X3109Y42098D01*
X3115Y42000D01*
G37*
G36*
X25260Y15427D02*
X27660Y15427D01*
X27660Y13027D01*
X25260Y13027D01*
G37*
G36*
X20180Y15427D02*
X22580Y15427D01*
X22580Y13027D01*
X20180Y13027D01*
G37*
G36*
X3660Y19617D02*
X3660Y19617D01*
X3756Y19612D01*
X3851Y19600D01*
X3945Y19579D01*
X4036Y19550D01*
X4125Y19514D01*
X4210Y19469D01*
X4291Y19418D01*
X4367Y19359D01*
X4438Y19294D01*
X4503Y19224D01*
X4561Y19147D01*
X4613Y19067D01*
X4657Y18981D01*
X4694Y18893D01*
X4723Y18801D01*
X4743Y18708D01*
X4756Y18612D01*
X4760Y18517D01*
X4760Y18517D01*
X4756Y18421D01*
X4743Y18325D01*
X4723Y18232D01*
X4694Y18140D01*
X4657Y18052D01*
X4613Y17966D01*
X4561Y17886D01*
X4503Y17809D01*
X4438Y17739D01*
X4367Y17674D01*
X4291Y17615D01*
X4210Y17564D01*
X4125Y17519D01*
X4036Y17483D01*
X3945Y17454D01*
X3851Y17433D01*
X3756Y17421D01*
X3660Y17417D01*
X3660Y17417D01*
X3564Y17421D01*
X3469Y17433D01*
X3375Y17454D01*
X3284Y17483D01*
X3195Y17519D01*
X3110Y17564D01*
X3029Y17615D01*
X2953Y17674D01*
X2882Y17739D01*
X2817Y17809D01*
X2759Y17886D01*
X2707Y17966D01*
X2663Y18052D01*
X2626Y18140D01*
X2597Y18232D01*
X2577Y18325D01*
X2564Y18421D01*
X2560Y18517D01*
X2560Y18517D01*
X2564Y18612D01*
X2577Y18708D01*
X2597Y18801D01*
X2626Y18893D01*
X2663Y18981D01*
X2707Y19067D01*
X2759Y19147D01*
X2817Y19224D01*
X2882Y19294D01*
X2953Y19359D01*
X3029Y19418D01*
X3110Y19469D01*
X3195Y19514D01*
X3284Y19550D01*
X3375Y19579D01*
X3469Y19600D01*
X3564Y19612D01*
X3660Y19617D01*
G37*
G36*
X10160Y19617D02*
X12360Y19617D01*
X12360Y17417D01*
X10160Y17417D01*
G37*
G36*
X45000Y35770D02*
X45000Y35770D01*
X44900Y35777D01*
X44803Y35798D01*
X44709Y35833D01*
X44622Y35881D01*
X44542Y35941D01*
X44471Y36012D01*
X44411Y36092D01*
X44363Y36179D01*
X44328Y36273D01*
X44307Y36371D01*
X44300Y36470D01*
X44300Y36470D01*
X44307Y36570D01*
X44328Y36668D01*
X44363Y36761D01*
X44411Y36849D01*
X44471Y36929D01*
X44542Y36999D01*
X44622Y37059D01*
X44709Y37107D01*
X44803Y37142D01*
X44900Y37163D01*
X45000Y37170D01*
X45000Y37170D01*
X45100Y37163D01*
X45197Y37142D01*
X45291Y37107D01*
X45378Y37059D01*
X45458Y36999D01*
X45529Y36929D01*
X45589Y36849D01*
X45637Y36761D01*
X45672Y36668D01*
X45693Y36570D01*
X45700Y36470D01*
X45700Y36470D01*
X45693Y36371D01*
X45672Y36273D01*
X45637Y36179D01*
X45589Y36092D01*
X45529Y36012D01*
X45458Y35941D01*
X45378Y35881D01*
X45291Y35833D01*
X45197Y35798D01*
X45100Y35777D01*
X45000Y35770D01*
G37*
G36*
X43730Y33865D02*
X43730Y33865D01*
X43630Y33872D01*
X43533Y33893D01*
X43439Y33928D01*
X43352Y33976D01*
X43272Y34036D01*
X43201Y34107D01*
X43141Y34187D01*
X43093Y34274D01*
X43058Y34368D01*
X43037Y34466D01*
X43030Y34565D01*
X43030Y34565D01*
X43037Y34665D01*
X43058Y34763D01*
X43093Y34856D01*
X43141Y34944D01*
X43201Y35024D01*
X43272Y35094D01*
X43352Y35154D01*
X43439Y35202D01*
X43533Y35237D01*
X43630Y35258D01*
X43730Y35265D01*
X43730Y35265D01*
X43830Y35258D01*
X43927Y35237D01*
X44021Y35202D01*
X44108Y35154D01*
X44188Y35094D01*
X44259Y35024D01*
X44319Y34944D01*
X44367Y34856D01*
X44402Y34763D01*
X44423Y34665D01*
X44430Y34565D01*
X44430Y34565D01*
X44423Y34466D01*
X44402Y34368D01*
X44367Y34274D01*
X44319Y34187D01*
X44259Y34107D01*
X44188Y34036D01*
X44108Y33976D01*
X44021Y33928D01*
X43927Y33893D01*
X43830Y33872D01*
X43730Y33865D01*
G37*
G36*
X42460Y35770D02*
X42460Y35770D01*
X42360Y35777D01*
X42263Y35798D01*
X42169Y35833D01*
X42082Y35881D01*
X42002Y35941D01*
X41931Y36012D01*
X41871Y36092D01*
X41823Y36179D01*
X41788Y36273D01*
X41767Y36371D01*
X41760Y36470D01*
X41760Y36470D01*
X41767Y36570D01*
X41788Y36668D01*
X41823Y36761D01*
X41871Y36849D01*
X41931Y36929D01*
X42002Y36999D01*
X42082Y37059D01*
X42169Y37107D01*
X42263Y37142D01*
X42360Y37163D01*
X42460Y37170D01*
X42460Y37170D01*
X42560Y37163D01*
X42657Y37142D01*
X42751Y37107D01*
X42838Y37059D01*
X42918Y36999D01*
X42989Y36929D01*
X43049Y36849D01*
X43097Y36761D01*
X43132Y36668D01*
X43153Y36570D01*
X43160Y36470D01*
X43160Y36470D01*
X43153Y36371D01*
X43132Y36273D01*
X43097Y36179D01*
X43049Y36092D01*
X42989Y36012D01*
X42918Y35941D01*
X42838Y35881D01*
X42751Y35833D01*
X42657Y35798D01*
X42560Y35777D01*
X42460Y35770D01*
G37*
G36*
X53342Y44540D02*
X53342Y44540D01*
X53349Y44638D01*
X53368Y44734D01*
X53399Y44827D01*
X53443Y44915D01*
X53497Y44997D01*
X53562Y45070D01*
X53636Y45135D01*
X53717Y45190D01*
X53805Y45233D01*
X53898Y45265D01*
X53994Y45284D01*
X54092Y45290D01*
X54092Y45290D01*
X54190Y45284D01*
X54287Y45265D01*
X54379Y45233D01*
X54467Y45190D01*
X54549Y45135D01*
X54623Y45070D01*
X54687Y44997D01*
X54742Y44915D01*
X54786Y44827D01*
X54817Y44734D01*
X54836Y44638D01*
X54842Y44540D01*
X54842Y44540D01*
X54836Y44442D01*
X54817Y44346D01*
X54786Y44253D01*
X54742Y44165D01*
X54687Y44083D01*
X54623Y44010D01*
X54549Y43945D01*
X54467Y43890D01*
X54379Y43847D01*
X54287Y43815D01*
X54190Y43796D01*
X54092Y43790D01*
X54092Y43790D01*
X53994Y43796D01*
X53898Y43815D01*
X53805Y43847D01*
X53717Y43890D01*
X53636Y43945D01*
X53562Y44010D01*
X53497Y44083D01*
X53443Y44165D01*
X53399Y44253D01*
X53368Y44346D01*
X53349Y44442D01*
X53342Y44540D01*
G37*
G36*
X53342Y52540D02*
X53342Y52540D01*
X53349Y52638D01*
X53368Y52734D01*
X53399Y52827D01*
X53443Y52915D01*
X53497Y52997D01*
X53562Y53070D01*
X53636Y53135D01*
X53717Y53190D01*
X53805Y53233D01*
X53898Y53265D01*
X53994Y53284D01*
X54092Y53290D01*
X54092Y53290D01*
X54190Y53284D01*
X54287Y53265D01*
X54379Y53233D01*
X54467Y53190D01*
X54549Y53135D01*
X54623Y53070D01*
X54687Y52997D01*
X54742Y52915D01*
X54786Y52827D01*
X54817Y52734D01*
X54836Y52638D01*
X54842Y52540D01*
X54842Y52540D01*
X54836Y52442D01*
X54817Y52346D01*
X54786Y52253D01*
X54742Y52165D01*
X54687Y52083D01*
X54623Y52010D01*
X54549Y51945D01*
X54467Y51890D01*
X54379Y51847D01*
X54287Y51815D01*
X54190Y51796D01*
X54092Y51790D01*
X54092Y51790D01*
X53994Y51796D01*
X53898Y51815D01*
X53805Y51847D01*
X53717Y51890D01*
X53636Y51945D01*
X53562Y52010D01*
X53497Y52083D01*
X53443Y52165D01*
X53399Y52253D01*
X53368Y52346D01*
X53349Y52442D01*
X53342Y52540D01*
G37*
G36*
X44061Y43810D02*
X44061Y43810D01*
X44067Y43908D01*
X44086Y44004D01*
X44118Y44097D01*
X44161Y44185D01*
X44216Y44267D01*
X44281Y44340D01*
X44354Y44405D01*
X44436Y44460D01*
X44524Y44503D01*
X44617Y44535D01*
X44713Y44554D01*
X44811Y44560D01*
X44811Y44560D01*
X44909Y44554D01*
X45005Y44535D01*
X45098Y44503D01*
X45186Y44460D01*
X45267Y44405D01*
X45341Y44340D01*
X45406Y44267D01*
X45461Y44185D01*
X45504Y44097D01*
X45535Y44004D01*
X45555Y43908D01*
X45561Y43810D01*
X45561Y43810D01*
X45555Y43712D01*
X45535Y43616D01*
X45504Y43523D01*
X45461Y43435D01*
X45406Y43353D01*
X45341Y43280D01*
X45267Y43215D01*
X45186Y43160D01*
X45098Y43117D01*
X45005Y43085D01*
X44909Y43066D01*
X44811Y43060D01*
X44811Y43060D01*
X44713Y43066D01*
X44617Y43085D01*
X44524Y43117D01*
X44436Y43160D01*
X44354Y43215D01*
X44281Y43280D01*
X44216Y43353D01*
X44161Y43435D01*
X44118Y43523D01*
X44086Y43616D01*
X44067Y43712D01*
X44061Y43810D01*
G37*
G36*
X44061Y51810D02*
X44061Y51810D01*
X44067Y51908D01*
X44086Y52004D01*
X44118Y52097D01*
X44161Y52185D01*
X44216Y52267D01*
X44281Y52340D01*
X44354Y52405D01*
X44436Y52460D01*
X44524Y52503D01*
X44617Y52535D01*
X44713Y52554D01*
X44811Y52560D01*
X44811Y52560D01*
X44909Y52554D01*
X45005Y52535D01*
X45098Y52503D01*
X45186Y52460D01*
X45267Y52405D01*
X45341Y52340D01*
X45406Y52267D01*
X45461Y52185D01*
X45504Y52097D01*
X45535Y52004D01*
X45555Y51908D01*
X45561Y51810D01*
X45561Y51810D01*
X45555Y51712D01*
X45535Y51616D01*
X45504Y51523D01*
X45461Y51435D01*
X45406Y51353D01*
X45341Y51280D01*
X45267Y51215D01*
X45186Y51160D01*
X45098Y51117D01*
X45005Y51085D01*
X44909Y51066D01*
X44811Y51060D01*
X44811Y51060D01*
X44713Y51066D01*
X44617Y51085D01*
X44524Y51117D01*
X44436Y51160D01*
X44354Y51215D01*
X44281Y51280D01*
X44216Y51353D01*
X44161Y51435D01*
X44118Y51523D01*
X44086Y51616D01*
X44067Y51712D01*
X44061Y51810D01*
G37*
G36*
X43184Y51810D02*
X43184Y51810D01*
X43178Y51712D01*
X43159Y51616D01*
X43128Y51523D01*
X43084Y51435D01*
X43030Y51353D01*
X42965Y51280D01*
X42891Y51215D01*
X42809Y51160D01*
X42722Y51117D01*
X42629Y51085D01*
X42532Y51066D01*
X42434Y51060D01*
X42434Y51060D01*
X42337Y51066D01*
X42240Y51085D01*
X42147Y51117D01*
X42059Y51160D01*
X41978Y51215D01*
X41904Y51280D01*
X41839Y51353D01*
X41785Y51435D01*
X41741Y51523D01*
X41710Y51616D01*
X41691Y51712D01*
X41684Y51810D01*
X41684Y51810D01*
X41691Y51908D01*
X41710Y52004D01*
X41741Y52097D01*
X41785Y52185D01*
X41839Y52267D01*
X41904Y52340D01*
X41978Y52405D01*
X42059Y52460D01*
X42147Y52503D01*
X42240Y52535D01*
X42337Y52554D01*
X42434Y52560D01*
X42434Y52560D01*
X42532Y52554D01*
X42629Y52535D01*
X42722Y52503D01*
X42809Y52460D01*
X42891Y52405D01*
X42965Y52340D01*
X43030Y52267D01*
X43084Y52185D01*
X43128Y52097D01*
X43159Y52004D01*
X43178Y51908D01*
X43184Y51810D01*
G37*
G36*
X43184Y43810D02*
X43184Y43810D01*
X43178Y43712D01*
X43159Y43616D01*
X43128Y43523D01*
X43084Y43435D01*
X43030Y43353D01*
X42965Y43280D01*
X42891Y43215D01*
X42809Y43160D01*
X42722Y43117D01*
X42629Y43085D01*
X42532Y43066D01*
X42434Y43060D01*
X42434Y43060D01*
X42337Y43066D01*
X42240Y43085D01*
X42147Y43117D01*
X42059Y43160D01*
X41978Y43215D01*
X41904Y43280D01*
X41839Y43353D01*
X41785Y43435D01*
X41741Y43523D01*
X41710Y43616D01*
X41691Y43712D01*
X41684Y43810D01*
X41684Y43810D01*
X41691Y43908D01*
X41710Y44004D01*
X41741Y44097D01*
X41785Y44185D01*
X41839Y44267D01*
X41904Y44340D01*
X41978Y44405D01*
X42059Y44460D01*
X42147Y44503D01*
X42240Y44535D01*
X42337Y44554D01*
X42434Y44560D01*
X42434Y44560D01*
X42532Y44554D01*
X42629Y44535D01*
X42722Y44503D01*
X42809Y44460D01*
X42891Y44405D01*
X42965Y44340D01*
X43030Y44267D01*
X43084Y44185D01*
X43128Y44097D01*
X43159Y44004D01*
X43178Y43908D01*
X43184Y43810D01*
G37*
G36*
X27343Y27527D02*
X27343Y27527D01*
X27438Y27523D01*
X27534Y27511D01*
X27627Y27490D01*
X27719Y27461D01*
X27808Y27424D01*
X27893Y27380D01*
X27974Y27328D01*
X28050Y27270D01*
X28120Y27205D01*
X28185Y27134D01*
X28244Y27058D01*
X28295Y26977D01*
X28340Y26892D01*
X28377Y26803D01*
X28405Y26712D01*
X28426Y26618D01*
X28438Y26523D01*
X28443Y26427D01*
X28443Y26427D01*
X28438Y26331D01*
X28426Y26236D01*
X28405Y26142D01*
X28377Y26051D01*
X28340Y25962D01*
X28295Y25877D01*
X28244Y25796D01*
X28185Y25720D01*
X28120Y25649D01*
X28050Y25584D01*
X27974Y25526D01*
X27893Y25474D01*
X27808Y25430D01*
X27719Y25393D01*
X27627Y25364D01*
X27534Y25344D01*
X27438Y25331D01*
X27343Y25327D01*
X27343Y25327D01*
X27247Y25331D01*
X27152Y25344D01*
X27058Y25364D01*
X26966Y25393D01*
X26878Y25430D01*
X26793Y25474D01*
X26712Y25526D01*
X26636Y25584D01*
X26565Y25649D01*
X26500Y25720D01*
X26441Y25796D01*
X26390Y25877D01*
X26345Y25962D01*
X26309Y26051D01*
X26280Y26142D01*
X26259Y26236D01*
X26247Y26331D01*
X26243Y26427D01*
X26243Y26427D01*
X26247Y26523D01*
X26259Y26618D01*
X26280Y26712D01*
X26309Y26803D01*
X26345Y26892D01*
X26390Y26977D01*
X26441Y27058D01*
X26500Y27134D01*
X26565Y27205D01*
X26636Y27270D01*
X26712Y27328D01*
X26793Y27380D01*
X26878Y27424D01*
X26966Y27461D01*
X27058Y27490D01*
X27152Y27511D01*
X27247Y27523D01*
X27343Y27527D01*
G37*
G36*
X17183Y27527D02*
X17183Y27527D01*
X17278Y27523D01*
X17374Y27511D01*
X17467Y27490D01*
X17559Y27461D01*
X17648Y27424D01*
X17733Y27380D01*
X17814Y27328D01*
X17890Y27270D01*
X17960Y27205D01*
X18025Y27134D01*
X18084Y27058D01*
X18135Y26977D01*
X18180Y26892D01*
X18217Y26803D01*
X18245Y26712D01*
X18266Y26618D01*
X18278Y26523D01*
X18283Y26427D01*
X18283Y26427D01*
X18278Y26331D01*
X18266Y26236D01*
X18245Y26142D01*
X18217Y26051D01*
X18180Y25962D01*
X18135Y25877D01*
X18084Y25796D01*
X18025Y25720D01*
X17960Y25649D01*
X17890Y25584D01*
X17814Y25526D01*
X17733Y25474D01*
X17648Y25430D01*
X17559Y25393D01*
X17467Y25364D01*
X17374Y25344D01*
X17278Y25331D01*
X17183Y25327D01*
X17183Y25327D01*
X17087Y25331D01*
X16992Y25344D01*
X16898Y25364D01*
X16806Y25393D01*
X16718Y25430D01*
X16633Y25474D01*
X16552Y25526D01*
X16476Y25584D01*
X16405Y25649D01*
X16340Y25720D01*
X16281Y25796D01*
X16230Y25877D01*
X16185Y25962D01*
X16149Y26051D01*
X16120Y26142D01*
X16099Y26236D01*
X16087Y26331D01*
X16083Y26427D01*
X16083Y26427D01*
X16087Y26523D01*
X16099Y26618D01*
X16120Y26712D01*
X16149Y26803D01*
X16185Y26892D01*
X16230Y26977D01*
X16281Y27058D01*
X16340Y27134D01*
X16405Y27205D01*
X16476Y27270D01*
X16552Y27328D01*
X16633Y27380D01*
X16718Y27424D01*
X16806Y27461D01*
X16898Y27490D01*
X16992Y27511D01*
X17087Y27523D01*
X17183Y27527D01*
G37*
G36*
X22263Y27527D02*
X22263Y27527D01*
X22358Y27523D01*
X22454Y27511D01*
X22547Y27490D01*
X22639Y27461D01*
X22728Y27424D01*
X22813Y27380D01*
X22894Y27328D01*
X22970Y27270D01*
X23040Y27205D01*
X23105Y27134D01*
X23164Y27058D01*
X23215Y26977D01*
X23260Y26892D01*
X23297Y26803D01*
X23325Y26712D01*
X23346Y26618D01*
X23358Y26523D01*
X23363Y26427D01*
X23363Y26427D01*
X23358Y26331D01*
X23346Y26236D01*
X23325Y26142D01*
X23297Y26051D01*
X23260Y25962D01*
X23215Y25877D01*
X23164Y25796D01*
X23105Y25720D01*
X23040Y25649D01*
X22970Y25584D01*
X22894Y25526D01*
X22813Y25474D01*
X22728Y25430D01*
X22639Y25393D01*
X22547Y25364D01*
X22454Y25344D01*
X22358Y25331D01*
X22263Y25327D01*
X22263Y25327D01*
X22167Y25331D01*
X22072Y25344D01*
X21978Y25364D01*
X21886Y25393D01*
X21798Y25430D01*
X21713Y25474D01*
X21632Y25526D01*
X21556Y25584D01*
X21485Y25649D01*
X21420Y25720D01*
X21361Y25796D01*
X21310Y25877D01*
X21265Y25962D01*
X21229Y26051D01*
X21200Y26142D01*
X21179Y26236D01*
X21167Y26331D01*
X21163Y26427D01*
X21163Y26427D01*
X21167Y26523D01*
X21179Y26618D01*
X21200Y26712D01*
X21229Y26803D01*
X21265Y26892D01*
X21310Y26977D01*
X21361Y27058D01*
X21420Y27134D01*
X21485Y27205D01*
X21556Y27270D01*
X21632Y27328D01*
X21713Y27380D01*
X21798Y27424D01*
X21886Y27461D01*
X21978Y27490D01*
X22072Y27511D01*
X22167Y27523D01*
X22263Y27527D01*
G37*
G36*
X19360Y21490D02*
X19360Y21490D01*
X19458Y21485D01*
X19555Y21471D01*
X19650Y21447D01*
X19743Y21414D01*
X19831Y21372D01*
X19916Y21321D01*
X19994Y21263D01*
X20067Y21197D01*
X20133Y21124D01*
X20192Y21045D01*
X20242Y20961D01*
X20284Y20873D01*
X20317Y20780D01*
X20341Y20685D01*
X20355Y20588D01*
X20360Y20490D01*
X20360Y20490D01*
X20355Y20392D01*
X20341Y20295D01*
X20317Y20199D01*
X20284Y20107D01*
X20242Y20018D01*
X20192Y19934D01*
X20133Y19855D01*
X20067Y19783D01*
X19994Y19717D01*
X19916Y19658D01*
X19831Y19608D01*
X19743Y19566D01*
X19650Y19533D01*
X19555Y19509D01*
X19458Y19495D01*
X19360Y19490D01*
X19360Y19490D01*
X19262Y19495D01*
X19165Y19509D01*
X19070Y19533D01*
X18977Y19566D01*
X18889Y19608D01*
X18804Y19658D01*
X18726Y19717D01*
X18653Y19783D01*
X18587Y19855D01*
X18528Y19934D01*
X18478Y20018D01*
X18436Y20107D01*
X18403Y20199D01*
X18379Y20295D01*
X18365Y20392D01*
X18360Y20490D01*
X18360Y20490D01*
X18365Y20588D01*
X18379Y20685D01*
X18403Y20780D01*
X18436Y20873D01*
X18478Y20961D01*
X18528Y21045D01*
X18587Y21124D01*
X18653Y21197D01*
X18726Y21263D01*
X18804Y21321D01*
X18889Y21372D01*
X18977Y21414D01*
X19070Y21447D01*
X19165Y21471D01*
X19262Y21485D01*
X19360Y21490D01*
G37*
G36*
X26990Y21490D02*
X26990Y21490D01*
X27088Y21485D01*
X27185Y21471D01*
X27281Y21447D01*
X27373Y21414D01*
X27462Y21372D01*
X27546Y21321D01*
X27625Y21263D01*
X27697Y21197D01*
X27763Y21124D01*
X27822Y21045D01*
X27872Y20961D01*
X27914Y20873D01*
X27947Y20780D01*
X27971Y20685D01*
X27986Y20588D01*
X27990Y20490D01*
X27990Y20490D01*
X27986Y20392D01*
X27971Y20295D01*
X27947Y20199D01*
X27914Y20107D01*
X27872Y20018D01*
X27822Y19934D01*
X27763Y19855D01*
X27697Y19783D01*
X27625Y19717D01*
X27546Y19658D01*
X27462Y19608D01*
X27373Y19566D01*
X27281Y19533D01*
X27185Y19509D01*
X27088Y19495D01*
X26990Y19490D01*
X26990Y19490D01*
X26892Y19495D01*
X26795Y19509D01*
X26700Y19533D01*
X26607Y19566D01*
X26519Y19608D01*
X26435Y19658D01*
X26356Y19717D01*
X26283Y19783D01*
X26217Y19855D01*
X26159Y19934D01*
X26108Y20018D01*
X26066Y20107D01*
X26033Y20199D01*
X26009Y20295D01*
X25995Y20392D01*
X25990Y20490D01*
X25990Y20490D01*
X25995Y20588D01*
X26009Y20685D01*
X26033Y20780D01*
X26066Y20873D01*
X26108Y20961D01*
X26159Y21045D01*
X26217Y21124D01*
X26283Y21197D01*
X26356Y21263D01*
X26435Y21321D01*
X26519Y21372D01*
X26607Y21414D01*
X26700Y21447D01*
X26795Y21471D01*
X26892Y21485D01*
X26990Y21490D01*
G37*
G36*
X72180Y31555D02*
X72180Y31555D01*
X72185Y31649D01*
X72199Y31743D01*
X72224Y31834D01*
X72258Y31921D01*
X72300Y32005D01*
X72352Y32084D01*
X72411Y32158D01*
X72478Y32224D01*
X72551Y32284D01*
X72630Y32335D01*
X72714Y32378D01*
X72802Y32412D01*
X72893Y32436D01*
X72986Y32450D01*
X73080Y32455D01*
X73080Y32455D01*
X73174Y32450D01*
X73267Y32436D01*
X73358Y32412D01*
X73446Y32378D01*
X73530Y32335D01*
X73609Y32284D01*
X73682Y32224D01*
X73749Y32158D01*
X73808Y32084D01*
X73860Y32005D01*
X73902Y31921D01*
X73936Y31834D01*
X73961Y31743D01*
X73975Y31649D01*
X73980Y31555D01*
X73980Y31555D01*
X73975Y31461D01*
X73961Y31368D01*
X73936Y31277D01*
X73902Y31189D01*
X73860Y31105D01*
X73808Y31026D01*
X73749Y30953D01*
X73682Y30887D01*
X73609Y30827D01*
X73530Y30776D01*
X73446Y30733D01*
X73358Y30699D01*
X73267Y30675D01*
X73174Y30660D01*
X73080Y30655D01*
X73080Y30655D01*
X72986Y30660D01*
X72893Y30675D01*
X72802Y30699D01*
X72714Y30733D01*
X72630Y30776D01*
X72551Y30827D01*
X72478Y30887D01*
X72411Y30953D01*
X72352Y31026D01*
X72300Y31105D01*
X72258Y31189D01*
X72224Y31277D01*
X72199Y31368D01*
X72185Y31461D01*
X72180Y31555D01*
G37*
G36*
X64560Y31555D02*
X64560Y31555D01*
X64565Y31649D01*
X64579Y31743D01*
X64604Y31834D01*
X64638Y31921D01*
X64680Y32005D01*
X64732Y32084D01*
X64791Y32158D01*
X64858Y32224D01*
X64931Y32284D01*
X65010Y32335D01*
X65094Y32378D01*
X65182Y32412D01*
X65273Y32436D01*
X65366Y32450D01*
X65460Y32455D01*
X65460Y32455D01*
X65554Y32450D01*
X65647Y32436D01*
X65738Y32412D01*
X65826Y32378D01*
X65910Y32335D01*
X65989Y32284D01*
X66062Y32224D01*
X66129Y32158D01*
X66188Y32084D01*
X66240Y32005D01*
X66282Y31921D01*
X66316Y31834D01*
X66341Y31743D01*
X66355Y31649D01*
X66360Y31555D01*
X66360Y31555D01*
X66355Y31461D01*
X66341Y31368D01*
X66316Y31277D01*
X66282Y31189D01*
X66240Y31105D01*
X66188Y31026D01*
X66129Y30953D01*
X66062Y30887D01*
X65989Y30827D01*
X65910Y30776D01*
X65826Y30733D01*
X65738Y30699D01*
X65647Y30675D01*
X65554Y30660D01*
X65460Y30655D01*
X65460Y30655D01*
X65366Y30660D01*
X65273Y30675D01*
X65182Y30699D01*
X65094Y30733D01*
X65010Y30776D01*
X64931Y30827D01*
X64858Y30887D01*
X64791Y30953D01*
X64732Y31026D01*
X64680Y31105D01*
X64638Y31189D01*
X64604Y31277D01*
X64579Y31368D01*
X64565Y31461D01*
X64560Y31555D01*
G37*
G36*
X69640Y31555D02*
X69640Y31555D01*
X69645Y31649D01*
X69659Y31743D01*
X69684Y31834D01*
X69718Y31921D01*
X69760Y32005D01*
X69812Y32084D01*
X69871Y32158D01*
X69938Y32224D01*
X70011Y32284D01*
X70090Y32335D01*
X70174Y32378D01*
X70262Y32412D01*
X70353Y32436D01*
X70446Y32450D01*
X70540Y32455D01*
X70540Y32455D01*
X70634Y32450D01*
X70727Y32436D01*
X70818Y32412D01*
X70906Y32378D01*
X70990Y32335D01*
X71069Y32284D01*
X71142Y32224D01*
X71209Y32158D01*
X71268Y32084D01*
X71320Y32005D01*
X71362Y31921D01*
X71396Y31834D01*
X71421Y31743D01*
X71435Y31649D01*
X71440Y31555D01*
X71440Y31555D01*
X71435Y31461D01*
X71421Y31368D01*
X71396Y31277D01*
X71362Y31189D01*
X71320Y31105D01*
X71268Y31026D01*
X71209Y30953D01*
X71142Y30887D01*
X71069Y30827D01*
X70990Y30776D01*
X70906Y30733D01*
X70818Y30699D01*
X70727Y30675D01*
X70634Y30660D01*
X70540Y30655D01*
X70540Y30655D01*
X70446Y30660D01*
X70353Y30675D01*
X70262Y30699D01*
X70174Y30733D01*
X70090Y30776D01*
X70011Y30827D01*
X69938Y30887D01*
X69871Y30953D01*
X69812Y31026D01*
X69760Y31105D01*
X69718Y31189D01*
X69684Y31277D01*
X69659Y31368D01*
X69645Y31461D01*
X69640Y31555D01*
G37*
G36*
X62020Y31555D02*
X62020Y31555D01*
X62025Y31649D01*
X62039Y31743D01*
X62064Y31834D01*
X62098Y31921D01*
X62140Y32005D01*
X62192Y32084D01*
X62251Y32158D01*
X62318Y32224D01*
X62391Y32284D01*
X62470Y32335D01*
X62554Y32378D01*
X62642Y32412D01*
X62733Y32436D01*
X62826Y32450D01*
X62920Y32455D01*
X62920Y32455D01*
X63014Y32450D01*
X63107Y32436D01*
X63198Y32412D01*
X63286Y32378D01*
X63370Y32335D01*
X63449Y32284D01*
X63522Y32224D01*
X63589Y32158D01*
X63648Y32084D01*
X63700Y32005D01*
X63742Y31921D01*
X63776Y31834D01*
X63801Y31743D01*
X63815Y31649D01*
X63820Y31555D01*
X63820Y31555D01*
X63815Y31461D01*
X63801Y31368D01*
X63776Y31277D01*
X63742Y31189D01*
X63700Y31105D01*
X63648Y31026D01*
X63589Y30953D01*
X63522Y30887D01*
X63449Y30827D01*
X63370Y30776D01*
X63286Y30733D01*
X63198Y30699D01*
X63107Y30675D01*
X63014Y30660D01*
X62920Y30655D01*
X62920Y30655D01*
X62826Y30660D01*
X62733Y30675D01*
X62642Y30699D01*
X62554Y30733D01*
X62470Y30776D01*
X62391Y30827D01*
X62318Y30887D01*
X62251Y30953D01*
X62192Y31026D01*
X62140Y31105D01*
X62098Y31189D01*
X62064Y31277D01*
X62039Y31368D01*
X62025Y31461D01*
X62020Y31555D01*
G37*
G36*
X67100Y31555D02*
X67100Y31555D01*
X67105Y31649D01*
X67119Y31743D01*
X67144Y31834D01*
X67178Y31921D01*
X67220Y32005D01*
X67272Y32084D01*
X67331Y32158D01*
X67398Y32224D01*
X67471Y32284D01*
X67550Y32335D01*
X67634Y32378D01*
X67722Y32412D01*
X67813Y32436D01*
X67906Y32450D01*
X68000Y32455D01*
X68000Y32455D01*
X68094Y32450D01*
X68187Y32436D01*
X68278Y32412D01*
X68366Y32378D01*
X68450Y32335D01*
X68529Y32284D01*
X68602Y32224D01*
X68669Y32158D01*
X68728Y32084D01*
X68780Y32005D01*
X68822Y31921D01*
X68856Y31834D01*
X68881Y31743D01*
X68895Y31649D01*
X68900Y31555D01*
X68900Y31555D01*
X68895Y31461D01*
X68881Y31368D01*
X68856Y31277D01*
X68822Y31189D01*
X68780Y31105D01*
X68728Y31026D01*
X68669Y30953D01*
X68602Y30887D01*
X68529Y30827D01*
X68450Y30776D01*
X68366Y30733D01*
X68278Y30699D01*
X68187Y30675D01*
X68094Y30660D01*
X68000Y30655D01*
X68000Y30655D01*
X67906Y30660D01*
X67813Y30675D01*
X67722Y30699D01*
X67634Y30733D01*
X67550Y30776D01*
X67471Y30827D01*
X67398Y30887D01*
X67331Y30953D01*
X67272Y31026D01*
X67220Y31105D01*
X67178Y31189D01*
X67144Y31277D01*
X67119Y31368D01*
X67105Y31461D01*
X67100Y31555D01*
G37*
G36*
X59480Y31555D02*
X59480Y31555D01*
X59485Y31649D01*
X59499Y31743D01*
X59524Y31834D01*
X59558Y31921D01*
X59600Y32005D01*
X59652Y32084D01*
X59711Y32158D01*
X59778Y32224D01*
X59851Y32284D01*
X59930Y32335D01*
X60014Y32378D01*
X60102Y32412D01*
X60193Y32436D01*
X60286Y32450D01*
X60380Y32455D01*
X60380Y32455D01*
X60474Y32450D01*
X60567Y32436D01*
X60658Y32412D01*
X60746Y32378D01*
X60830Y32335D01*
X60909Y32284D01*
X60982Y32224D01*
X61049Y32158D01*
X61108Y32084D01*
X61160Y32005D01*
X61202Y31921D01*
X61236Y31834D01*
X61261Y31743D01*
X61275Y31649D01*
X61280Y31555D01*
X61280Y31555D01*
X61275Y31461D01*
X61261Y31368D01*
X61236Y31277D01*
X61202Y31189D01*
X61160Y31105D01*
X61108Y31026D01*
X61049Y30953D01*
X60982Y30887D01*
X60909Y30827D01*
X60830Y30776D01*
X60746Y30733D01*
X60658Y30699D01*
X60567Y30675D01*
X60474Y30660D01*
X60380Y30655D01*
X60380Y30655D01*
X60286Y30660D01*
X60193Y30675D01*
X60102Y30699D01*
X60014Y30733D01*
X59930Y30776D01*
X59851Y30827D01*
X59778Y30887D01*
X59711Y30953D01*
X59652Y31026D01*
X59600Y31105D01*
X59558Y31189D01*
X59524Y31277D01*
X59499Y31368D01*
X59485Y31461D01*
X59480Y31555D01*
G37*
G36*
X56940Y30655D02*
X56940Y32455D01*
X58740Y32455D01*
X58740Y30655D01*
G37*
G36*
X9960Y3730D02*
X9960Y3730D01*
X9970Y3632D01*
X9998Y3539D01*
X10044Y3452D01*
X10106Y3376D01*
X10182Y3314D01*
X10269Y3268D01*
X10362Y3240D01*
X10460Y3230D01*
X10460Y3230D01*
X10558Y3240D01*
X10651Y3268D01*
X10738Y3314D01*
X10814Y3376D01*
X10876Y3452D01*
X10922Y3539D01*
X10950Y3632D01*
X10960Y3730D01*
X10960Y3730D01*
X10950Y3828D01*
X10922Y3921D01*
X10876Y4008D01*
X10814Y4084D01*
X10738Y4146D01*
X10651Y4192D01*
X10558Y4220D01*
X10460Y4230D01*
X10460Y4230D01*
X10362Y4220D01*
X10269Y4192D01*
X10182Y4146D01*
X10106Y4084D01*
X10044Y4008D01*
X9998Y3921D01*
X9970Y3828D01*
X9960Y3730D01*
G37*
G36*
X9960Y2460D02*
X9960Y2460D01*
X9970Y2362D01*
X9998Y2269D01*
X10044Y2182D01*
X10106Y2106D01*
X10182Y2044D01*
X10269Y1998D01*
X10362Y1970D01*
X10460Y1960D01*
X10460Y1960D01*
X10558Y1970D01*
X10651Y1998D01*
X10738Y2044D01*
X10814Y2106D01*
X10876Y2182D01*
X10922Y2269D01*
X10950Y2362D01*
X10960Y2460D01*
X10960Y2460D01*
X10950Y2558D01*
X10922Y2651D01*
X10876Y2738D01*
X10814Y2814D01*
X10738Y2876D01*
X10651Y2922D01*
X10558Y2950D01*
X10460Y2960D01*
X10460Y2960D01*
X10362Y2950D01*
X10269Y2922D01*
X10182Y2876D01*
X10106Y2814D01*
X10044Y2738D01*
X9998Y2651D01*
X9970Y2558D01*
X9960Y2460D01*
G37*
G36*
X9960Y6270D02*
X9960Y6270D01*
X9970Y6172D01*
X9998Y6079D01*
X10044Y5992D01*
X10106Y5916D01*
X10182Y5854D01*
X10269Y5808D01*
X10362Y5780D01*
X10460Y5770D01*
X10460Y5770D01*
X10558Y5780D01*
X10651Y5808D01*
X10738Y5854D01*
X10814Y5916D01*
X10876Y5992D01*
X10922Y6079D01*
X10950Y6172D01*
X10960Y6270D01*
X10960Y6270D01*
X10950Y6368D01*
X10922Y6461D01*
X10876Y6548D01*
X10814Y6624D01*
X10738Y6686D01*
X10651Y6732D01*
X10558Y6760D01*
X10460Y6770D01*
X10460Y6770D01*
X10362Y6760D01*
X10269Y6732D01*
X10182Y6686D01*
X10106Y6624D01*
X10044Y6548D01*
X9998Y6461D01*
X9970Y6368D01*
X9960Y6270D01*
G37*
G36*
X9960Y5000D02*
X9960Y5000D01*
X9970Y4902D01*
X9998Y4809D01*
X10044Y4722D01*
X10106Y4646D01*
X10182Y4584D01*
X10269Y4538D01*
X10362Y4510D01*
X10460Y4500D01*
X10460Y4500D01*
X10558Y4510D01*
X10651Y4538D01*
X10738Y4584D01*
X10814Y4646D01*
X10876Y4722D01*
X10922Y4809D01*
X10950Y4902D01*
X10960Y5000D01*
X10960Y5000D01*
X10950Y5098D01*
X10922Y5191D01*
X10876Y5278D01*
X10814Y5354D01*
X10738Y5416D01*
X10651Y5462D01*
X10558Y5490D01*
X10460Y5500D01*
X10460Y5500D01*
X10362Y5490D01*
X10269Y5462D01*
X10182Y5416D01*
X10106Y5354D01*
X10044Y5278D01*
X9998Y5191D01*
X9970Y5098D01*
X9960Y5000D01*
G37*
G36*
X51460Y30360D02*
X51460Y30360D01*
X51554Y30355D01*
X51647Y30341D01*
X51738Y30316D01*
X51826Y30282D01*
X51910Y30240D01*
X51989Y30188D01*
X52062Y30129D01*
X52129Y30062D01*
X52188Y29989D01*
X52240Y29910D01*
X52282Y29826D01*
X52316Y29738D01*
X52341Y29647D01*
X52355Y29554D01*
X52360Y29460D01*
X52360Y29460D01*
X52355Y29366D01*
X52341Y29273D01*
X52316Y29182D01*
X52282Y29094D01*
X52240Y29010D01*
X52188Y28931D01*
X52129Y28858D01*
X52062Y28791D01*
X51989Y28732D01*
X51910Y28680D01*
X51826Y28638D01*
X51738Y28604D01*
X51647Y28579D01*
X51554Y28565D01*
X51460Y28560D01*
X51460Y28560D01*
X51366Y28565D01*
X51273Y28579D01*
X51182Y28604D01*
X51094Y28638D01*
X51010Y28680D01*
X50931Y28732D01*
X50858Y28791D01*
X50791Y28858D01*
X50732Y28931D01*
X50680Y29010D01*
X50638Y29094D01*
X50604Y29182D01*
X50579Y29273D01*
X50565Y29366D01*
X50560Y29460D01*
X50560Y29460D01*
X50565Y29554D01*
X50579Y29647D01*
X50604Y29738D01*
X50638Y29826D01*
X50680Y29910D01*
X50732Y29989D01*
X50791Y30062D01*
X50858Y30129D01*
X50931Y30188D01*
X51010Y30240D01*
X51094Y30282D01*
X51182Y30316D01*
X51273Y30341D01*
X51366Y30355D01*
X51460Y30360D01*
G37*
G36*
X51460Y35440D02*
X51460Y35440D01*
X51554Y35435D01*
X51647Y35421D01*
X51738Y35396D01*
X51826Y35362D01*
X51910Y35320D01*
X51989Y35268D01*
X52062Y35209D01*
X52129Y35142D01*
X52188Y35069D01*
X52240Y34990D01*
X52282Y34906D01*
X52316Y34818D01*
X52341Y34727D01*
X52355Y34634D01*
X52360Y34540D01*
X52360Y34540D01*
X52355Y34446D01*
X52341Y34353D01*
X52316Y34262D01*
X52282Y34174D01*
X52240Y34090D01*
X52188Y34011D01*
X52129Y33938D01*
X52062Y33871D01*
X51989Y33812D01*
X51910Y33760D01*
X51826Y33718D01*
X51738Y33684D01*
X51647Y33659D01*
X51554Y33645D01*
X51460Y33640D01*
X51460Y33640D01*
X51366Y33645D01*
X51273Y33659D01*
X51182Y33684D01*
X51094Y33718D01*
X51010Y33760D01*
X50931Y33812D01*
X50858Y33871D01*
X50791Y33938D01*
X50732Y34011D01*
X50680Y34090D01*
X50638Y34174D01*
X50604Y34262D01*
X50579Y34353D01*
X50565Y34446D01*
X50560Y34540D01*
X50560Y34540D01*
X50565Y34634D01*
X50579Y34727D01*
X50604Y34818D01*
X50638Y34906D01*
X50680Y34990D01*
X50732Y35069D01*
X50791Y35142D01*
X50858Y35209D01*
X50931Y35268D01*
X51010Y35320D01*
X51094Y35362D01*
X51182Y35396D01*
X51273Y35421D01*
X51366Y35435D01*
X51460Y35440D01*
G37*
G36*
X51460Y32900D02*
X51460Y32900D01*
X51554Y32895D01*
X51647Y32881D01*
X51738Y32856D01*
X51826Y32822D01*
X51910Y32780D01*
X51989Y32728D01*
X52062Y32669D01*
X52129Y32602D01*
X52188Y32529D01*
X52240Y32450D01*
X52282Y32366D01*
X52316Y32278D01*
X52341Y32187D01*
X52355Y32094D01*
X52360Y32000D01*
X52360Y32000D01*
X52355Y31906D01*
X52341Y31813D01*
X52316Y31722D01*
X52282Y31634D01*
X52240Y31550D01*
X52188Y31471D01*
X52129Y31398D01*
X52062Y31331D01*
X51989Y31272D01*
X51910Y31220D01*
X51826Y31178D01*
X51738Y31144D01*
X51647Y31119D01*
X51554Y31105D01*
X51460Y31100D01*
X51460Y31100D01*
X51366Y31105D01*
X51273Y31119D01*
X51182Y31144D01*
X51094Y31178D01*
X51010Y31220D01*
X50931Y31272D01*
X50858Y31331D01*
X50791Y31398D01*
X50732Y31471D01*
X50680Y31550D01*
X50638Y31634D01*
X50604Y31722D01*
X50579Y31813D01*
X50565Y31906D01*
X50560Y32000D01*
X50560Y32000D01*
X50565Y32094D01*
X50579Y32187D01*
X50604Y32278D01*
X50638Y32366D01*
X50680Y32450D01*
X50732Y32529D01*
X50791Y32602D01*
X50858Y32669D01*
X50931Y32728D01*
X51010Y32780D01*
X51094Y32822D01*
X51182Y32856D01*
X51273Y32881D01*
X51366Y32895D01*
X51460Y32900D01*
G37*
G36*
X50560Y37980D02*
X52360Y37980D01*
X52360Y36180D01*
X50560Y36180D01*
G37*
G36*
X76160Y40270D02*
X76160Y40270D01*
X76067Y40277D01*
X75977Y40296D01*
X75890Y40329D01*
X75809Y40373D01*
X75734Y40429D01*
X75669Y40494D01*
X75613Y40569D01*
X75569Y40650D01*
X75536Y40737D01*
X75517Y40827D01*
X75510Y40920D01*
X75510Y40920D01*
X75517Y41013D01*
X75536Y41103D01*
X75569Y41190D01*
X75613Y41271D01*
X75669Y41346D01*
X75734Y41411D01*
X75809Y41467D01*
X75890Y41511D01*
X75977Y41544D01*
X76067Y41563D01*
X76160Y41570D01*
X76160Y41570D01*
X76253Y41563D01*
X76343Y41544D01*
X76430Y41511D01*
X76511Y41467D01*
X76586Y41411D01*
X76651Y41346D01*
X76707Y41271D01*
X76751Y41190D01*
X76784Y41103D01*
X76803Y41013D01*
X76810Y40920D01*
X76810Y40920D01*
X76803Y40827D01*
X76784Y40737D01*
X76751Y40650D01*
X76707Y40569D01*
X76651Y40494D01*
X76586Y40429D01*
X76511Y40373D01*
X76430Y40329D01*
X76343Y40296D01*
X76253Y40277D01*
X76160Y40270D01*
G37*
G36*
X73620Y40270D02*
X73620Y40270D01*
X73527Y40277D01*
X73437Y40296D01*
X73350Y40329D01*
X73269Y40373D01*
X73194Y40429D01*
X73129Y40494D01*
X73073Y40569D01*
X73029Y40650D01*
X72996Y40737D01*
X72977Y40827D01*
X72970Y40920D01*
X72970Y40920D01*
X72977Y41013D01*
X72996Y41103D01*
X73029Y41190D01*
X73073Y41271D01*
X73129Y41346D01*
X73194Y41411D01*
X73269Y41467D01*
X73350Y41511D01*
X73437Y41544D01*
X73527Y41563D01*
X73620Y41570D01*
X73620Y41570D01*
X73713Y41563D01*
X73803Y41544D01*
X73890Y41511D01*
X73971Y41467D01*
X74046Y41411D01*
X74111Y41346D01*
X74167Y41271D01*
X74211Y41190D01*
X74244Y41103D01*
X74263Y41013D01*
X74270Y40920D01*
X74270Y40920D01*
X74263Y40827D01*
X74244Y40737D01*
X74211Y40650D01*
X74167Y40569D01*
X74111Y40494D01*
X74046Y40429D01*
X73971Y40373D01*
X73890Y40329D01*
X73803Y40296D01*
X73713Y40277D01*
X73620Y40270D01*
G37*
G36*
X48220Y42810D02*
X48220Y42810D01*
X48127Y42817D01*
X48037Y42836D01*
X47950Y42869D01*
X47869Y42913D01*
X47794Y42969D01*
X47729Y43034D01*
X47673Y43109D01*
X47629Y43190D01*
X47596Y43277D01*
X47577Y43367D01*
X47570Y43460D01*
X47570Y43460D01*
X47577Y43553D01*
X47596Y43643D01*
X47629Y43730D01*
X47673Y43811D01*
X47729Y43886D01*
X47794Y43951D01*
X47869Y44007D01*
X47950Y44051D01*
X48037Y44084D01*
X48127Y44103D01*
X48220Y44110D01*
X48220Y44110D01*
X48313Y44103D01*
X48403Y44084D01*
X48490Y44051D01*
X48571Y44007D01*
X48646Y43951D01*
X48711Y43886D01*
X48767Y43811D01*
X48811Y43730D01*
X48844Y43643D01*
X48863Y43553D01*
X48870Y43460D01*
X48870Y43460D01*
X48863Y43367D01*
X48844Y43277D01*
X48811Y43190D01*
X48767Y43109D01*
X48711Y43034D01*
X48646Y42969D01*
X48571Y42913D01*
X48490Y42869D01*
X48403Y42836D01*
X48313Y42817D01*
X48220Y42810D01*
G37*
G36*
X50760Y40270D02*
X50760Y40270D01*
X50667Y40277D01*
X50577Y40296D01*
X50490Y40329D01*
X50409Y40373D01*
X50334Y40429D01*
X50269Y40494D01*
X50213Y40569D01*
X50169Y40650D01*
X50136Y40737D01*
X50117Y40827D01*
X50110Y40920D01*
X50110Y40920D01*
X50117Y41013D01*
X50136Y41103D01*
X50169Y41190D01*
X50213Y41271D01*
X50269Y41346D01*
X50334Y41411D01*
X50409Y41467D01*
X50490Y41511D01*
X50577Y41544D01*
X50667Y41563D01*
X50760Y41570D01*
X50760Y41570D01*
X50853Y41563D01*
X50943Y41544D01*
X51030Y41511D01*
X51111Y41467D01*
X51186Y41411D01*
X51251Y41346D01*
X51307Y41271D01*
X51351Y41190D01*
X51384Y41103D01*
X51403Y41013D01*
X51410Y40920D01*
X51410Y40920D01*
X51403Y40827D01*
X51384Y40737D01*
X51351Y40650D01*
X51307Y40569D01*
X51251Y40494D01*
X51186Y40429D01*
X51111Y40373D01*
X51030Y40329D01*
X50943Y40296D01*
X50853Y40277D01*
X50760Y40270D01*
G37*
G36*
X68540Y55510D02*
X68540Y55510D01*
X68447Y55517D01*
X68357Y55536D01*
X68270Y55569D01*
X68189Y55613D01*
X68114Y55669D01*
X68049Y55734D01*
X67993Y55809D01*
X67949Y55890D01*
X67916Y55977D01*
X67897Y56067D01*
X67890Y56160D01*
X67890Y56160D01*
X67897Y56253D01*
X67916Y56343D01*
X67949Y56430D01*
X67993Y56511D01*
X68049Y56586D01*
X68114Y56651D01*
X68189Y56707D01*
X68270Y56751D01*
X68357Y56784D01*
X68447Y56803D01*
X68540Y56810D01*
X68540Y56810D01*
X68633Y56803D01*
X68723Y56784D01*
X68810Y56751D01*
X68891Y56707D01*
X68966Y56651D01*
X69031Y56586D01*
X69087Y56511D01*
X69131Y56430D01*
X69164Y56343D01*
X69183Y56253D01*
X69190Y56160D01*
X69190Y56160D01*
X69183Y56067D01*
X69164Y55977D01*
X69131Y55890D01*
X69087Y55809D01*
X69031Y55734D01*
X68966Y55669D01*
X68891Y55613D01*
X68810Y55569D01*
X68723Y55536D01*
X68633Y55517D01*
X68540Y55510D01*
G37*
G36*
X63460Y40270D02*
X63460Y40270D01*
X63367Y40277D01*
X63277Y40296D01*
X63190Y40329D01*
X63109Y40373D01*
X63034Y40429D01*
X62969Y40494D01*
X62913Y40569D01*
X62869Y40650D01*
X62836Y40737D01*
X62817Y40827D01*
X62810Y40920D01*
X62810Y40920D01*
X62817Y41013D01*
X62836Y41103D01*
X62869Y41190D01*
X62913Y41271D01*
X62969Y41346D01*
X63034Y41411D01*
X63109Y41467D01*
X63190Y41511D01*
X63277Y41544D01*
X63367Y41563D01*
X63460Y41570D01*
X63460Y41570D01*
X63553Y41563D01*
X63643Y41544D01*
X63730Y41511D01*
X63811Y41467D01*
X63886Y41411D01*
X63951Y41346D01*
X64007Y41271D01*
X64051Y41190D01*
X64084Y41103D01*
X64103Y41013D01*
X64110Y40920D01*
X64110Y40920D01*
X64103Y40827D01*
X64084Y40737D01*
X64051Y40650D01*
X64007Y40569D01*
X63951Y40494D01*
X63886Y40429D01*
X63811Y40373D01*
X63730Y40329D01*
X63643Y40296D01*
X63553Y40277D01*
X63460Y40270D01*
G37*
G36*
X48220Y45350D02*
X48220Y45350D01*
X48127Y45357D01*
X48037Y45376D01*
X47950Y45409D01*
X47869Y45453D01*
X47794Y45509D01*
X47729Y45574D01*
X47673Y45649D01*
X47629Y45730D01*
X47596Y45817D01*
X47577Y45907D01*
X47570Y46000D01*
X47570Y46000D01*
X47577Y46093D01*
X47596Y46183D01*
X47629Y46270D01*
X47673Y46351D01*
X47729Y46426D01*
X47794Y46491D01*
X47869Y46547D01*
X47950Y46591D01*
X48037Y46624D01*
X48127Y46643D01*
X48220Y46650D01*
X48220Y46650D01*
X48313Y46643D01*
X48403Y46624D01*
X48490Y46591D01*
X48571Y46547D01*
X48646Y46491D01*
X48711Y46426D01*
X48767Y46351D01*
X48811Y46270D01*
X48844Y46183D01*
X48863Y46093D01*
X48870Y46000D01*
X48870Y46000D01*
X48863Y45907D01*
X48844Y45817D01*
X48811Y45730D01*
X48767Y45649D01*
X48711Y45574D01*
X48646Y45509D01*
X48571Y45453D01*
X48490Y45409D01*
X48403Y45376D01*
X48313Y45357D01*
X48220Y45350D01*
G37*
G36*
X58380Y55510D02*
X58380Y55510D01*
X58287Y55517D01*
X58197Y55536D01*
X58110Y55569D01*
X58029Y55613D01*
X57954Y55669D01*
X57889Y55734D01*
X57833Y55809D01*
X57789Y55890D01*
X57756Y55977D01*
X57737Y56067D01*
X57730Y56160D01*
X57730Y56160D01*
X57737Y56253D01*
X57756Y56343D01*
X57789Y56430D01*
X57833Y56511D01*
X57889Y56586D01*
X57954Y56651D01*
X58029Y56707D01*
X58110Y56751D01*
X58197Y56784D01*
X58287Y56803D01*
X58380Y56810D01*
X58380Y56810D01*
X58473Y56803D01*
X58563Y56784D01*
X58650Y56751D01*
X58731Y56707D01*
X58806Y56651D01*
X58871Y56586D01*
X58927Y56511D01*
X58971Y56430D01*
X59004Y56343D01*
X59023Y56253D01*
X59030Y56160D01*
X59030Y56160D01*
X59023Y56067D01*
X59004Y55977D01*
X58971Y55890D01*
X58927Y55809D01*
X58871Y55734D01*
X58806Y55669D01*
X58731Y55613D01*
X58650Y55569D01*
X58563Y55536D01*
X58473Y55517D01*
X58380Y55510D01*
G37*
G36*
X71080Y55510D02*
X71080Y55510D01*
X70987Y55517D01*
X70897Y55536D01*
X70810Y55569D01*
X70729Y55613D01*
X70654Y55669D01*
X70589Y55734D01*
X70533Y55809D01*
X70489Y55890D01*
X70456Y55977D01*
X70437Y56067D01*
X70430Y56160D01*
X70430Y56160D01*
X70437Y56253D01*
X70456Y56343D01*
X70489Y56430D01*
X70533Y56511D01*
X70589Y56586D01*
X70654Y56651D01*
X70729Y56707D01*
X70810Y56751D01*
X70897Y56784D01*
X70987Y56803D01*
X71080Y56810D01*
X71080Y56810D01*
X71173Y56803D01*
X71263Y56784D01*
X71350Y56751D01*
X71431Y56707D01*
X71506Y56651D01*
X71571Y56586D01*
X71627Y56511D01*
X71671Y56430D01*
X71704Y56343D01*
X71723Y56253D01*
X71730Y56160D01*
X71730Y56160D01*
X71723Y56067D01*
X71704Y55977D01*
X71671Y55890D01*
X71627Y55809D01*
X71571Y55734D01*
X71506Y55669D01*
X71431Y55613D01*
X71350Y55569D01*
X71263Y55536D01*
X71173Y55517D01*
X71080Y55510D01*
G37*
G36*
X67270Y42810D02*
X67270Y42810D01*
X67177Y42817D01*
X67087Y42836D01*
X67000Y42869D01*
X66919Y42913D01*
X66844Y42969D01*
X66779Y43034D01*
X66723Y43109D01*
X66679Y43190D01*
X66646Y43277D01*
X66627Y43367D01*
X66620Y43460D01*
X66620Y43460D01*
X66627Y43553D01*
X66646Y43643D01*
X66679Y43730D01*
X66723Y43811D01*
X66779Y43886D01*
X66844Y43951D01*
X66919Y44007D01*
X67000Y44051D01*
X67087Y44084D01*
X67177Y44103D01*
X67270Y44110D01*
X67270Y44110D01*
X67363Y44103D01*
X67453Y44084D01*
X67540Y44051D01*
X67621Y44007D01*
X67696Y43951D01*
X67761Y43886D01*
X67817Y43811D01*
X67861Y43730D01*
X67894Y43643D01*
X67913Y43553D01*
X67920Y43460D01*
X67920Y43460D01*
X67913Y43367D01*
X67894Y43277D01*
X67861Y43190D01*
X67817Y43109D01*
X67761Y43034D01*
X67696Y42969D01*
X67621Y42913D01*
X67540Y42869D01*
X67453Y42836D01*
X67363Y42817D01*
X67270Y42810D01*
G37*
G36*
X48220Y40270D02*
X48220Y40270D01*
X48127Y40277D01*
X48037Y40296D01*
X47950Y40329D01*
X47869Y40373D01*
X47794Y40429D01*
X47729Y40494D01*
X47673Y40569D01*
X47629Y40650D01*
X47596Y40737D01*
X47577Y40827D01*
X47570Y40920D01*
X47570Y40920D01*
X47577Y41013D01*
X47596Y41103D01*
X47629Y41190D01*
X47673Y41271D01*
X47729Y41346D01*
X47794Y41411D01*
X47869Y41467D01*
X47950Y41511D01*
X48037Y41544D01*
X48127Y41563D01*
X48220Y41570D01*
X48220Y41570D01*
X48313Y41563D01*
X48403Y41544D01*
X48490Y41511D01*
X48571Y41467D01*
X48646Y41411D01*
X48711Y41346D01*
X48767Y41271D01*
X48811Y41190D01*
X48844Y41103D01*
X48863Y41013D01*
X48870Y40920D01*
X48870Y40920D01*
X48863Y40827D01*
X48844Y40737D01*
X48811Y40650D01*
X48767Y40569D01*
X48711Y40494D01*
X48646Y40429D01*
X48571Y40373D01*
X48490Y40329D01*
X48403Y40296D01*
X48313Y40277D01*
X48220Y40270D01*
G37*
G36*
X73620Y55510D02*
X73620Y55510D01*
X73527Y55517D01*
X73437Y55536D01*
X73350Y55569D01*
X73269Y55613D01*
X73194Y55669D01*
X73129Y55734D01*
X73073Y55809D01*
X73029Y55890D01*
X72996Y55977D01*
X72977Y56067D01*
X72970Y56160D01*
X72970Y56160D01*
X72977Y56253D01*
X72996Y56343D01*
X73029Y56430D01*
X73073Y56511D01*
X73129Y56586D01*
X73194Y56651D01*
X73269Y56707D01*
X73350Y56751D01*
X73437Y56784D01*
X73527Y56803D01*
X73620Y56810D01*
X73620Y56810D01*
X73713Y56803D01*
X73803Y56784D01*
X73890Y56751D01*
X73971Y56707D01*
X74046Y56651D01*
X74111Y56586D01*
X74167Y56511D01*
X74211Y56430D01*
X74244Y56343D01*
X74263Y56253D01*
X74270Y56160D01*
X74270Y56160D01*
X74263Y56067D01*
X74244Y55977D01*
X74211Y55890D01*
X74167Y55809D01*
X74111Y55734D01*
X74046Y55669D01*
X73971Y55613D01*
X73890Y55569D01*
X73803Y55536D01*
X73713Y55517D01*
X73620Y55510D01*
G37*
G36*
X58380Y40270D02*
X58380Y40270D01*
X58287Y40277D01*
X58197Y40296D01*
X58110Y40329D01*
X58029Y40373D01*
X57954Y40429D01*
X57889Y40494D01*
X57833Y40569D01*
X57789Y40650D01*
X57756Y40737D01*
X57737Y40827D01*
X57730Y40920D01*
X57730Y40920D01*
X57737Y41013D01*
X57756Y41103D01*
X57789Y41190D01*
X57833Y41271D01*
X57889Y41346D01*
X57954Y41411D01*
X58029Y41467D01*
X58110Y41511D01*
X58197Y41544D01*
X58287Y41563D01*
X58380Y41570D01*
X58380Y41570D01*
X58473Y41563D01*
X58563Y41544D01*
X58650Y41511D01*
X58731Y41467D01*
X58806Y41411D01*
X58871Y41346D01*
X58927Y41271D01*
X58971Y41190D01*
X59004Y41103D01*
X59023Y41013D01*
X59030Y40920D01*
X59030Y40920D01*
X59023Y40827D01*
X59004Y40737D01*
X58971Y40650D01*
X58927Y40569D01*
X58871Y40494D01*
X58806Y40429D01*
X58731Y40373D01*
X58650Y40329D01*
X58563Y40296D01*
X58473Y40277D01*
X58380Y40270D01*
G37*
G36*
X66000Y40270D02*
X66000Y40270D01*
X65907Y40277D01*
X65817Y40296D01*
X65730Y40329D01*
X65649Y40373D01*
X65574Y40429D01*
X65509Y40494D01*
X65453Y40569D01*
X65409Y40650D01*
X65376Y40737D01*
X65357Y40827D01*
X65350Y40920D01*
X65350Y40920D01*
X65357Y41013D01*
X65376Y41103D01*
X65409Y41190D01*
X65453Y41271D01*
X65509Y41346D01*
X65574Y41411D01*
X65649Y41467D01*
X65730Y41511D01*
X65817Y41544D01*
X65907Y41563D01*
X66000Y41570D01*
X66000Y41570D01*
X66093Y41563D01*
X66183Y41544D01*
X66270Y41511D01*
X66351Y41467D01*
X66426Y41411D01*
X66491Y41346D01*
X66547Y41271D01*
X66591Y41190D01*
X66624Y41103D01*
X66643Y41013D01*
X66650Y40920D01*
X66650Y40920D01*
X66643Y40827D01*
X66624Y40737D01*
X66591Y40650D01*
X66547Y40569D01*
X66491Y40494D01*
X66426Y40429D01*
X66351Y40373D01*
X66270Y40329D01*
X66183Y40296D01*
X66093Y40277D01*
X66000Y40270D01*
G37*
G36*
X55840Y40270D02*
X55840Y40270D01*
X55747Y40277D01*
X55657Y40296D01*
X55570Y40329D01*
X55489Y40373D01*
X55414Y40429D01*
X55349Y40494D01*
X55293Y40569D01*
X55249Y40650D01*
X55216Y40737D01*
X55197Y40827D01*
X55190Y40920D01*
X55190Y40920D01*
X55197Y41013D01*
X55216Y41103D01*
X55249Y41190D01*
X55293Y41271D01*
X55349Y41346D01*
X55414Y41411D01*
X55489Y41467D01*
X55570Y41511D01*
X55657Y41544D01*
X55747Y41563D01*
X55840Y41570D01*
X55840Y41570D01*
X55933Y41563D01*
X56023Y41544D01*
X56110Y41511D01*
X56191Y41467D01*
X56266Y41411D01*
X56331Y41346D01*
X56387Y41271D01*
X56431Y41190D01*
X56464Y41103D01*
X56483Y41013D01*
X56490Y40920D01*
X56490Y40920D01*
X56483Y40827D01*
X56464Y40737D01*
X56431Y40650D01*
X56387Y40569D01*
X56331Y40494D01*
X56266Y40429D01*
X56191Y40373D01*
X56110Y40329D01*
X56023Y40296D01*
X55933Y40277D01*
X55840Y40270D01*
G37*
G36*
X53300Y55510D02*
X53300Y55510D01*
X53207Y55517D01*
X53117Y55536D01*
X53030Y55569D01*
X52949Y55613D01*
X52874Y55669D01*
X52809Y55734D01*
X52753Y55809D01*
X52709Y55890D01*
X52676Y55977D01*
X52657Y56067D01*
X52650Y56160D01*
X52650Y56160D01*
X52657Y56253D01*
X52676Y56343D01*
X52709Y56430D01*
X52753Y56511D01*
X52809Y56586D01*
X52874Y56651D01*
X52949Y56707D01*
X53030Y56751D01*
X53117Y56784D01*
X53207Y56803D01*
X53300Y56810D01*
X53300Y56810D01*
X53393Y56803D01*
X53483Y56784D01*
X53570Y56751D01*
X53651Y56707D01*
X53726Y56651D01*
X53791Y56586D01*
X53847Y56511D01*
X53891Y56430D01*
X53924Y56343D01*
X53943Y56253D01*
X53950Y56160D01*
X53950Y56160D01*
X53943Y56067D01*
X53924Y55977D01*
X53891Y55890D01*
X53847Y55809D01*
X53791Y55734D01*
X53726Y55669D01*
X53651Y55613D01*
X53570Y55569D01*
X53483Y55536D01*
X53393Y55517D01*
X53300Y55510D01*
G37*
G36*
X63460Y55510D02*
X63460Y55510D01*
X63367Y55517D01*
X63277Y55536D01*
X63190Y55569D01*
X63109Y55613D01*
X63034Y55669D01*
X62969Y55734D01*
X62913Y55809D01*
X62869Y55890D01*
X62836Y55977D01*
X62817Y56067D01*
X62810Y56160D01*
X62810Y56160D01*
X62817Y56253D01*
X62836Y56343D01*
X62869Y56430D01*
X62913Y56511D01*
X62969Y56586D01*
X63034Y56651D01*
X63109Y56707D01*
X63190Y56751D01*
X63277Y56784D01*
X63367Y56803D01*
X63460Y56810D01*
X63460Y56810D01*
X63553Y56803D01*
X63643Y56784D01*
X63730Y56751D01*
X63811Y56707D01*
X63886Y56651D01*
X63951Y56586D01*
X64007Y56511D01*
X64051Y56430D01*
X64084Y56343D01*
X64103Y56253D01*
X64110Y56160D01*
X64110Y56160D01*
X64103Y56067D01*
X64084Y55977D01*
X64051Y55890D01*
X64007Y55809D01*
X63951Y55734D01*
X63886Y55669D01*
X63811Y55613D01*
X63730Y55569D01*
X63643Y55536D01*
X63553Y55517D01*
X63460Y55510D01*
G37*
G36*
X66000Y55510D02*
X66000Y55510D01*
X65907Y55517D01*
X65817Y55536D01*
X65730Y55569D01*
X65649Y55613D01*
X65574Y55669D01*
X65509Y55734D01*
X65453Y55809D01*
X65409Y55890D01*
X65376Y55977D01*
X65357Y56067D01*
X65350Y56160D01*
X65350Y56160D01*
X65357Y56253D01*
X65376Y56343D01*
X65409Y56430D01*
X65453Y56511D01*
X65509Y56586D01*
X65574Y56651D01*
X65649Y56707D01*
X65730Y56751D01*
X65817Y56784D01*
X65907Y56803D01*
X66000Y56810D01*
X66000Y56810D01*
X66093Y56803D01*
X66183Y56784D01*
X66270Y56751D01*
X66351Y56707D01*
X66426Y56651D01*
X66491Y56586D01*
X66547Y56511D01*
X66591Y56430D01*
X66624Y56343D01*
X66643Y56253D01*
X66650Y56160D01*
X66650Y56160D01*
X66643Y56067D01*
X66624Y55977D01*
X66591Y55890D01*
X66547Y55809D01*
X66491Y55734D01*
X66426Y55669D01*
X66351Y55613D01*
X66270Y55569D01*
X66183Y55536D01*
X66093Y55517D01*
X66000Y55510D01*
G37*
G36*
X71080Y40270D02*
X71080Y40270D01*
X70987Y40277D01*
X70897Y40296D01*
X70810Y40329D01*
X70729Y40373D01*
X70654Y40429D01*
X70589Y40494D01*
X70533Y40569D01*
X70489Y40650D01*
X70456Y40737D01*
X70437Y40827D01*
X70430Y40920D01*
X70430Y40920D01*
X70437Y41013D01*
X70456Y41103D01*
X70489Y41190D01*
X70533Y41271D01*
X70589Y41346D01*
X70654Y41411D01*
X70729Y41467D01*
X70810Y41511D01*
X70897Y41544D01*
X70987Y41563D01*
X71080Y41570D01*
X71080Y41570D01*
X71173Y41563D01*
X71263Y41544D01*
X71350Y41511D01*
X71431Y41467D01*
X71506Y41411D01*
X71571Y41346D01*
X71627Y41271D01*
X71671Y41190D01*
X71704Y41103D01*
X71723Y41013D01*
X71730Y40920D01*
X71730Y40920D01*
X71723Y40827D01*
X71704Y40737D01*
X71671Y40650D01*
X71627Y40569D01*
X71571Y40494D01*
X71506Y40429D01*
X71431Y40373D01*
X71350Y40329D01*
X71263Y40296D01*
X71173Y40277D01*
X71080Y40270D01*
G37*
G36*
X68540Y40270D02*
X68540Y40270D01*
X68447Y40277D01*
X68357Y40296D01*
X68270Y40329D01*
X68189Y40373D01*
X68114Y40429D01*
X68049Y40494D01*
X67993Y40569D01*
X67949Y40650D01*
X67916Y40737D01*
X67897Y40827D01*
X67890Y40920D01*
X67890Y40920D01*
X67897Y41013D01*
X67916Y41103D01*
X67949Y41190D01*
X67993Y41271D01*
X68049Y41346D01*
X68114Y41411D01*
X68189Y41467D01*
X68270Y41511D01*
X68357Y41544D01*
X68447Y41563D01*
X68540Y41570D01*
X68540Y41570D01*
X68633Y41563D01*
X68723Y41544D01*
X68810Y41511D01*
X68891Y41467D01*
X68966Y41411D01*
X69031Y41346D01*
X69087Y41271D01*
X69131Y41190D01*
X69164Y41103D01*
X69183Y41013D01*
X69190Y40920D01*
X69190Y40920D01*
X69183Y40827D01*
X69164Y40737D01*
X69131Y40650D01*
X69087Y40569D01*
X69031Y40494D01*
X68966Y40429D01*
X68891Y40373D01*
X68810Y40329D01*
X68723Y40296D01*
X68633Y40277D01*
X68540Y40270D01*
G37*
G36*
X53300Y40270D02*
X53300Y40270D01*
X53207Y40277D01*
X53117Y40296D01*
X53030Y40329D01*
X52949Y40373D01*
X52874Y40429D01*
X52809Y40494D01*
X52753Y40569D01*
X52709Y40650D01*
X52676Y40737D01*
X52657Y40827D01*
X52650Y40920D01*
X52650Y40920D01*
X52657Y41013D01*
X52676Y41103D01*
X52709Y41190D01*
X52753Y41271D01*
X52809Y41346D01*
X52874Y41411D01*
X52949Y41467D01*
X53030Y41511D01*
X53117Y41544D01*
X53207Y41563D01*
X53300Y41570D01*
X53300Y41570D01*
X53393Y41563D01*
X53483Y41544D01*
X53570Y41511D01*
X53651Y41467D01*
X53726Y41411D01*
X53791Y41346D01*
X53847Y41271D01*
X53891Y41190D01*
X53924Y41103D01*
X53943Y41013D01*
X53950Y40920D01*
X53950Y40920D01*
X53943Y40827D01*
X53924Y40737D01*
X53891Y40650D01*
X53847Y40569D01*
X53791Y40494D01*
X53726Y40429D01*
X53651Y40373D01*
X53570Y40329D01*
X53483Y40296D01*
X53393Y40277D01*
X53300Y40270D01*
G37*
G36*
X60920Y40270D02*
X60920Y40270D01*
X60827Y40277D01*
X60737Y40296D01*
X60650Y40329D01*
X60569Y40373D01*
X60494Y40429D01*
X60429Y40494D01*
X60373Y40569D01*
X60329Y40650D01*
X60296Y40737D01*
X60277Y40827D01*
X60270Y40920D01*
X60270Y40920D01*
X60277Y41013D01*
X60296Y41103D01*
X60329Y41190D01*
X60373Y41271D01*
X60429Y41346D01*
X60494Y41411D01*
X60569Y41467D01*
X60650Y41511D01*
X60737Y41544D01*
X60827Y41563D01*
X60920Y41570D01*
X60920Y41570D01*
X61013Y41563D01*
X61103Y41544D01*
X61190Y41511D01*
X61271Y41467D01*
X61346Y41411D01*
X61411Y41346D01*
X61467Y41271D01*
X61511Y41190D01*
X61544Y41103D01*
X61563Y41013D01*
X61570Y40920D01*
X61570Y40920D01*
X61563Y40827D01*
X61544Y40737D01*
X61511Y40650D01*
X61467Y40569D01*
X61411Y40494D01*
X61346Y40429D01*
X61271Y40373D01*
X61190Y40329D01*
X61103Y40296D01*
X61013Y40277D01*
X60920Y40270D01*
G37*
G36*
X76160Y55510D02*
X76160Y55510D01*
X76067Y55517D01*
X75977Y55536D01*
X75890Y55569D01*
X75809Y55613D01*
X75734Y55669D01*
X75669Y55734D01*
X75613Y55809D01*
X75569Y55890D01*
X75536Y55977D01*
X75517Y56067D01*
X75510Y56160D01*
X75510Y56160D01*
X75517Y56253D01*
X75536Y56343D01*
X75569Y56430D01*
X75613Y56511D01*
X75669Y56586D01*
X75734Y56651D01*
X75809Y56707D01*
X75890Y56751D01*
X75977Y56784D01*
X76067Y56803D01*
X76160Y56810D01*
X76160Y56810D01*
X76253Y56803D01*
X76343Y56784D01*
X76430Y56751D01*
X76511Y56707D01*
X76586Y56651D01*
X76651Y56586D01*
X76707Y56511D01*
X76751Y56430D01*
X76784Y56343D01*
X76803Y56253D01*
X76810Y56160D01*
X76810Y56160D01*
X76803Y56067D01*
X76784Y55977D01*
X76751Y55890D01*
X76707Y55809D01*
X76651Y55734D01*
X76586Y55669D01*
X76511Y55613D01*
X76430Y55569D01*
X76343Y55536D01*
X76253Y55517D01*
X76160Y55510D01*
G37*
G36*
X55840Y55510D02*
X55840Y55510D01*
X55747Y55517D01*
X55657Y55536D01*
X55570Y55569D01*
X55489Y55613D01*
X55414Y55669D01*
X55349Y55734D01*
X55293Y55809D01*
X55249Y55890D01*
X55216Y55977D01*
X55197Y56067D01*
X55190Y56160D01*
X55190Y56160D01*
X55197Y56253D01*
X55216Y56343D01*
X55249Y56430D01*
X55293Y56511D01*
X55349Y56586D01*
X55414Y56651D01*
X55489Y56707D01*
X55570Y56751D01*
X55657Y56784D01*
X55747Y56803D01*
X55840Y56810D01*
X55840Y56810D01*
X55933Y56803D01*
X56023Y56784D01*
X56110Y56751D01*
X56191Y56707D01*
X56266Y56651D01*
X56331Y56586D01*
X56387Y56511D01*
X56431Y56430D01*
X56464Y56343D01*
X56483Y56253D01*
X56490Y56160D01*
X56490Y56160D01*
X56483Y56067D01*
X56464Y55977D01*
X56431Y55890D01*
X56387Y55809D01*
X56331Y55734D01*
X56266Y55669D01*
X56191Y55613D01*
X56110Y55569D01*
X56023Y55536D01*
X55933Y55517D01*
X55840Y55510D01*
G37*
G36*
X60920Y55510D02*
X60920Y55510D01*
X60827Y55517D01*
X60737Y55536D01*
X60650Y55569D01*
X60569Y55613D01*
X60494Y55669D01*
X60429Y55734D01*
X60373Y55809D01*
X60329Y55890D01*
X60296Y55977D01*
X60277Y56067D01*
X60270Y56160D01*
X60270Y56160D01*
X60277Y56253D01*
X60296Y56343D01*
X60329Y56430D01*
X60373Y56511D01*
X60429Y56586D01*
X60494Y56651D01*
X60569Y56707D01*
X60650Y56751D01*
X60737Y56784D01*
X60827Y56803D01*
X60920Y56810D01*
X60920Y56810D01*
X61013Y56803D01*
X61103Y56784D01*
X61190Y56751D01*
X61271Y56707D01*
X61346Y56651D01*
X61411Y56586D01*
X61467Y56511D01*
X61511Y56430D01*
X61544Y56343D01*
X61563Y56253D01*
X61570Y56160D01*
X61570Y56160D01*
X61563Y56067D01*
X61544Y55977D01*
X61511Y55890D01*
X61467Y55809D01*
X61411Y55734D01*
X61346Y55669D01*
X61271Y55613D01*
X61190Y55569D01*
X61103Y55536D01*
X61013Y55517D01*
X60920Y55510D01*
G37*
G36*
X48220Y47890D02*
X48220Y47890D01*
X48127Y47897D01*
X48037Y47916D01*
X47950Y47949D01*
X47869Y47993D01*
X47794Y48049D01*
X47729Y48114D01*
X47673Y48189D01*
X47629Y48270D01*
X47596Y48357D01*
X47577Y48447D01*
X47570Y48540D01*
X47570Y48540D01*
X47577Y48633D01*
X47596Y48723D01*
X47629Y48810D01*
X47673Y48891D01*
X47729Y48966D01*
X47794Y49031D01*
X47869Y49087D01*
X47950Y49131D01*
X48037Y49164D01*
X48127Y49183D01*
X48220Y49190D01*
X48220Y49190D01*
X48313Y49183D01*
X48403Y49164D01*
X48490Y49131D01*
X48571Y49087D01*
X48646Y49031D01*
X48711Y48966D01*
X48767Y48891D01*
X48811Y48810D01*
X48844Y48723D01*
X48863Y48633D01*
X48870Y48540D01*
X48870Y48540D01*
X48863Y48447D01*
X48844Y48357D01*
X48811Y48270D01*
X48767Y48189D01*
X48711Y48114D01*
X48646Y48049D01*
X48571Y47993D01*
X48490Y47949D01*
X48403Y47916D01*
X48313Y47897D01*
X48220Y47890D01*
G37*
G36*
X48220Y55510D02*
X48220Y55510D01*
X48127Y55517D01*
X48037Y55536D01*
X47950Y55569D01*
X47869Y55613D01*
X47794Y55669D01*
X47729Y55734D01*
X47673Y55809D01*
X47629Y55890D01*
X47596Y55977D01*
X47577Y56067D01*
X47570Y56160D01*
X47570Y56160D01*
X47577Y56253D01*
X47596Y56343D01*
X47629Y56430D01*
X47673Y56511D01*
X47729Y56586D01*
X47794Y56651D01*
X47869Y56707D01*
X47950Y56751D01*
X48037Y56784D01*
X48127Y56803D01*
X48220Y56810D01*
X48220Y56810D01*
X48313Y56803D01*
X48403Y56784D01*
X48490Y56751D01*
X48571Y56707D01*
X48646Y56651D01*
X48711Y56586D01*
X48767Y56511D01*
X48811Y56430D01*
X48844Y56343D01*
X48863Y56253D01*
X48870Y56160D01*
X48870Y56160D01*
X48863Y56067D01*
X48844Y55977D01*
X48811Y55890D01*
X48767Y55809D01*
X48711Y55734D01*
X48646Y55669D01*
X48571Y55613D01*
X48490Y55569D01*
X48403Y55536D01*
X48313Y55517D01*
X48220Y55510D01*
G37*
G36*
X50760Y55510D02*
X50760Y55510D01*
X50667Y55517D01*
X50577Y55536D01*
X50490Y55569D01*
X50409Y55613D01*
X50334Y55669D01*
X50269Y55734D01*
X50213Y55809D01*
X50169Y55890D01*
X50136Y55977D01*
X50117Y56067D01*
X50110Y56160D01*
X50110Y56160D01*
X50117Y56253D01*
X50136Y56343D01*
X50169Y56430D01*
X50213Y56511D01*
X50269Y56586D01*
X50334Y56651D01*
X50409Y56707D01*
X50490Y56751D01*
X50577Y56784D01*
X50667Y56803D01*
X50760Y56810D01*
X50760Y56810D01*
X50853Y56803D01*
X50943Y56784D01*
X51030Y56751D01*
X51111Y56707D01*
X51186Y56651D01*
X51251Y56586D01*
X51307Y56511D01*
X51351Y56430D01*
X51384Y56343D01*
X51403Y56253D01*
X51410Y56160D01*
X51410Y56160D01*
X51403Y56067D01*
X51384Y55977D01*
X51351Y55890D01*
X51307Y55809D01*
X51251Y55734D01*
X51186Y55669D01*
X51111Y55613D01*
X51030Y55569D01*
X50943Y55536D01*
X50853Y55517D01*
X50760Y55510D01*
G37*
G36*
X64730Y42810D02*
X64730Y42810D01*
X64637Y42817D01*
X64547Y42836D01*
X64460Y42869D01*
X64379Y42913D01*
X64304Y42969D01*
X64239Y43034D01*
X64183Y43109D01*
X64139Y43190D01*
X64106Y43277D01*
X64087Y43367D01*
X64080Y43460D01*
X64080Y43460D01*
X64087Y43553D01*
X64106Y43643D01*
X64139Y43730D01*
X64183Y43811D01*
X64239Y43886D01*
X64304Y43951D01*
X64379Y44007D01*
X64460Y44051D01*
X64547Y44084D01*
X64637Y44103D01*
X64730Y44110D01*
X64730Y44110D01*
X64823Y44103D01*
X64913Y44084D01*
X65000Y44051D01*
X65081Y44007D01*
X65156Y43951D01*
X65221Y43886D01*
X65277Y43811D01*
X65321Y43730D01*
X65354Y43643D01*
X65373Y43553D01*
X65380Y43460D01*
X65380Y43460D01*
X65373Y43367D01*
X65354Y43277D01*
X65321Y43190D01*
X65277Y43109D01*
X65221Y43034D01*
X65156Y42969D01*
X65081Y42913D01*
X65000Y42869D01*
X64913Y42836D01*
X64823Y42817D01*
X64730Y42810D01*
G37*
G36*
X87639Y56080D02*
X87639Y56080D01*
X87737Y56075D01*
X87834Y56061D01*
X87929Y56037D01*
X88022Y56004D01*
X88110Y55962D01*
X88195Y55912D01*
X88273Y55853D01*
X88346Y55787D01*
X88412Y55714D01*
X88471Y55636D01*
X88521Y55551D01*
X88563Y55463D01*
X88596Y55370D01*
X88620Y55275D01*
X88634Y55178D01*
X88639Y55080D01*
X88639Y55080D01*
X88634Y54982D01*
X88620Y54885D01*
X88596Y54790D01*
X88563Y54697D01*
X88521Y54609D01*
X88471Y54524D01*
X88412Y54446D01*
X88346Y54373D01*
X88273Y54307D01*
X88195Y54248D01*
X88110Y54198D01*
X88022Y54156D01*
X87929Y54123D01*
X87834Y54099D01*
X87737Y54085D01*
X87639Y54080D01*
X87639Y54080D01*
X87541Y54085D01*
X87444Y54099D01*
X87349Y54123D01*
X87256Y54156D01*
X87167Y54198D01*
X87083Y54248D01*
X87005Y54307D01*
X86932Y54373D01*
X86866Y54446D01*
X86807Y54524D01*
X86757Y54609D01*
X86715Y54697D01*
X86682Y54790D01*
X86658Y54885D01*
X86644Y54982D01*
X86639Y55080D01*
X86639Y55080D01*
X86644Y55178D01*
X86658Y55275D01*
X86682Y55370D01*
X86715Y55463D01*
X86757Y55551D01*
X86807Y55636D01*
X86866Y55714D01*
X86932Y55787D01*
X87005Y55853D01*
X87083Y55912D01*
X87167Y55962D01*
X87256Y56004D01*
X87349Y56037D01*
X87444Y56061D01*
X87541Y56075D01*
X87639Y56080D01*
G37*
G36*
X87639Y53540D02*
X87639Y53540D01*
X87737Y53535D01*
X87834Y53521D01*
X87929Y53497D01*
X88022Y53464D01*
X88110Y53422D01*
X88195Y53372D01*
X88273Y53313D01*
X88346Y53247D01*
X88412Y53174D01*
X88471Y53096D01*
X88521Y53011D01*
X88563Y52923D01*
X88596Y52830D01*
X88620Y52735D01*
X88634Y52638D01*
X88639Y52540D01*
X88639Y52540D01*
X88634Y52442D01*
X88620Y52345D01*
X88596Y52250D01*
X88563Y52157D01*
X88521Y52069D01*
X88471Y51984D01*
X88412Y51906D01*
X88346Y51833D01*
X88273Y51767D01*
X88195Y51708D01*
X88110Y51658D01*
X88022Y51616D01*
X87929Y51583D01*
X87834Y51559D01*
X87737Y51545D01*
X87639Y51540D01*
X87639Y51540D01*
X87541Y51545D01*
X87444Y51559D01*
X87349Y51583D01*
X87256Y51616D01*
X87167Y51658D01*
X87083Y51708D01*
X87005Y51767D01*
X86932Y51833D01*
X86866Y51906D01*
X86807Y51984D01*
X86757Y52069D01*
X86715Y52157D01*
X86682Y52250D01*
X86658Y52345D01*
X86644Y52442D01*
X86639Y52540D01*
X86639Y52540D01*
X86644Y52638D01*
X86658Y52735D01*
X86682Y52830D01*
X86715Y52923D01*
X86757Y53011D01*
X86807Y53096D01*
X86866Y53174D01*
X86932Y53247D01*
X87005Y53313D01*
X87083Y53372D01*
X87167Y53422D01*
X87256Y53464D01*
X87349Y53497D01*
X87444Y53521D01*
X87541Y53535D01*
X87639Y53540D01*
G37*
G36*
X87639Y51000D02*
X87639Y51000D01*
X87737Y50995D01*
X87834Y50981D01*
X87929Y50957D01*
X88022Y50924D01*
X88110Y50882D01*
X88195Y50832D01*
X88273Y50773D01*
X88346Y50707D01*
X88412Y50634D01*
X88471Y50556D01*
X88521Y50471D01*
X88563Y50383D01*
X88596Y50290D01*
X88620Y50195D01*
X88634Y50098D01*
X88639Y50000D01*
X88639Y50000D01*
X88634Y49902D01*
X88620Y49805D01*
X88596Y49710D01*
X88563Y49617D01*
X88521Y49529D01*
X88471Y49444D01*
X88412Y49366D01*
X88346Y49293D01*
X88273Y49227D01*
X88195Y49168D01*
X88110Y49118D01*
X88022Y49076D01*
X87929Y49043D01*
X87834Y49019D01*
X87737Y49005D01*
X87639Y49000D01*
X87639Y49000D01*
X87541Y49005D01*
X87444Y49019D01*
X87349Y49043D01*
X87256Y49076D01*
X87167Y49118D01*
X87083Y49168D01*
X87005Y49227D01*
X86932Y49293D01*
X86866Y49366D01*
X86807Y49444D01*
X86757Y49529D01*
X86715Y49617D01*
X86682Y49710D01*
X86658Y49805D01*
X86644Y49902D01*
X86639Y50000D01*
X86639Y50000D01*
X86644Y50098D01*
X86658Y50195D01*
X86682Y50290D01*
X86715Y50383D01*
X86757Y50471D01*
X86807Y50556D01*
X86866Y50634D01*
X86932Y50707D01*
X87005Y50773D01*
X87083Y50832D01*
X87167Y50882D01*
X87256Y50924D01*
X87349Y50957D01*
X87444Y50981D01*
X87541Y50995D01*
X87639Y51000D01*
G37*
G36*
X87639Y48460D02*
X87639Y48460D01*
X87737Y48455D01*
X87834Y48441D01*
X87929Y48417D01*
X88022Y48384D01*
X88110Y48342D01*
X88195Y48292D01*
X88273Y48233D01*
X88346Y48167D01*
X88412Y48094D01*
X88471Y48016D01*
X88521Y47931D01*
X88563Y47843D01*
X88596Y47750D01*
X88620Y47655D01*
X88634Y47558D01*
X88639Y47460D01*
X88639Y47460D01*
X88634Y47362D01*
X88620Y47265D01*
X88596Y47170D01*
X88563Y47077D01*
X88521Y46989D01*
X88471Y46904D01*
X88412Y46826D01*
X88346Y46753D01*
X88273Y46687D01*
X88195Y46628D01*
X88110Y46578D01*
X88022Y46536D01*
X87929Y46503D01*
X87834Y46479D01*
X87737Y46465D01*
X87639Y46460D01*
X87639Y46460D01*
X87541Y46465D01*
X87444Y46479D01*
X87349Y46503D01*
X87256Y46536D01*
X87167Y46578D01*
X87083Y46628D01*
X87005Y46687D01*
X86932Y46753D01*
X86866Y46826D01*
X86807Y46904D01*
X86757Y46989D01*
X86715Y47077D01*
X86682Y47170D01*
X86658Y47265D01*
X86644Y47362D01*
X86639Y47460D01*
X86639Y47460D01*
X86644Y47558D01*
X86658Y47655D01*
X86682Y47750D01*
X86715Y47843D01*
X86757Y47931D01*
X86807Y48016D01*
X86866Y48094D01*
X86932Y48167D01*
X87005Y48233D01*
X87083Y48292D01*
X87167Y48342D01*
X87256Y48384D01*
X87349Y48417D01*
X87444Y48441D01*
X87541Y48455D01*
X87639Y48460D01*
G37*
G36*
X87639Y45920D02*
X87639Y45920D01*
X87737Y45915D01*
X87834Y45901D01*
X87929Y45877D01*
X88022Y45844D01*
X88110Y45802D01*
X88195Y45752D01*
X88273Y45693D01*
X88346Y45627D01*
X88412Y45554D01*
X88471Y45476D01*
X88521Y45391D01*
X88563Y45303D01*
X88596Y45210D01*
X88620Y45115D01*
X88634Y45018D01*
X88639Y44920D01*
X88639Y44920D01*
X88634Y44822D01*
X88620Y44725D01*
X88596Y44630D01*
X88563Y44537D01*
X88521Y44449D01*
X88471Y44364D01*
X88412Y44286D01*
X88346Y44213D01*
X88273Y44147D01*
X88195Y44088D01*
X88110Y44038D01*
X88022Y43996D01*
X87929Y43963D01*
X87834Y43939D01*
X87737Y43925D01*
X87639Y43920D01*
X87639Y43920D01*
X87541Y43925D01*
X87444Y43939D01*
X87349Y43963D01*
X87256Y43996D01*
X87167Y44038D01*
X87083Y44088D01*
X87005Y44147D01*
X86932Y44213D01*
X86866Y44286D01*
X86807Y44364D01*
X86757Y44449D01*
X86715Y44537D01*
X86682Y44630D01*
X86658Y44725D01*
X86644Y44822D01*
X86639Y44920D01*
X86639Y44920D01*
X86644Y45018D01*
X86658Y45115D01*
X86682Y45210D01*
X86715Y45303D01*
X86757Y45391D01*
X86807Y45476D01*
X86866Y45554D01*
X86932Y45627D01*
X87005Y45693D01*
X87083Y45752D01*
X87167Y45802D01*
X87256Y45844D01*
X87349Y45877D01*
X87444Y45901D01*
X87541Y45915D01*
X87639Y45920D01*
G37*
G36*
X87639Y43380D02*
X87639Y43380D01*
X87737Y43375D01*
X87834Y43361D01*
X87929Y43337D01*
X88022Y43304D01*
X88110Y43262D01*
X88195Y43212D01*
X88273Y43153D01*
X88346Y43087D01*
X88412Y43014D01*
X88471Y42936D01*
X88521Y42851D01*
X88563Y42763D01*
X88596Y42670D01*
X88620Y42575D01*
X88634Y42478D01*
X88639Y42380D01*
X88639Y42380D01*
X88634Y42282D01*
X88620Y42185D01*
X88596Y42090D01*
X88563Y41997D01*
X88521Y41909D01*
X88471Y41824D01*
X88412Y41746D01*
X88346Y41673D01*
X88273Y41607D01*
X88195Y41548D01*
X88110Y41498D01*
X88022Y41456D01*
X87929Y41423D01*
X87834Y41399D01*
X87737Y41385D01*
X87639Y41380D01*
X87639Y41380D01*
X87541Y41385D01*
X87444Y41399D01*
X87349Y41423D01*
X87256Y41456D01*
X87167Y41498D01*
X87083Y41548D01*
X87005Y41607D01*
X86932Y41673D01*
X86866Y41746D01*
X86807Y41824D01*
X86757Y41909D01*
X86715Y41997D01*
X86682Y42090D01*
X86658Y42185D01*
X86644Y42282D01*
X86639Y42380D01*
X86639Y42380D01*
X86644Y42478D01*
X86658Y42575D01*
X86682Y42670D01*
X86715Y42763D01*
X86757Y42851D01*
X86807Y42936D01*
X86866Y43014D01*
X86932Y43087D01*
X87005Y43153D01*
X87083Y43212D01*
X87167Y43262D01*
X87256Y43304D01*
X87349Y43337D01*
X87444Y43361D01*
X87541Y43375D01*
X87639Y43380D01*
G37*
G36*
X86877Y39032D02*
X88401Y39032D01*
X88401Y37508D01*
X86877Y37508D01*
G37*
G36*
X86986Y35994D02*
X87364Y36378D01*
X87903Y36383D01*
X88287Y36005D01*
X88292Y35466D01*
X87914Y35082D01*
X87375Y35077D01*
X86991Y35455D01*
G37*
M02*
