G75*
G71*
%OFA0B0*%
%FSLAX23Y23*%
%IPPOS*%
%LPD*%
%ADD10C,0.1*%
%ADD11C,0.111*%
%ADD12C,0.152*%
%ADD13C,0.254*%
%ADD14C,0.15*%
%ADD15C,0.152*%
%ADD16C,0*%
%ADD17C,0.2*%
%ADD18C,0.167*%
%ADD19C,0.117*%
%ADD20C,0.353*%
%ADD21C,0.235*%
%ADD22C,0.294*%
%ADD23C,0.3*%
%ADD24C,0.55*%
%LPD*%D10*
X38500Y0D02*
X38400Y0D01*
X38300Y0D01*
X38200Y0D01*
X38100Y0D01*
X38000Y0D01*
X37900Y0D01*
X37800Y0D01*
X37700Y0D01*
X37600Y0D01*
X37500Y0D01*
X37400Y0D01*
X37300Y0D01*
X37200Y0D01*
X37100Y0D01*
X37000Y0D01*
X36900Y0D01*
X36800Y0D01*
X36700Y0D01*
X36600Y0D01*
X36500Y0D01*
X36400Y0D01*
X36300Y0D01*
X36200Y0D01*
X36100Y0D01*
X36000Y0D01*
X35900Y0D01*
X35800Y0D01*
X35700Y0D01*
X35600Y0D01*
X35500Y0D01*
X35400Y0D01*
X35300Y0D01*
X35200Y0D01*
X35100Y0D01*
X35000Y0D01*
X34900Y0D01*
X34800Y0D01*
X34700Y0D01*
X34600Y0D01*
X34500Y0D01*
X34400Y0D01*
X34300Y0D01*
X34200Y0D01*
X34100Y0D01*
X34000Y0D01*
X33900Y0D01*
X33800Y0D01*
X33700Y0D01*
X33600Y0D01*
X33500Y0D01*
X33400Y0D01*
X33300Y0D01*
X33200Y0D01*
X33100Y0D01*
X33000Y0D01*
X32900Y0D01*
X32800Y0D01*
X32700Y0D01*
X32600Y0D01*
X32500Y0D01*
X32400Y0D01*
X32300Y0D01*
X32200Y0D01*
X32100Y0D01*
X32000Y0D01*
X31900Y0D01*
X31800Y0D01*
X31700Y0D01*
X31600Y0D01*
X31500Y0D01*
X31400Y0D01*
X31300Y0D01*
X31200Y0D01*
X31100Y0D01*
X31000Y0D01*
X30900Y0D01*
X30800Y0D01*
X30700Y0D01*
X30600Y0D01*
X30500Y0D01*
X30400Y0D01*
X30300Y0D01*
X30200Y0D01*
X30100Y0D01*
X30000Y0D01*
X29900Y0D01*
X29800Y0D01*
X29700Y0D01*
X29600Y0D01*
X29500Y0D01*
X29400Y0D01*
X29300Y0D01*
X29200Y0D01*
X29100Y0D01*
X29000Y0D01*
X28900Y0D01*
X28800Y0D01*
X28700Y0D01*
X28600Y0D01*
X28500Y0D01*
X28400Y0D01*
X28300Y0D01*
X28200Y0D01*
X28100Y0D01*
X28000Y0D01*
X27900Y0D01*
X27800Y0D01*
X27700Y0D01*
X27600Y0D01*
X27500Y0D01*
X27400Y0D01*
X27300Y0D01*
X27200Y0D01*
X27100Y0D01*
X27000Y0D01*
X26900Y0D01*
X26800Y0D01*
X26700Y0D01*
X26600Y0D01*
X26500Y0D01*
X26400Y0D01*
X26300Y0D01*
X26200Y0D01*
X26100Y0D01*
X26000Y0D01*
X25900Y0D01*
X25800Y0D01*
X25700Y0D01*
X25600Y0D01*
X25500Y0D01*
X25400Y0D01*
X25300Y0D01*
X25200Y0D01*
X25100Y0D01*
X25000Y0D01*
X24900Y0D01*
X24800Y0D01*
X24700Y0D01*
X24600Y0D01*
X24500Y0D01*
X24400Y0D01*
X24300Y0D01*
X24200Y0D01*
X24100Y0D01*
X24000Y0D01*
X23900Y0D01*
X23800Y0D01*
X23700Y0D01*
X23600Y0D01*
X23500Y0D01*
X23400Y0D01*
X23300Y0D01*
X23200Y0D01*
X23100Y0D01*
X23000Y0D01*
X22900Y0D01*
X22800Y0D01*
X22700Y0D01*
X22600Y0D01*
X22500Y0D01*
X22400Y0D01*
X22300Y0D01*
X22200Y0D01*
X22100Y0D01*
X22000Y0D01*
X21900Y0D01*
X21800Y0D01*
X21700Y0D01*
X21600Y0D01*
X21500Y0D01*
X21400Y0D01*
X21300Y0D01*
X21200Y0D01*
X21100Y0D01*
X21000Y0D01*
X20900Y0D01*
X20800Y0D01*
X20700Y0D01*
X20600Y0D01*
X20500Y0D01*
X20400Y0D01*
X20300Y0D01*
X20200Y0D01*
X20100Y0D01*
X20000Y0D01*
X19900Y0D01*
X19800Y0D01*
X19700Y0D01*
X19600Y0D01*
X19500Y0D01*
X19400Y0D01*
X19300Y0D01*
X19200Y0D01*
X19100Y0D01*
X19000Y0D01*
X18900Y0D01*
X18800Y0D01*
X18700Y0D01*
X18600Y0D01*
X18500Y0D01*
X18400Y0D01*
X18300Y0D01*
X18200Y0D01*
X18100Y0D01*
X18000Y0D01*
X17900Y0D01*
X17800Y0D01*
X17700Y0D01*
X17600Y0D01*
X17500Y0D01*
X17400Y0D01*
X17300Y0D01*
X17200Y0D01*
X17100Y0D01*
X17000Y0D01*
X16900Y0D01*
X16800Y0D01*
X16700Y0D01*
X16600Y0D01*
X16500Y0D01*
X16400Y0D01*
X16300Y0D01*
X16200Y0D01*
X16100Y0D01*
X16000Y0D01*
X15900Y0D01*
X15800Y0D01*
X15700Y0D01*
X15600Y0D01*
X15500Y0D01*
X15400Y0D01*
X15300Y0D01*
X15200Y0D01*
X15100Y0D01*
X15000Y0D01*
X14900Y0D01*
X14800Y0D01*
X14700Y0D01*
X14600Y0D01*
X14500Y0D01*
X14400Y0D01*
X14300Y0D01*
X14200Y0D01*
X14100Y0D01*
X14000Y0D01*
X13900Y0D01*
X13800Y0D01*
X13700Y0D01*
X13600Y0D01*
X13500Y0D01*
X13400Y0D01*
X13300Y0D01*
X13200Y0D01*
X13100Y0D01*
X13000Y0D01*
X12900Y0D01*
X12800Y0D01*
X12700Y0D01*
X12600Y0D01*
X12500Y0D01*
X12400Y0D01*
X12300Y0D01*
X12200Y0D01*
X12100Y0D01*
X12000Y0D01*
X11900Y0D01*
X11800Y0D01*
X11700Y0D01*
X11600Y0D01*
X11500Y0D01*
X11400Y0D01*
X11300Y0D01*
X11200Y0D01*
X11100Y0D01*
X11000Y0D01*
X10900Y0D01*
X10800Y0D01*
X10700Y0D01*
X10600Y0D01*
X10500Y0D01*
X10400Y0D01*
X10300Y0D01*
X10200Y0D01*
X10100Y0D01*
X10000Y0D01*
X9900Y0D01*
X9800Y0D01*
X9700Y0D01*
X9600Y0D01*
X9500Y0D01*
X9400Y0D01*
X9300Y0D01*
X9200Y0D01*
X9100Y0D01*
X9000Y0D01*
X8900Y0D01*
X8800Y0D01*
X8700Y0D01*
X8600Y0D01*
X8500Y0D01*
X8400Y0D01*
X8300Y0D01*
X8200Y0D01*
X8100Y0D01*
X8000Y0D01*
X7900Y0D01*
X7800Y0D01*
X7700Y0D01*
X7600Y0D01*
X7500Y0D01*
X7400Y0D01*
X7300Y0D01*
X7200Y0D01*
X7100Y0D01*
X7000Y0D01*
X6900Y0D01*
X6800Y0D01*
X6700Y0D01*
X6600Y0D01*
X6500Y0D01*
X6400Y0D01*
X6300Y0D01*
X6200Y0D01*
X6100Y0D01*
X6000Y0D01*
X5900Y0D01*
X5800Y0D01*
X5700Y0D01*
X5600Y0D01*
X5500Y0D01*
X5400Y0D01*
X5300Y0D01*
X5200Y0D01*
X5100Y0D01*
X5000Y0D01*
X4900Y0D01*
X4800Y0D01*
X4700Y0D01*
X4600Y0D01*
X4500Y0D01*
X4400Y0D01*
X4300Y0D01*
X4200Y0D01*
X4100Y0D01*
X4000Y0D01*
X3900Y0D01*
X3800Y0D01*
X3700Y0D01*
X3600Y0D01*
X3500Y0D01*
X3400Y0D01*
X3300Y0D01*
X3200Y0D01*
X3100Y0D01*
X3000Y0D01*
X2900Y0D01*
X2800Y0D01*
X2700Y0D01*
X2600Y0D01*
X2500Y0D01*
X2400Y0D01*
X2300Y0D01*
X2200Y0D01*
X2100Y0D01*
X2000Y0D01*
X1900Y0D01*
X1800Y0D01*
X1700Y0D01*
X1600Y0D01*
X1500Y0D01*
X1400Y0D01*
X1300Y0D01*
X1200Y0D01*
X1100Y0D01*
X1000Y0D01*
X900Y0D01*
X800Y0D01*
X700Y0D01*
X600Y0D01*
X500Y0D01*
X400Y0D01*
X300Y0D01*
X200Y0D01*
X100Y0D01*
X0Y0D01*
X0Y100D01*
X0Y200D01*
X0Y300D01*
X0Y400D01*
X0Y500D01*
X0Y600D01*
X0Y700D01*
X0Y800D01*
X0Y900D01*
X0Y1000D01*
X0Y1100D01*
X0Y1200D01*
X0Y1300D01*
X0Y1400D01*
X0Y1500D01*
X0Y1600D01*
X0Y1700D01*
X0Y1800D01*
X0Y1900D01*
X0Y2000D01*
X0Y2100D01*
X0Y2200D01*
X0Y2300D01*
X0Y2400D01*
X0Y2500D01*
X0Y2600D01*
X0Y2700D01*
X0Y2800D01*
X0Y2900D01*
X0Y3000D01*
X0Y3100D01*
X0Y3200D01*
X0Y3300D01*
X0Y3400D01*
X0Y3500D01*
X0Y3600D01*
X0Y3700D01*
X0Y3800D01*
X0Y3900D01*
X0Y4000D01*
X0Y4100D01*
X0Y4200D01*
X0Y4300D01*
X0Y4400D01*
X0Y4500D01*
X0Y4600D01*
X0Y4700D01*
X0Y4800D01*
X0Y4900D01*
X0Y5000D01*
X0Y5100D01*
X0Y5200D01*
X0Y5300D01*
X0Y5400D01*
X0Y5500D01*
X0Y5600D01*
X0Y5700D01*
X0Y5800D01*
X0Y5900D01*
X0Y6000D01*
X0Y6100D01*
X0Y6200D01*
X0Y6300D01*
X0Y6400D01*
X0Y6500D01*
X0Y6600D01*
X0Y6700D01*
X0Y6800D01*
X0Y6900D01*
X0Y7000D01*
X0Y7100D01*
X0Y7200D01*
X0Y7300D01*
X0Y7400D01*
X0Y7500D01*
X0Y7600D01*
X0Y7700D01*
X0Y7800D01*
X0Y7900D01*
X0Y8000D01*
X0Y8100D01*
X0Y8200D01*
X0Y8300D01*
X0Y8400D01*
X0Y8500D01*
X0Y8600D01*
X0Y8700D01*
X0Y8800D01*
X0Y8900D01*
X0Y9000D01*
X0Y9100D01*
X0Y9200D01*
X0Y9300D01*
X0Y9400D01*
X0Y9500D01*
X0Y9600D01*
X0Y9700D01*
X0Y9800D01*
X0Y9900D01*
X0Y10000D01*
X0Y10100D01*
X0Y10200D01*
X0Y10300D01*
X0Y10400D01*
X0Y10500D01*
X0Y10600D01*
X0Y10700D01*
X0Y10800D01*
X0Y10900D01*
X0Y11000D01*
X0Y11100D01*
X0Y11200D01*
X0Y11300D01*
X0Y11400D01*
X0Y11500D01*
X0Y11600D01*
X0Y11700D01*
X0Y11800D01*
X0Y11900D01*
X0Y12000D01*
X0Y12100D01*
X0Y12200D01*
X0Y12300D01*
X0Y12400D01*
X0Y12500D01*
X0Y12600D01*
X0Y12700D01*
X0Y12800D01*
X0Y12900D01*
X0Y13000D01*
X0Y13100D01*
X0Y13200D01*
X0Y13300D01*
X0Y13400D01*
X0Y13500D01*
X0Y13600D01*
X0Y13700D01*
X0Y13800D01*
X0Y13900D01*
X0Y14000D01*
X0Y14100D01*
X0Y14200D01*
X0Y14300D01*
X0Y14400D01*
X0Y14500D01*
X0Y14600D01*
X0Y14700D01*
X0Y14800D01*
X0Y14900D01*
X0Y15000D01*
X0Y15100D01*
X0Y15200D01*
X0Y15300D01*
X0Y15400D01*
X0Y15500D01*
X0Y15600D01*
X0Y15700D01*
X0Y15800D01*
X0Y15900D01*
X0Y16000D01*
X0Y16100D01*
X0Y16200D01*
X0Y16300D01*
X0Y16400D01*
X0Y16500D01*
X0Y16600D01*
X0Y16700D01*
X0Y16800D01*
X0Y16900D01*
X0Y17000D01*
X0Y17100D01*
X0Y17200D01*
X0Y17300D01*
X0Y17400D01*
X0Y17500D01*
X0Y17600D01*
X0Y17700D01*
X0Y17800D01*
X0Y17900D01*
X0Y18000D01*
X0Y18100D01*
X0Y18200D01*
X0Y18300D01*
X0Y18400D01*
X0Y18500D01*
X0Y18600D01*
X0Y18700D01*
X0Y18800D01*
X0Y18900D01*
X0Y19000D01*
X0Y19100D01*
X0Y19200D01*
X0Y19300D01*
X0Y19400D01*
X0Y19500D01*
X0Y19600D01*
X0Y19700D01*
X0Y19800D01*
X0Y19900D01*
X0Y20000D01*
X0Y20100D01*
X0Y20200D01*
X0Y20300D01*
X0Y20400D01*
X0Y20500D01*
X0Y20600D01*
X0Y20700D01*
X0Y20800D01*
X0Y20900D01*
X0Y21000D01*
X0Y21100D01*
X0Y21200D01*
X0Y21300D01*
X0Y21400D01*
X0Y21500D01*
X0Y21600D01*
X0Y21700D01*
X0Y21800D01*
X0Y21900D01*
X0Y22000D01*
X0Y22100D01*
X0Y22200D01*
X0Y22300D01*
X0Y22400D01*
X0Y22500D01*
X0Y22600D01*
X0Y22700D01*
X0Y22800D01*
X0Y22900D01*
X0Y23000D01*
X0Y23100D01*
X0Y23200D01*
X0Y23300D01*
X0Y23400D01*
X0Y23500D01*
X0Y23600D01*
X0Y23700D01*
X0Y23800D01*
X0Y23900D01*
X0Y24000D01*
X0Y24100D01*
X0Y24200D01*
X0Y24300D01*
X0Y24400D01*
X0Y24500D01*
X0Y24600D01*
X0Y24700D01*
X0Y24800D01*
X0Y24900D01*
X0Y25000D01*
X0Y25100D01*
X0Y25200D01*
X0Y25300D01*
X0Y25400D01*
X0Y25500D01*
X0Y25600D01*
X0Y25700D01*
X0Y25800D01*
X0Y25900D01*
X0Y26000D01*
X0Y26100D01*
X0Y26200D01*
X0Y26300D01*
X0Y26400D01*
X0Y26500D01*
X0Y26600D01*
X0Y26700D01*
X0Y26800D01*
X0Y26900D01*
X0Y27000D01*
X0Y27100D01*
X0Y27200D01*
X0Y27300D01*
X0Y27400D01*
X0Y27500D01*
X0Y27600D01*
X0Y27700D01*
X0Y27800D01*
X0Y27900D01*
X0Y28000D01*
X0Y28100D01*
X0Y28200D01*
X0Y28300D01*
X0Y28400D01*
X0Y28500D01*
X0Y28600D01*
X0Y28700D01*
X0Y28800D01*
X0Y28900D01*
X0Y29000D01*
X0Y29100D01*
X0Y29200D01*
X0Y29300D01*
X0Y29400D01*
X0Y29500D01*
X0Y29600D01*
X0Y29700D01*
X0Y29800D01*
X0Y29900D01*
X0Y30000D01*
X0Y30100D01*
X0Y30200D01*
X0Y30300D01*
X0Y30400D01*
X0Y30500D01*
X0Y30600D01*
X0Y30700D01*
X0Y30800D01*
X0Y30900D01*
X0Y31000D01*
X0Y31100D01*
X0Y31200D01*
X0Y31300D01*
X0Y31400D01*
X0Y31500D01*
X0Y31600D01*
X0Y31700D01*
X0Y31800D01*
X0Y31900D01*
X0Y32000D01*
X0Y32100D01*
X0Y32200D01*
X0Y32300D01*
X0Y32400D01*
X0Y32500D01*
X0Y32600D01*
X0Y32700D01*
X0Y32800D01*
X0Y32900D01*
X0Y33000D01*
X0Y33100D01*
X0Y33200D01*
X0Y33300D01*
X0Y33400D01*
X0Y33500D01*
X0Y33600D01*
X0Y33700D01*
X0Y33800D01*
X0Y33900D01*
X0Y34000D01*
X0Y34100D01*
X0Y34200D01*
X0Y34300D01*
X0Y34400D01*
X0Y34500D01*
X0Y34600D01*
X0Y34700D01*
X0Y34800D01*
X0Y34900D01*
X0Y35000D01*
X0Y35100D01*
X0Y35200D01*
X0Y35300D01*
X0Y35400D01*
X0Y35500D01*
X0Y35600D01*
X0Y35700D01*
X0Y35800D01*
X0Y35900D01*
X0Y36000D01*
X0Y36100D01*
X0Y36200D01*
X0Y36300D01*
X0Y36400D01*
X0Y36500D01*
X0Y36600D01*
X0Y36700D01*
X0Y36800D01*
X0Y36900D01*
X0Y37000D01*
X0Y37100D01*
X0Y37200D01*
X0Y37300D01*
X0Y37400D01*
X0Y37500D01*
X0Y37600D01*
X0Y37700D01*
X0Y37800D01*
X0Y37900D01*
X0Y38000D01*
X0Y38100D01*
X0Y38200D01*
X0Y38300D01*
X0Y38400D01*
X0Y38500D01*
X0Y38600D01*
X0Y38700D01*
X0Y38800D01*
X0Y38900D01*
X0Y39000D01*
X0Y39100D01*
X0Y39200D01*
X0Y39300D01*
X0Y39400D01*
X0Y39500D01*
X0Y39600D01*
X0Y39700D01*
X0Y39800D01*
X0Y39900D01*
X0Y40000D01*
X0Y40100D01*
X0Y40200D01*
X0Y40300D01*
X0Y40400D01*
X0Y40500D01*
X0Y40600D01*
X0Y40700D01*
X0Y40800D01*
X0Y40900D01*
X0Y41000D01*
X0Y41100D01*
X0Y41200D01*
X0Y41300D01*
X0Y41400D01*
X0Y41500D01*
X0Y41600D01*
X0Y41700D01*
X0Y41800D01*
X0Y41900D01*
X0Y42000D01*
X0Y42100D01*
X0Y42200D01*
X0Y42300D01*
X0Y42400D01*
X0Y42500D01*
X0Y42600D01*
X0Y42700D01*
X0Y42800D01*
X0Y42900D01*
X0Y43000D01*
X0Y43100D01*
X0Y43200D01*
X0Y43300D01*
X0Y43400D01*
X0Y43500D01*
X0Y43600D01*
X0Y43700D01*
X0Y43800D01*
X0Y43900D01*
X0Y44000D01*
X0Y44100D01*
X0Y44200D01*
X0Y44300D01*
X0Y44400D01*
X0Y44500D01*
X0Y44600D01*
X0Y44700D01*
X0Y44800D01*
X0Y44900D01*
X0Y45000D01*
X0Y45100D01*
X0Y45200D01*
X0Y45300D01*
X0Y45400D01*
X0Y45500D01*
X0Y45600D01*
X0Y45700D01*
X0Y45800D01*
X0Y45900D01*
X0Y46000D01*
X0Y46100D01*
X0Y46200D01*
X0Y46300D01*
X0Y46400D01*
X0Y46500D01*
X0Y46600D01*
X0Y46700D01*
X0Y46800D01*
X0Y46900D01*
X0Y47000D01*
X0Y47100D01*
X0Y47200D01*
X0Y47300D01*
X0Y47400D01*
X0Y47500D01*
X0Y47600D01*
X0Y47700D01*
X0Y47800D01*
X0Y47900D01*
X0Y48000D01*
X0Y48100D01*
X0Y48200D01*
X0Y48300D01*
X0Y48400D01*
X0Y48500D01*
X0Y48600D01*
X0Y48700D01*
X0Y48800D01*
X0Y48900D01*
X0Y49000D01*
X0Y49100D01*
X0Y49200D01*
X0Y49300D01*
X0Y49400D01*
X0Y49500D01*
X0Y49600D01*
X0Y49700D01*
X0Y49800D01*
X0Y49900D01*
X0Y50000D01*
X0Y50100D01*
X0Y50200D01*
X0Y50300D01*
X0Y50400D01*
X0Y50500D01*
X0Y50600D01*
X0Y50700D01*
X0Y50800D01*
X0Y50900D01*
X0Y51000D01*
X0Y51100D01*
X0Y51200D01*
X0Y51300D01*
X0Y51400D01*
X0Y51500D01*
X0Y51600D01*
X0Y51700D01*
X0Y51800D01*
X0Y51900D01*
X0Y52000D01*
X0Y52100D01*
X0Y52200D01*
X0Y52300D01*
X0Y52400D01*
X0Y52500D01*
X0Y52600D01*
X0Y52700D01*
X0Y52800D01*
X0Y52900D01*
X0Y53000D01*
X0Y53100D01*
X0Y53200D01*
X0Y53300D01*
X0Y53400D01*
X0Y53500D01*
X0Y53600D01*
X0Y53700D01*
X0Y53800D01*
X0Y53900D01*
X0Y54000D01*
X0Y54100D01*
X0Y54200D01*
X0Y54300D01*
X0Y54400D01*
X0Y54500D01*
X0Y54600D01*
X0Y54700D01*
X0Y54800D01*
X0Y54900D01*
X0Y55000D01*
X0Y55100D01*
X0Y55200D01*
X0Y55300D01*
X0Y55400D01*
X0Y55500D01*
X0Y55600D01*
X0Y55700D01*
X0Y55800D01*
X0Y55900D01*
X0Y56000D01*
X0Y56100D01*
X0Y56200D01*
X0Y56300D01*
X0Y56400D01*
X0Y56500D01*
X0Y56600D01*
X0Y56700D01*
X0Y56800D01*
X0Y56900D01*
X0Y57000D01*
X0Y57100D01*
X0Y57200D01*
X0Y57300D01*
X0Y57400D01*
X0Y57500D01*
X0Y57600D01*
X0Y57700D01*
X0Y57800D01*
X0Y57900D01*
X0Y58000D01*
X100Y58000D01*
X200Y58000D01*
X300Y58000D01*
X400Y58000D01*
X500Y58000D01*
X600Y58000D01*
X700Y58000D01*
X800Y58000D01*
X900Y58000D01*
X1000Y58000D01*
X1100Y58000D01*
X1199Y58000D01*
X1299Y58000D01*
X1399Y58000D01*
X1499Y58000D01*
X1599Y58000D01*
X1699Y58000D01*
X1799Y58000D01*
X1899Y58000D01*
X1999Y58000D01*
X2099Y58000D01*
X2199Y58000D01*
X2299Y58000D01*
X2399Y58000D01*
X2499Y58000D01*
X2599Y58000D01*
X2699Y58000D01*
X2799Y58000D01*
X2899Y58000D01*
X2999Y58000D01*
X3099Y58000D01*
X3199Y58000D01*
X3299Y58000D01*
X3398Y58000D01*
X3498Y58000D01*
X3598Y58000D01*
X3698Y58000D01*
X3798Y58000D01*
X3898Y58000D01*
X3998Y58000D01*
X4098Y58000D01*
X4198Y58000D01*
X4298Y58000D01*
X4398Y58000D01*
X4498Y58000D01*
X4598Y58000D01*
X4698Y58000D01*
X4798Y58000D01*
X4898Y58000D01*
X4998Y58000D01*
X5098Y58000D01*
X5198Y58000D01*
X5298Y58000D01*
X5398Y58000D01*
X5498Y58000D01*
X5597Y58000D01*
X5697Y58000D01*
X5797Y58000D01*
X5897Y58000D01*
X5997Y58000D01*
X6097Y58000D01*
X6197Y58000D01*
X6297Y58000D01*
X6397Y58000D01*
X6497Y58000D01*
X6597Y58000D01*
X6697Y58000D01*
X6797Y58000D01*
X6897Y58000D01*
X6997Y58000D01*
X7097Y58000D01*
X7197Y58000D01*
X7297Y58000D01*
X7397Y58000D01*
X7497Y58000D01*
X7597Y58000D01*
X7697Y58000D01*
X7797Y58000D01*
X7896Y58000D01*
X7996Y58000D01*
X8096Y58000D01*
X8196Y58000D01*
X8296Y58000D01*
X8396Y58000D01*
X8496Y58000D01*
X8596Y58000D01*
X8696Y58000D01*
X8796Y58000D01*
X8896Y58000D01*
X8996Y58000D01*
X9096Y58000D01*
X9196Y58000D01*
X9296Y58000D01*
X9396Y58000D01*
X9496Y58000D01*
X9596Y58000D01*
X9696Y58000D01*
X9796Y58000D01*
X9896Y58000D01*
X9996Y58000D01*
X10096Y58000D01*
X10195Y58000D01*
X10295Y58000D01*
X10395Y58000D01*
X10495Y58000D01*
X10595Y58000D01*
X10695Y58000D01*
X10795Y58000D01*
X10895Y58000D01*
X10995Y58000D01*
X11095Y58000D01*
X11195Y58000D01*
X11295Y58000D01*
X11395Y58000D01*
X11495Y58000D01*
X11595Y58000D01*
X11695Y58000D01*
X11795Y58000D01*
X11895Y58000D01*
X11995Y58000D01*
X12095Y58000D01*
X12195Y58000D01*
X12295Y58000D01*
X12394Y58000D01*
X12494Y58000D01*
X12594Y58000D01*
X12694Y58000D01*
X12794Y58000D01*
X12894Y58000D01*
X12994Y58000D01*
X13094Y58000D01*
X13194Y58000D01*
X13294Y58000D01*
X13394Y58000D01*
X13494Y58000D01*
X13594Y58000D01*
X13694Y58000D01*
X13794Y58000D01*
X13894Y58000D01*
X13994Y58000D01*
X14094Y58000D01*
X14194Y58000D01*
X14294Y58000D01*
X14394Y58000D01*
X14494Y58000D01*
X14593Y58000D01*
X14693Y58000D01*
X14793Y58000D01*
X14893Y58000D01*
X14993Y58000D01*
X15093Y58000D01*
X15193Y58000D01*
X15293Y58000D01*
X15393Y58000D01*
X15493Y58000D01*
X15593Y58000D01*
X15693Y58000D01*
X15793Y58000D01*
X15893Y58000D01*
X15993Y58000D01*
X16093Y58000D01*
X16193Y58000D01*
X16293Y58000D01*
X16393Y58000D01*
X16493Y58000D01*
X16593Y58000D01*
X16693Y58000D01*
X16793Y58000D01*
X16892Y58000D01*
X16992Y58000D01*
X17092Y58000D01*
X17192Y58000D01*
X17292Y58000D01*
X17392Y58000D01*
X17492Y58000D01*
X17592Y58000D01*
X17692Y58000D01*
X17792Y58000D01*
X17892Y58000D01*
X17992Y58000D01*
X18092Y58000D01*
X18192Y58000D01*
X18292Y58000D01*
X18392Y58000D01*
X18492Y58000D01*
X18592Y58000D01*
X18692Y58000D01*
X18792Y58000D01*
X18892Y58000D01*
X18992Y58000D01*
X19092Y58000D01*
X19191Y58000D01*
X19291Y58000D01*
X19391Y58000D01*
X19491Y58000D01*
X19591Y58000D01*
X19691Y58000D01*
X19791Y58000D01*
X19891Y58000D01*
X19991Y58000D01*
X20091Y58000D01*
X20191Y58000D01*
X20291Y58000D01*
X20391Y58000D01*
X20491Y58000D01*
X20591Y58000D01*
X20691Y58000D01*
X20791Y58000D01*
X20891Y58000D01*
X20991Y58000D01*
X21091Y58000D01*
X21191Y58000D01*
X21291Y58000D01*
X21390Y58000D01*
X21490Y58000D01*
X21590Y58000D01*
X21690Y58000D01*
X21790Y58000D01*
X21890Y58000D01*
X21990Y58000D01*
X22090Y58000D01*
X22190Y58000D01*
X22290Y58000D01*
X22390Y58000D01*
X22490Y58000D01*
X22590Y58000D01*
X22690Y58000D01*
X22790Y58000D01*
X22890Y58000D01*
X22990Y58000D01*
X23090Y58000D01*
X23190Y58000D01*
X23290Y58000D01*
X23390Y58000D01*
X23490Y58000D01*
X23590Y58000D01*
X23689Y58000D01*
X23789Y58000D01*
X23889Y58000D01*
X23989Y58000D01*
X24089Y58000D01*
X24189Y58000D01*
X24289Y58000D01*
X24389Y58000D01*
X24489Y58000D01*
X24589Y58000D01*
X24689Y58000D01*
X24789Y58000D01*
X24889Y58000D01*
X24989Y58000D01*
X25089Y58000D01*
X25189Y58000D01*
X25289Y58000D01*
X25389Y58000D01*
X25489Y58000D01*
X25589Y58000D01*
X25689Y58000D01*
X25789Y58000D01*
X25888Y58000D01*
X25988Y58000D01*
X26088Y58000D01*
X26188Y58000D01*
X26288Y58000D01*
X26388Y58000D01*
X26488Y58000D01*
X26588Y58000D01*
X26688Y58000D01*
X26788Y58000D01*
X26888Y58000D01*
X26988Y58000D01*
X27088Y58000D01*
X27188Y58000D01*
X27288Y58000D01*
X27388Y58000D01*
X27488Y58000D01*
X27588Y58000D01*
X27688Y58000D01*
X27788Y58000D01*
X27888Y58000D01*
X27988Y58000D01*
X28088Y58000D01*
X28187Y58000D01*
X28287Y58000D01*
X28387Y58000D01*
X28487Y58000D01*
X28587Y58000D01*
X28687Y58000D01*
X28787Y58000D01*
X28887Y58000D01*
X28987Y58000D01*
X29087Y58000D01*
X29187Y58000D01*
X29287Y58000D01*
X29387Y58000D01*
X29487Y58000D01*
X29587Y58000D01*
X29687Y58000D01*
X29787Y58000D01*
X29887Y58000D01*
X29987Y58000D01*
X30087Y58000D01*
X30187Y58000D01*
X30287Y58000D01*
X30387Y58000D01*
X30486Y58000D01*
X30586Y58000D01*
X30686Y58000D01*
X30786Y58000D01*
X30886Y58000D01*
X30986Y58000D01*
X31086Y58000D01*
X31186Y58000D01*
X31286Y58000D01*
X31386Y58000D01*
X31486Y58000D01*
X31586Y58000D01*
X31686Y58000D01*
X31786Y58000D01*
X31886Y58000D01*
X31986Y58000D01*
X32086Y58000D01*
X32186Y58000D01*
X32286Y58000D01*
X32386Y58000D01*
X32486Y58000D01*
X32586Y58000D01*
X32685Y58000D01*
X32785Y58000D01*
X32885Y58000D01*
X32985Y58000D01*
X33085Y58000D01*
X33185Y58000D01*
X33285Y58000D01*
X33385Y58000D01*
X33485Y58000D01*
X33585Y58000D01*
X33685Y58000D01*
X33785Y58000D01*
X33885Y58000D01*
X33985Y58000D01*
X34085Y58000D01*
X34185Y58000D01*
X34285Y58000D01*
X34385Y58000D01*
X34485Y58000D01*
X34585Y58000D01*
X34685Y58000D01*
X34785Y58000D01*
X34884Y58000D01*
X34984Y58000D01*
X35084Y58000D01*
X35184Y58000D01*
X35284Y58000D01*
X35384Y58000D01*
X35484Y58000D01*
X35584Y58000D01*
X35684Y58000D01*
X35784Y58000D01*
X35884Y58000D01*
X35984Y58000D01*
X36084Y58000D01*
X36184Y58000D01*
X36284Y58000D01*
X36384Y58000D01*
X36484Y58000D01*
X36584Y58000D01*
X36684Y58000D01*
X36784Y58000D01*
X36884Y58000D01*
X36984Y58000D01*
X37084Y58000D01*
X37183Y58000D01*
X37283Y58000D01*
X37383Y58000D01*
X37483Y58000D01*
X37583Y58000D01*
X37683Y58000D01*
X37783Y58000D01*
X37883Y58000D01*
X37983Y58000D01*
X38083Y58000D01*
X38183Y58000D01*
X38283Y58000D01*
X38383Y58000D01*
X38483Y58000D01*
X38583Y58000D01*
X38683Y58000D01*
X38783Y58000D01*
X38883Y58000D01*
X38983Y58000D01*
X39083Y58000D01*
X39183Y58000D01*
X39283Y58000D01*
X39383Y58000D01*
X39482Y58000D01*
X39582Y58000D01*
X39682Y58000D01*
X39782Y58000D01*
X39882Y58000D01*
X39982Y58000D01*
X40082Y58000D01*
X40182Y58000D01*
X40282Y58000D01*
X40382Y58000D01*
X40482Y58000D01*
X40582Y58000D01*
X40682Y58000D01*
X40782Y58000D01*
X40882Y58000D01*
X40982Y58000D01*
X41082Y58000D01*
X41182Y58000D01*
X41282Y58000D01*
X41382Y58000D01*
X41482Y58000D01*
X41582Y58000D01*
X41681Y58000D01*
X41781Y58000D01*
X41881Y58000D01*
X41981Y58000D01*
X42081Y58000D01*
X42181Y58000D01*
X42281Y58000D01*
X42381Y58000D01*
X42481Y58000D01*
X42581Y58000D01*
X42681Y58000D01*
X42781Y58000D01*
X42881Y58000D01*
X42981Y58000D01*
X43081Y58000D01*
X43181Y58000D01*
X43281Y58000D01*
X43381Y58000D01*
X43481Y58000D01*
X43581Y58000D01*
X43681Y58000D01*
X43781Y58000D01*
X43881Y58000D01*
X43980Y58000D01*
X44080Y58000D01*
X44180Y58000D01*
X44280Y58000D01*
X44380Y58000D01*
X44480Y58000D01*
X44580Y58000D01*
X44680Y58000D01*
X44780Y58000D01*
X44880Y58000D01*
X44980Y58000D01*
X45080Y58000D01*
X45180Y58000D01*
X45280Y58000D01*
X45380Y58000D01*
X45480Y58000D01*
X45580Y58000D01*
X45680Y58000D01*
X45780Y58000D01*
X45880Y58000D01*
X45980Y58000D01*
X46080Y58000D01*
X46179Y58000D01*
X46279Y58000D01*
X46379Y58000D01*
X46479Y58000D01*
X46579Y58000D01*
X46679Y58000D01*
X46779Y58000D01*
X46879Y58000D01*
X46979Y58000D01*
X47079Y58000D01*
X47179Y58000D01*
X47279Y58000D01*
X47379Y58000D01*
X47479Y58000D01*
X47579Y58000D01*
X47679Y58000D01*
X47779Y58000D01*
X47879Y58000D01*
X47979Y58000D01*
X48079Y58000D01*
X48179Y58000D01*
X48279Y58000D01*
X48379Y58000D01*
X48478Y58000D01*
X48578Y58000D01*
X48678Y58000D01*
X48778Y58000D01*
X48878Y58000D01*
X48978Y58000D01*
X49078Y58000D01*
X49178Y58000D01*
X49278Y58000D01*
X49378Y58000D01*
X49478Y58000D01*
X49578Y58000D01*
X49678Y58000D01*
X49778Y58000D01*
X49878Y58000D01*
X49978Y58000D01*
X50078Y58000D01*
X50178Y58000D01*
X50278Y58000D01*
X50378Y58000D01*
X50478Y58000D01*
X50578Y58000D01*
X50678Y58000D01*
X50777Y58000D01*
X50877Y58000D01*
X50977Y58000D01*
X51077Y58000D01*
X51177Y58000D01*
X51277Y58000D01*
X51377Y58000D01*
X51477Y58000D01*
X51577Y58000D01*
X51677Y58000D01*
X51777Y58000D01*
X51877Y58000D01*
X51977Y58000D01*
X52077Y58000D01*
X52177Y58000D01*
X52277Y58000D01*
X52377Y58000D01*
X52477Y58000D01*
X52577Y58000D01*
X52677Y58000D01*
X52777Y58000D01*
X52877Y58000D01*
X52976Y58000D01*
X53076Y58000D01*
X53176Y58000D01*
X53276Y58000D01*
X53376Y58000D01*
X53476Y58000D01*
X53576Y58000D01*
X53676Y58000D01*
X53776Y58000D01*
X53876Y58000D01*
X53976Y58000D01*
X54076Y58000D01*
X54176Y58000D01*
X54276Y58000D01*
X54376Y58000D01*
X54476Y58000D01*
X54576Y58000D01*
X54676Y58000D01*
X54776Y58000D01*
X54876Y58000D01*
X54976Y58000D01*
X55076Y58000D01*
X55176Y58000D01*
X55275Y58000D01*
X55375Y58000D01*
X55475Y58000D01*
X55575Y58000D01*
X55675Y58000D01*
X55775Y58000D01*
X55875Y58000D01*
X55975Y58000D01*
X56075Y58000D01*
X56175Y58000D01*
X56275Y58000D01*
X56375Y58000D01*
X56475Y58000D01*
X56575Y58000D01*
X56675Y58000D01*
X56775Y58000D01*
X56875Y58000D01*
X56975Y58000D01*
X57075Y58000D01*
X57175Y58000D01*
X57275Y58000D01*
X57375Y58000D01*
X57474Y58000D01*
X57574Y58000D01*
X57674Y58000D01*
X57774Y58000D01*
X57874Y58000D01*
X57974Y58000D01*
X58074Y58000D01*
X58174Y58000D01*
X58274Y58000D01*
X58374Y58000D01*
X58474Y58000D01*
X58574Y58000D01*
X58674Y58000D01*
X58774Y58000D01*
X58874Y58000D01*
X58974Y58000D01*
X59074Y58000D01*
X59174Y58000D01*
X59274Y58000D01*
X59374Y58000D01*
X59474Y58000D01*
X59574Y58000D01*
X59674Y58000D01*
X59773Y58000D01*
X59873Y58000D01*
X59973Y58000D01*
X60073Y58000D01*
X60173Y58000D01*
X60273Y58000D01*
X60373Y58000D01*
X60473Y58000D01*
X60573Y58000D01*
X60673Y58000D01*
X60773Y58000D01*
X60873Y58000D01*
X60973Y58000D01*
X61073Y58000D01*
X61173Y58000D01*
X61273Y58000D01*
X61373Y58000D01*
X61473Y58000D01*
X61573Y58000D01*
X61673Y58000D01*
X61773Y58000D01*
X61873Y58000D01*
X61973Y58000D01*
X62072Y58000D01*
X62172Y58000D01*
X62272Y58000D01*
X62372Y58000D01*
X62472Y58000D01*
X62572Y58000D01*
X62672Y58000D01*
X62772Y58000D01*
X62872Y58000D01*
X62972Y58000D01*
X63072Y58000D01*
X63172Y58000D01*
X63272Y58000D01*
X63372Y58000D01*
X63472Y58000D01*
X63572Y58000D01*
X63672Y58000D01*
X63772Y58000D01*
X63872Y58000D01*
X63972Y58000D01*
X64072Y58000D01*
X64172Y58000D01*
X64272Y58000D01*
X64371Y58000D01*
X64471Y58000D01*
X64571Y58000D01*
X64671Y58000D01*
X64771Y58000D01*
X64871Y58000D01*
X64971Y58000D01*
X65071Y58000D01*
X65171Y58000D01*
X65271Y58000D01*
X65371Y58000D01*
X65471Y58000D01*
X65571Y58000D01*
X65671Y58000D01*
X65771Y58000D01*
X65871Y58000D01*
X65971Y58000D01*
X66071Y58000D01*
X66171Y58000D01*
X66271Y58000D01*
X66371Y58000D01*
X66471Y58000D01*
X66570Y58000D01*
X66670Y58000D01*
X66770Y58000D01*
X66870Y58000D01*
X66970Y58000D01*
X67070Y58000D01*
X67170Y58000D01*
X67270Y58000D01*
X67370Y58000D01*
X67470Y58000D01*
X67570Y58000D01*
X67670Y58000D01*
X67770Y58000D01*
X67870Y58000D01*
X67970Y58000D01*
X68070Y58000D01*
X68170Y58000D01*
X68270Y58000D01*
X68370Y58000D01*
X68470Y58000D01*
X68570Y58000D01*
X68670Y58000D01*
X68770Y58000D01*
X68869Y58000D01*
X68969Y58000D01*
X69069Y58000D01*
X69169Y58000D01*
X69269Y58000D01*
X69369Y58000D01*
X69469Y58000D01*
X69569Y58000D01*
X69669Y58000D01*
X69769Y58000D01*
X69869Y58000D01*
X69969Y58000D01*
X70069Y58000D01*
X70169Y58000D01*
X70269Y58000D01*
X70369Y58000D01*
X70469Y58000D01*
X70569Y58000D01*
X70669Y58000D01*
X70769Y58000D01*
X70869Y58000D01*
X70969Y58000D01*
X71069Y58000D01*
X71168Y58000D01*
X71268Y58000D01*
X71368Y58000D01*
X71468Y58000D01*
X71568Y58000D01*
X71668Y58000D01*
X71768Y58000D01*
X71868Y58000D01*
X71968Y58000D01*
X72068Y58000D01*
X72168Y58000D01*
X72268Y58000D01*
X72368Y58000D01*
X72468Y58000D01*
X72568Y58000D01*
X72668Y58000D01*
X72768Y58000D01*
X72868Y58000D01*
X72968Y58000D01*
X73068Y58000D01*
X73168Y58000D01*
X73268Y58000D01*
X73368Y58000D01*
X73467Y58000D01*
X73567Y58000D01*
X73667Y58000D01*
X73767Y58000D01*
X73867Y58000D01*
X73967Y58000D01*
X74067Y58000D01*
X74167Y58000D01*
X74267Y58000D01*
X74367Y58000D01*
X74467Y58000D01*
X74567Y58000D01*
X74667Y58000D01*
X74767Y58000D01*
X74867Y58000D01*
X74967Y58000D01*
X75067Y58000D01*
X75167Y58000D01*
X75267Y58000D01*
X75367Y58000D01*
X75467Y58000D01*
X75567Y58000D01*
X75667Y58000D01*
X75766Y58000D01*
X75866Y58000D01*
X75966Y58000D01*
X76066Y58000D01*
X76166Y58000D01*
X76266Y58000D01*
X76366Y58000D01*
X76466Y58000D01*
X76566Y58000D01*
X76666Y58000D01*
X76766Y58000D01*
X76866Y58000D01*
X76966Y58000D01*
X77066Y58000D01*
X77166Y58000D01*
X77266Y58000D01*
X77366Y58000D01*
X77466Y58000D01*
X77566Y58000D01*
X77666Y58000D01*
X77766Y58000D01*
X77866Y58000D01*
X77965Y58000D01*
X78065Y58000D01*
X78165Y58000D01*
X78265Y58000D01*
X78365Y58000D01*
X78465Y58000D01*
X78565Y58000D01*
X78665Y58000D01*
X78765Y58000D01*
X78865Y58000D01*
X78965Y58000D01*
X79065Y58000D01*
X79165Y58000D01*
X79265Y58000D01*
X79365Y58000D01*
X79465Y58000D01*
X79565Y58000D01*
X79665Y58000D01*
X79765Y58000D01*
X79865Y58000D01*
X79965Y58000D01*
X80065Y58000D01*
X80165Y58000D01*
X80264Y58000D01*
X80364Y58000D01*
X80464Y58000D01*
X80564Y58000D01*
X80664Y58000D01*
X80764Y58000D01*
X80864Y58000D01*
X80964Y58000D01*
X81064Y58000D01*
X81164Y58000D01*
X81264Y58000D01*
X81364Y58000D01*
X81464Y58000D01*
X81564Y58000D01*
X81664Y58000D01*
X81764Y58000D01*
X81864Y58000D01*
X81964Y58000D01*
X82064Y58000D01*
X82164Y58000D01*
X82264Y58000D01*
X82364Y58000D01*
X82464Y58000D01*
X82564Y58000D01*
X82663Y58000D01*
X82763Y58000D01*
X82863Y58000D01*
X82963Y58000D01*
X83063Y58000D01*
X83163Y58000D01*
X83263Y58000D01*
X83363Y58000D01*
X83463Y58000D01*
X83563Y58000D01*
X83663Y58000D01*
X83763Y58000D01*
X83863Y58000D01*
X83963Y58000D01*
X84063Y58000D01*
X84163Y58000D01*
X84263Y58000D01*
X84363Y58000D01*
X84463Y58000D01*
X84563Y58000D01*
X84663Y58000D01*
X84763Y58000D01*
X84862Y58000D01*
X84962Y58000D01*
X85062Y58000D01*
X85162Y58000D01*
X85262Y58000D01*
X85362Y58000D01*
X85462Y58000D01*
X85562Y58000D01*
X85662Y58000D01*
X85762Y58000D01*
X85862Y58000D01*
X85962Y58000D01*
X86062Y58000D01*
X86162Y58000D01*
X86262Y58000D01*
X86362Y58000D01*
X86462Y58000D01*
X86562Y58000D01*
X86662Y58000D01*
X86762Y58000D01*
X86862Y58000D01*
X86962Y58000D01*
X87062Y58000D01*
X87162Y58000D01*
X87261Y58000D01*
X87361Y58000D01*
X87461Y58000D01*
X87561Y58000D01*
X87661Y58000D01*
X87761Y58000D01*
X87861Y58000D01*
X87961Y58000D01*
X88061Y58000D01*
X88161Y58000D01*
X88261Y58000D01*
X88361Y58000D01*
X88461Y58000D01*
X88561Y58000D01*
X88661Y58000D01*
X88761Y58000D01*
X88861Y58000D01*
X88961Y58000D01*
X89061Y58000D01*
X89161Y58000D01*
X89261Y58000D01*
X89361Y58000D01*
X89461Y58000D01*
X89561Y58000D01*
X89660Y58000D01*
X89760Y58000D01*
X89860Y58000D01*
X89960Y58000D01*
X90060Y58000D01*
X90160Y58000D01*
X90260Y58000D01*
X90360Y58000D01*
X90460Y58000D01*
X90560Y58000D01*
X90660Y58000D01*
X90760Y58000D01*
X90860Y58000D01*
X90960Y58000D01*
X90960Y57900D01*
X90960Y57800D01*
X90960Y57700D01*
X90960Y57600D01*
X90960Y57500D01*
X90960Y57400D01*
X90960Y57300D01*
X90960Y57200D01*
X90960Y57100D01*
X90960Y57000D01*
X90960Y56900D01*
X90960Y56800D01*
X90960Y56700D01*
X90960Y56600D01*
X90960Y56500D01*
X90960Y56400D01*
X90960Y56300D01*
X90960Y56200D01*
X90960Y56100D01*
X90960Y56000D01*
X90960Y55900D01*
X90960Y55800D01*
X90960Y55700D01*
X90960Y55600D01*
X90960Y55500D01*
X90960Y55400D01*
X90960Y55300D01*
X90960Y55200D01*
X90960Y55100D01*
X90960Y55000D01*
X90960Y54900D01*
X90960Y54800D01*
X90960Y54700D01*
X90960Y54600D01*
X90960Y54500D01*
X90960Y54400D01*
X90960Y54300D01*
X90960Y54200D01*
X90960Y54100D01*
X90960Y54000D01*
X90960Y53900D01*
X90960Y53800D01*
X90960Y53700D01*
X90960Y53600D01*
X90960Y53500D01*
X90960Y53400D01*
X90960Y53300D01*
X90960Y53200D01*
X90960Y53100D01*
X90960Y53000D01*
X90960Y52900D01*
X90960Y52800D01*
X90960Y52700D01*
X90960Y52600D01*
X90960Y52500D01*
X90960Y52400D01*
X90960Y52300D01*
X90960Y52200D01*
X90960Y52100D01*
X90960Y52000D01*
X90960Y51900D01*
X90960Y51800D01*
X90960Y51700D01*
X90960Y51600D01*
X90960Y51500D01*
X90960Y51400D01*
X90960Y51300D01*
X90960Y51200D01*
X90960Y51100D01*
X90960Y51000D01*
X90960Y50900D01*
X90960Y50800D01*
X90960Y50700D01*
X90960Y50600D01*
X90960Y50500D01*
X90960Y50400D01*
X90960Y50300D01*
X90960Y50200D01*
X90960Y50100D01*
X90960Y50000D01*
X90960Y49900D01*
X90960Y49800D01*
X90960Y49700D01*
X90960Y49600D01*
X90960Y49500D01*
X90960Y49400D01*
X90960Y49300D01*
X90960Y49200D01*
X90960Y49100D01*
X90960Y49000D01*
X90960Y48900D01*
X90960Y48800D01*
X90960Y48700D01*
X90960Y48600D01*
X90960Y48500D01*
X90960Y48400D01*
X90960Y48300D01*
X90960Y48200D01*
X90960Y48100D01*
X90960Y48000D01*
X90960Y47900D01*
X90960Y47800D01*
X90960Y47700D01*
X90960Y47600D01*
X90960Y47500D01*
X90960Y47400D01*
X90960Y47300D01*
X90960Y47200D01*
X90960Y47100D01*
X90960Y47000D01*
X90960Y46900D01*
X90960Y46800D01*
X90960Y46700D01*
X90960Y46600D01*
X90960Y46500D01*
X90960Y46400D01*
X90960Y46300D01*
X90960Y46200D01*
X90960Y46100D01*
X90960Y46000D01*
X90960Y45900D01*
X90960Y45800D01*
X90960Y45700D01*
X90960Y45600D01*
X90960Y45500D01*
X90960Y45400D01*
X90960Y45300D01*
X90960Y45200D01*
X90960Y45100D01*
X90960Y45000D01*
X90960Y44900D01*
X90960Y44800D01*
X90960Y44700D01*
X90960Y44600D01*
X90960Y44500D01*
X90960Y44400D01*
X90960Y44300D01*
X90960Y44200D01*
X90960Y44100D01*
X90960Y44000D01*
X90960Y43900D01*
X90960Y43800D01*
X90960Y43700D01*
X90960Y43600D01*
X90960Y43500D01*
X90960Y43400D01*
X90960Y43300D01*
X90960Y43200D01*
X90960Y43100D01*
X90960Y43000D01*
X90960Y42900D01*
X90960Y42800D01*
X90960Y42700D01*
X90960Y42600D01*
X90960Y42500D01*
X90960Y42400D01*
X90960Y42300D01*
X90960Y42200D01*
X90960Y42100D01*
X90960Y42000D01*
X90960Y41900D01*
X90960Y41800D01*
X90960Y41700D01*
X90960Y41600D01*
X90960Y41500D01*
X90960Y41400D01*
X90960Y41300D01*
X90960Y41200D01*
X90960Y41100D01*
X90960Y41000D01*
X90960Y40900D01*
X90960Y40800D01*
X90960Y40700D01*
X90960Y40600D01*
X90960Y40500D01*
X90960Y40400D01*
X90960Y40300D01*
X90960Y40200D01*
X90960Y40100D01*
X90960Y40000D01*
X90960Y39900D01*
X90960Y39800D01*
X90960Y39700D01*
X90960Y39600D01*
X90960Y39500D01*
X90960Y39400D01*
X90960Y39300D01*
X90960Y39200D01*
X90960Y39100D01*
X90960Y39000D01*
X90960Y38900D01*
X90960Y38800D01*
X90960Y38700D01*
X90960Y38600D01*
X90960Y38500D01*
X90960Y38400D01*
X90960Y38300D01*
X90960Y38200D01*
X90960Y38100D01*
X90960Y38000D01*
X90960Y37900D01*
X90960Y37800D01*
X90960Y37700D01*
X90960Y37600D01*
X90960Y37500D01*
X90960Y37400D01*
X90960Y37300D01*
X90960Y37200D01*
X90960Y37100D01*
X90960Y37000D01*
X90960Y36900D01*
X90960Y36800D01*
X90960Y36700D01*
X90960Y36600D01*
X90960Y36500D01*
X90960Y36400D01*
X90960Y36300D01*
X90960Y36200D01*
X90960Y36100D01*
X90960Y36000D01*
X90960Y35900D01*
X90960Y35800D01*
X90960Y35700D01*
X90960Y35600D01*
X90960Y35500D01*
X90960Y35400D01*
X90960Y35300D01*
X90960Y35200D01*
X90960Y35100D01*
X90960Y35000D01*
X90960Y34900D01*
X90960Y34800D01*
X90960Y34700D01*
X90960Y34600D01*
X90960Y34500D01*
X90960Y34400D01*
X90960Y34300D01*
X90960Y34200D01*
X90960Y34100D01*
X90960Y34000D01*
X90960Y33900D01*
X90960Y33800D01*
X90960Y33700D01*
X90960Y33600D01*
X90960Y33500D01*
X90960Y33400D01*
X90960Y33300D01*
X90960Y33200D01*
X90960Y33100D01*
X90960Y33000D01*
X90960Y32900D01*
X90960Y32800D01*
X90960Y32700D01*
X90960Y32600D01*
X90960Y32500D01*
X90960Y32400D01*
X90960Y32300D01*
X90960Y32200D01*
X90960Y32100D01*
X90960Y32000D01*
X90960Y31900D01*
X90960Y31800D01*
X90960Y31700D01*
X90960Y31600D01*
X90960Y31500D01*
X90960Y31400D01*
X90960Y31300D01*
X90960Y31200D01*
X90960Y31100D01*
X90960Y31000D01*
X90960Y30900D01*
X90960Y30800D01*
X90960Y30700D01*
X90960Y30600D01*
X90960Y30500D01*
X90960Y30400D01*
X90960Y30300D01*
X90960Y30200D01*
X90960Y30100D01*
X90960Y30000D01*
X90960Y29900D01*
X90960Y29800D01*
X90960Y29700D01*
X90960Y29600D01*
X90960Y29500D01*
X90960Y29400D01*
X90960Y29300D01*
X90960Y29200D01*
X90960Y29100D01*
X90960Y29000D01*
X90960Y28900D01*
X90960Y28800D01*
X90960Y28700D01*
X90960Y28600D01*
X90960Y28500D01*
X90960Y28400D01*
X90960Y28300D01*
X90960Y28200D01*
X90960Y28100D01*
X90960Y28000D01*
X90960Y27900D01*
X90960Y27800D01*
X90960Y27700D01*
X90960Y27600D01*
X90960Y27500D01*
X90960Y27400D01*
X90960Y27300D01*
X90960Y27200D01*
X90960Y27100D01*
X90960Y27000D01*
X90960Y26900D01*
X90960Y26800D01*
X90960Y26700D01*
X90960Y26600D01*
X90960Y26500D01*
X90960Y26400D01*
X90960Y26300D01*
X90960Y26200D01*
X90960Y26100D01*
X90960Y26000D01*
X90960Y25900D01*
X90960Y25800D01*
X90960Y25700D01*
X90960Y25600D01*
X90960Y25500D01*
X90960Y25400D01*
X90960Y25300D01*
X90960Y25200D01*
X90960Y25100D01*
X90960Y25000D01*
X90960Y24900D01*
X90960Y24800D01*
X90960Y24700D01*
X90960Y24600D01*
X90960Y24500D01*
X90960Y24400D01*
X90960Y24300D01*
X90960Y24200D01*
X90960Y24100D01*
X90960Y24000D01*
X90960Y23900D01*
X90960Y23800D01*
X90960Y23700D01*
X90960Y23600D01*
X90960Y23500D01*
X90960Y23400D01*
X90960Y23300D01*
X90960Y23200D01*
X90960Y23100D01*
X90960Y23000D01*
X90960Y22900D01*
X90960Y22800D01*
X90960Y22700D01*
X90960Y22600D01*
X90960Y22500D01*
X90960Y22400D01*
X90960Y22300D01*
X90960Y22200D01*
X90960Y22100D01*
X90960Y22000D01*
X90960Y21900D01*
X90960Y21800D01*
X90960Y21700D01*
X90960Y21600D01*
X90960Y21500D01*
X90960Y21400D01*
X90960Y21300D01*
X90960Y21200D01*
X90960Y21100D01*
X90960Y21000D01*
X90960Y20900D01*
X90960Y20800D01*
X90960Y20700D01*
X90960Y20600D01*
X90960Y20500D01*
X90960Y20400D01*
X90960Y20300D01*
X90960Y20200D01*
X90960Y20100D01*
X90960Y20000D01*
X90960Y19900D01*
X90960Y19800D01*
X90960Y19700D01*
X90960Y19600D01*
X90960Y19500D01*
X90960Y19400D01*
X90960Y19300D01*
X90960Y19200D01*
X90960Y19100D01*
X90960Y19000D01*
X90960Y18900D01*
X90960Y18800D01*
X90960Y18700D01*
X90960Y18600D01*
X90960Y18500D01*
X90960Y18400D01*
X90960Y18300D01*
X90960Y18200D01*
X90960Y18100D01*
X90960Y18000D01*
X90960Y17900D01*
X90960Y17800D01*
X90960Y17700D01*
X90960Y17600D01*
X90960Y17500D01*
X90960Y17400D01*
X90960Y17300D01*
X90960Y17200D01*
X90960Y17100D01*
X90960Y17000D01*
X90960Y16900D01*
X90960Y16800D01*
X90960Y16700D01*
X90960Y16600D01*
X90960Y16500D01*
X90960Y16400D01*
X90960Y16300D01*
X90960Y16200D01*
X90960Y16100D01*
X90960Y16000D01*
X90960Y15900D01*
X90960Y15800D01*
X90960Y15700D01*
X90960Y15600D01*
X90960Y15500D01*
X90960Y15400D01*
X90960Y15300D01*
X90960Y15200D01*
X90960Y15100D01*
X90960Y15000D01*
X90960Y14900D01*
X90960Y14800D01*
X90960Y14700D01*
X90960Y14600D01*
X90960Y14500D01*
X90960Y14400D01*
X90960Y14300D01*
X90960Y14200D01*
X90960Y14100D01*
X90960Y14000D01*
X90960Y13900D01*
X90960Y13800D01*
X90960Y13700D01*
X90960Y13600D01*
X90960Y13500D01*
X90960Y13400D01*
X90960Y13300D01*
X90960Y13200D01*
X90960Y13100D01*
X90960Y13000D01*
X90960Y12900D01*
X90960Y12800D01*
X90960Y12700D01*
X90960Y12600D01*
X90960Y12500D01*
X90960Y12400D01*
X90960Y12300D01*
X90960Y12200D01*
X90960Y12100D01*
X90960Y12000D01*
X90960Y11900D01*
X90960Y11800D01*
X90960Y11700D01*
X90960Y11600D01*
X90960Y11500D01*
X90960Y11400D01*
X90960Y11300D01*
X90960Y11200D01*
X90960Y11100D01*
X90960Y11000D01*
X90960Y10900D01*
X90960Y10800D01*
X90960Y10700D01*
X90960Y10600D01*
X90960Y10500D01*
X90960Y10400D01*
X90960Y10300D01*
X90960Y10200D01*
X90960Y10100D01*
X90960Y10000D01*
X90960Y9900D01*
X90960Y9800D01*
X90960Y9700D01*
X90960Y9600D01*
X90960Y9500D01*
X90960Y9400D01*
X90960Y9300D01*
X90960Y9200D01*
X90960Y9100D01*
X90960Y9000D01*
X90960Y8900D01*
X90960Y8800D01*
X90960Y8700D01*
X90960Y8600D01*
X90960Y8500D01*
X90960Y8400D01*
X90960Y8300D01*
X90960Y8200D01*
X90960Y8100D01*
X90960Y8000D01*
X90960Y7900D01*
X90960Y7800D01*
X90960Y7700D01*
X90960Y7600D01*
X90960Y7500D01*
X90960Y7400D01*
X90960Y7300D01*
X90960Y7200D01*
X90960Y7100D01*
X90960Y7000D01*
X90960Y6900D01*
X90960Y6800D01*
X90960Y6700D01*
X90960Y6600D01*
X90960Y6500D01*
X90960Y6400D01*
X90960Y6300D01*
X90960Y6200D01*
X90960Y6100D01*
X90960Y6000D01*
X90960Y5900D01*
X90960Y5800D01*
X90960Y5700D01*
X90960Y5600D01*
X90960Y5500D01*
X90960Y5400D01*
X90960Y5300D01*
X90960Y5200D01*
X90960Y5100D01*
X90960Y5000D01*
X90960Y4900D01*
X90960Y4800D01*
X90960Y4700D01*
X90960Y4600D01*
X90960Y4500D01*
X90960Y4400D01*
X90960Y4300D01*
X90960Y4200D01*
X90960Y4100D01*
X90960Y4000D01*
X90960Y3900D01*
X90960Y3800D01*
X90960Y3700D01*
X90960Y3600D01*
X90960Y3500D01*
X90960Y3400D01*
X90960Y3300D01*
X90960Y3200D01*
X90960Y3100D01*
X90960Y3000D01*
X90960Y2900D01*
X90960Y2800D01*
X90960Y2700D01*
X90960Y2600D01*
X90960Y2500D01*
X90960Y2400D01*
X90960Y2300D01*
X90960Y2200D01*
X90960Y2100D01*
X90960Y2000D01*
X90960Y1900D01*
X90960Y1800D01*
X90960Y1700D01*
X90960Y1600D01*
X90960Y1500D01*
X90960Y1400D01*
X90960Y1300D01*
X90960Y1200D01*
X90960Y1100D01*
X90960Y1000D01*
X90960Y900D01*
X90960Y800D01*
X90960Y700D01*
X90960Y600D01*
X90960Y500D01*
X90960Y400D01*
X90960Y300D01*
X90960Y200D01*
X90960Y100D01*
X90960Y0D01*
X90860Y0D01*
X90760Y0D01*
X90660Y0D01*
X90560Y0D01*
X90460Y0D01*
X90360Y0D01*
X90261Y0D01*
X90161Y0D01*
X90061Y0D01*
X89961Y0D01*
X89861Y0D01*
X89761Y0D01*
X89661Y0D01*
X89561Y0D01*
X89461Y0D01*
X89361Y0D01*
X89261Y0D01*
X89161Y0D01*
X89061Y0D01*
X88962Y0D01*
X88862Y0D01*
X88762Y0D01*
X88662Y0D01*
X88562Y0D01*
X88462Y0D01*
X88362Y0D01*
X88262Y0D01*
X88162Y0D01*
X88062Y0D01*
X87962Y0D01*
X87862Y0D01*
X87762Y0D01*
X87663Y0D01*
X87563Y0D01*
X87463Y0D01*
X87363Y0D01*
X87263Y0D01*
X87163Y0D01*
X87063Y0D01*
X86963Y0D01*
X86863Y0D01*
X86763Y0D01*
X86663Y0D01*
X86563Y0D01*
X86463Y0D01*
X86364Y0D01*
X86264Y0D01*
X86164Y0D01*
X86064Y0D01*
X85964Y0D01*
X85864Y0D01*
X85764Y0D01*
X85664Y0D01*
X85564Y0D01*
X85464Y0D01*
X85364Y0D01*
X85264Y0D01*
X85164Y0D01*
X85065Y0D01*
X84965Y0D01*
X84865Y0D01*
X84765Y0D01*
X84665Y0D01*
X84565Y0D01*
X84465Y0D01*
X84365Y0D01*
X84265Y0D01*
X84165Y0D01*
X84065Y0D01*
X83965Y0D01*
X83865Y0D01*
X83766Y0D01*
X83666Y0D01*
X83566Y0D01*
X83466Y0D01*
X83366Y0D01*
X83266Y0D01*
X83166Y0D01*
X83066Y0D01*
X82966Y0D01*
X82866Y0D01*
X82766Y0D01*
X82666Y0D01*
X82566Y0D01*
X82467Y0D01*
X82367Y0D01*
X82267Y0D01*
X82167Y0D01*
X82067Y0D01*
X81967Y0D01*
X81867Y0D01*
X81767Y0D01*
X81667Y0D01*
X81567Y0D01*
X81467Y0D01*
X81367Y0D01*
X81267Y0D01*
X81168Y0D01*
X81068Y0D01*
X80968Y0D01*
X80868Y0D01*
X80768Y0D01*
X80668Y0D01*
X80568Y0D01*
X80468Y0D01*
X80368Y0D01*
X80268Y0D01*
X80168Y0D01*
X80068Y0D01*
X79968Y0D01*
X79869Y0D01*
X79769Y0D01*
X79669Y0D01*
X79569Y0D01*
X79469Y0D01*
X79369Y0D01*
X79269Y0D01*
X79169Y0D01*
X79069Y0D01*
X78969Y0D01*
X78869Y0D01*
X78769Y0D01*
X78669Y0D01*
X78570Y0D01*
X78470Y0D01*
X78370Y0D01*
X78270Y0D01*
X78170Y0D01*
X78070Y0D01*
X77970Y0D01*
X77870Y0D01*
X77770Y0D01*
X77670Y0D01*
X77570Y0D01*
X77470Y0D01*
X77370Y0D01*
X77270Y0D01*
X77171Y0D01*
X77071Y0D01*
X76971Y0D01*
X76871Y0D01*
X76771Y0D01*
X76671Y0D01*
X76571Y0D01*
X76471Y0D01*
X76371Y0D01*
X76271Y0D01*
X76171Y0D01*
X76071Y0D01*
X75971Y0D01*
X75872Y0D01*
X75772Y0D01*
X75672Y0D01*
X75572Y0D01*
X75472Y0D01*
X75372Y0D01*
X75272Y0D01*
X75172Y0D01*
X75072Y0D01*
X74972Y0D01*
X74872Y0D01*
X74772Y0D01*
X74672Y0D01*
X74573Y0D01*
X74473Y0D01*
X74373Y0D01*
X74273Y0D01*
X74173Y0D01*
X74073Y0D01*
X73973Y0D01*
X73873Y0D01*
X73773Y0D01*
X73673Y0D01*
X73573Y0D01*
X73473Y0D01*
X73373Y0D01*
X73274Y0D01*
X73174Y0D01*
X73074Y0D01*
X72974Y0D01*
X72874Y0D01*
X72774Y0D01*
X72674Y0D01*
X72574Y0D01*
X72474Y0D01*
X72374Y0D01*
X72274Y0D01*
X72174Y0D01*
X72074Y0D01*
X71975Y0D01*
X71875Y0D01*
X71775Y0D01*
X71675Y0D01*
X71575Y0D01*
X71475Y0D01*
X71375Y0D01*
X71275Y0D01*
X71175Y0D01*
X71075Y0D01*
X70975Y0D01*
X70875Y0D01*
X70775Y0D01*
X70676Y0D01*
X70576Y0D01*
X70476Y0D01*
X70376Y0D01*
X70276Y0D01*
X70176Y0D01*
X70076Y0D01*
X69976Y0D01*
X69876Y0D01*
X69776Y0D01*
X69676Y0D01*
X69576Y0D01*
X69476Y0D01*
X69377Y0D01*
X69277Y0D01*
X69177Y0D01*
X69077Y0D01*
X68977Y0D01*
X68877Y0D01*
X68777Y0D01*
X68677Y0D01*
X68577Y0D01*
X68477Y0D01*
X68377Y0D01*
X68277Y0D01*
X68177Y0D01*
X68078Y0D01*
X67978Y0D01*
X67878Y0D01*
X67778Y0D01*
X67678Y0D01*
X67578Y0D01*
X67478Y0D01*
X67378Y0D01*
X67278Y0D01*
X67178Y0D01*
X67078Y0D01*
X66978Y0D01*
X66878Y0D01*
X66779Y0D01*
X66679Y0D01*
X66579Y0D01*
X66479Y0D01*
X66379Y0D01*
X66279Y0D01*
X66179Y0D01*
X66079Y0D01*
X65979Y0D01*
X65879Y0D01*
X65779Y0D01*
X65679Y0D01*
X65579Y0D01*
X65480Y0D01*
X65380Y0D01*
X65280Y0D01*
X65180Y0D01*
X65080Y0D01*
X64980Y0D01*
X64880Y0D01*
X64780Y0D01*
X64680Y0D01*
X64580Y0D01*
X64480Y0D01*
X64380Y0D01*
X64280Y0D01*
X64181Y0D01*
X64081Y0D01*
X63981Y0D01*
X63881Y0D01*
X63781Y0D01*
X63681Y0D01*
X63581Y0D01*
X63481Y0D01*
X63381Y0D01*
X63281Y0D01*
X63181Y0D01*
X63081Y0D01*
X62981Y0D01*
X62882Y0D01*
X62782Y0D01*
X62682Y0D01*
X62582Y0D01*
X62482Y0D01*
X62382Y0D01*
X62282Y0D01*
X62182Y0D01*
X62082Y0D01*
X61982Y0D01*
X61882Y0D01*
X61782Y0D01*
X61682Y0D01*
X61582Y0D01*
X61483Y0D01*
X61383Y0D01*
X61283Y0D01*
X61183Y0D01*
X61083Y0D01*
X60983Y0D01*
X60883Y0D01*
X60783Y0D01*
X60683Y0D01*
X60583Y0D01*
X60483Y0D01*
X60383Y0D01*
X60283Y0D01*
X60184Y0D01*
X60084Y0D01*
X59984Y0D01*
X59884Y0D01*
X59784Y0D01*
X59684Y0D01*
X59584Y0D01*
X59484Y0D01*
X59384Y0D01*
X59284Y0D01*
X59184Y0D01*
X59084Y0D01*
X58984Y0D01*
X58885Y0D01*
X58785Y0D01*
X58685Y0D01*
X58585Y0D01*
X58485Y0D01*
X58385Y0D01*
X58285Y0D01*
X58185Y0D01*
X58085Y0D01*
X57985Y0D01*
X57885Y0D01*
X57785Y0D01*
X57685Y0D01*
X57586Y0D01*
X57486Y0D01*
X57386Y0D01*
X57286Y0D01*
X57186Y0D01*
X57086Y0D01*
X56986Y0D01*
X56886Y0D01*
X56786Y0D01*
X56686Y0D01*
X56586Y0D01*
X56486Y0D01*
X56386Y0D01*
X56287Y0D01*
X56187Y0D01*
X56087Y0D01*
X55987Y0D01*
X55887Y0D01*
X55787Y0D01*
X55687Y0D01*
X55587Y0D01*
X55487Y0D01*
X55387Y0D01*
X55287Y0D01*
X55187Y0D01*
X55087Y0D01*
X54988Y0D01*
X54888Y0D01*
X54788Y0D01*
X54688Y0D01*
X54588Y0D01*
X54488Y0D01*
X54388Y0D01*
X54288Y0D01*
X54188Y0D01*
X54088Y0D01*
X53988Y0D01*
X53888Y0D01*
X53788Y0D01*
X53689Y0D01*
X53589Y0D01*
X53489Y0D01*
X53389Y0D01*
X53289Y0D01*
X53189Y0D01*
X53089Y0D01*
X52989Y0D01*
X52889Y0D01*
X52789Y0D01*
X52689Y0D01*
X52589Y0D01*
X52489Y0D01*
X52390Y0D01*
X52290Y0D01*
X52190Y0D01*
X52090Y0D01*
X51990Y0D01*
X51890Y0D01*
X51790Y0D01*
X51690Y0D01*
X51590Y0D01*
X51490Y0D01*
X51390Y0D01*
X51290Y0D01*
X51190Y0D01*
X51090Y0D01*
X50991Y0D01*
X50891Y0D01*
X50791Y0D01*
X50691Y0D01*
X50591Y0D01*
X50491Y0D01*
X50391Y0D01*
X50291Y0D01*
X50191Y0D01*
X50091Y0D01*
X49991Y0D01*
X49891Y0D01*
X49791Y0D01*
X49692Y0D01*
X49592Y0D01*
X49492Y0D01*
X49392Y0D01*
X49292Y0D01*
X49192Y0D01*
X49092Y0D01*
X48992Y0D01*
X48892Y0D01*
X48792Y0D01*
X48692Y0D01*
X48592Y0D01*
X48492Y0D01*
X48393Y0D01*
X48293Y0D01*
X48193Y0D01*
X48093Y0D01*
X47993Y0D01*
X47893Y0D01*
X47793Y0D01*
X47693Y0D01*
X47593Y0D01*
X47493Y0D01*
X47393Y0D01*
X47293Y0D01*
X47193Y0D01*
X47094Y0D01*
X46994Y0D01*
X46894Y0D01*
X46794Y0D01*
X46694Y0D01*
X46594Y0D01*
X46494Y0D01*
X46394Y0D01*
X46294Y0D01*
X46194Y0D01*
X46094Y0D01*
X45994Y0D01*
X45894Y0D01*
X45795Y0D01*
X45695Y0D01*
X45595Y0D01*
X45495Y0D01*
X45395Y0D01*
X45295Y0D01*
X45195Y0D01*
X45095Y0D01*
X44995Y0D01*
X44895Y0D01*
X44795Y0D01*
X44695Y0D01*
X44595Y0D01*
X44496Y0D01*
X44396Y0D01*
X44296Y0D01*
X44196Y0D01*
X44096Y0D01*
X43996Y0D01*
X43896Y0D01*
X43796Y0D01*
X43696Y0D01*
X43596Y0D01*
X43496Y0D01*
X43396Y0D01*
X43296Y0D01*
X43196Y0D01*
X43097Y0D01*
X42997Y0D01*
X42897Y0D01*
X42797Y0D01*
X42697Y0D01*
X42597Y0D01*
X42497Y0D01*
X42397Y0D01*
X42297Y0D01*
X42197Y0D01*
X42097Y0D01*
X41997Y0D01*
X41897Y0D01*
X41798Y0D01*
X41698Y0D01*
X41598Y0D01*
X41498Y0D01*
X41398Y0D01*
X41298Y0D01*
X41198Y0D01*
X41098Y0D01*
X40998Y0D01*
X40898Y0D01*
X40798Y0D01*
X40698Y0D01*
X40598Y0D01*
X40499Y0D01*
X40399Y0D01*
X40299Y0D01*
X40199Y0D01*
X40099Y0D01*
X39999Y0D01*
X39899Y0D01*
X39799Y0D01*
X39699Y0D01*
X39599Y0D01*
X39499Y0D01*
X39399Y0D01*
X39299Y0D01*
X39199Y0D01*
X39100Y0D01*
X39000Y0D01*
X38900Y0D01*
X38800Y0D01*
X38700Y0D01*
X38600Y0D01*
X38500Y0D01*
X38500Y0D01*
D11*
X28293Y47667D02*
X28293Y48333D01*
X28627Y48333D01*
X28738Y48222D01*
X28738Y48111D01*
X28627Y48000D01*
X28293Y48000D01*
D11*
X28627Y48000D02*
X28738Y47889D01*
X28738Y47667D01*
D11*
X29404Y47667D02*
X29099Y47667D01*
X28960Y47806D01*
X28960Y48028D01*
X29099Y48167D01*
X29321Y48167D01*
X29460Y48028D01*
X29460Y47917D01*
X28960Y47917D01*
D11*
X29682Y48333D02*
X29793Y48333D01*
X29793Y47667D01*
D11*
X29682Y47667D02*
X29904Y47667D01*
D11*
X30127Y47778D02*
X30238Y47667D01*
X30516Y47667D01*
X30627Y47778D01*
X30627Y47889D01*
X30516Y48000D01*
X30238Y48000D01*
X30127Y48111D01*
X30127Y48222D01*
X30238Y48333D01*
X30516Y48333D01*
X30627Y48222D01*
D10*
X39979Y40000D02*
X17979Y40000D01*
X17979Y56000D01*
X39979Y56000D01*
X39979Y40000D01*
D12*
X33429Y42000D02*
X33338Y42000D01*
X33247Y42000D01*
X33156Y42000D01*
X33066Y42000D01*
X32975Y42000D01*
X32884Y42000D01*
X32794Y42000D01*
D12*
X32804Y42108D02*
X32804Y42207D01*
X32804Y42306D01*
X32804Y42405D01*
X32804Y42503D01*
X32804Y42602D01*
X32804Y42701D01*
X32804Y42800D01*
X32804Y42899D01*
X32804Y42997D01*
X32804Y43096D01*
X32804Y43195D01*
X32804Y43294D01*
X32804Y43392D01*
X32804Y43491D01*
X32804Y43590D01*
X32804Y43689D01*
X32804Y43788D01*
X32804Y43886D01*
X32804Y43985D01*
X32804Y44084D01*
X32804Y44183D01*
X32804Y44281D01*
X32804Y44380D01*
X32804Y44479D01*
X32804Y44578D01*
X32804Y44676D01*
X32804Y44775D01*
X32804Y44874D01*
X32804Y44973D01*
X32804Y45072D01*
X32804Y45170D01*
X32804Y45269D01*
X32804Y45368D01*
X32804Y45467D01*
X32804Y45566D01*
X32804Y45664D01*
X32804Y45763D01*
X32804Y45862D01*
X32804Y45961D01*
X32804Y46059D01*
X32804Y46158D01*
X32804Y46257D01*
X32804Y46356D01*
X32804Y46455D01*
X32804Y46553D01*
X32804Y46652D01*
X32804Y46751D01*
X32804Y46850D01*
X32804Y46948D01*
X32804Y47047D01*
X32804Y47146D01*
X32804Y47245D01*
X32804Y47344D01*
X32804Y47442D01*
D12*
X32804Y48558D02*
X32804Y48656D01*
X32804Y48755D01*
X32804Y48854D01*
X32804Y48953D01*
X32804Y49052D01*
X32804Y49150D01*
X32804Y49249D01*
X32804Y49348D01*
X32804Y49447D01*
X32804Y49545D01*
X32804Y49644D01*
X32804Y49743D01*
X32804Y49842D01*
X32804Y49941D01*
X32804Y50039D01*
X32804Y50138D01*
X32804Y50237D01*
X32804Y50336D01*
X32804Y50434D01*
X32804Y50533D01*
X32804Y50632D01*
X32804Y50731D01*
X32804Y50830D01*
X32804Y50928D01*
X32804Y51027D01*
X32804Y51126D01*
X32804Y51225D01*
X32804Y51323D01*
X32804Y51422D01*
X32804Y51521D01*
X32804Y51620D01*
X32804Y51719D01*
X32804Y51817D01*
X32804Y51916D01*
X32804Y52015D01*
X32804Y52114D01*
X32804Y52212D01*
X32804Y52311D01*
X32804Y52410D01*
X32804Y52509D01*
X32804Y52608D01*
X32804Y52706D01*
X32804Y52805D01*
X32804Y52904D01*
X32804Y53003D01*
X32804Y53101D01*
X32804Y53200D01*
X32804Y53299D01*
X32804Y53398D01*
X32804Y53497D01*
X32804Y53595D01*
X32804Y53694D01*
X32804Y53793D01*
X32804Y53892D01*
D12*
X32794Y54000D02*
X32884Y54000D01*
X32975Y54000D01*
X33066Y54000D01*
X33156Y54000D01*
X33247Y54000D01*
X33338Y54000D01*
X33429Y54000D01*
D12*
X27588Y48000D02*
X27490Y48000D01*
X27391Y48000D01*
X27293Y48000D01*
X27194Y48000D01*
X27096Y48000D01*
X26997Y48000D01*
X26899Y48000D01*
X26800Y48000D01*
X26702Y48000D01*
X26604Y48000D01*
X26505Y48000D01*
X26407Y48000D01*
X26308Y48000D01*
X26210Y48000D01*
X26111Y48000D01*
X26013Y48000D01*
X25914Y48000D01*
X25816Y48000D01*
X25717Y48000D01*
X25619Y48000D01*
X25520Y48000D01*
X25422Y48000D01*
X25323Y48000D01*
X25225Y48000D01*
X25126Y48000D01*
X25028Y48000D01*
X24929Y48000D01*
X24831Y48000D01*
D13*
X24831Y47969D02*
X24743Y47925D01*
X24655Y47882D01*
X24567Y47839D01*
X24478Y47796D01*
X24390Y47753D01*
X24302Y47710D01*
X24214Y47667D01*
X24126Y47624D01*
X24038Y47581D01*
X23950Y47537D01*
X23862Y47494D01*
X23774Y47451D01*
X23686Y47408D01*
X23597Y47365D01*
D12*
X23429Y44172D02*
X23429Y44272D01*
X23429Y44372D01*
X23429Y44472D01*
X23429Y44572D01*
X23429Y44672D01*
X23429Y44772D01*
X23429Y44872D01*
X23429Y44972D01*
X23429Y45072D01*
X23429Y45171D01*
X23429Y45271D01*
X23429Y45371D01*
X23429Y45471D01*
X23429Y45571D01*
X23429Y45671D01*
X23429Y45771D01*
X23429Y45871D01*
X23429Y45971D01*
X23429Y46071D01*
X23429Y46171D01*
X23429Y46271D01*
X23429Y46371D01*
X23429Y46471D01*
X23429Y46571D01*
X23429Y46671D01*
X23429Y46771D01*
X23429Y46871D01*
X23429Y46971D01*
X23429Y47071D01*
X23429Y47171D01*
X23429Y47271D01*
D12*
X23429Y48666D02*
X23429Y48764D01*
X23429Y48862D01*
X23429Y48959D01*
X23429Y49057D01*
X23429Y49155D01*
X23429Y49252D01*
X23429Y49350D01*
X23429Y49447D01*
X23429Y49545D01*
X23429Y49643D01*
X23429Y49740D01*
X23429Y49838D01*
X23429Y49936D01*
X23429Y50033D01*
X23429Y50131D01*
X23429Y50229D01*
X23429Y50326D01*
X23429Y50424D01*
X23429Y50521D01*
X23429Y50619D01*
X23429Y50717D01*
X23429Y50814D01*
X23429Y50912D01*
X23429Y51010D01*
X23429Y51107D01*
X23429Y51205D01*
X23429Y51302D01*
X23429Y51400D01*
X23429Y51498D01*
X23429Y51595D01*
X23429Y51693D01*
X23429Y51791D01*
D12*
X35505Y48000D02*
X35412Y48000D01*
X35318Y48000D01*
X35225Y48000D01*
X35132Y48000D01*
X35038Y48000D01*
X34945Y48000D01*
X34851Y48000D01*
X34758Y48000D01*
X34664Y48000D01*
X34571Y48000D01*
D10*
D14*
X33829Y47503D02*
X33729Y47503D01*
X33629Y47503D01*
X33529Y47503D01*
X33429Y47503D01*
X33329Y47503D01*
X33229Y47503D01*
X33129Y47503D01*
X33029Y47503D01*
X32929Y47503D01*
X32829Y47503D01*
X32729Y47503D01*
X32629Y47503D01*
X32529Y47503D01*
X32429Y47503D01*
X32329Y47503D01*
X32229Y47503D01*
X32129Y47503D01*
X32029Y47503D01*
X31929Y47503D01*
X31829Y47503D01*
X31829Y47603D01*
X31829Y47703D01*
X31829Y47803D01*
X31829Y47903D01*
X31829Y48003D01*
X31829Y48103D01*
X31829Y48203D01*
X31829Y48303D01*
X31829Y48403D01*
X31829Y48503D01*
X31929Y48503D01*
X32029Y48503D01*
X32129Y48503D01*
X32229Y48503D01*
X32329Y48503D01*
X32429Y48503D01*
X32529Y48503D01*
X32629Y48503D01*
X32729Y48503D01*
X32829Y48503D01*
X32929Y48503D01*
X33029Y48503D01*
X33129Y48503D01*
X33229Y48503D01*
X33329Y48503D01*
X33429Y48503D01*
X33529Y48503D01*
X33629Y48503D01*
X33729Y48503D01*
X33829Y48503D01*
X33829Y48403D01*
X33829Y48303D01*
X33829Y48203D01*
X33829Y48103D01*
X33829Y48003D01*
X33829Y47903D01*
X33829Y47803D01*
X33829Y47703D01*
X33829Y47603D01*
X33829Y47503D01*
D14*
X33802Y48516D02*
X33715Y48473D01*
X33628Y48429D01*
X33541Y48386D01*
X33454Y48342D01*
X33367Y48299D01*
X33280Y48255D01*
X33193Y48212D01*
X33106Y48168D01*
X33019Y48125D01*
X32932Y48081D01*
X32845Y48038D01*
X32758Y47994D01*
X32671Y47951D01*
X32584Y47907D01*
X32497Y47864D01*
X32411Y47820D01*
X32324Y47777D01*
X32237Y47733D01*
X32150Y47690D01*
X32063Y47647D01*
X31976Y47603D01*
X31889Y47560D01*
X31802Y47516D01*
D11*
X37154Y36137D02*
X37154Y36804D01*
D11*
X36932Y36804D02*
X37377Y36804D01*
D11*
X37988Y36470D02*
X37682Y36470D01*
X37599Y36554D01*
X37599Y36720D01*
X37682Y36804D01*
X37904Y36804D01*
X37988Y36720D01*
X37988Y36220D01*
X37904Y36137D01*
X37682Y36137D01*
D10*
X39859Y35954D02*
X39857Y36053D01*
X39851Y36152D01*
X39841Y36251D01*
X39828Y36349D01*
X39810Y36447D01*
X39788Y36544D01*
X39762Y36640D01*
X39732Y36734D01*
X39698Y36827D01*
X39660Y36919D01*
X39619Y37009D01*
X39573Y37097D01*
X39524Y37184D01*
X39471Y37268D01*
X39415Y37349D01*
X39356Y37429D01*
X39293Y37506D01*
X39227Y37580D01*
X39158Y37651D01*
X39086Y37719D01*
X39012Y37785D01*
X38934Y37847D01*
X38855Y37906D01*
X38773Y37962D01*
X38689Y38015D01*
X38602Y38064D01*
X38514Y38109D01*
X38424Y38151D01*
X38333Y38189D01*
X38240Y38224D01*
X38145Y38255D01*
X38050Y38281D01*
X37953Y38304D01*
X37856Y38323D01*
X37758Y38337D01*
X37659Y38348D01*
X37560Y38355D01*
X37461Y38357D01*
X37362Y38355D01*
X37263Y38349D01*
X37164Y38339D01*
X37066Y38324D01*
X36968Y38305D01*
X36872Y38283D01*
X36776Y38256D01*
X36682Y38225D01*
X36589Y38191D01*
X36497Y38152D01*
X36407Y38110D01*
X36319Y38065D01*
X36233Y38016D01*
X36149Y37963D01*
X36067Y37907D01*
X35987Y37848D01*
X35910Y37786D01*
X35836Y37720D01*
X35764Y37651D01*
X35696Y37580D01*
X35630Y37505D01*
X35567Y37428D01*
X35508Y37349D01*
X35452Y37267D01*
X35399Y37183D01*
X35350Y37097D01*
X35305Y37008D01*
X35263Y36918D01*
X35225Y36827D01*
X35191Y36734D01*
X35161Y36639D01*
X35134Y36543D01*
X35112Y36447D01*
X35094Y36349D01*
X35079Y36251D01*
X35069Y36152D01*
X35063Y36053D01*
X35061Y35954D01*
X35063Y35855D01*
X35069Y35756D01*
X35079Y35657D01*
X35092Y35559D01*
X35110Y35461D01*
X35132Y35365D01*
X35158Y35269D01*
X35188Y35174D01*
X35222Y35081D01*
X35260Y34989D01*
X35301Y34899D01*
X35347Y34811D01*
X35396Y34725D01*
X35449Y34641D01*
X35505Y34559D01*
X35564Y34480D01*
X35627Y34403D01*
X35693Y34329D01*
X35762Y34257D01*
X35834Y34189D01*
X35908Y34124D01*
X35986Y34061D01*
X36065Y34002D01*
X36147Y33946D01*
X36231Y33894D01*
X36318Y33845D01*
X36406Y33799D01*
X36496Y33757D01*
X36587Y33719D01*
X36680Y33685D01*
X36775Y33654D01*
X36870Y33627D01*
X36967Y33604D01*
X37064Y33586D01*
X37162Y33571D01*
X37261Y33560D01*
X37360Y33554D01*
X37459Y33552D01*
X37558Y33554D01*
X37657Y33560D01*
X37756Y33570D01*
X37854Y33584D01*
X37952Y33603D01*
X38048Y33626D01*
X38144Y33652D01*
X38238Y33683D01*
X38331Y33718D01*
X38423Y33756D01*
X38513Y33798D01*
X38601Y33844D01*
X38687Y33893D01*
X38771Y33945D01*
X38853Y34001D01*
X38933Y34060D01*
X39010Y34123D01*
X39084Y34188D01*
X39156Y34257D01*
X39224Y34329D01*
X39290Y34403D01*
X39353Y34480D01*
X39412Y34560D01*
X39468Y34642D01*
X39521Y34726D01*
X39570Y34812D01*
X39615Y34900D01*
X39657Y34990D01*
X39695Y35082D01*
X39729Y35175D01*
X39759Y35269D01*
X39786Y35365D01*
X39808Y35462D01*
X39826Y35559D01*
X39841Y35657D01*
X39851Y35756D01*
X39857Y35855D01*
X39859Y35954D01*
X39859Y35954D01*
D10*
X39247Y37517D02*
X39147Y37517D01*
X39047Y37517D01*
X38947Y37517D01*
X38847Y37517D01*
X38747Y37517D01*
X38648Y37517D01*
X38548Y37517D01*
X38448Y37517D01*
X38348Y37517D01*
X38248Y37517D01*
X38148Y37517D01*
X38048Y37517D01*
X37949Y37517D01*
X37849Y37517D01*
X37749Y37517D01*
X37649Y37517D01*
X37549Y37517D01*
X37449Y37517D01*
X37350Y37517D01*
X37250Y37517D01*
X37150Y37517D01*
X37050Y37517D01*
X36950Y37517D01*
X36850Y37517D01*
X36751Y37517D01*
X36651Y37517D01*
X36551Y37517D01*
X36451Y37517D01*
X36351Y37517D01*
X36251Y37517D01*
X36152Y37517D01*
X36052Y37517D01*
X35952Y37517D01*
X35852Y37517D01*
X35752Y37517D01*
X35652Y37517D01*
D11*
X45602Y13894D02*
X45602Y14560D01*
X45935Y14560D01*
X46046Y14449D01*
X46046Y14338D01*
X45935Y14227D01*
X45602Y14227D01*
D11*
X46407Y13894D02*
X46407Y14560D01*
X46352Y14560D01*
X46268Y14449D01*
D11*
X46268Y13894D02*
X46518Y13894D01*
D10*
X30160Y827D02*
X30160Y27627D01*
X61960Y27627D01*
X61960Y827D01*
X30160Y827D01*
D10*
X41030Y20362D02*
X41030Y20537D01*
X41180Y20537D01*
X41280Y20437D01*
X41280Y20187D01*
X41180Y20087D01*
X40780Y20087D01*
X40680Y20187D01*
X40680Y20437D01*
X40780Y20537D01*
X40830Y20537D01*
D10*
X41280Y20737D02*
X40680Y20737D01*
D10*
X40730Y20737D02*
X41105Y21137D01*
D10*
X41280Y21137D02*
X40680Y21137D01*
D10*
X41280Y21337D02*
X40680Y21337D01*
X40680Y21687D01*
X40780Y21787D01*
X41180Y21787D01*
X41280Y21687D01*
X41280Y21337D01*
D10*
X50840Y20087D02*
X51190Y20087D01*
X51440Y20287D01*
X51190Y20487D01*
X50840Y20487D01*
D10*
X51440Y20687D02*
X50840Y20687D01*
X50840Y21037D01*
X50940Y21137D01*
X51340Y21137D01*
X51440Y21037D01*
X51440Y20687D01*
D10*
X51440Y21337D02*
X50840Y21337D01*
X50840Y21687D01*
X50940Y21787D01*
X51340Y21787D01*
X51440Y21687D01*
X51440Y21337D01*
D10*
X56520Y1327D02*
X55920Y1327D01*
D10*
X55970Y1327D02*
X56345Y1727D01*
D10*
X56520Y1727D02*
X55920Y1727D01*
D10*
X36200Y1702D02*
X36200Y1352D01*
X35600Y1352D01*
D11*
X40474Y31833D02*
X40474Y31778D01*
X40363Y31667D01*
X40085Y31667D01*
X39974Y31778D01*
X39974Y32222D01*
X40085Y32333D01*
X40363Y32333D01*
X40474Y32222D01*
X40474Y32167D01*
D11*
X40835Y31667D02*
X40835Y32333D01*
X40779Y32333D01*
X40696Y32222D01*
D11*
X40696Y31667D02*
X40946Y31667D01*
D10*
X42960Y30800D02*
X42958Y30899D01*
X42952Y30999D01*
X42943Y31098D01*
X42930Y31196D01*
X42913Y31294D01*
X42891Y31392D01*
X42866Y31488D01*
X42838Y31583D01*
X42805Y31677D01*
X42768Y31769D01*
X42728Y31860D01*
X42684Y31950D01*
X42637Y32037D01*
X42586Y32122D01*
X42531Y32206D01*
X42474Y32287D01*
X42413Y32365D01*
X42349Y32441D01*
X42282Y32515D01*
X42212Y32586D01*
X42139Y32654D01*
X42064Y32719D01*
X41986Y32781D01*
X41906Y32840D01*
X41824Y32895D01*
X41739Y32948D01*
X41653Y32997D01*
X41564Y33043D01*
X41474Y33085D01*
X41383Y33124D01*
X41290Y33159D01*
X41195Y33191D01*
X41100Y33218D01*
X41003Y33242D01*
X40906Y33262D01*
X40808Y33278D01*
X40709Y33291D01*
X40610Y33299D01*
X40511Y33303D01*
X40411Y33303D01*
X40312Y33299D01*
X40213Y33292D01*
X40114Y33280D01*
X40016Y33264D01*
X39918Y33244D01*
X39822Y33220D01*
X39726Y33192D01*
X39632Y33161D01*
X39539Y33125D01*
X39447Y33086D01*
X39357Y33044D01*
X39269Y32998D01*
X39183Y32949D01*
X39098Y32896D01*
X39016Y32841D01*
X38936Y32782D01*
X38858Y32719D01*
X38783Y32654D01*
X38711Y32586D01*
X38641Y32515D01*
X38574Y32441D01*
X38510Y32365D01*
X38450Y32286D01*
X38392Y32205D01*
X38338Y32122D01*
X38287Y32036D01*
X38240Y31949D01*
X38196Y31860D01*
X38155Y31769D01*
X38119Y31676D01*
X38086Y31582D01*
X38056Y31487D01*
X38031Y31391D01*
X38009Y31294D01*
X37992Y31196D01*
X37978Y31098D01*
X37968Y30999D01*
X37962Y30899D01*
X37960Y30800D01*
X37962Y30701D01*
X37968Y30601D01*
X37977Y30502D01*
X37990Y30404D01*
X38007Y30306D01*
X38029Y30208D01*
X38054Y30112D01*
X38082Y30017D01*
X38115Y29923D01*
X38152Y29831D01*
X38192Y29740D01*
X38236Y29650D01*
X38283Y29563D01*
X38334Y29478D01*
X38389Y29394D01*
X38446Y29313D01*
X38507Y29235D01*
X38571Y29159D01*
X38638Y29085D01*
X38708Y29014D01*
X38781Y28946D01*
X38856Y28881D01*
X38934Y28819D01*
X39014Y28760D01*
X39096Y28705D01*
X39181Y28652D01*
X39267Y28603D01*
X39356Y28557D01*
X39446Y28515D01*
X39537Y28476D01*
X39630Y28441D01*
X39725Y28409D01*
X39820Y28382D01*
X39917Y28358D01*
X40014Y28338D01*
X40112Y28322D01*
X40211Y28309D01*
X40310Y28301D01*
X40409Y28297D01*
X40509Y28297D01*
X40608Y28301D01*
X40707Y28308D01*
X40806Y28320D01*
X40904Y28336D01*
X41002Y28356D01*
X41098Y28380D01*
X41194Y28408D01*
X41288Y28439D01*
X41381Y28475D01*
X41473Y28514D01*
X41563Y28556D01*
X41651Y28602D01*
X41737Y28651D01*
X41822Y28704D01*
X41904Y28759D01*
X41984Y28818D01*
X42062Y28881D01*
X42137Y28946D01*
X42209Y29014D01*
X42279Y29085D01*
X42346Y29159D01*
X42410Y29235D01*
X42470Y29314D01*
X42528Y29395D01*
X42582Y29478D01*
X42633Y29564D01*
X42680Y29651D01*
X42724Y29740D01*
X42765Y29831D01*
X42801Y29924D01*
X42834Y30018D01*
X42864Y30113D01*
X42889Y30209D01*
X42911Y30306D01*
X42928Y30404D01*
X42942Y30502D01*
X42952Y30601D01*
X42958Y30701D01*
X42960Y30800D01*
X42960Y30800D01*
D10*
X39770Y29760D02*
X39770Y29310D01*
D10*
X39770Y29460D02*
X39620Y29310D01*
X39445Y29310D01*
X39320Y29435D01*
X39320Y29760D01*
D10*
X41620Y29910D02*
X41620Y29310D01*
D10*
X41620Y29435D02*
X41495Y29310D01*
X41295Y29310D01*
X41170Y29435D01*
X41170Y29560D01*
X41295Y29685D01*
X41495Y29685D01*
X41620Y29560D01*
D11*
X76413Y11767D02*
X76413Y11794D01*
X76913Y12406D01*
X76913Y12433D01*
D11*
X76413Y12433D02*
X76413Y12406D01*
X76913Y11794D01*
X76913Y11767D01*
D11*
X77135Y11767D02*
X77135Y12433D01*
X77524Y12433D01*
X77635Y12322D01*
X77635Y12211D01*
X77524Y12100D01*
X77135Y12100D01*
D11*
X77524Y12100D02*
X77635Y11989D01*
X77635Y11878D01*
X77524Y11767D01*
X77135Y11767D01*
D11*
X77996Y11767D02*
X77996Y12433D01*
X77941Y12433D01*
X77857Y12322D01*
D11*
X77857Y11767D02*
X78107Y11767D01*
D10*
X73438Y28434D02*
X73538Y28434D01*
X73638Y28434D01*
X73737Y28434D01*
X73837Y28434D01*
X73937Y28434D01*
X74037Y28434D01*
X74136Y28434D01*
X74236Y28434D01*
X74336Y28434D01*
X74435Y28434D01*
X74535Y28434D01*
X74635Y28434D01*
X74735Y28434D01*
X74834Y28434D01*
X74934Y28434D01*
X75034Y28434D01*
X75133Y28434D01*
X75233Y28434D01*
X75333Y28434D01*
X75433Y28434D01*
X75532Y28434D01*
X75632Y28434D01*
X75732Y28434D01*
X75831Y28434D01*
X75931Y28434D01*
X76031Y28434D01*
X76131Y28434D01*
X76230Y28434D01*
X76330Y28434D01*
X76430Y28434D01*
X76529Y28434D01*
X76629Y28434D01*
X76729Y28434D01*
X76829Y28434D01*
X76928Y28434D01*
X77028Y28434D01*
X77128Y28434D01*
X77227Y28434D01*
X77327Y28434D01*
X77427Y28434D01*
X77527Y28434D01*
X77626Y28434D01*
X77726Y28434D01*
X77826Y28434D01*
X77925Y28434D01*
X78025Y28434D01*
X78125Y28434D01*
X78225Y28434D01*
X78324Y28434D01*
X78424Y28434D01*
X78524Y28434D01*
X78624Y28434D01*
X78723Y28434D01*
X78823Y28434D01*
X78923Y28434D01*
X79022Y28434D01*
X79122Y28434D01*
X79222Y28434D01*
X79322Y28434D01*
X79421Y28434D01*
X79521Y28434D01*
X79621Y28434D01*
X79720Y28434D01*
X79820Y28434D01*
X79920Y28434D01*
X80020Y28434D01*
X80119Y28434D01*
X80219Y28434D01*
X80319Y28434D01*
X80418Y28434D01*
X80518Y28434D01*
X80618Y28434D01*
X80718Y28434D01*
X80817Y28434D01*
X80917Y28434D01*
X81017Y28434D01*
X81101Y28383D01*
X81183Y28327D01*
X81265Y28270D01*
X81347Y28213D01*
X81429Y28156D01*
X81511Y28100D01*
X81593Y28043D01*
X81675Y27986D01*
X81757Y27930D01*
X81839Y27873D01*
X81921Y27816D01*
X82003Y27760D01*
X82085Y27703D01*
X82167Y27646D01*
X82249Y27590D01*
X82331Y27533D01*
X82413Y27476D01*
X82495Y27419D01*
X82577Y27363D01*
X82659Y27306D01*
X82741Y27249D01*
X82823Y27193D01*
X82905Y27136D01*
X82987Y27079D01*
X83069Y27023D01*
X83151Y26966D01*
X83233Y26909D01*
X83315Y26852D01*
X83397Y26796D01*
X83480Y26739D01*
X83562Y26682D01*
X83644Y26626D01*
X83726Y26569D01*
X83808Y26512D01*
X83890Y26456D01*
X83972Y26399D01*
X84054Y26342D01*
X84136Y26285D01*
X84218Y26229D01*
X84300Y26172D01*
X84382Y26115D01*
X84464Y26059D01*
X84546Y26002D01*
X84628Y25945D01*
X84710Y25889D01*
X84792Y25832D01*
X84874Y25775D01*
X84956Y25719D01*
X85038Y25662D01*
X85120Y25605D01*
X85202Y25548D01*
X85284Y25492D01*
X85366Y25435D01*
X85448Y25378D01*
X85530Y25322D01*
X85612Y25265D01*
X85694Y25208D01*
X85776Y25152D01*
X85858Y25095D01*
X85940Y25038D01*
X86022Y24981D01*
X86105Y24925D01*
X86187Y24868D01*
X86269Y24811D01*
X86351Y24755D01*
X86433Y24698D01*
X86515Y24641D01*
X86597Y24585D01*
X86679Y24528D01*
X86761Y24471D01*
X86843Y24414D01*
X86925Y24358D01*
X87007Y24301D01*
X87089Y24244D01*
X87171Y24188D01*
X87253Y24131D01*
X87335Y24074D01*
X87417Y24018D01*
X87499Y23961D01*
X87581Y23904D01*
X87663Y23848D01*
X87745Y23791D01*
X87827Y23734D01*
X87909Y23677D01*
X87991Y23621D01*
X88073Y23564D01*
X88155Y23507D01*
X88237Y23451D01*
X88319Y23394D01*
X88401Y23337D01*
X88483Y23281D01*
X88565Y23224D01*
X88647Y23167D01*
X88730Y23110D01*
X88812Y23054D01*
X88894Y22997D01*
X88976Y22940D01*
X89058Y22884D01*
X89140Y22827D01*
X89222Y22770D01*
X89304Y22714D01*
X89386Y22657D01*
X89468Y22600D01*
X89550Y22543D01*
X89632Y22487D01*
X89714Y22430D01*
X89796Y22373D01*
X89878Y22317D01*
X89960Y22260D01*
D10*
X64560Y22260D02*
X64641Y22317D01*
X64723Y22373D01*
X64804Y22430D01*
X64886Y22487D01*
X64967Y22543D01*
X65049Y22600D01*
X65130Y22656D01*
X65212Y22713D01*
X65293Y22770D01*
X65375Y22826D01*
X65456Y22883D01*
X65537Y22940D01*
X65619Y22996D01*
X65700Y23053D01*
X65782Y23110D01*
X65863Y23166D01*
X65945Y23223D01*
X66026Y23280D01*
X66108Y23336D01*
X66189Y23393D01*
X66270Y23449D01*
X66352Y23506D01*
X66433Y23563D01*
X66515Y23619D01*
X66596Y23676D01*
X66678Y23733D01*
X66759Y23789D01*
X66841Y23846D01*
X66922Y23903D01*
X67004Y23959D01*
X67085Y24016D01*
X67166Y24073D01*
X67248Y24129D01*
X67329Y24186D01*
X67411Y24242D01*
X67492Y24299D01*
X67574Y24356D01*
X67655Y24412D01*
X67737Y24469D01*
X67818Y24526D01*
X67899Y24582D01*
X67981Y24639D01*
X68062Y24696D01*
X68144Y24752D01*
X68225Y24809D01*
X68307Y24866D01*
X68388Y24922D01*
X68470Y24979D01*
X68551Y25035D01*
X68633Y25092D01*
X68714Y25149D01*
X68795Y25205D01*
X68877Y25262D01*
X68958Y25319D01*
X69040Y25375D01*
X69121Y25432D01*
X69203Y25489D01*
X69284Y25545D01*
X69366Y25602D01*
X69447Y25659D01*
X69529Y25715D01*
X69610Y25772D01*
X69691Y25828D01*
X69773Y25885D01*
X69854Y25942D01*
X69936Y25998D01*
X70017Y26055D01*
X70099Y26112D01*
X70180Y26168D01*
X70262Y26225D01*
X70343Y26282D01*
X70424Y26338D01*
X70506Y26395D01*
X70587Y26452D01*
X70669Y26508D01*
X70750Y26565D01*
X70832Y26622D01*
X70913Y26678D01*
X70995Y26735D01*
X71076Y26791D01*
X71158Y26848D01*
X71239Y26905D01*
X71320Y26961D01*
X71402Y27018D01*
X71483Y27075D01*
X71565Y27131D01*
X71646Y27188D01*
X71728Y27245D01*
X71809Y27301D01*
X71891Y27358D01*
X71972Y27414D01*
X72054Y27471D01*
X72135Y27528D01*
X72216Y27584D01*
X72298Y27641D01*
X72379Y27698D01*
X72461Y27754D01*
X72542Y27811D01*
X72624Y27868D01*
X72705Y27924D01*
X72787Y27981D01*
X72868Y28038D01*
X72949Y28094D01*
X73031Y28151D01*
X73112Y28208D01*
X73194Y28264D01*
X73275Y28321D01*
X73357Y28377D01*
X73438Y28434D01*
D10*
X64560Y22260D02*
X64560Y22160D01*
X64560Y22060D01*
X64560Y21960D01*
X64560Y21860D01*
X64560Y21760D01*
X64560Y21660D01*
X64560Y21561D01*
X64560Y21461D01*
X64560Y21361D01*
X64560Y21261D01*
X64560Y21161D01*
X64560Y21061D01*
X64560Y20961D01*
X64560Y20861D01*
X64560Y20761D01*
X64560Y20661D01*
X64560Y20561D01*
X64560Y20461D01*
X64560Y20361D01*
X64560Y20262D01*
X64560Y20162D01*
X64560Y20062D01*
X64560Y19962D01*
X64560Y19862D01*
X64560Y19762D01*
X64560Y19662D01*
X64560Y19562D01*
X64560Y19462D01*
X64560Y19362D01*
X64560Y19262D01*
X64560Y19162D01*
X64560Y19062D01*
X64560Y18962D01*
X64560Y18863D01*
X64560Y18763D01*
X64560Y18663D01*
X64560Y18563D01*
X64560Y18463D01*
X64560Y18363D01*
X64560Y18263D01*
X64560Y18163D01*
X64560Y18063D01*
X64560Y17963D01*
X64560Y17863D01*
X64560Y17763D01*
X64560Y17663D01*
X64560Y17564D01*
X64560Y17464D01*
X64560Y17364D01*
X64560Y17264D01*
X64560Y17164D01*
X64560Y17064D01*
X64560Y16964D01*
X64560Y16864D01*
X64560Y16764D01*
X64560Y16664D01*
X64560Y16564D01*
X64560Y16464D01*
X64560Y16364D01*
X64560Y16265D01*
X64560Y16165D01*
X64560Y16065D01*
X64560Y15965D01*
X64560Y15865D01*
X64560Y15765D01*
X64560Y15665D01*
X64560Y15565D01*
X64560Y15465D01*
X64560Y15365D01*
X64560Y15265D01*
X64560Y15165D01*
X64560Y15065D01*
X64560Y14966D01*
X64560Y14866D01*
X64560Y14766D01*
X64560Y14666D01*
X64560Y14566D01*
X64560Y14466D01*
X64560Y14366D01*
X64560Y14266D01*
X64560Y14166D01*
X64560Y14066D01*
X64560Y13966D01*
X64560Y13866D01*
X64560Y13766D01*
X64560Y13666D01*
X64560Y13567D01*
X64560Y13467D01*
X64560Y13367D01*
X64560Y13267D01*
X64560Y13167D01*
X64560Y13067D01*
X64560Y12967D01*
X64560Y12867D01*
X64560Y12767D01*
X64560Y12667D01*
X64560Y12567D01*
X64560Y12467D01*
X64560Y12367D01*
X64560Y12268D01*
X64560Y12168D01*
X64560Y12068D01*
X64560Y11968D01*
X64560Y11868D01*
X64560Y11768D01*
X64560Y11668D01*
X64560Y11568D01*
X64560Y11468D01*
X64560Y11368D01*
X64560Y11268D01*
X64560Y11168D01*
X64560Y11068D01*
X64560Y10969D01*
X64560Y10869D01*
X64560Y10769D01*
X64560Y10669D01*
X64560Y10569D01*
X64560Y10469D01*
X64560Y10369D01*
X64560Y10269D01*
X64560Y10169D01*
X64560Y10069D01*
X64560Y9969D01*
X64560Y9869D01*
X64560Y9769D01*
X64560Y9669D01*
X64560Y9570D01*
X64560Y9470D01*
X64560Y9370D01*
X64560Y9270D01*
X64560Y9170D01*
X64560Y9070D01*
X64560Y8970D01*
X64560Y8870D01*
X64560Y8770D01*
X64560Y8670D01*
X64560Y8570D01*
X64560Y8470D01*
X64560Y8370D01*
X64560Y8271D01*
X64560Y8171D01*
X64560Y8071D01*
X64560Y7971D01*
X64560Y7871D01*
X64560Y7771D01*
X64560Y7671D01*
X64560Y7571D01*
X64560Y7471D01*
X64560Y7371D01*
X64560Y7271D01*
X64560Y7171D01*
X64560Y7071D01*
X64560Y6972D01*
X64560Y6872D01*
X64560Y6772D01*
X64560Y6672D01*
X64560Y6572D01*
X64560Y6472D01*
X64560Y6372D01*
X64560Y6272D01*
X64560Y6172D01*
X64560Y6072D01*
X64560Y5972D01*
X64560Y5872D01*
X64560Y5772D01*
X64560Y5672D01*
X64560Y5573D01*
X64560Y5473D01*
X64560Y5373D01*
X64560Y5273D01*
X64560Y5173D01*
X64560Y5073D01*
X64560Y4973D01*
X64560Y4873D01*
X64560Y4773D01*
X64560Y4673D01*
X64560Y4573D01*
X64560Y4473D01*
X64560Y4373D01*
X64560Y4274D01*
X64560Y4174D01*
X64560Y4074D01*
X64560Y3974D01*
X64560Y3874D01*
X64560Y3774D01*
X64560Y3674D01*
X64560Y3574D01*
X64560Y3474D01*
X64560Y3374D01*
X64560Y3274D01*
X64560Y3174D01*
X64560Y3074D01*
X64560Y2975D01*
X64560Y2875D01*
X64560Y2775D01*
X64560Y2675D01*
X64560Y2575D01*
X64560Y2475D01*
X64560Y2375D01*
X64560Y2275D01*
X64560Y2175D01*
X64560Y2075D01*
X64560Y1975D01*
X64560Y1875D01*
X64560Y1775D01*
X64560Y1675D01*
X64560Y1576D01*
X64560Y1476D01*
X64560Y1376D01*
X64560Y1276D01*
X64560Y1176D01*
X64560Y1076D01*
X64560Y976D01*
X64570Y886D01*
X64669Y886D01*
X64769Y886D01*
X64869Y886D01*
X64969Y886D01*
X65069Y886D01*
X65169Y886D01*
X65269Y886D01*
X65369Y886D01*
X65469Y886D01*
X65569Y886D01*
X65669Y886D01*
X65769Y886D01*
X65869Y886D01*
X65968Y886D01*
X66068Y886D01*
X66168Y886D01*
X66268Y886D01*
X66368Y886D01*
X66468Y886D01*
X66568Y886D01*
X66668Y886D01*
X66768Y886D01*
X66868Y886D01*
X66968Y886D01*
X67068Y886D01*
X67168Y886D01*
X67267Y886D01*
X67367Y886D01*
X67467Y886D01*
X67567Y886D01*
X67667Y886D01*
X67767Y886D01*
X67867Y886D01*
X67967Y886D01*
X68067Y886D01*
X68167Y886D01*
X68267Y886D01*
X68367Y886D01*
X68467Y886D01*
X68567Y886D01*
X68666Y886D01*
X68766Y886D01*
X68866Y886D01*
X68966Y886D01*
X69066Y886D01*
X69166Y886D01*
X69266Y886D01*
X69366Y886D01*
X69466Y886D01*
X69566Y886D01*
X69666Y886D01*
X69766Y886D01*
X69866Y886D01*
X69965Y886D01*
X70065Y886D01*
X70165Y886D01*
X70265Y886D01*
X70365Y886D01*
X70465Y886D01*
X70565Y886D01*
X70665Y886D01*
X70765Y886D01*
X70865Y886D01*
X70965Y886D01*
X71065Y886D01*
X71165Y886D01*
X71264Y886D01*
X71364Y886D01*
X71464Y886D01*
X71564Y886D01*
X71664Y886D01*
X71764Y886D01*
X71864Y886D01*
X71964Y886D01*
X72064Y886D01*
X72164Y886D01*
X72264Y886D01*
X72364Y886D01*
X72464Y886D01*
X72563Y886D01*
X72663Y886D01*
X72763Y886D01*
X72863Y886D01*
X72963Y886D01*
X73063Y886D01*
X73163Y886D01*
X73263Y886D01*
X73363Y886D01*
X73463Y886D01*
X73563Y886D01*
X73663Y886D01*
X73763Y886D01*
X73863Y886D01*
X73962Y886D01*
X74062Y886D01*
X74162Y886D01*
X74262Y886D01*
X74362Y886D01*
X74462Y886D01*
X74562Y886D01*
X74662Y886D01*
X74762Y886D01*
X74862Y886D01*
X74962Y886D01*
X75062Y886D01*
X75162Y886D01*
X75261Y886D01*
X75361Y886D01*
X75461Y886D01*
X75561Y886D01*
X75661Y886D01*
X75761Y886D01*
X75861Y886D01*
X75961Y886D01*
X76061Y886D01*
X76161Y886D01*
X76261Y886D01*
X76361Y886D01*
X76461Y886D01*
X76560Y886D01*
X76660Y886D01*
X76760Y886D01*
X76860Y886D01*
X76960Y886D01*
X77060Y886D01*
X77160Y886D01*
X77260Y886D01*
X77360Y886D01*
X77460Y886D01*
X77560Y886D01*
X77660Y886D01*
X77760Y886D01*
X77859Y886D01*
X77959Y886D01*
X78059Y886D01*
X78159Y886D01*
X78259Y886D01*
X78359Y886D01*
X78459Y886D01*
X78559Y886D01*
X78659Y886D01*
X78759Y886D01*
X78859Y886D01*
X78959Y886D01*
X79059Y886D01*
X79159Y886D01*
X79258Y886D01*
X79358Y886D01*
X79458Y886D01*
X79558Y886D01*
X79658Y886D01*
X79758Y886D01*
X79858Y886D01*
X79958Y886D01*
X80058Y886D01*
X80158Y886D01*
X80258Y886D01*
X80358Y886D01*
X80458Y886D01*
X80557Y886D01*
X80657Y886D01*
X80757Y886D01*
X80857Y886D01*
X80957Y886D01*
X81057Y886D01*
X81157Y886D01*
X81257Y886D01*
X81357Y886D01*
X81457Y886D01*
X81557Y886D01*
X81657Y886D01*
X81757Y886D01*
X81856Y886D01*
X81956Y886D01*
X82056Y886D01*
X82156Y886D01*
X82256Y886D01*
X82356Y886D01*
X82456Y886D01*
X82556Y886D01*
X82656Y886D01*
X82756Y886D01*
X82856Y886D01*
X82956Y886D01*
X83056Y886D01*
X83156Y886D01*
X83255Y886D01*
X83355Y886D01*
X83455Y886D01*
X83555Y886D01*
X83655Y886D01*
X83755Y886D01*
X83855Y886D01*
X83955Y886D01*
X84055Y886D01*
X84155Y886D01*
X84255Y886D01*
X84355Y886D01*
X84455Y886D01*
X84554Y886D01*
X84654Y886D01*
X84754Y886D01*
X84854Y886D01*
X84954Y886D01*
X85054Y886D01*
X85154Y886D01*
X85254Y886D01*
X85354Y886D01*
X85454Y886D01*
X85554Y886D01*
X85654Y886D01*
X85754Y886D01*
X85853Y886D01*
X85953Y886D01*
X86053Y886D01*
X86153Y886D01*
X86253Y886D01*
X86353Y886D01*
X86453Y886D01*
X86553Y886D01*
X86653Y886D01*
X86753Y886D01*
X86853Y886D01*
X86953Y886D01*
X87053Y886D01*
X87153Y886D01*
X87252Y886D01*
X87352Y886D01*
X87452Y886D01*
X87552Y886D01*
X87652Y886D01*
X87752Y886D01*
X87852Y886D01*
X87952Y886D01*
X88052Y886D01*
X88152Y886D01*
X88252Y886D01*
X88352Y886D01*
X88452Y886D01*
X88551Y886D01*
X88651Y886D01*
X88751Y886D01*
X88851Y886D01*
X88951Y886D01*
X89051Y886D01*
X89151Y886D01*
X89251Y886D01*
X89351Y886D01*
X89451Y886D01*
X89551Y886D01*
X89651Y886D01*
X89751Y886D01*
X89851Y886D01*
X89950Y886D01*
X89960Y976D01*
X89960Y1076D01*
X89960Y1176D01*
X89960Y1276D01*
X89960Y1376D01*
X89960Y1476D01*
X89960Y1576D01*
X89960Y1675D01*
X89960Y1775D01*
X89960Y1875D01*
X89960Y1975D01*
X89960Y2075D01*
X89960Y2175D01*
X89960Y2275D01*
X89960Y2375D01*
X89960Y2475D01*
X89960Y2575D01*
X89960Y2675D01*
X89960Y2775D01*
X89960Y2875D01*
X89960Y2974D01*
X89960Y3074D01*
X89960Y3174D01*
X89960Y3274D01*
X89960Y3374D01*
X89960Y3474D01*
X89960Y3574D01*
X89960Y3674D01*
X89960Y3774D01*
X89960Y3874D01*
X89960Y3974D01*
X89960Y4074D01*
X89960Y4174D01*
X89960Y4273D01*
X89960Y4373D01*
X89960Y4473D01*
X89960Y4573D01*
X89960Y4673D01*
X89960Y4773D01*
X89960Y4873D01*
X89960Y4973D01*
X89960Y5073D01*
X89960Y5173D01*
X89960Y5273D01*
X89960Y5373D01*
X89960Y5473D01*
X89960Y5573D01*
X89960Y5672D01*
X89960Y5772D01*
X89960Y5872D01*
X89960Y5972D01*
X89960Y6072D01*
X89960Y6172D01*
X89960Y6272D01*
X89960Y6372D01*
X89960Y6472D01*
X89960Y6572D01*
X89960Y6672D01*
X89960Y6772D01*
X89960Y6872D01*
X89960Y6971D01*
X89960Y7071D01*
X89960Y7171D01*
X89960Y7271D01*
X89960Y7371D01*
X89960Y7471D01*
X89960Y7571D01*
X89960Y7671D01*
X89960Y7771D01*
X89960Y7871D01*
X89960Y7971D01*
X89960Y8071D01*
X89960Y8171D01*
X89960Y8270D01*
X89960Y8370D01*
X89960Y8470D01*
X89960Y8570D01*
X89960Y8670D01*
X89960Y8770D01*
X89960Y8870D01*
X89960Y8970D01*
X89960Y9070D01*
X89960Y9170D01*
X89960Y9270D01*
X89960Y9370D01*
X89960Y9470D01*
X89960Y9569D01*
X89960Y9669D01*
X89960Y9769D01*
X89960Y9869D01*
X89960Y9969D01*
X89960Y10069D01*
X89960Y10169D01*
X89960Y10269D01*
X89960Y10369D01*
X89960Y10469D01*
X89960Y10569D01*
X89960Y10669D01*
X89960Y10769D01*
X89960Y10869D01*
X89960Y10968D01*
X89960Y11068D01*
X89960Y11168D01*
X89960Y11268D01*
X89960Y11368D01*
X89960Y11468D01*
X89960Y11568D01*
X89960Y11668D01*
X89960Y11768D01*
X89960Y11868D01*
X89960Y11968D01*
X89960Y12068D01*
X89960Y12168D01*
X89960Y12267D01*
X89960Y12367D01*
X89960Y12467D01*
X89960Y12567D01*
X89960Y12667D01*
X89960Y12767D01*
X89960Y12867D01*
X89960Y12967D01*
X89960Y13067D01*
X89960Y13167D01*
X89960Y13267D01*
X89960Y13367D01*
X89960Y13467D01*
X89960Y13566D01*
X89960Y13666D01*
X89960Y13766D01*
X89960Y13866D01*
X89960Y13966D01*
X89960Y14066D01*
X89960Y14166D01*
X89960Y14266D01*
X89960Y14366D01*
X89960Y14466D01*
X89960Y14566D01*
X89960Y14666D01*
X89960Y14766D01*
X89960Y14865D01*
X89960Y14965D01*
X89960Y15065D01*
X89960Y15165D01*
X89960Y15265D01*
X89960Y15365D01*
X89960Y15465D01*
X89960Y15565D01*
X89960Y15665D01*
X89960Y15765D01*
X89960Y15865D01*
X89960Y15965D01*
X89960Y16065D01*
X89960Y16165D01*
X89960Y16264D01*
X89960Y16364D01*
X89960Y16464D01*
X89960Y16564D01*
X89960Y16664D01*
X89960Y16764D01*
X89960Y16864D01*
X89960Y16964D01*
X89960Y17064D01*
X89960Y17164D01*
X89960Y17264D01*
X89960Y17364D01*
X89960Y17464D01*
X89960Y17563D01*
X89960Y17663D01*
X89960Y17763D01*
X89960Y17863D01*
X89960Y17963D01*
X89960Y18063D01*
X89960Y18163D01*
X89960Y18263D01*
X89960Y18363D01*
X89960Y18463D01*
X89960Y18563D01*
X89960Y18663D01*
X89960Y18763D01*
X89960Y18863D01*
X89960Y18962D01*
X89960Y19062D01*
X89960Y19162D01*
X89960Y19262D01*
X89960Y19362D01*
X89960Y19462D01*
X89960Y19562D01*
X89960Y19662D01*
X89960Y19762D01*
X89960Y19862D01*
X89960Y19962D01*
X89960Y20062D01*
X89960Y20162D01*
X89960Y20261D01*
X89960Y20361D01*
X89960Y20461D01*
X89960Y20561D01*
X89960Y20661D01*
X89960Y20761D01*
X89960Y20861D01*
X89960Y20961D01*
X89960Y21061D01*
X89960Y21161D01*
X89960Y21261D01*
X89960Y21361D01*
X89960Y21461D01*
X89960Y21560D01*
X89960Y21660D01*
X89960Y21760D01*
X89960Y21860D01*
X89960Y21960D01*
X89960Y22060D01*
X89960Y22160D01*
X89960Y22260D01*
D11*
X11494Y42572D02*
X11494Y43238D01*
D11*
X11272Y43238D02*
X11716Y43238D01*
D11*
X12077Y42572D02*
X12077Y43238D01*
X12022Y43238D01*
X11938Y43127D01*
D11*
X11938Y42572D02*
X12188Y42572D01*
D10*
X14129Y42389D02*
X14127Y42488D01*
X14121Y42587D01*
X14111Y42686D01*
X14098Y42784D01*
X14080Y42882D01*
X14058Y42979D01*
X14032Y43074D01*
X14002Y43169D01*
X13968Y43262D01*
X13930Y43354D01*
X13889Y43444D01*
X13843Y43532D01*
X13794Y43618D01*
X13741Y43702D01*
X13685Y43784D01*
X13626Y43864D01*
X13563Y43940D01*
X13497Y44014D01*
X13428Y44086D01*
X13356Y44154D01*
X13282Y44220D01*
X13204Y44282D01*
X13125Y44341D01*
X13043Y44397D01*
X12959Y44450D01*
X12872Y44499D01*
X12784Y44544D01*
X12694Y44586D01*
X12603Y44624D01*
X12510Y44659D01*
X12415Y44689D01*
X12320Y44716D01*
X12223Y44739D01*
X12126Y44758D01*
X12028Y44772D01*
X11929Y44783D01*
X11830Y44789D01*
X11731Y44792D01*
X11632Y44790D01*
X11533Y44784D01*
X11434Y44773D01*
X11336Y44759D01*
X11238Y44740D01*
X11142Y44718D01*
X11046Y44691D01*
X10952Y44660D01*
X10859Y44626D01*
X10767Y44587D01*
X10677Y44545D01*
X10589Y44500D01*
X10503Y44451D01*
X10419Y44398D01*
X10337Y44342D01*
X10257Y44283D01*
X10180Y44220D01*
X10106Y44155D01*
X10034Y44086D01*
X9966Y44015D01*
X9900Y43940D01*
X9837Y43863D01*
X9778Y43784D01*
X9722Y43702D01*
X9669Y43618D01*
X9620Y43531D01*
X9575Y43443D01*
X9533Y43353D01*
X9495Y43261D01*
X9461Y43168D01*
X9431Y43074D01*
X9404Y42978D01*
X9382Y42882D01*
X9364Y42784D01*
X9349Y42686D01*
X9339Y42587D01*
X9333Y42488D01*
X9331Y42389D01*
X9333Y42290D01*
X9339Y42191D01*
X9349Y42092D01*
X9362Y41994D01*
X9380Y41896D01*
X9402Y41799D01*
X9428Y41704D01*
X9458Y41609D01*
X9492Y41516D01*
X9530Y41424D01*
X9571Y41334D01*
X9617Y41246D01*
X9666Y41160D01*
X9719Y41076D01*
X9775Y40994D01*
X9834Y40914D01*
X9897Y40838D01*
X9963Y40764D01*
X10032Y40692D01*
X10104Y40624D01*
X10178Y40558D01*
X10256Y40496D01*
X10335Y40437D01*
X10417Y40381D01*
X10501Y40328D01*
X10588Y40279D01*
X10676Y40234D01*
X10766Y40192D01*
X10857Y40154D01*
X10950Y40119D01*
X11045Y40089D01*
X11140Y40062D01*
X11237Y40039D01*
X11334Y40020D01*
X11432Y40006D01*
X11531Y39995D01*
X11630Y39989D01*
X11729Y39986D01*
X11828Y39988D01*
X11927Y39994D01*
X12026Y40005D01*
X12124Y40019D01*
X12222Y40038D01*
X12318Y40060D01*
X12414Y40087D01*
X12508Y40118D01*
X12601Y40152D01*
X12693Y40191D01*
X12783Y40233D01*
X12871Y40278D01*
X12957Y40327D01*
X13041Y40380D01*
X13123Y40436D01*
X13203Y40495D01*
X13280Y40558D01*
X13354Y40623D01*
X13426Y40692D01*
X13494Y40763D01*
X13560Y40838D01*
X13623Y40915D01*
X13682Y40994D01*
X13738Y41076D01*
X13791Y41160D01*
X13840Y41247D01*
X13885Y41335D01*
X13927Y41425D01*
X13965Y41517D01*
X13999Y41610D01*
X14029Y41704D01*
X14056Y41800D01*
X14078Y41896D01*
X14096Y41994D01*
X14111Y42092D01*
X14121Y42191D01*
X14127Y42290D01*
X14129Y42389D01*
X14129Y42389D01*
D10*
X13517Y43952D02*
X13417Y43952D01*
X13317Y43952D01*
X13217Y43952D01*
X13117Y43952D01*
X13017Y43952D01*
X12918Y43952D01*
X12818Y43952D01*
X12718Y43952D01*
X12618Y43952D01*
X12518Y43952D01*
X12418Y43952D01*
X12318Y43952D01*
X12219Y43952D01*
X12119Y43952D01*
X12019Y43952D01*
X11919Y43952D01*
X11819Y43952D01*
X11719Y43952D01*
X11620Y43952D01*
X11520Y43952D01*
X11420Y43952D01*
X11320Y43952D01*
X11220Y43952D01*
X11120Y43952D01*
X11021Y43952D01*
X10921Y43952D01*
X10821Y43952D01*
X10721Y43952D01*
X10621Y43952D01*
X10521Y43952D01*
X10422Y43952D01*
X10322Y43952D01*
X10222Y43952D01*
X10122Y43952D01*
X10022Y43952D01*
X9922Y43952D01*
D11*
X31904Y33211D02*
X31904Y33878D01*
X32293Y33878D01*
X32404Y33767D01*
X32404Y33322D01*
X32293Y33211D01*
X31904Y33211D01*
D11*
X32627Y33767D02*
X32627Y33795D01*
X32710Y33878D01*
X32932Y33878D01*
X33016Y33795D01*
X33016Y33600D01*
X32627Y33211D01*
X33016Y33211D01*
D15*
X33380Y35627D02*
X33380Y31463D01*
D15*
X33380Y35627D02*
X31540Y35627D01*
D15*
X31540Y31463D02*
X31540Y35627D01*
D15*
X31540Y31463D02*
X33380Y31463D01*
D15*
X32460Y32910D02*
X32460Y33545D01*
D15*
X31825Y34561D02*
X33095Y34561D01*
D15*
X33095Y34561D02*
X32460Y33545D01*
D15*
X32460Y33545D02*
X32460Y35069D01*
D15*
X32460Y33545D02*
X31825Y34561D01*
D15*
X31825Y33545D02*
X32460Y33545D01*
D15*
X32460Y33545D02*
X33095Y33545D01*
D16*
X31540Y31894D02*
X31540Y32402D01*
X33410Y32402D01*
X33410Y31894D01*
X31540Y31894D01*
G36*
X31540Y31894D02*
X31540Y32402D01*
X33410Y32402D01*
X33410Y31894D01*
X31540Y31894D01*
G37*
D16*
X32035Y35627D02*
X32035Y36262D01*
X32885Y36262D01*
X32885Y35627D01*
X32035Y35627D01*
G36*
X32035Y35627D02*
X32035Y36262D01*
X32885Y36262D01*
X32885Y35627D01*
X32035Y35627D01*
G37*
D16*
X32035Y30828D02*
X32035Y31463D01*
X32885Y31463D01*
X32885Y30828D01*
X32035Y30828D01*
G36*
X32035Y30828D02*
X32035Y31463D01*
X32885Y31463D01*
X32885Y30828D01*
X32035Y30828D01*
G37*
D11*
X11674Y35538D02*
X11674Y35483D01*
X11563Y35372D01*
X11286Y35372D01*
X11174Y35483D01*
X11174Y35927D01*
X11286Y36038D01*
X11563Y36038D01*
X11674Y35927D01*
X11674Y35872D01*
D11*
X11897Y35927D02*
X11897Y35955D01*
X11980Y36038D01*
X12202Y36038D01*
X12286Y35955D01*
X12286Y35761D01*
X11897Y35372D01*
X12286Y35372D01*
D10*
X13923Y37679D02*
X13923Y30411D01*
X9537Y30411D01*
X9537Y37679D01*
X13923Y37679D01*
D11*
X6680Y45667D02*
X6680Y46333D01*
X7014Y46333D01*
X7125Y46222D01*
X7125Y46111D01*
X7014Y46000D01*
X6680Y46000D01*
D11*
X7014Y46000D02*
X7125Y45889D01*
X7125Y45667D01*
D11*
X7680Y45667D02*
X7680Y46333D01*
X7625Y46333D01*
X7347Y45917D01*
X7347Y45806D01*
X7736Y45806D01*
D10*
X7208Y49150D02*
X7208Y49056D01*
X7208Y48962D01*
X7208Y48867D01*
X7208Y48773D01*
X7208Y48679D01*
X7208Y48585D01*
X7208Y48491D01*
X7208Y48397D01*
X7208Y48303D01*
X7208Y48208D01*
D10*
X8070Y48208D02*
X8070Y43792D01*
X6346Y43792D01*
X6346Y48208D01*
X8070Y48208D01*
D10*
D10*
X7142Y43792D02*
X7142Y43697D01*
X7142Y43603D01*
X7142Y43509D01*
X7142Y43415D01*
X7142Y43321D01*
X7142Y43227D01*
X7142Y43133D01*
X7142Y43038D01*
X7142Y42944D01*
X7142Y42850D01*
D11*
X51229Y48207D02*
X51229Y48873D01*
X51562Y48873D01*
X51674Y48762D01*
X51674Y48651D01*
X51562Y48540D01*
X51229Y48540D01*
D11*
X51562Y48540D02*
X51674Y48429D01*
X51674Y48207D01*
D11*
X51896Y48762D02*
X51896Y48790D01*
X51979Y48873D01*
X52201Y48873D01*
X52285Y48790D01*
X52285Y48679D01*
X52146Y48540D01*
X52285Y48401D01*
X52285Y48290D01*
X52201Y48207D01*
X51979Y48207D01*
X51896Y48290D01*
X51896Y48318D01*
D11*
X52062Y48540D02*
X52146Y48540D01*
D10*
X51757Y45390D02*
X51757Y45484D01*
X51757Y45578D01*
X51757Y45673D01*
X51757Y45767D01*
X51757Y45861D01*
X51757Y45955D01*
X51757Y46049D01*
X51757Y46143D01*
X51757Y46237D01*
X51757Y46332D01*
D10*
X50895Y46332D02*
X50895Y50748D01*
X52619Y50748D01*
X52619Y46332D01*
X50895Y46332D01*
D10*
D10*
X51823Y50748D02*
X51823Y50843D01*
X51823Y50937D01*
X51823Y51031D01*
X51823Y51125D01*
X51823Y51219D01*
X51823Y51313D01*
X51823Y51407D01*
X51823Y51502D01*
X51823Y51596D01*
X51823Y51690D01*
D11*
X55932Y48207D02*
X55932Y48873D01*
X56266Y48873D01*
X56377Y48762D01*
X56377Y48651D01*
X56266Y48540D01*
X55932Y48540D01*
D11*
X56266Y48540D02*
X56377Y48429D01*
X56377Y48207D01*
D11*
X56766Y48207D02*
X56766Y48429D01*
X56988Y48762D01*
X56988Y48873D01*
X56599Y48873D01*
D10*
X56460Y45390D02*
X56460Y45484D01*
X56460Y45578D01*
X56460Y45673D01*
X56460Y45767D01*
X56460Y45861D01*
X56460Y45955D01*
X56460Y46049D01*
X56460Y46143D01*
X56460Y46237D01*
X56460Y46332D01*
D10*
X55598Y46332D02*
X55598Y50748D01*
X57322Y50748D01*
X57322Y46332D01*
X55598Y46332D01*
D10*
D10*
X56526Y50748D02*
X56526Y50843D01*
X56526Y50937D01*
X56526Y51031D01*
X56526Y51125D01*
X56526Y51219D01*
X56526Y51313D01*
X56526Y51407D01*
X56526Y51502D01*
X56526Y51596D01*
X56526Y51690D01*
D11*
X4199Y45667D02*
X4199Y46333D01*
X4533Y46333D01*
X4644Y46222D01*
X4644Y46111D01*
X4533Y46000D01*
X4199Y46000D01*
D11*
X4533Y46000D02*
X4644Y45889D01*
X4644Y45667D01*
D11*
X4866Y46222D02*
X4866Y46250D01*
X4949Y46333D01*
X5171Y46333D01*
X5255Y46250D01*
X5255Y46056D01*
X4866Y45667D01*
X5255Y45667D01*
D10*
X4727Y49150D02*
X4727Y49056D01*
X4727Y48962D01*
X4727Y48867D01*
X4727Y48773D01*
X4727Y48679D01*
X4727Y48585D01*
X4727Y48491D01*
X4727Y48397D01*
X4727Y48303D01*
X4727Y48208D01*
D10*
X5589Y48208D02*
X5589Y43792D01*
X3865Y43792D01*
X3865Y48208D01*
X5589Y48208D01*
D10*
D10*
X4661Y43792D02*
X4661Y43697D01*
X4661Y43603D01*
X4661Y43509D01*
X4661Y43415D01*
X4661Y43321D01*
X4661Y43227D01*
X4661Y43133D01*
X4661Y43038D01*
X4661Y42944D01*
X4661Y42850D01*
D11*
X1907Y45667D02*
X1907Y46333D01*
X2240Y46333D01*
X2351Y46222D01*
X2351Y46111D01*
X2240Y46000D01*
X1907Y46000D01*
D11*
X2240Y46000D02*
X2351Y45889D01*
X2351Y45667D01*
D11*
X2712Y45667D02*
X2712Y46333D01*
X2657Y46333D01*
X2573Y46222D01*
D11*
X2573Y45667D02*
X2823Y45667D01*
D10*
X2365Y49150D02*
X2365Y49056D01*
X2365Y48962D01*
X2365Y48867D01*
X2365Y48773D01*
X2365Y48679D01*
X2365Y48585D01*
X2365Y48491D01*
X2365Y48397D01*
X2365Y48303D01*
X2365Y48208D01*
D10*
X3227Y48208D02*
X3227Y43792D01*
X1503Y43792D01*
X1503Y48208D01*
X3227Y48208D01*
D10*
D10*
X2299Y43792D02*
X2299Y43697D01*
X2299Y43603D01*
X2299Y43509D01*
X2299Y43415D01*
X2299Y43321D01*
X2299Y43227D01*
X2299Y43133D01*
X2299Y43038D01*
X2299Y42944D01*
X2299Y42850D01*
D11*
X23427Y10333D02*
X23427Y9944D01*
X23649Y9667D01*
X23871Y9944D01*
X23871Y10333D01*
D11*
X24093Y10222D02*
X24093Y10250D01*
X24177Y10333D01*
X24399Y10333D01*
X24482Y10250D01*
X24482Y10056D01*
X24093Y9667D01*
X24482Y9667D01*
D10*
X18249Y18427D02*
X29660Y18427D01*
X29660Y3427D01*
X18249Y3427D01*
X18249Y18427D01*
D11*
X6974Y18183D02*
X6974Y18850D01*
X7363Y18850D01*
X7474Y18739D01*
X7474Y18628D01*
X7363Y18517D01*
X6974Y18517D01*
D11*
X7363Y18517D02*
X7474Y18405D01*
X7474Y18294D01*
X7363Y18183D01*
X6974Y18183D01*
D11*
X7835Y18183D02*
X7835Y18850D01*
X7779Y18850D01*
X7696Y18739D01*
D11*
X7696Y18183D02*
X7946Y18183D01*
D17*
X560Y18517D02*
X561Y18417D01*
X563Y18317D01*
X566Y18217D01*
X571Y18117D01*
X577Y18017D01*
X585Y17918D01*
X594Y17818D01*
X604Y17719D01*
X616Y17619D01*
X629Y17520D01*
X644Y17421D01*
X660Y17323D01*
X677Y17224D01*
X696Y17126D01*
X717Y17028D01*
X738Y16931D01*
X761Y16834D01*
X786Y16737D01*
X812Y16640D01*
X839Y16544D01*
X868Y16448D01*
X899Y16353D01*
X930Y16258D01*
X963Y16164D01*
X998Y16070D01*
X1034Y15977D01*
X1071Y15884D01*
X1109Y15792D01*
X1149Y15700D01*
X1191Y15609D01*
X1233Y15519D01*
X1277Y15429D01*
X1323Y15340D01*
X1369Y15252D01*
X1417Y15164D01*
X1466Y15077D01*
X1517Y14991D01*
X1569Y14905D01*
X1622Y14821D01*
X1676Y14737D01*
X1732Y14654D01*
X1788Y14571D01*
X1846Y14490D01*
X1905Y14409D01*
X1966Y14330D01*
X2027Y14251D01*
X2090Y14173D01*
X2153Y14096D01*
X2218Y14020D01*
X2284Y13945D01*
X2351Y13870D01*
X2419Y13797D01*
X2488Y13725D01*
X2559Y13654D01*
X2630Y13584D01*
X2702Y13515D01*
X2775Y13447D01*
X2849Y13379D01*
X2924Y13314D01*
X3000Y13249D01*
X3077Y13185D01*
X3155Y13122D01*
X3234Y13061D01*
X3313Y13000D01*
X3394Y12941D01*
X3475Y12883D01*
X3557Y12826D01*
X3640Y12770D01*
X3724Y12715D01*
X3808Y12662D01*
X3894Y12610D01*
X3980Y12559D01*
X4066Y12509D01*
X4154Y12460D01*
X4242Y12413D01*
X4330Y12367D01*
X4420Y12322D01*
X4510Y12279D01*
X4600Y12236D01*
X4691Y12195D01*
X4783Y12156D01*
X4875Y12117D01*
X4968Y12080D01*
X5062Y12045D01*
X5156Y12010D01*
X5250Y11977D01*
X5345Y11946D01*
X5440Y11915D01*
X5536Y11887D01*
X5632Y11859D01*
X5728Y11833D01*
X5825Y11808D01*
X5922Y11785D01*
X6020Y11763D01*
X6117Y11742D01*
X6216Y11723D01*
X6314Y11705D01*
X6413Y11689D01*
X6511Y11674D01*
X6610Y11661D01*
X6710Y11649D01*
X6809Y11639D01*
X6909Y11630D01*
X7008Y11622D01*
X7108Y11616D01*
X7208Y11611D01*
X7308Y11608D01*
X7408Y11607D01*
X7508Y11606D01*
X7608Y11608D01*
X7707Y11610D01*
X7807Y11615D01*
X7907Y11620D01*
X8007Y11628D01*
X8106Y11636D01*
X8206Y11646D01*
X8305Y11658D01*
X8404Y11671D01*
X8503Y11686D01*
X8602Y11702D01*
X8700Y11719D01*
X8798Y11738D01*
X8896Y11759D01*
X8994Y11780D01*
X9091Y11804D01*
X9188Y11829D01*
X9284Y11855D01*
X9380Y11882D01*
X9476Y11911D01*
X9571Y11942D01*
X9666Y11973D01*
X9760Y12006D01*
X9854Y12041D01*
X9947Y12077D01*
X10040Y12114D01*
X10132Y12152D01*
X10224Y12192D01*
X10315Y12233D01*
X10406Y12276D01*
X10495Y12319D01*
X10585Y12364D01*
X10673Y12410D01*
X10762Y12457D01*
X10849Y12506D01*
X10936Y12556D01*
X11022Y12607D01*
X11107Y12659D01*
X11191Y12712D01*
X11275Y12767D01*
X11358Y12823D01*
X11440Y12880D01*
X11521Y12938D01*
X11601Y12998D01*
X11681Y13058D01*
X11760Y13120D01*
X11837Y13183D01*
X11914Y13247D01*
X11990Y13312D01*
X12065Y13378D01*
X12139Y13445D01*
X12212Y13513D01*
X12284Y13583D01*
X12355Y13653D01*
X12425Y13724D01*
X12494Y13797D01*
X12561Y13870D01*
X12628Y13945D01*
X12694Y14020D01*
X12758Y14096D01*
X12822Y14174D01*
X12884Y14252D01*
X12945Y14331D01*
X13005Y14411D01*
X13064Y14491D01*
X13122Y14573D01*
X13179Y14655D01*
X13234Y14739D01*
X13288Y14823D01*
X13341Y14907D01*
X13393Y14993D01*
X13443Y15079D01*
X13492Y15166D01*
X13540Y15254D01*
X13587Y15342D01*
X13632Y15432D01*
X13676Y15521D01*
X13719Y15612D01*
X13760Y15703D01*
X13800Y15794D01*
X13839Y15886D01*
X13877Y15979D01*
X13913Y16072D01*
X13947Y16166D01*
X13981Y16260D01*
X14013Y16355D01*
X14043Y16450D01*
X14073Y16545D01*
X14100Y16641D01*
X14127Y16738D01*
X14152Y16835D01*
X14176Y16932D01*
X14198Y17029D01*
X14219Y17127D01*
X14238Y17225D01*
X14256Y17323D01*
X14273Y17422D01*
X14288Y17521D01*
X14302Y17620D01*
X14314Y17719D01*
X14325Y17818D01*
X14334Y17918D01*
X14342Y18017D01*
X14348Y18117D01*
X14354Y18217D01*
X14357Y18317D01*
X14359Y18417D01*
X14360Y18517D01*
X14359Y18616D01*
X14357Y18716D01*
X14354Y18816D01*
X14349Y18916D01*
X14343Y19016D01*
X14335Y19116D01*
X14326Y19215D01*
X14316Y19314D01*
X14304Y19414D01*
X14291Y19513D01*
X14276Y19612D01*
X14260Y19710D01*
X14243Y19809D01*
X14224Y19907D01*
X14203Y20005D01*
X14182Y20102D01*
X14159Y20199D01*
X14134Y20296D01*
X14108Y20393D01*
X14081Y20489D01*
X14052Y20585D01*
X14021Y20680D01*
X13990Y20775D01*
X13957Y20869D01*
X13922Y20963D01*
X13886Y21056D01*
X13849Y21149D01*
X13811Y21241D01*
X13771Y21333D01*
X13729Y21424D01*
X13687Y21514D01*
X13643Y21604D01*
X13597Y21693D01*
X13551Y21781D01*
X13503Y21869D01*
X13454Y21956D01*
X13403Y22042D01*
X13351Y22128D01*
X13298Y22212D01*
X13244Y22296D01*
X13188Y22379D01*
X13132Y22462D01*
X13074Y22543D01*
X13015Y22624D01*
X12954Y22704D01*
X12893Y22782D01*
X12830Y22860D01*
X12767Y22937D01*
X12702Y23013D01*
X12636Y23088D01*
X12569Y23163D01*
X12501Y23236D01*
X12432Y23308D01*
X12361Y23379D01*
X12290Y23449D01*
X12218Y23518D01*
X12145Y23587D01*
X12071Y23654D01*
X11996Y23720D01*
X11920Y23784D01*
X11843Y23848D01*
X11765Y23911D01*
X11686Y23972D01*
X11607Y24033D01*
X11526Y24092D01*
X11445Y24150D01*
X11363Y24207D01*
X11280Y24263D01*
X11196Y24318D01*
X11112Y24371D01*
X11026Y24423D01*
X10940Y24474D01*
X10854Y24524D01*
X10766Y24573D01*
X10678Y24620D01*
X10590Y24666D01*
X10500Y24711D01*
X10410Y24754D01*
X10320Y24797D01*
X10229Y24838D01*
X10137Y24877D01*
X10045Y24916D01*
X9952Y24953D01*
X9858Y24988D01*
X9764Y25023D01*
X9670Y25056D01*
X9575Y25087D01*
X9480Y25118D01*
X9384Y25147D01*
X9288Y25174D01*
X9192Y25200D01*
X9095Y25225D01*
X8998Y25248D01*
X8900Y25270D01*
X8803Y25291D01*
X8704Y25310D01*
X8606Y25328D01*
X8507Y25344D01*
X8409Y25359D01*
X8310Y25372D01*
X8210Y25384D01*
X8111Y25394D01*
X8011Y25403D01*
X7912Y25411D01*
X7812Y25417D01*
X7712Y25422D01*
X7612Y25425D01*
X7512Y25427D01*
X7412Y25427D01*
X7312Y25425D01*
X7213Y25423D01*
X7113Y25418D01*
X7013Y25413D01*
X6913Y25405D01*
X6814Y25397D01*
X6714Y25387D01*
X6615Y25375D01*
X6516Y25362D01*
X6417Y25347D01*
X6318Y25331D01*
X6220Y25314D01*
X6122Y25295D01*
X6024Y25274D01*
X5926Y25253D01*
X5829Y25229D01*
X5732Y25205D01*
X5636Y25178D01*
X5540Y25151D01*
X5444Y25122D01*
X5349Y25092D01*
X5254Y25060D01*
X5160Y25027D01*
X5066Y24992D01*
X4973Y24956D01*
X4880Y24919D01*
X4788Y24881D01*
X4696Y24841D01*
X4605Y24800D01*
X4514Y24758D01*
X4425Y24714D01*
X4335Y24669D01*
X4247Y24623D01*
X4158Y24576D01*
X4071Y24527D01*
X3984Y24477D01*
X3898Y24426D01*
X3813Y24374D01*
X3729Y24321D01*
X3645Y24266D01*
X3562Y24210D01*
X3480Y24153D01*
X3399Y24095D01*
X3319Y24036D01*
X3239Y23975D01*
X3160Y23913D01*
X3083Y23850D01*
X3006Y23786D01*
X2930Y23721D01*
X2855Y23655D01*
X2781Y23588D01*
X2708Y23520D01*
X2636Y23450D01*
X2565Y23380D01*
X2495Y23309D01*
X2426Y23236D01*
X2359Y23163D01*
X2292Y23088D01*
X2226Y23013D01*
X2162Y22937D01*
X2098Y22859D01*
X2036Y22781D01*
X1975Y22702D01*
X1915Y22622D01*
X1856Y22542D01*
X1798Y22460D01*
X1741Y22378D01*
X1686Y22294D01*
X1632Y22210D01*
X1579Y22126D01*
X1527Y22040D01*
X1477Y21954D01*
X1428Y21867D01*
X1380Y21779D01*
X1333Y21691D01*
X1288Y21601D01*
X1244Y21512D01*
X1201Y21421D01*
X1160Y21330D01*
X1120Y21239D01*
X1081Y21147D01*
X1043Y21054D01*
X1007Y20961D01*
X973Y20867D01*
X939Y20773D01*
X907Y20678D01*
X877Y20583D01*
X847Y20488D01*
X820Y20392D01*
X793Y20295D01*
X768Y20199D01*
X744Y20101D01*
X722Y20004D01*
X701Y19906D01*
X682Y19808D01*
X664Y19710D01*
X647Y19611D01*
X632Y19513D01*
X618Y19414D01*
X606Y19314D01*
X595Y19215D01*
X586Y19115D01*
X578Y19016D01*
X572Y18916D01*
X566Y18816D01*
X563Y18716D01*
X561Y18616D01*
X560Y18517D01*
X560Y18517D01*
D10*
X3374Y20238D02*
X3374Y20838D01*
X3674Y20838D01*
X3774Y20738D01*
X3774Y20638D01*
X3674Y20538D01*
X3374Y20538D01*
D10*
X11060Y20238D02*
X11060Y20838D01*
D10*
X11060Y20788D02*
X11460Y20413D01*
D10*
X11460Y20238D02*
X11460Y20838D01*
D11*
X43424Y36137D02*
X43424Y36804D01*
D11*
X43202Y36804D02*
X43647Y36804D01*
D11*
X43869Y36692D02*
X43869Y36720D01*
X43952Y36804D01*
X44174Y36804D01*
X44258Y36720D01*
X44258Y36526D01*
X43869Y36137D01*
X44258Y36137D01*
D10*
X46129Y35954D02*
X46127Y36053D01*
X46121Y36152D01*
X46111Y36251D01*
X46098Y36349D01*
X46080Y36447D01*
X46058Y36544D01*
X46032Y36640D01*
X46002Y36734D01*
X45968Y36827D01*
X45930Y36919D01*
X45889Y37009D01*
X45843Y37097D01*
X45794Y37184D01*
X45741Y37268D01*
X45685Y37349D01*
X45626Y37429D01*
X45563Y37506D01*
X45497Y37580D01*
X45428Y37651D01*
X45356Y37719D01*
X45282Y37785D01*
X45204Y37847D01*
X45125Y37906D01*
X45043Y37962D01*
X44959Y38015D01*
X44872Y38064D01*
X44784Y38109D01*
X44694Y38151D01*
X44603Y38189D01*
X44510Y38224D01*
X44415Y38255D01*
X44320Y38281D01*
X44223Y38304D01*
X44126Y38323D01*
X44028Y38337D01*
X43929Y38348D01*
X43830Y38355D01*
X43731Y38357D01*
X43632Y38355D01*
X43533Y38349D01*
X43434Y38339D01*
X43336Y38324D01*
X43238Y38305D01*
X43142Y38283D01*
X43046Y38256D01*
X42952Y38225D01*
X42859Y38191D01*
X42767Y38152D01*
X42677Y38110D01*
X42589Y38065D01*
X42503Y38016D01*
X42419Y37963D01*
X42337Y37907D01*
X42257Y37848D01*
X42180Y37786D01*
X42106Y37720D01*
X42034Y37651D01*
X41966Y37580D01*
X41900Y37505D01*
X41837Y37428D01*
X41778Y37349D01*
X41722Y37267D01*
X41669Y37183D01*
X41620Y37097D01*
X41575Y37008D01*
X41533Y36918D01*
X41495Y36827D01*
X41461Y36734D01*
X41431Y36639D01*
X41404Y36543D01*
X41382Y36447D01*
X41364Y36349D01*
X41349Y36251D01*
X41339Y36152D01*
X41333Y36053D01*
X41331Y35954D01*
X41333Y35855D01*
X41339Y35756D01*
X41349Y35657D01*
X41362Y35559D01*
X41380Y35461D01*
X41402Y35365D01*
X41428Y35269D01*
X41458Y35174D01*
X41492Y35081D01*
X41530Y34989D01*
X41571Y34899D01*
X41617Y34811D01*
X41666Y34725D01*
X41719Y34641D01*
X41775Y34559D01*
X41834Y34480D01*
X41897Y34403D01*
X41963Y34329D01*
X42032Y34257D01*
X42104Y34189D01*
X42178Y34124D01*
X42256Y34061D01*
X42335Y34002D01*
X42417Y33946D01*
X42501Y33894D01*
X42588Y33845D01*
X42676Y33799D01*
X42766Y33757D01*
X42857Y33719D01*
X42950Y33685D01*
X43045Y33654D01*
X43140Y33627D01*
X43237Y33604D01*
X43334Y33586D01*
X43432Y33571D01*
X43531Y33560D01*
X43630Y33554D01*
X43729Y33552D01*
X43828Y33554D01*
X43927Y33560D01*
X44026Y33570D01*
X44124Y33584D01*
X44222Y33603D01*
X44318Y33626D01*
X44414Y33652D01*
X44508Y33683D01*
X44601Y33718D01*
X44693Y33756D01*
X44783Y33798D01*
X44871Y33844D01*
X44957Y33893D01*
X45041Y33945D01*
X45123Y34001D01*
X45203Y34060D01*
X45280Y34123D01*
X45354Y34188D01*
X45426Y34257D01*
X45494Y34329D01*
X45560Y34403D01*
X45623Y34480D01*
X45682Y34560D01*
X45738Y34642D01*
X45791Y34726D01*
X45840Y34812D01*
X45885Y34900D01*
X45927Y34990D01*
X45965Y35082D01*
X45999Y35175D01*
X46029Y35269D01*
X46056Y35365D01*
X46078Y35462D01*
X46096Y35559D01*
X46111Y35657D01*
X46121Y35756D01*
X46127Y35855D01*
X46129Y35954D01*
X46129Y35954D01*
D10*
X45517Y37517D02*
X45417Y37517D01*
X45317Y37517D01*
X45217Y37517D01*
X45117Y37517D01*
X45017Y37517D01*
X44918Y37517D01*
X44818Y37517D01*
X44718Y37517D01*
X44618Y37517D01*
X44518Y37517D01*
X44418Y37517D01*
X44318Y37517D01*
X44219Y37517D01*
X44119Y37517D01*
X44019Y37517D01*
X43919Y37517D01*
X43819Y37517D01*
X43719Y37517D01*
X43620Y37517D01*
X43520Y37517D01*
X43420Y37517D01*
X43320Y37517D01*
X43220Y37517D01*
X43120Y37517D01*
X43021Y37517D01*
X42921Y37517D01*
X42821Y37517D01*
X42721Y37517D01*
X42621Y37517D01*
X42521Y37517D01*
X42422Y37517D01*
X42322Y37517D01*
X42222Y37517D01*
X42122Y37517D01*
X42022Y37517D01*
X41922Y37517D01*
D11*
X53301Y48207D02*
X53301Y48873D01*
X53634Y48873D01*
X53745Y48762D01*
X53745Y48651D01*
X53634Y48540D01*
X53301Y48540D01*
D11*
X53634Y48540D02*
X53745Y48429D01*
X53745Y48207D01*
D11*
X54106Y48207D02*
X54106Y48873D01*
X54051Y48873D01*
X53967Y48762D01*
D11*
X53967Y48207D02*
X54217Y48207D01*
D11*
X54440Y48207D02*
X54440Y48873D01*
D11*
X54440Y48429D02*
X54884Y48846D01*
X54884Y48873D01*
D11*
X54884Y48207D02*
X54884Y48234D01*
X54606Y48568D01*
D10*
X54092Y45390D02*
X54092Y45484D01*
X54092Y45578D01*
X54092Y45673D01*
X54092Y45767D01*
X54092Y45861D01*
X54092Y45955D01*
X54092Y46049D01*
X54092Y46143D01*
X54092Y46237D01*
X54092Y46332D01*
D10*
X53230Y46332D02*
X53230Y50748D01*
X54954Y50748D01*
X54954Y46332D01*
X53230Y46332D01*
D10*
D10*
X54159Y50748D02*
X54159Y50843D01*
X54159Y50937D01*
X54159Y51031D01*
X54159Y51125D01*
X54159Y51219D01*
X54159Y51313D01*
X54159Y51407D01*
X54159Y51502D01*
X54159Y51596D01*
X54159Y51690D01*
D11*
X44047Y47477D02*
X44047Y48143D01*
X44380Y48143D01*
X44491Y48032D01*
X44491Y47921D01*
X44380Y47810D01*
X44047Y47810D01*
D11*
X44380Y47810D02*
X44491Y47699D01*
X44491Y47477D01*
D11*
X44853Y47477D02*
X44853Y48143D01*
X44797Y48143D01*
X44714Y48032D01*
D11*
X44714Y47477D02*
X44964Y47477D01*
D11*
X45269Y47477D02*
X45186Y47560D01*
X45186Y48060D01*
X45269Y48143D01*
X45491Y48143D01*
X45575Y48060D01*
X45575Y47560D01*
X45491Y47477D01*
X45269Y47477D01*
D11*
X45186Y47643D02*
X45575Y47977D01*
D10*
X44811Y44660D02*
X44811Y44754D01*
X44811Y44848D01*
X44811Y44943D01*
X44811Y45037D01*
X44811Y45131D01*
X44811Y45225D01*
X44811Y45319D01*
X44811Y45413D01*
X44811Y45507D01*
X44811Y45602D01*
D10*
X43949Y45602D02*
X43949Y50018D01*
X45673Y50018D01*
X45673Y45602D01*
X43949Y45602D01*
D10*
D10*
X44877Y50018D02*
X44877Y50113D01*
X44877Y50207D01*
X44877Y50301D01*
X44877Y50395D01*
X44877Y50489D01*
X44877Y50583D01*
X44877Y50677D01*
X44877Y50772D01*
X44877Y50866D01*
X44877Y50960D01*
D11*
X41740Y47477D02*
X41740Y48143D01*
X42073Y48143D01*
X42184Y48032D01*
X42184Y47921D01*
X42073Y47810D01*
X41740Y47810D01*
D11*
X42073Y47810D02*
X42184Y47699D01*
X42184Y47477D01*
D11*
X42546Y47477D02*
X42546Y48143D01*
X42490Y48143D01*
X42407Y48032D01*
D11*
X42407Y47477D02*
X42657Y47477D01*
D11*
X43018Y47477D02*
X43018Y48143D01*
X42962Y48143D01*
X42879Y48032D01*
D11*
X42879Y47477D02*
X43129Y47477D01*
D10*
X42434Y50960D02*
X42434Y50866D01*
X42434Y50772D01*
X42434Y50677D01*
X42434Y50583D01*
X42434Y50489D01*
X42434Y50395D01*
X42434Y50301D01*
X42434Y50207D01*
X42434Y50113D01*
X42434Y50018D01*
D10*
X43297Y50018D02*
X43297Y45602D01*
X41572Y45602D01*
X41572Y50018D01*
X43297Y50018D01*
D10*
D10*
X42368Y45602D02*
X42368Y45507D01*
X42368Y45413D01*
X42368Y45319D01*
X42368Y45225D01*
X42368Y45131D01*
X42368Y45037D01*
X42368Y44943D01*
X42368Y44848D01*
X42368Y44754D01*
X42368Y44660D01*
D11*
X21804Y26260D02*
X21804Y26205D01*
X21915Y26094D01*
X22082Y26094D01*
X22193Y26205D01*
X22193Y26760D01*
D11*
X22082Y26760D02*
X22249Y26760D01*
D11*
X22610Y26094D02*
X22610Y26760D01*
X22554Y26760D01*
X22471Y26649D01*
D11*
X22471Y26094D02*
X22721Y26094D01*
D10*
X14763Y37864D02*
X29763Y37864D01*
X29763Y22864D01*
X14763Y22864D01*
X14763Y37864D01*
D18*
X16308Y33547D02*
X16308Y34547D01*
D18*
X16308Y34464D02*
X16974Y33839D01*
D18*
X16974Y33547D02*
X16974Y34547D01*
D18*
X18058Y33797D02*
X18058Y33714D01*
X17891Y33547D01*
X17474Y33547D01*
X17308Y33714D01*
X17308Y34380D01*
X17474Y34547D01*
X17891Y34547D01*
X18058Y34380D01*
X18058Y34297D01*
D18*
X22638Y32631D02*
X22638Y32548D01*
X22471Y32381D01*
X22054Y32381D01*
X21888Y32548D01*
X21888Y33214D01*
X22054Y33381D01*
X22471Y33381D01*
X22638Y33214D01*
X22638Y33131D01*
D18*
X26468Y33547D02*
X26468Y34547D01*
D18*
X26468Y34464D02*
X27134Y33839D01*
D18*
X27134Y33547D02*
X27134Y34547D01*
D18*
X27634Y33547D02*
X27468Y33714D01*
X27468Y34380D01*
X27634Y34547D01*
X28051Y34547D01*
X28218Y34380D01*
X28218Y33714D01*
X28051Y33547D01*
X27634Y33547D01*
D11*
X21885Y20156D02*
X21885Y20823D01*
D11*
X21885Y20768D02*
X22330Y20351D01*
D11*
X22330Y20156D02*
X22330Y20823D01*
D11*
X22774Y20156D02*
X22774Y20823D01*
D11*
X22552Y20823D02*
X22997Y20823D01*
D11*
X23719Y20323D02*
X23719Y20268D01*
X23608Y20156D01*
X23330Y20156D01*
X23219Y20268D01*
X23219Y20712D01*
X23330Y20823D01*
X23608Y20823D01*
X23719Y20712D01*
X23719Y20656D01*
D11*
X23941Y20712D02*
X23941Y20740D01*
X24024Y20823D01*
X24247Y20823D01*
X24330Y20740D01*
X24330Y20545D01*
X23941Y20156D01*
X24330Y20156D01*
D10*
X20717Y21294D02*
X25498Y21294D01*
X25498Y19686D01*
X20717Y19686D01*
X20717Y21294D01*
D10*
X21224Y19097D02*
X21322Y19097D01*
X21421Y19097D01*
X21519Y19097D01*
X21618Y19097D01*
X21716Y19097D01*
X21814Y19097D01*
X21913Y19097D01*
X22011Y19097D01*
X22080Y19158D01*
X22140Y19236D01*
X22201Y19313D01*
X22261Y19391D01*
X22322Y19468D01*
X22383Y19546D01*
X22443Y19623D01*
X22504Y19701D01*
X22564Y19778D01*
X22625Y19856D01*
X22686Y19933D01*
X22746Y20011D01*
X22807Y20088D01*
X22867Y20166D01*
X22928Y20243D01*
X22989Y20321D01*
X23049Y20398D01*
X23110Y20476D01*
X23170Y20554D01*
X23231Y20631D01*
X23292Y20709D01*
X23352Y20786D01*
X23413Y20864D01*
X23473Y20941D01*
X23534Y21019D01*
X23594Y21096D01*
X23655Y21174D01*
X23716Y21251D01*
X23776Y21329D01*
X23837Y21406D01*
X23897Y21484D01*
X23958Y21561D01*
X24019Y21639D01*
X24079Y21716D01*
X24140Y21794D01*
X24200Y21871D01*
X24281Y21907D01*
X24380Y21907D01*
X24478Y21907D01*
X24576Y21907D01*
X24675Y21907D01*
X24773Y21907D01*
X24872Y21907D01*
X24970Y21907D01*
X25068Y21907D01*
D11*
X65002Y31222D02*
X65002Y31889D01*
D11*
X65002Y31444D02*
X65446Y31861D01*
X65446Y31889D01*
D11*
X65446Y31222D02*
X65446Y31250D01*
X65168Y31583D01*
D11*
X65807Y31222D02*
X65807Y31889D01*
X65752Y31889D01*
X65668Y31778D01*
D11*
X65668Y31222D02*
X65918Y31222D01*
D10*
X48920Y29871D02*
X48920Y37871D01*
X76920Y37871D01*
X76920Y29871D01*
X48920Y29871D01*
D19*
X73313Y33229D02*
X73430Y33346D01*
X73430Y33637D01*
X73313Y33754D01*
X73197Y33754D01*
X73080Y33637D01*
X73080Y33346D01*
X72963Y33229D01*
X72847Y33229D01*
X72730Y33346D01*
X72730Y33637D01*
X72847Y33754D01*
D19*
X73430Y34104D02*
X73313Y33987D01*
X72847Y33987D01*
X72730Y34104D01*
X72730Y34396D01*
X72847Y34512D01*
X73226Y34512D01*
X73430Y34279D01*
X73430Y34104D01*
D19*
X73226Y34308D02*
X73430Y34512D01*
D19*
X70890Y33229D02*
X70190Y33229D01*
X70190Y33637D01*
X70307Y33754D01*
X70773Y33754D01*
X70890Y33637D01*
X70890Y33229D01*
D19*
X70773Y33987D02*
X70890Y34104D01*
X70890Y34396D01*
X70773Y34512D01*
X70657Y34512D01*
X70540Y34396D01*
X70540Y34104D01*
X70423Y33987D01*
X70307Y33987D01*
X70190Y34104D01*
X70190Y34396D01*
X70307Y34512D01*
D19*
X68233Y33133D02*
X68350Y33250D01*
X68350Y33541D01*
X68233Y33658D01*
X68117Y33658D01*
X68000Y33541D01*
X68000Y33250D01*
X67883Y33133D01*
X67767Y33133D01*
X67650Y33250D01*
X67650Y33541D01*
X67767Y33658D01*
D19*
X68175Y34416D02*
X68233Y34416D01*
X68350Y34300D01*
X68350Y34008D01*
X68233Y33891D01*
X67767Y33891D01*
X67650Y34008D01*
X67650Y34300D01*
X67767Y34416D01*
X67825Y34416D01*
D19*
X68350Y35058D02*
X68350Y34650D01*
X67650Y34650D01*
D16*
X65460Y34461D02*
X65460Y34461D01*
X65460Y34461D01*
X65460Y34461D01*
X65460Y34461D01*
D16*
X65460Y34461D02*
X65460Y34461D01*
X65460Y34461D01*
X65460Y34461D01*
X65460Y34461D01*
X65460Y34461D01*
X65460Y34461D01*
X65460Y34461D01*
X65460Y34461D01*
D16*
X65460Y34461D02*
X65460Y34461D01*
D16*
X65460Y34461D02*
X65460Y34461D01*
X65460Y34461D01*
X65460Y34461D01*
X65460Y34461D01*
X65460Y34461D01*
X65460Y34461D01*
X65460Y34461D01*
X65460Y34461D01*
D16*
X65460Y34461D02*
X65460Y34461D01*
D16*
X65460Y34461D02*
X65460Y34461D01*
X65460Y34461D01*
X65460Y34461D01*
D16*
X65460Y34461D02*
X65460Y34461D01*
X65460Y34461D01*
X65460Y34461D01*
X65460Y34461D01*
X65460Y34461D01*
X65460Y34461D01*
X65460Y34461D01*
X65460Y34461D01*
D16*
X65460Y34461D02*
X65460Y34461D01*
D19*
X62570Y33261D02*
X62978Y33261D01*
X63270Y33495D01*
X62978Y33728D01*
X62570Y33728D01*
D19*
X63095Y34486D02*
X63153Y34486D01*
X63270Y34370D01*
X63270Y34078D01*
X63153Y33961D01*
X62687Y33961D01*
X62570Y34078D01*
X62570Y34370D01*
X62687Y34486D01*
X62745Y34486D01*
D19*
X63095Y35245D02*
X63153Y35245D01*
X63270Y35128D01*
X63270Y34836D01*
X63153Y34720D01*
X62687Y34720D01*
X62570Y34836D01*
X62570Y35128D01*
X62687Y35245D01*
X62745Y35245D01*
D19*
X60438Y33582D02*
X60438Y33786D01*
X60613Y33786D01*
X60730Y33670D01*
X60730Y33378D01*
X60613Y33261D01*
X60147Y33261D01*
X60030Y33378D01*
X60030Y33670D01*
X60147Y33786D01*
X60205Y33786D01*
D19*
X60730Y34020D02*
X60030Y34020D01*
D19*
X60088Y34020D02*
X60526Y34486D01*
D19*
X60730Y34486D02*
X60030Y34486D01*
D19*
X60730Y34720D02*
X60030Y34720D01*
X60030Y35128D01*
X60147Y35245D01*
X60613Y35245D01*
X60730Y35128D01*
X60730Y34720D01*
D19*
X58190Y33261D02*
X57490Y33261D01*
X57490Y33670D01*
X57607Y33786D01*
X57723Y33786D01*
X57840Y33670D01*
X57840Y33261D01*
D19*
X57840Y33670D02*
X57957Y33786D01*
X58073Y33786D01*
X58190Y33670D01*
X58190Y33261D01*
D19*
X58190Y34020D02*
X57840Y34020D01*
X57490Y34253D01*
X57490Y34311D01*
X57840Y34545D01*
X58190Y34545D01*
D19*
X58015Y34020D02*
X58015Y34545D01*
D19*
X58190Y35011D02*
X57490Y35011D01*
D19*
X57490Y34778D02*
X57490Y35245D01*
D19*
X65693Y33232D02*
X65810Y33349D01*
X65810Y33640D01*
X65693Y33757D01*
X65577Y33757D01*
X65460Y33640D01*
X65460Y33349D01*
X65343Y33232D01*
X65227Y33232D01*
X65110Y33349D01*
X65110Y33640D01*
X65227Y33757D01*
D19*
X65810Y33990D02*
X65110Y33990D01*
X65110Y34399D01*
X65227Y34515D01*
X65693Y34515D01*
X65810Y34399D01*
X65810Y33990D01*
D19*
X65810Y34749D02*
X65460Y34749D01*
X65110Y34982D01*
X65110Y35040D01*
X65460Y35274D01*
X65810Y35274D01*
D19*
X65635Y34749D02*
X65635Y35274D01*
D11*
X50904Y31667D02*
X50904Y32333D01*
X51293Y32333D01*
X51404Y32222D01*
X51404Y31778D01*
X51293Y31667D01*
X50904Y31667D01*
D11*
X51960Y31667D02*
X51960Y32333D01*
X51904Y32333D01*
X51627Y31917D01*
X51627Y31806D01*
X52016Y31806D01*
D11*
X58043Y48207D02*
X58043Y48540D01*
X58266Y48873D01*
X58321Y48873D01*
X58543Y48540D01*
X58543Y48207D01*
D11*
X58043Y48373D02*
X58543Y48373D01*
D11*
X58766Y48207D02*
X58766Y48707D01*
D11*
X58766Y48484D02*
X58960Y48707D01*
X59182Y48707D01*
X59266Y48623D01*
X59266Y48596D01*
D11*
X59988Y48873D02*
X59988Y48207D01*
X59627Y48207D01*
X59488Y48346D01*
X59488Y48568D01*
X59627Y48707D01*
X59821Y48707D01*
X59988Y48540D01*
D11*
X60710Y48707D02*
X60710Y48207D01*
D11*
X60210Y48707D02*
X60210Y48346D01*
X60349Y48207D01*
X60571Y48207D01*
X60710Y48346D01*
D11*
X60988Y48873D02*
X60988Y48873D01*
D11*
X60932Y48707D02*
X60988Y48707D01*
X60988Y48207D01*
D11*
X60932Y48207D02*
X61043Y48207D01*
D11*
X61266Y48207D02*
X61266Y48707D01*
D11*
X61266Y48540D02*
X61432Y48707D01*
X61627Y48707D01*
X61766Y48568D01*
X61766Y48207D01*
D11*
X61988Y48346D02*
X61988Y48568D01*
X62127Y48707D01*
X62349Y48707D01*
X62488Y48568D01*
X62488Y48346D01*
X62349Y48207D01*
X62127Y48207D01*
X61988Y48346D01*
D11*
X63432Y48207D02*
X63432Y48873D01*
D11*
X63432Y48846D02*
X63738Y48623D01*
X64043Y48846D01*
D11*
X64043Y48873D02*
X64043Y48207D01*
D11*
X64321Y48873D02*
X64321Y48873D01*
D11*
X64266Y48707D02*
X64321Y48707D01*
X64321Y48207D01*
D11*
X64266Y48207D02*
X64377Y48207D01*
D11*
X64599Y48207D02*
X64599Y48707D01*
D11*
X64599Y48540D02*
X64766Y48707D01*
X64960Y48707D01*
X65099Y48568D01*
X65099Y48207D01*
D11*
X65377Y48873D02*
X65377Y48873D01*
D11*
X65321Y48707D02*
X65377Y48707D01*
X65377Y48207D01*
D11*
X65321Y48207D02*
X65432Y48207D01*
D11*
X66377Y48207D02*
X66377Y48873D01*
X66710Y48873D01*
X66821Y48762D01*
X66821Y48651D01*
X66710Y48540D01*
X66377Y48540D01*
D11*
X67043Y48207D02*
X67043Y48707D01*
D11*
X67043Y48484D02*
X67238Y48707D01*
X67460Y48707D01*
X67543Y48623D01*
X67543Y48596D01*
D11*
X67766Y48346D02*
X67766Y48568D01*
X67904Y48707D01*
X68127Y48707D01*
X68266Y48568D01*
X68266Y48346D01*
X68127Y48207D01*
X67904Y48207D01*
X67766Y48346D01*
D11*
X68488Y48762D02*
X68488Y48790D01*
X68571Y48873D01*
X68793Y48873D01*
X68877Y48790D01*
X68877Y48596D01*
X68488Y48207D01*
X68877Y48207D01*
D10*
X80136Y39673D02*
X46784Y39673D01*
X46784Y57407D01*
X80136Y57407D01*
X80136Y39673D01*
D11*
X87111Y47293D02*
X87111Y47238D01*
X87222Y47127D01*
X87389Y47127D01*
X87500Y47238D01*
X87500Y47793D01*
D11*
X87389Y47793D02*
X87556Y47793D01*
D11*
X87778Y47682D02*
X87778Y47710D01*
X87861Y47793D01*
X88083Y47793D01*
X88167Y47710D01*
X88167Y47516D01*
X87778Y47127D01*
X88167Y47127D01*
D11*
X86847Y36833D02*
X86847Y36778D01*
X86958Y36667D01*
X87125Y36667D01*
X87236Y36778D01*
X87236Y37333D01*
D11*
X87125Y37333D02*
X87292Y37333D01*
D11*
X87514Y36667D02*
X87514Y37333D01*
X87847Y37333D01*
X87958Y37222D01*
X87958Y37111D01*
X87847Y37000D01*
X87514Y37000D01*
D11*
X88320Y36667D02*
X88320Y37333D01*
X88264Y37333D01*
X88181Y37222D01*
D11*
X88181Y36667D02*
X88431Y36667D01*
D13*
X88909Y39540D02*
X86369Y39540D01*
D13*
X86369Y34460D02*
X86369Y39540D01*
D13*
X88909Y39540D02*
X88909Y37000D01*
D13*
X88909Y37000D02*
X88909Y34460D01*
D13*
X88909Y34460D02*
X86369Y34460D01*
D13*
X88909Y37000D02*
X86369Y37000D01*
D20*
X7969Y37173D02*
X7969Y35938D01*
D20*
X7343Y36555D02*
X8595Y36555D01*
D21*
X15930Y6637D02*
X15989Y6637D01*
X16166Y6461D01*
X16166Y5991D01*
X15989Y5814D01*
X15578Y5814D01*
X14755Y6637D01*
X14755Y5814D01*
D21*
X15930Y5344D02*
X15989Y5344D01*
X16166Y5168D01*
X16166Y4697D01*
X15989Y4521D01*
X15578Y4521D01*
X14755Y5344D01*
X14755Y4521D01*
D21*
X14755Y3874D02*
X14931Y4051D01*
X15989Y4051D01*
X16166Y3874D01*
X16166Y3404D01*
X15989Y3227D01*
X14931Y3227D01*
X14755Y3404D01*
X14755Y3874D01*
D21*
X15107Y4051D02*
X15813Y3227D01*
D21*
X16166Y2757D02*
X15342Y2757D01*
X14755Y2287D01*
X15342Y1816D01*
X16166Y1816D01*
D22*
X7009Y35385D02*
X6935Y35385D01*
X6715Y35164D01*
X6715Y34577D01*
X6935Y34356D01*
X7449Y34356D01*
X7670Y34577D01*
X7670Y35385D01*
X8478Y35385D01*
X8478Y34503D01*
D22*
X8478Y33769D02*
X7449Y33769D01*
X6715Y33181D01*
X7449Y32593D01*
X8478Y32593D01*
D20*
X7969Y32173D02*
X7969Y30938D01*
D22*
X53484Y24142D02*
X54512Y24142D01*
D22*
X53998Y23621D02*
X53998Y24664D01*
D23*
X19730Y22279D02*
X57730Y22279D01*
X57828Y22277D01*
X57926Y22272D01*
X58024Y22264D01*
X58122Y22253D01*
X58219Y22239D01*
X58315Y22221D01*
X58411Y22201D01*
X58507Y22177D01*
X58601Y22150D01*
X58695Y22120D01*
X58787Y22087D01*
X58878Y22051D01*
X58968Y22012D01*
X59057Y21970D01*
X59144Y21925D01*
X59230Y21877D01*
X59314Y21827D01*
X59397Y21773D01*
X59478Y21717D01*
X59556Y21659D01*
X59633Y21598D01*
X59708Y21534D01*
X59781Y21468D01*
X59851Y21400D01*
X59920Y21329D01*
X59986Y21257D01*
X60049Y21182D01*
X60110Y21105D01*
X60169Y21026D01*
X60225Y20945D01*
X60278Y20863D01*
X60329Y20779D01*
X60376Y20693D01*
X60421Y20606D01*
X60463Y20517D01*
X60502Y20427D01*
X60538Y20336D01*
X60572Y20243D01*
X60602Y20150D01*
X60628Y20055D01*
X60652Y19960D01*
X60673Y19864D01*
X60690Y19767D01*
X60705Y19670D01*
X60716Y19573D01*
X60724Y19475D01*
X60728Y19377D01*
X60730Y19279D01*
X60730Y3579D01*
X60728Y3480D01*
X60724Y3382D01*
X60716Y3284D01*
X60705Y3187D01*
X60690Y3090D01*
X60673Y2993D01*
X60652Y2897D01*
X60628Y2802D01*
X60602Y2707D01*
X60572Y2614D01*
X60538Y2521D01*
X60502Y2430D01*
X60463Y2340D01*
X60421Y2251D01*
X60376Y2164D01*
X60329Y2078D01*
X60278Y1994D01*
X60225Y1912D01*
X60169Y1831D01*
X60110Y1752D01*
X60049Y1675D01*
X59986Y1600D01*
X59920Y1528D01*
X59851Y1457D01*
X59781Y1389D01*
X59708Y1323D01*
X59633Y1259D01*
X59556Y1198D01*
X59478Y1140D01*
X59397Y1084D01*
X59314Y1031D01*
X59230Y980D01*
X59144Y932D01*
X59057Y887D01*
X58968Y845D01*
X58878Y806D01*
X58787Y770D01*
X58695Y737D01*
X58601Y707D01*
X58507Y680D01*
X58411Y656D01*
X58315Y636D01*
X58219Y618D01*
X58122Y604D01*
X58024Y593D01*
X57926Y585D01*
X57828Y580D01*
X57730Y579D01*
X19730Y579D01*
X19632Y580D01*
X19534Y585D01*
X19436Y593D01*
X19338Y604D01*
X19241Y618D01*
X19145Y636D01*
X19049Y656D01*
X18953Y680D01*
X18859Y707D01*
X18765Y737D01*
X18673Y770D01*
X18582Y806D01*
X18492Y845D01*
X18403Y887D01*
X18316Y932D01*
X18230Y980D01*
X18146Y1031D01*
X18063Y1084D01*
X17982Y1140D01*
X17904Y1198D01*
X17827Y1259D01*
X17752Y1323D01*
X17679Y1389D01*
X17609Y1457D01*
X17540Y1528D01*
X17474Y1600D01*
X17411Y1675D01*
X17350Y1752D01*
X17291Y1831D01*
X17235Y1912D01*
X17182Y1994D01*
X17131Y2078D01*
X17084Y2164D01*
X17039Y2251D01*
X16997Y2340D01*
X16958Y2430D01*
X16922Y2521D01*
X16888Y2614D01*
X16858Y2707D01*
X16832Y2802D01*
X16808Y2897D01*
X16787Y2993D01*
X16770Y3090D01*
X16755Y3187D01*
X16744Y3284D01*
X16736Y3382D01*
X16732Y3480D01*
X16730Y3579D01*
X16730Y19279D01*
X16732Y19377D01*
X16736Y19475D01*
X16744Y19573D01*
X16755Y19670D01*
X16770Y19767D01*
X16787Y19864D01*
X16808Y19960D01*
X16832Y20055D01*
X16858Y20150D01*
X16888Y20243D01*
X16922Y20336D01*
X16958Y20427D01*
X16997Y20517D01*
X17039Y20606D01*
X17084Y20693D01*
X17131Y20779D01*
X17182Y20863D01*
X17235Y20945D01*
X17291Y21026D01*
X17350Y21105D01*
X17411Y21182D01*
X17474Y21257D01*
X17540Y21329D01*
X17609Y21400D01*
X17679Y21468D01*
X17752Y21534D01*
X17827Y21598D01*
X17904Y21659D01*
X17982Y21717D01*
X18063Y21773D01*
X18146Y21827D01*
X18230Y21877D01*
X18316Y21925D01*
X18403Y21970D01*
X18492Y22012D01*
X18582Y22051D01*
X18673Y22087D01*
X18765Y22120D01*
X18859Y22150D01*
X18953Y22177D01*
X19049Y22201D01*
X19145Y22221D01*
X19241Y22239D01*
X19338Y22253D01*
X19436Y22264D01*
X19534Y22272D01*
X19632Y22277D01*
X19730Y22279D01*
X19730Y22279D01*
D20*
X39580Y10487D02*
X39580Y10575D01*
X39844Y10840D01*
X40550Y10840D01*
X40814Y10575D01*
X40814Y9958D01*
X39580Y8724D01*
X40814Y8724D01*
D20*
X41519Y10487D02*
X41519Y10575D01*
X41784Y10840D01*
X42489Y10840D01*
X42754Y10575D01*
X42754Y9958D01*
X41519Y8724D01*
X42754Y8724D01*
D20*
X43724Y8724D02*
X43459Y8988D01*
X43459Y10575D01*
X43724Y10840D01*
X44429Y10840D01*
X44693Y10575D01*
X44693Y8988D01*
X44429Y8724D01*
X43724Y8724D01*
D20*
X43459Y9253D02*
X44693Y10311D01*
D20*
X45399Y10840D02*
X45399Y9605D01*
X46104Y8724D01*
X46809Y9605D01*
X46809Y10840D01*
D24*
X30985Y15911D02*
X31024Y15819D01*
X31064Y15728D01*
X31104Y15636D01*
X31143Y15544D01*
X31183Y15453D01*
X31223Y15361D01*
X31262Y15270D01*
X31302Y15178D01*
X31342Y15087D01*
X31381Y14995D01*
X31421Y14904D01*
X31461Y14812D01*
X31500Y14720D01*
X31540Y14629D01*
X31580Y14537D01*
X31619Y14446D01*
X31659Y14354D01*
X31699Y14263D01*
X31738Y14171D01*
X31778Y14079D01*
X31818Y13988D01*
X31857Y13896D01*
X31897Y13805D01*
X31937Y13713D01*
X31976Y13622D01*
X32016Y13530D01*
X32056Y13439D01*
X32096Y13347D01*
X32135Y13255D01*
X32175Y13164D01*
X32215Y13072D01*
X32254Y12981D01*
X32294Y12889D01*
X32334Y12798D01*
X32373Y12706D01*
X32413Y12614D01*
X32453Y12523D01*
X32492Y12431D01*
X32532Y12340D01*
X32572Y12248D01*
X32611Y12157D01*
X32651Y12065D01*
X32691Y11974D01*
X32730Y11882D01*
X32770Y11790D01*
X32810Y11699D01*
X32849Y11607D01*
X32889Y11516D01*
X32929Y11424D01*
X32968Y11333D01*
X33008Y11241D01*
X33048Y11149D01*
X33087Y11058D01*
X33127Y10966D01*
X33167Y10875D01*
X33206Y10783D01*
X33246Y10692D01*
X33286Y10600D01*
X33326Y10509D01*
X33365Y10417D01*
X33405Y10325D01*
X33445Y10234D01*
X33484Y10142D01*
X33524Y10051D01*
X33564Y9959D01*
X33601Y9955D01*
X33636Y10048D01*
X33671Y10142D01*
X33706Y10235D01*
X33741Y10329D01*
X33776Y10422D01*
X33811Y10515D01*
X33846Y10609D01*
X33881Y10702D01*
X33916Y10796D01*
X33951Y10889D01*
X33986Y10983D01*
X34022Y11076D01*
X34057Y11169D01*
X34092Y11263D01*
X34127Y11356D01*
X34162Y11450D01*
X34197Y11543D01*
X34232Y11637D01*
X34267Y11730D01*
X34302Y11824D01*
X34337Y11917D01*
X34372Y12010D01*
X34407Y12104D01*
X34442Y12197D01*
X34477Y12291D01*
X34512Y12384D01*
X34547Y12478D01*
X34582Y12571D01*
X34617Y12664D01*
X34652Y12758D01*
X34687Y12851D01*
X34722Y12945D01*
X34757Y13038D01*
X34793Y13090D01*
X34832Y12998D01*
X34871Y12906D01*
X34910Y12814D01*
X34949Y12723D01*
X34988Y12631D01*
X35027Y12539D01*
X35065Y12447D01*
X35104Y12355D01*
X35143Y12263D01*
X35182Y12171D01*
X35221Y12079D01*
X35260Y11987D01*
X35299Y11895D01*
X35338Y11804D01*
X35376Y11712D01*
X35415Y11620D01*
X35454Y11528D01*
X35493Y11436D01*
X35532Y11344D01*
X35571Y11252D01*
X35610Y11160D01*
X35649Y11068D01*
X35688Y10976D01*
X35726Y10884D01*
X35765Y10793D01*
X35804Y10701D01*
X35843Y10609D01*
X35882Y10517D01*
X35921Y10425D01*
X35960Y10333D01*
X35999Y10241D01*
X36037Y10149D01*
X36076Y10057D01*
X36115Y9965D01*
X36154Y9874D01*
X36193Y9782D01*
X36232Y9690D01*
X36271Y9598D01*
X36310Y9506D01*
X36349Y9414D01*
X36387Y9322D01*
X36426Y9230D01*
X36465Y9138D01*
X36504Y9046D01*
X36543Y8955D01*
X36582Y8863D01*
X36621Y8771D01*
X36660Y8679D01*
X36698Y8587D01*
X36737Y8495D01*
X36776Y8403D01*
X36815Y8311D01*
X36854Y8219D01*
X36893Y8127D01*
X36932Y8035D01*
X36971Y7944D01*
X36931Y7946D01*
X36848Y8002D01*
X36765Y8057D01*
X36682Y8112D01*
X36599Y8168D01*
X36516Y8223D01*
X36433Y8278D01*
X36417Y8337D01*
X36495Y8399D01*
X36573Y8461D01*
X36651Y8524D01*
X36729Y8586D01*
X36807Y8648D01*
X36885Y8711D01*
D20*
X22077Y5042D02*
X20843Y5042D01*
X20843Y7158D01*
D20*
X25755Y4942D02*
X25755Y7058D01*
D20*
X25755Y6882D02*
X27165Y5559D01*
D20*
X27165Y4942D02*
X27165Y7058D01*
D20*
X43843Y30659D02*
X45077Y30659D01*
D20*
X44460Y30033D02*
X44460Y31285D01*
D17*
X6327Y39561D02*
X6327Y40761D01*
X6227Y40761D01*
X6077Y40561D01*
D17*
X6077Y39561D02*
X6527Y39561D01*
D17*
X6927Y39561D02*
X6927Y40761D01*
D17*
X6927Y39711D02*
X7727Y40411D01*
X7727Y40461D01*
D17*
X7327Y40061D02*
X7727Y39611D01*
X7727Y39561D01*
D17*
X44236Y41191D02*
X44236Y42391D01*
X44136Y42391D01*
X43986Y42191D01*
D17*
X43986Y41191D02*
X44436Y41191D01*
D17*
X44836Y41191D02*
X44836Y42391D01*
D17*
X44836Y41341D02*
X45636Y42041D01*
X45636Y42091D01*
D17*
X45236Y41691D02*
X45636Y41241D01*
X45636Y41191D01*
D17*
X4538Y51210D02*
X4538Y52410D01*
X4438Y52410D01*
X4288Y52210D01*
D17*
X4288Y51210D02*
X4738Y51210D01*
D17*
X5138Y51210D02*
X5138Y52410D01*
D17*
X5138Y51360D02*
X5938Y52060D01*
X5938Y52110D01*
D17*
X5538Y51710D02*
X5938Y51260D01*
X5938Y51210D01*
D17*
X885Y39681D02*
X885Y40881D01*
X785Y40881D01*
X635Y40681D01*
D17*
X635Y39681D02*
X1085Y39681D01*
D17*
X1485Y39681D02*
X1485Y40881D01*
D17*
X1485Y39831D02*
X2285Y40531D01*
X2285Y40581D01*
D17*
X1885Y40181D02*
X2285Y39731D01*
X2285Y39681D01*
D17*
X51848Y54776D02*
X51848Y54826D01*
X51998Y54976D01*
X52398Y54976D01*
X52548Y54826D01*
X52548Y54626D01*
X52298Y54376D01*
X52548Y54126D01*
X52548Y53926D01*
X52398Y53776D01*
X51998Y53776D01*
X51848Y53926D01*
X51848Y53976D01*
D17*
X52148Y54376D02*
X52298Y54376D01*
D17*
X52948Y53776D02*
X52948Y53826D01*
X53848Y54626D01*
X53848Y54676D01*
D17*
X52948Y54676D02*
X52948Y54626D01*
X53848Y53826D01*
X53848Y53776D01*
D17*
X54498Y53776D02*
X54498Y54976D01*
X54398Y54976D01*
X54248Y54776D01*
D17*
X54248Y53776D02*
X54698Y53776D01*
D17*
X55098Y53776D02*
X55098Y54976D01*
D17*
X55098Y53926D02*
X55898Y54626D01*
X55898Y54676D01*
D17*
X55498Y54276D02*
X55898Y53826D01*
X55898Y53776D01*
D17*
X41359Y53145D02*
X41359Y54345D01*
X41259Y54345D01*
X41109Y54145D01*
D17*
X41109Y53145D02*
X41559Y53145D01*
D17*
X42109Y53145D02*
X41959Y53295D01*
X41959Y54195D01*
X42109Y54345D01*
X42509Y54345D01*
X42659Y54195D01*
X42659Y53295D01*
X42509Y53145D01*
X42109Y53145D01*
D17*
X41959Y53445D02*
X42659Y54045D01*
D17*
X43209Y53145D02*
X43059Y53295D01*
X43059Y54195D01*
X43209Y54345D01*
X43609Y54345D01*
X43759Y54195D01*
X43759Y53295D01*
X43609Y53145D01*
X43209Y53145D01*
D17*
X43059Y53445D02*
X43759Y54045D01*
D20*
X2772Y15672D02*
X4006Y15672D01*
D20*
X3389Y15046D02*
X3389Y16298D01*
D18*
X83741Y42297D02*
X84033Y42297D01*
X84033Y42047D01*
X83866Y41880D01*
X83449Y41880D01*
X83283Y42047D01*
X83283Y42713D01*
X83449Y42880D01*
X83866Y42880D01*
X84033Y42713D01*
X84033Y42630D01*
D18*
X84366Y41880D02*
X84366Y42880D01*
D18*
X84366Y42797D02*
X85033Y42172D01*
D18*
X85033Y41880D02*
X85033Y42880D01*
D18*
X85366Y41880D02*
X85366Y42880D01*
X85949Y42880D01*
X86116Y42713D01*
X86116Y42047D01*
X85949Y41880D01*
X85366Y41880D01*
D18*
X83233Y45067D02*
X83233Y45109D01*
X83358Y45234D01*
X83691Y45234D01*
X83816Y45109D01*
X83816Y44942D01*
X83608Y44734D01*
X83816Y44525D01*
X83816Y44359D01*
X83691Y44234D01*
X83358Y44234D01*
X83233Y44359D01*
X83233Y44400D01*
D18*
X83483Y44734D02*
X83608Y44734D01*
D18*
X84150Y44234D02*
X84179Y44234D01*
X84179Y44263D01*
X84150Y44234D01*
D18*
X84512Y45067D02*
X84512Y45109D01*
X84637Y45234D01*
X84970Y45234D01*
X85095Y45109D01*
X85095Y44942D01*
X84887Y44734D01*
X85095Y44525D01*
X85095Y44359D01*
X84970Y44234D01*
X84637Y44234D01*
X84512Y44359D01*
X84512Y44400D01*
D18*
X84762Y44734D02*
X84887Y44734D01*
D18*
X85429Y45234D02*
X85429Y44650D01*
X85762Y44234D01*
X86095Y44650D01*
X86095Y45234D01*
D18*
X84731Y46960D02*
X84731Y47460D01*
X85064Y47960D01*
X85148Y47960D01*
X85481Y47460D01*
X85481Y46960D01*
D18*
X84731Y47210D02*
X85481Y47210D01*
D18*
X86023Y46960D02*
X86023Y47960D01*
X85939Y47960D01*
X85814Y47793D01*
D18*
X85814Y46960D02*
X86189Y46960D01*
D18*
X84507Y49500D02*
X84507Y50500D01*
X85090Y50500D01*
X85257Y50333D01*
X85257Y49667D01*
X85090Y49500D01*
X84507Y49500D01*
D18*
X86090Y49500D02*
X86090Y50500D01*
X86007Y50500D01*
X85590Y49875D01*
X85590Y49708D01*
X86174Y49708D01*
D18*
X84531Y52040D02*
X84531Y53040D01*
X85114Y53040D01*
X85281Y52873D01*
X85281Y52207D01*
X85114Y52040D01*
X84531Y52040D01*
D18*
X85614Y52207D02*
X85614Y52165D01*
X85739Y52040D01*
X86072Y52040D01*
X86197Y52165D01*
X86197Y52457D01*
X86072Y52582D01*
X85614Y52582D01*
X85614Y53040D01*
X86114Y53040D01*
D18*
X84436Y54679D02*
X84436Y55679D01*
X85019Y55679D01*
X85186Y55512D01*
X85186Y54846D01*
X85019Y54679D01*
X84436Y54679D01*
D18*
X86102Y55512D02*
X86102Y55554D01*
X85977Y55679D01*
X85644Y55679D01*
X85519Y55554D01*
X85519Y54804D01*
X85644Y54679D01*
X85977Y54679D01*
X86102Y54804D01*
X86102Y55054D01*
X85977Y55179D01*
X85519Y55179D01*
D18*
X41416Y38500D02*
X41416Y39500D01*
X42000Y39500D01*
X42166Y39333D01*
X42166Y39167D01*
X42000Y39000D01*
X41416Y39000D01*
D18*
X42000Y39000D02*
X42166Y38833D01*
X42166Y38667D01*
X42000Y38500D01*
X41416Y38500D01*
D18*
X43250Y38750D02*
X43250Y38667D01*
X43083Y38500D01*
X42666Y38500D01*
X42500Y38667D01*
X42500Y39333D01*
X42666Y39500D01*
X43083Y39500D01*
X43250Y39333D01*
X43250Y39250D01*
D18*
X43583Y38667D02*
X43583Y38625D01*
X43708Y38500D01*
X44041Y38500D01*
X44166Y38625D01*
X44166Y38917D01*
X44041Y39042D01*
X43583Y39042D01*
X43583Y39500D01*
X44083Y39500D01*
D18*
X45000Y38500D02*
X45000Y39500D01*
X44916Y39500D01*
X44500Y38875D01*
X44500Y38708D01*
X45083Y38708D01*
D18*
X45666Y38500D02*
X45666Y38833D01*
X46000Y39333D01*
X46000Y39500D01*
X45416Y39500D01*
D18*
X35289Y38508D02*
X35289Y39508D01*
X35873Y39508D01*
X36039Y39341D01*
X36039Y39174D01*
X35873Y39008D01*
X35289Y39008D01*
D18*
X35873Y39008D02*
X36039Y38841D01*
X36039Y38674D01*
X35873Y38508D01*
X35289Y38508D01*
D18*
X37123Y38758D02*
X37123Y38674D01*
X36956Y38508D01*
X36539Y38508D01*
X36373Y38674D01*
X36373Y39341D01*
X36539Y39508D01*
X36956Y39508D01*
X37123Y39341D01*
X37123Y39258D01*
D18*
X37456Y38674D02*
X37456Y38633D01*
X37581Y38508D01*
X37914Y38508D01*
X38039Y38633D01*
X38039Y38924D01*
X37914Y39049D01*
X37456Y39049D01*
X37456Y39508D01*
X37956Y39508D01*
D18*
X38873Y38508D02*
X38873Y39508D01*
X38789Y39508D01*
X38373Y38883D01*
X38373Y38716D01*
X38956Y38716D01*
D18*
X39539Y38508D02*
X39539Y38841D01*
X39873Y39341D01*
X39873Y39508D01*
X39289Y39508D01*
D18*
X9419Y38735D02*
X9419Y39735D01*
X10002Y39735D01*
X10169Y39568D01*
X10169Y39401D01*
X10002Y39235D01*
X9419Y39235D01*
D18*
X10002Y39235D02*
X10169Y39068D01*
X10169Y38901D01*
X10002Y38735D01*
X9419Y38735D01*
D18*
X11252Y38985D02*
X11252Y38901D01*
X11086Y38735D01*
X10669Y38735D01*
X10502Y38901D01*
X10502Y39568D01*
X10669Y39735D01*
X11086Y39735D01*
X11252Y39568D01*
X11252Y39485D01*
D18*
X11586Y38901D02*
X11586Y38860D01*
X11711Y38735D01*
X12044Y38735D01*
X12169Y38860D01*
X12169Y39151D01*
X12044Y39276D01*
X11586Y39276D01*
X11586Y39735D01*
X12086Y39735D01*
D18*
X13002Y38735D02*
X13002Y39735D01*
X12919Y39735D01*
X12502Y39110D01*
X12502Y38943D01*
X13086Y38943D01*
D18*
X13669Y38735D02*
X13669Y39068D01*
X14002Y39568D01*
X14002Y39735D01*
X13419Y39735D01*
D18*
X35106Y28500D02*
X35106Y29500D01*
X35023Y29500D01*
X34898Y29333D01*
D18*
X34898Y28500D02*
X35273Y28500D01*
D18*
X35606Y29250D02*
X35606Y28500D01*
D18*
X35606Y29042D02*
X35814Y29250D01*
X35981Y29250D01*
X36106Y29125D01*
X36106Y28500D01*
D18*
X36106Y29125D02*
X36189Y29250D01*
X36398Y29250D01*
X36606Y29042D01*
X36606Y28500D01*
D18*
X37023Y29500D02*
X37023Y29500D01*
D18*
X36939Y29250D02*
X37023Y29250D01*
X37023Y28500D01*
D18*
X36939Y28500D02*
X37106Y28500D01*
D18*
X37439Y28500D02*
X37439Y29500D01*
X38023Y29500D01*
D18*
X37939Y29000D02*
X37439Y29000D01*
D18*
X33960Y35857D02*
X34960Y35857D01*
X34960Y35940D01*
X34793Y36065D01*
D18*
X33960Y36065D02*
X33960Y35690D01*
D18*
X33960Y35357D02*
X34960Y35357D01*
D18*
X34877Y35357D02*
X34252Y34690D01*
D18*
X33960Y34690D02*
X34960Y34690D01*
D18*
X33960Y33857D02*
X34960Y33857D01*
X34960Y33940D01*
X34335Y34357D01*
X34168Y34357D01*
X34168Y33774D01*
D18*
X33960Y33315D02*
X34085Y33440D01*
X34835Y33440D01*
X34960Y33315D01*
X34960Y32982D01*
X34835Y32857D01*
X34085Y32857D01*
X33960Y32982D01*
X33960Y33315D01*
D18*
X34210Y33440D02*
X34710Y32857D01*
D18*
X33960Y32399D02*
X34085Y32524D01*
X34835Y32524D01*
X34960Y32399D01*
X34960Y32065D01*
X34835Y31940D01*
X34085Y31940D01*
X33960Y32065D01*
X33960Y32399D01*
D18*
X34210Y32524D02*
X34710Y31940D01*
D18*
X34460Y31149D02*
X34335Y31024D01*
X34085Y31024D01*
X33960Y31149D01*
X33960Y31482D01*
X34085Y31607D01*
X34335Y31607D01*
X34460Y31482D01*
X34460Y31149D01*
X34585Y31024D01*
X34835Y31024D01*
X34960Y31149D01*
X34960Y31482D01*
X34835Y31607D01*
X34585Y31607D01*
X34460Y31482D01*
D18*
X83085Y35513D02*
X83252Y35346D01*
X83668Y35346D01*
X83835Y35513D01*
X83835Y35680D01*
X83668Y35846D01*
X83252Y35846D01*
X83085Y36013D01*
X83085Y36180D01*
X83252Y36346D01*
X83668Y36346D01*
X83835Y36180D01*
D18*
X84918Y35596D02*
X84918Y35513D01*
X84752Y35346D01*
X84335Y35346D01*
X84168Y35513D01*
X84168Y36180D01*
X84335Y36346D01*
X84752Y36346D01*
X84918Y36180D01*
X84918Y36096D01*
D18*
X85835Y35346D02*
X85252Y35346D01*
X85252Y36346D01*
D18*
X82786Y37937D02*
X82953Y37770D01*
X83369Y37770D01*
X83536Y37937D01*
X83536Y38103D01*
X83369Y38270D01*
X82953Y38270D01*
X82786Y38437D01*
X82786Y38603D01*
X82953Y38770D01*
X83369Y38770D01*
X83536Y38603D01*
D18*
X83869Y37770D02*
X83869Y38770D01*
X84453Y38770D01*
X84619Y38603D01*
X84619Y37937D01*
X84453Y37770D01*
X83869Y37770D01*
D18*
X84953Y37770D02*
X84953Y38270D01*
X85286Y38770D01*
X85369Y38770D01*
X85703Y38270D01*
X85703Y37770D01*
D18*
X84953Y38020D02*
X85703Y38020D01*
D18*
X66731Y36100D02*
X66731Y37100D01*
X67314Y37100D01*
X67481Y36933D01*
X67481Y36267D01*
X67314Y36100D01*
X66731Y36100D01*
D18*
X67814Y36267D02*
X67981Y36100D01*
X68398Y36100D01*
X68564Y36267D01*
X68564Y36433D01*
X68398Y36600D01*
X67981Y36600D01*
X67814Y36767D01*
X67814Y36933D01*
X67981Y37100D01*
X68398Y37100D01*
X68564Y36933D01*
D18*
X69106Y36100D02*
X69106Y37100D01*
X69023Y37100D01*
X68898Y36933D01*
D18*
X68898Y36100D02*
X69273Y36100D01*
D18*
X69606Y36933D02*
X69606Y36975D01*
X69731Y37100D01*
X70064Y37100D01*
X70189Y36975D01*
X70189Y36808D01*
X69981Y36600D01*
X70189Y36392D01*
X70189Y36225D01*
X70064Y36100D01*
X69731Y36100D01*
X69606Y36225D01*
X69606Y36267D01*
D18*
X69856Y36600D02*
X69981Y36600D01*
D18*
X70648Y36100D02*
X70523Y36225D01*
X70523Y36975D01*
X70648Y37100D01*
X70981Y37100D01*
X71106Y36975D01*
X71106Y36225D01*
X70981Y36100D01*
X70648Y36100D01*
D18*
X70523Y36350D02*
X71106Y36850D01*
D18*
X71689Y36100D02*
X71689Y36433D01*
X72023Y36933D01*
X72023Y37100D01*
X71439Y37100D01*
D18*
X73439Y36100D02*
X73439Y37100D01*
X73939Y37100D01*
X74106Y36933D01*
X74106Y36767D01*
X73939Y36600D01*
X73439Y36600D01*
D18*
X73939Y36600D02*
X74106Y36433D01*
X74106Y36100D01*
D18*
X74773Y36100D02*
X74773Y37100D01*
D18*
X74439Y37100D02*
X75106Y37100D01*
D18*
X76189Y36350D02*
X76189Y36267D01*
X76023Y36100D01*
X75606Y36100D01*
X75439Y36267D01*
X75439Y36933D01*
X75606Y37100D01*
X76023Y37100D01*
X76189Y36933D01*
X76189Y36850D01*
D18*
X4377Y10014D02*
X4377Y11014D01*
X4960Y11014D01*
X5127Y10847D01*
X5127Y10681D01*
X4960Y10514D01*
X4377Y10514D01*
D18*
X4960Y10514D02*
X5127Y10347D01*
X5127Y10181D01*
X4960Y10014D01*
X4377Y10014D01*
D18*
X6210Y10764D02*
X6210Y10014D01*
D18*
X5460Y10764D02*
X5460Y10222D01*
X5668Y10014D01*
X6002Y10014D01*
X6210Y10222D01*
D18*
X6543Y10764D02*
X7293Y10764D01*
X7293Y10722D01*
X6543Y10056D01*
X6543Y10014D01*
X7293Y10014D01*
D18*
X7627Y10764D02*
X8377Y10764D01*
X8377Y10722D01*
X7627Y10056D01*
X7627Y10014D01*
X8377Y10014D01*
D18*
X9377Y10014D02*
X8918Y10014D01*
X8710Y10222D01*
X8710Y10556D01*
X8918Y10764D01*
X9252Y10764D01*
X9460Y10556D01*
X9460Y10389D01*
X8710Y10389D01*
D18*
X9793Y10014D02*
X9793Y10764D01*
D18*
X9793Y10431D02*
X10085Y10764D01*
X10418Y10764D01*
X10543Y10639D01*
X10543Y10597D01*
M02*
